<?xml version="1.0" encoding="UTF-8"?>
<svg width="14px" height="14px" viewBox="0 0 14 14" version="1.1" xmlns="http://www.w3.org/2000/svg" xmlns:xlink="http://www.w3.org/1999/xlink">
    <title>vip_icon_help</title>
    <g id="个人中心" stroke="none" stroke-width="1" fill="none" fill-rule="evenodd">
        <g id="-个人中心-切图" transform="translate(-676.000000, -2379.000000)">
            <g id="VIP" transform="translate(80.000000, 2251.000000)">
                <g id="vip_icon_help" transform="translate(596.000000, 128.000000)">
                    <circle id="椭圆形" stroke="#9AA4C2" stroke-width="1.3" cx="7" cy="7" r="6.35"></circle>
                    <path d="M7.65,9.129 L7.65,8.925 C7.65,8.621 7.714,8.353 7.842,8.121 C7.946,7.913 8.11,7.709 8.334,7.509 C8.894,7.029 9.234,6.717 9.354,6.573 C9.65,6.181 9.798,5.693 9.798,5.109 C9.798,4.389 9.562,3.817 9.09,3.393 C8.618,2.969 7.99,2.757 7.206,2.757 C6.326,2.757 5.634,3.013 5.13,3.525 C4.618,4.029 4.362,4.717 4.362,5.589 L5.634,5.589 C5.634,5.053 5.742,4.641 5.958,4.353 C6.198,4.017 6.59,3.849 7.134,3.849 C7.566,3.849 7.902,3.969 8.142,4.209 C8.374,4.457 8.49,4.785 8.49,5.193 C8.49,5.497 8.382,5.789 8.166,6.069 L7.962,6.297 C7.218,6.961 6.762,7.457 6.594,7.785 C6.442,8.089 6.366,8.469 6.366,8.925 L6.366,9.129 L7.65,9.129 Z M7.002,11.493 C7.242,11.493 7.454,11.413 7.638,11.253 C7.806,11.085 7.89,10.877 7.89,10.629 C7.89,10.373 7.806,10.169 7.638,10.017 C7.478,9.857 7.266,9.777 7.002,9.777 C6.746,9.777 6.542,9.857 6.39,10.017 C6.214,10.169 6.126,10.373 6.126,10.629 C6.126,10.869 6.214,11.073 6.39,11.241 C6.55,11.409 6.754,11.493 7.002,11.493 Z" id="形状" fill="#9AA4C2" fill-rule="nonzero"></path>
                </g>
            </g>
        </g>
    </g>
</svg>