<?xml version="1.0" encoding="UTF-8"?>
<svg width="90px" height="34px" viewBox="0 0 90 34" version="1.1" xmlns="http://www.w3.org/2000/svg" xmlns:xlink="http://www.w3.org/1999/xlink">
    <title>footer_board</title>
    <defs>
        <rect id="path-1" x="0" y="0" width="90" height="34"></rect>
    </defs>
    <g id="模版编号_首页" stroke="none" stroke-width="1" fill="none" fill-rule="evenodd">
        <g id="标准footer文件" transform="translate(-530.000000, -27.000000)">
            <g id="合作品牌" transform="translate(299.000000, 27.000000)">
                <g id="ob-board" transform="translate(231.000000, 0.000000)">
                    <mask id="mask-2" fill="white">
                        <use xlink:href="#path-1"></use>
                    </mask>
                    <use id="蒙版" fill="#D8D8D8" opacity="0" xlink:href="#path-1"></use>
                    <path d="M16,2 C24.2842712,2 31,8.71572875 31,17 C31,25.2842712 24.2842712,32 16,32 C7.71572875,32 1,25.2842712 1,17 C1,8.71572875 7.71572875,2 16,2 Z M16.2909323,23.8486916 C15.9085798,24.0346107 15.6670631,24.1550769 15.2533248,24.2588399 L15.2533248,24.2588399 L15.2533248,25.3402595 L15.2464567,25.4678351 C15.1830599,26.054445 14.6885689,26.5108841 14.0882042,26.510654 L14.0882042,26.510654 L13.2044126,26.510654 L13.2044126,27.3580111 L19.7429287,27.3846154 C19.6643545,27.3725594 18.8313597,27.2266273 17.6638057,26.2682363 C16.6834043,25.4633539 16.3619593,24.1483967 16.2909323,23.8486916 Z M20.0104036,18.5965557 C19.566637,19.5583047 17.9430378,22.1147039 16.6125689,23.1981774 C16.7324664,24.6187135 17.3922221,25.3401033 17.570957,25.5916052 L17.570957,25.5916052 L18.1167247,25.1211021 L18.1519381,25.102617 C18.1891821,25.0902936 18.2309891,25.0964553 18.263601,25.1211021 C18.4200128,25.297682 18.5714848,25.4462095 18.7180171,25.5666846 C18.8645494,25.6871597 19.0630311,25.8188864 19.3134623,25.9618646 C19.3396172,25.9814999 19.344567,26.0726741 19.3250325,26.0988819 L19.3250325,26.0988819 L18.9378155,26.7047109 L19.1327326,26.8020758 C20.6903205,27.5291816 22.1916354,27.0339621 22.6073716,26.8428571 L22.6073716,26.8428571 L22.3412707,26.2222408 L22.3264268,26.1933871 C22.3046592,26.1451187 22.2819125,26.0645728 22.3412707,26.0346705 C22.6372926,25.9252025 23.1999309,25.5507391 23.4433557,25.2519337 C23.4818133,25.2047268 23.5431493,25.2365329 23.5909638,25.2745712 L23.5909638,25.2745712 L24.1203994,25.7473973 L24.2631649,25.5861869 C25.3095764,24.3370434 25.2647293,22.8042192 25.2049289,22.3575677 L25.2049289,22.3575677 L24.4564189,22.3790172 L24.415831,22.379424 C24.3811675,22.3789925 24.3636811,22.3723107 24.3580051,22.3257607 C24.2728291,21.6272136 23.9369555,21.0898069 23.9120443,21.0579537 C23.8699989,20.9913021 23.902316,20.9678593 23.9384398,20.939435 L23.9384398,20.939435 L24.5669047,20.5236875 L24.4415628,20.3307772 C23.546225,19.0275043 22.2935462,18.7017074 21.9114873,18.6227368 L21.9114873,18.6227368 L21.7786331,19.3111666 L21.7632019,19.3509917 C21.7414593,19.3869915 21.7022116,19.4103289 21.6583204,19.4103289 C21.3279517,19.3645037 21.0802889,19.3415911 20.9153319,19.3415911 C20.7679009,19.3415911 20.5306076,19.3624424 20.203452,19.4041451 C20.145012,19.4041451 20.0946638,19.3627384 20.083221,19.3050649 L20.083221,19.3050649 Z M20.9185245,19.9206082 C22.5346543,19.9228264 23.847632,21.2462776 23.8455095,22.8707484 C23.8443626,23.6577208 23.5385134,24.3971249 22.9841922,24.9528282 C22.4307702,25.5074634 21.6958982,25.8128373 20.9105146,25.8128373 L20.9105146,25.8128373 L20.7387832,25.8075972 C19.2043947,25.7158324 17.9834504,24.4310348 17.9834504,22.8666406 C17.9840226,22.0790931 18.2896266,21.3391139 18.8440295,20.7826712 C19.3977785,20.2268858 20.133713,19.9207725 20.9185245,19.9206082 Z M20.9407072,21.08747 C20.9239517,21.1066945 20.898941,21.134874 20.8745842,21.1636286 C20.5649752,21.5287299 20.2047727,21.8403477 19.8447337,22.1525405 C19.6452206,22.3256432 19.4672853,22.5184634 19.372065,22.7716682 C19.2676904,23.0494377 19.2976051,23.3138979 19.4843677,23.5470567 C19.6793854,23.7904028 19.9440407,23.8643432 20.2428608,23.8198146 C20.4724521,23.7856377 20.6592964,23.6799029 20.7641614,23.4585746 C20.7720896,23.4419791 20.7885181,23.4295736 20.8011052,23.4151963 C20.8073987,23.4165108 20.813774,23.4177431 20.8201493,23.4190576 C20.8235004,23.4458405 20.8310199,23.4728698 20.829467,23.4994062 C20.8132836,23.7802154 20.6972211,24.008527 20.472779,24.1792472 C20.4389411,24.204962 20.394069,24.2287872 20.4447442,24.2790667 L20.4447442,24.2790667 L21.4549786,24.2790667 L21.4730405,24.2515629 C21.4848181,24.2182614 21.4516929,24.1974529 21.4254725,24.1772754 C21.3120255,24.0896971 21.2104299,23.9883166 21.1608173,23.8532521 C21.117253,23.7349475 21.0969829,23.60777 21.0691116,23.4838787 C21.0647796,23.464572 21.0750781,23.4418148 21.0820256,23.4006547 L21.0820256,23.4006547 L21.1244244,23.4429863 C21.1294041,23.4485242 21.1332456,23.453837 21.1358066,23.4597248 C21.2660092,23.756308 21.6336495,23.8709978 21.9359024,23.8215399 C22.2871142,23.7641128 22.5159699,23.5297217 22.5766166,23.1775189 C22.5780878,23.1692212 22.5860302,23.1217253 22.5881411,23.076359 C22.5895484,23.0461149 22.5895484,23.0125491 22.5881411,22.9756616 C22.5840395,22.938754 22.5745434,22.9038809 22.5655849,22.8754837 C22.5566265,22.8470866 22.5466398,22.8210696 22.5332975,22.7868671 C22.4541447,22.5839612 22.3312506,22.4131394 22.1757922,22.2671482 C21.9765243,22.0799968 21.7631981,21.9077156 21.5654832,21.7189211 C21.3532195,21.5162422 21.1519083,21.301815 20.9407072,21.08747 Z M13.7267103,6.61538462 C10.0654281,6.61538462 7.05769231,10.4459908 7.05769231,15.1709473 C7.05769231,19.8959039 10.0692696,23.8807169 13.7272007,23.7262636 C15.1791265,23.6649752 15.7388421,23.3195913 16.361493,22.8666652 C17.3671503,22.1349838 19.4639587,19.3337103 19.9235499,17.8116058 C20.3330381,16.455703 20.5107282,14.0746575 19.9875478,12.2249149 L19.9875478,12.2249149 L18.0922958,12.2249149 L18.1808294,12.634238 C18.3422356,13.4555298 18.411783,14.2919719 18.4274059,15.1305266 C18.5102026,19.5669512 16.1215215,21.8617329 16.1215215,21.8617329 C16.1215215,21.8617329 15.2821116,22.8559028 13.7267103,22.9593372 C11.136064,23.1315362 9.02593288,19.454151 9.02593288,15.1303623 C9.02593288,10.8065735 11.1305061,7.30146947 13.7267103,7.30146947 C15.122403,7.30146947 16.3758782,8.3153568 17.2367843,9.9245466 L17.2367843,9.9245466 L18.9872033,9.9245466 L18.842942,9.69547546 C17.6159359,7.81361971 15.7736797,6.61538462 13.7267103,6.61538462 Z M20.6776294,10.691284 L13.2044289,10.691284 L13.2044289,11.4176253 L14.0476804,11.4176253 L14.0476804,11.4186933 L14.067787,11.4180464 L14.067787,11.4180464 L14.0878936,11.4177075 C14.7311415,11.417461 15.252769,11.941452 15.2530142,12.5880198 L15.2530142,12.5880198 L15.2530142,21.9193818 L15.3191038,21.8687235 C15.7444381,21.535134 16.6725303,20.6643536 17.2617132,19.0581344 L17.2617132,19.0581344 L17.2617132,11.4176253 L20.5163679,11.4176253 L20.5163679,11.421158 L20.6412104,11.4361632 C21.6311957,11.6074928 22.4033647,12.9969826 22.4033647,14.6865308 C22.4033647,16.2838902 21.7129561,17.612928 20.8008028,17.8979272 C20.7751383,18.002101 20.7480025,18.1059462 20.7194773,18.2093806 C20.7669648,18.2079018 20.8142072,18.2057657 20.8621034,18.2057657 C21.3024054,18.2057657 21.7278318,18.2703404 22.1306995,18.3885629 C23.6162181,17.7847162 24.5993984,16.3404135 24.6144375,14.7234189 C24.634871,12.5174478 22.8722736,10.7124803 20.6776294,10.691284 L20.6776294,10.691284 Z M83.6346256,23.1221455 C83.7592494,23.1221455 83.881926,23.1309081 84.0026553,23.1484334 C84.1233847,23.1659586 84.2382723,23.1893255 84.3473181,23.2185343 C84.456364,23.247743 84.5566472,23.2818198 84.6481678,23.3207647 C84.7396884,23.3597097 84.8204992,23.3986546 84.8906001,23.4375996 L84.8906001,23.4375996 L84.7328731,24.0042485 L84.5881277,23.9305777 C84.4860054,23.8842765 84.3726323,23.8436006 84.2480085,23.8085502 C84.0610728,23.7559745 83.8760843,23.7296867 83.693043,23.7296867 C83.4476899,23.7296867 83.2490706,23.7851832 83.0971853,23.8961763 C82.9453001,24.0071694 82.8693574,24.1678173 82.8693574,24.37812 C82.8693574,24.5572668 82.9453001,24.7140202 83.0971853,24.8483802 C83.2490706,24.9827403 83.4652151,25.1005488 83.7456187,25.2018056 C83.9792884,25.2874845 84.1808285,25.3760843 84.350239,25.4676049 C84.5196495,25.5591255 84.6588777,25.661356 84.7679235,25.7742963 C84.8769694,25.8872367 84.9577801,26.0147814 85.0103558,26.1569304 C85.0629315,26.2990795 85.0892193,26.4636219 85.0892193,26.6505576 C85.0892193,26.8569658 85.0522216,27.042928 84.9782262,27.208444 C84.9042308,27.37396 84.8020004,27.5151354 84.6715348,27.6319703 C84.5410692,27.7488051 84.3852894,27.8393521 84.2041954,27.9036113 C84.0231014,27.9678704 83.8254558,28 83.6112586,28 C83.2880156,28 82.999823,27.9552133 82.7466808,27.8656399 C82.4935387,27.7760666 82.25208,27.6553372 82.0223048,27.5034519 L82.0223048,27.5034519 L82.2326075,26.9426447 L82.381572,27.0421369 C82.5334572,27.1359699 82.6941052,27.2128253 82.8635157,27.2727031 C83.0893964,27.3525403 83.3191715,27.3924588 83.5528412,27.3924588 C83.685254,27.3924588 83.8020889,27.37396 83.9033457,27.3369623 C84.0046026,27.2999646 84.0893078,27.2493362 84.1574615,27.185077 C84.2256152,27.1208178 84.2772172,27.0468224 84.3122677,26.9630908 C84.3473181,26.8793592 84.3648433,26.7907594 84.3648433,26.6972916 C84.3648433,26.5921402 84.3453709,26.4986723 84.3064259,26.4168879 C84.267481,26.3351036 84.2080899,26.2591609 84.1282528,26.18906 C84.0484156,26.1189591 83.9481324,26.0537263 83.8274031,25.9933617 C83.7066737,25.932997 83.5664719,25.8716587 83.4067977,25.8093468 C82.9900867,25.653567 82.6785272,25.4676049 82.472119,25.2514604 C82.2657107,25.035316 82.1625066,24.7578332 82.1625066,24.4190122 C82.1625066,24.2320765 82.1965835,24.0597451 82.2647371,23.9020181 C82.3328908,23.744291 82.4302531,23.6070101 82.5568242,23.4901753 C82.6833953,23.3733404 82.8372278,23.2827934 83.0183218,23.2185343 C83.1994158,23.1542751 83.4048504,23.1221455 83.6346256,23.1221455 Z M39.1147106,23.1221455 C39.4340591,23.1221455 39.724199,23.1844574 39.9851301,23.3090813 C40.2460612,23.4337051 40.4690211,23.6050628 40.6540096,23.8231545 C40.8389981,24.0412462 40.9811471,24.2992565 41.0804567,24.5971853 C41.1797663,24.8951142 41.2294211,25.2173836 41.2294211,25.5639936 C41.2294211,25.9106036 41.18074,26.2328731 41.0833776,26.5308019 C40.9860152,26.8287307 40.8458134,27.086741 40.6627722,27.3048327 C40.4797309,27.5229244 40.2577447,27.6933086 39.9968136,27.8159851 C39.7358825,27.9386617 39.4418481,28 39.1147106,28 C38.7992565,28 38.5120375,27.9376881 38.2530536,27.8130643 C37.9940697,27.6884404 37.7711099,27.516109 37.5841742,27.2960701 C37.3972384,27.0760312 37.2531421,26.8180209 37.1518853,26.5220393 C37.0506284,26.2260577 37,25.9067092 37,25.5639936 C37,25.2134891 37.0516021,24.8892724 37.1548062,24.5913436 C37.2580103,24.2934148 37.4021066,24.0354045 37.5870951,23.8173128 C37.7720836,23.5992211 37.9940697,23.428837 38.2530536,23.3061604 C38.5120375,23.1834838 38.7992565,23.1221455 39.1147106,23.1221455 Z M89.448752,23.2389804 L89.448752,23.8231545 L88.0876261,23.8231545 L88.0876261,27.8831652 L87.3924588,27.8831652 L87.3924588,23.8231545 L86.031333,23.8231545 L86.031333,23.2389804 L89.448752,23.2389804 Z M80.9341476,23.2389804 L80.9341476,23.834838 L78.7026022,23.834838 L78.7026022,25.2426978 L80.7121614,25.2426978 L80.7121614,25.7976633 L78.7026022,25.7976633 L78.7026022,27.2873075 L80.9750398,27.2873075 L80.9750398,27.8831652 L77.9957515,27.8831652 L77.9957515,23.2389804 L80.9341476,23.2389804 Z M75.1959639,23.2389804 L75.3968549,23.2474184 C75.5271041,23.2586692 75.649997,23.2811707 75.7655337,23.314923 C75.9388387,23.3655514 76.0887768,23.4405204 76.2153478,23.5398301 C76.3419189,23.6391397 76.4402549,23.7618163 76.5103558,23.9078598 C76.5804567,24.0539033 76.6155072,24.2223402 76.6155072,24.4131705 C76.6155072,24.6663126 76.5463799,24.8805098 76.4081253,25.0557621 C76.2698708,25.2310143 76.0839087,25.3595327 75.850239,25.441317 L75.850239,25.441317 L75.850239,25.4705258 L76.0013941,25.5219655 C76.2423659,25.6155416 76.4285714,25.748333 76.5600106,25.9203399 C76.7177377,26.1267481 76.7966012,26.3643123 76.7966012,26.6330324 C76.7966012,26.8316516 76.7615507,27.0088511 76.6914498,27.1646309 C76.6213489,27.3204107 76.5239865,27.4508763 76.3993627,27.5560276 C76.2747389,27.661179 76.1248008,27.7419897 75.9495486,27.7984599 C75.7742963,27.8549301 75.5815189,27.8831652 75.3712161,27.8831652 L75.3712161,27.8831652 L73.4317578,27.8831652 L73.4317578,23.2389804 L75.1959639,23.2389804 Z M69.6898566,23.2389804 L69.6898566,23.834838 L67.4583112,23.834838 L67.4583112,25.2426978 L69.4678704,25.2426978 L69.4678704,25.7976633 L67.4583112,25.7976633 L67.4583112,27.2873075 L69.7307488,27.2873075 L69.7307488,27.8831652 L66.7514604,27.8831652 L66.7514604,23.2389804 L69.6898566,23.2389804 Z M62.613914,23.2389804 L62.613914,25.2193309 L64.7169411,25.2193309 L64.7169411,23.2389804 L65.4121083,23.2389804 L65.4121083,27.8831652 L64.7169411,27.8831652 L64.7169411,25.8151885 L62.613914,25.8151885 L62.613914,27.8831652 L61.9187467,27.8831652 L61.9187467,23.2389804 L62.613914,23.2389804 Z M60.8305895,23.2389804 L60.8305895,23.8231545 L59.4694636,23.8231545 L59.4694636,27.8831652 L58.7742963,27.8831652 L58.7742963,23.8231545 L57.4131705,23.8231545 L57.4131705,23.2389804 L60.8305895,23.2389804 Z M51.2235794,23.2331386 L52.2634095,25.5523101 L53.3090813,23.2331386 L54.0451407,23.2331386 L52.6080722,26.1072756 L52.6080722,27.8831652 L51.9129049,27.8831652 L51.9129049,26.1014339 L50.4699947,23.2331386 L51.2235794,23.2331386 Z M48.0031864,23.2331386 L48.0031864,27.2873075 L50.1529474,27.2873075 L50.1529474,27.8831652 L47.3080191,27.8831652 L47.3080191,23.2331386 L48.0031864,23.2331386 Z M43.4625597,23.2389804 L45.2618163,27.0828465 L45.2734997,27.0828465 L45.2734997,23.2389804 L45.968667,23.2389804 L45.968667,27.8831652 L44.9814126,27.8831652 L43.1996814,24.1035582 L43.1879979,24.0977164 L43.1879979,27.8831652 L42.4928306,27.8831652 L42.4928306,23.2389804 L43.4625597,23.2389804 Z M39.1147106,23.7472119 C38.8927244,23.7472119 38.6950788,23.7949195 38.5217738,23.8903346 C38.3484688,23.9857497 38.2014516,24.1152416 38.0807223,24.2788104 C37.9599929,24.4423792 37.8674987,24.6351567 37.8032395,24.8571429 C37.7389804,25.079129 37.7068508,25.314746 37.7068508,25.5639936 C37.7068508,25.8171358 37.739954,26.0537263 37.8061604,26.2737653 C37.8723668,26.4938042 37.9658347,26.6856081 38.086564,26.8491768 C38.2072933,27.0127456 38.3543105,27.1412639 38.5276155,27.2347318 C38.7009205,27.3281997 38.8966189,27.3749336 39.1147106,27.3749336 C39.3366968,27.3749336 39.5362896,27.3281997 39.7134891,27.2347318 C39.8906886,27.1412639 40.039653,27.0127456 40.1603824,26.8491768 C40.2811117,26.6856081 40.3736059,26.4938042 40.4378651,26.2737653 C40.5021243,26.0537263 40.5342539,25.8171358 40.5342539,25.5639936 C40.5342539,25.314746 40.5011506,25.079129 40.4349442,24.8571429 C40.3687378,24.6351567 40.2742963,24.4423792 40.1516198,24.2788104 C40.0289432,24.1152416 39.8799788,23.9857497 39.7047265,23.8903346 C39.5294742,23.7949195 39.3328023,23.7472119 39.1147106,23.7472119 Z M75.1609134,25.7334041 L74.1269251,25.7334041 L74.1269251,27.2873075 L75.2543813,27.2873075 C75.5075235,27.2873075 75.7119844,27.2249956 75.8677642,27.1003717 C76.023544,26.9757479 76.1014339,26.7946539 76.1014339,26.5570898 C76.1014339,26.4402549 76.0780669,26.3312091 76.031333,26.2299522 C75.984599,26.1286953 75.9183926,26.0420428 75.8327138,25.9699947 C75.7470349,25.8979465 75.6467516,25.8405027 75.531864,25.7976633 C75.4169765,25.7548239 75.2933263,25.7334041 75.1609134,25.7334041 L75.1609134,25.7334041 Z M75.0966543,23.8231545 L74.1269251,23.8231545 L74.1269251,25.2193309 L75.1200212,25.2193309 C75.2290671,25.2193309 75.3322712,25.2027793 75.4296336,25.169676 C75.5269959,25.1365728 75.6117012,25.0888653 75.6837493,25.0265534 C75.7557975,24.9642415 75.8132413,24.8892724 75.8560807,24.8016463 C75.8989202,24.7140202 75.9203399,24.6156842 75.9203399,24.5066383 C75.9203399,24.2768632 75.84245,24.1055054 75.6866702,23.9925651 C75.5308904,23.8796247 75.3342184,23.8231545 75.0966543,23.8231545 L75.0966543,23.8231545 Z M63.8120021,6.01486989 L63.8120021,7.72490706 L65.2246415,7.72490706 L65.2246415,9.24163569 L63.8120021,9.24163569 L63.8120021,19.5464684 L62.0424854,19.5464684 L62.0424854,9.24163569 L60.2432289,9.24163569 L60.2432289,7.72490706 L62.0424854,7.72490706 L62.0424854,6.01486989 L63.8120021,6.01486989 Z M87.1683484,13.7174721 L87.1683484,15.7843866 L89.2055231,15.7843866 L89.2055231,17.4052045 L87.1683484,17.4052045 L87.1683484,19.5464684 L85.2947424,19.5464684 L85.2947424,17.4052045 L80.9973447,17.4052045 L80.9973447,15.7843866 L85.2947424,15.7843866 L85.2947424,13.7174721 L87.1683484,13.7174721 Z M80.2538502,6.01486989 L80.2538502,9.91078067 L80.9378651,9.91078067 L80.9378651,11.4126394 L77.7705789,11.4126394 L77.7705789,12.5873606 L80.5958577,12.5873606 L80.5958577,19.5464684 L79.0345194,19.5464684 L79.0345194,14.2081784 L77.7705789,14.2081784 L77.7705789,15.8289963 L77.7664483,16.2327551 C77.7526799,16.8929506 77.7044905,17.4894672 77.62188,18.0223048 C77.5227474,18.66171 77.3988317,19.1697646 77.2501328,19.5464684 L77.2501328,19.5464684 L75.5995751,19.5464684 L75.6595194,19.3959108 C75.7199283,19.2360595 75.7817313,19.0483271 75.8449283,18.8327138 C75.929191,18.5452292 76.0035404,18.2354399 76.0679766,17.9033457 C76.1324128,17.5712515 76.1869357,17.2267658 76.2315454,16.8698885 C76.2761551,16.5130112 76.2984599,16.1710037 76.2984599,15.8438662 L76.2984599,15.8438662 L76.2984599,6.19330855 L77.7705789,6.19330855 L77.7705789,9.91078067 L78.7222517,9.91078067 L78.7222517,6.01486989 L80.2538502,6.01486989 Z M68.8826341,16.2156134 L68.8000236,16.4898802 C68.742747,16.6771307 68.6810645,16.8731929 68.6149761,17.0780669 C68.5158435,17.3853779 68.4142326,17.6902107 68.3101434,17.9925651 C68.2060542,18.2949195 68.0994866,18.582404 67.9904408,18.8550186 C67.8813949,19.1276332 67.7773057,19.3581165 67.6781731,19.5464684 L67.6781731,19.5464684 L65.6409984,19.5464684 L65.7306824,19.3824349 C65.8208311,19.2105019 65.9123739,19.0148699 66.0053107,18.795539 C66.1292264,18.5030979 66.2481855,18.2057001 66.362188,17.9033457 C66.4761905,17.6009913 66.582758,17.3011152 66.6818906,17.0037175 C66.7810232,16.7063197 66.8603293,16.4436183 66.9198088,16.2156134 L66.9198088,16.2156134 L68.8826341,16.2156134 Z M72.3175783,16.2156134 L72.409276,16.4510533 C72.47206,16.6129698 72.5381483,16.7847997 72.6075412,16.9665428 C72.7116304,17.2391574 72.8157196,17.5241636 72.9198088,17.8215613 C73.023898,18.1189591 73.1230306,18.4163569 73.2172066,18.7137546 C73.3113825,19.0111524 73.3981236,19.2887237 73.4774296,19.5464684 L73.4774296,19.5464684 L71.4402549,19.5464684 L71.4002921,19.4056691 C71.3575412,19.2578996 71.3064259,19.0892193 71.2469464,18.8996283 C71.1676403,18.6468401 71.0808993,18.3717472 70.9867233,18.0743494 C70.8925474,17.7769517 70.7934148,17.4671623 70.6893255,17.1449814 C70.5852363,16.8228005 70.4786688,16.5130112 70.3696229,16.2156134 L70.3696229,16.2156134 L72.3175783,16.2156134 Z M42.7349973,6.72862454 C43.5379713,6.72862454 44.2740308,6.88228005 44.9431758,7.18959108 C45.6123208,7.49690211 46.1872898,7.92812887 46.6680828,8.48327138 C47.1488759,9.03841388 47.5206231,9.6976456 47.7833245,10.4609665 C48.0460258,11.2242875 48.1773765,12.0570012 48.1773765,12.9591078 C48.1773765,13.8612144 48.0460258,14.6914498 47.7833245,15.4498141 C47.5206231,16.2081784 47.1513542,16.8599752 46.6755178,17.4052045 C46.1996814,17.9504337 45.6271907,18.3767038 44.9580457,18.6840149 C44.2889007,18.9913259 43.5478846,19.1449814 42.7349973,19.1449814 C41.9419366,19.1449814 41.2108338,18.9913259 40.5416888,18.6840149 C39.8725438,18.3767038 39.2975748,17.9479554 38.8167817,17.3977695 C38.3359887,16.8475836 37.9592848,16.1933086 37.6866702,15.4349442 C37.4140556,14.6765799 37.2777483,13.8513011 37.2777483,12.9591078 C37.2777483,12.047088 37.4140556,11.2094176 37.6866702,10.4460967 C37.9592848,9.68277571 38.338467,9.0260223 38.8242167,8.47583643 C39.3099664,7.92565056 39.8874137,7.49690211 40.5565587,7.18959108 C41.2257037,6.88228005 41.9518499,6.72862454 42.7349973,6.72862454 Z M61.7302177,9.77695167 L61.7269133,10.5187939 C61.7225074,11.0122539 61.7136956,11.5035109 61.700478,11.9925651 C61.6806514,12.7261462 61.65339,13.472119 61.6186936,14.2304833 C61.5839972,14.9888476 61.5443441,15.7645601 61.4997345,16.5576208 C61.4551248,17.3506815 61.4030802,18.173482 61.3436006,19.0260223 L61.3436006,19.0260223 L60.0796601,19.0260223 L60.1260542,18.475539 C60.1863268,17.7530607 60.2402549,17.0765799 60.2878386,16.4460967 C60.3473181,15.6579926 60.3968844,14.8996283 60.4365374,14.1710037 C60.4761905,13.4423792 60.5059303,12.7211896 60.5257568,12.0074349 C60.5455833,11.2936803 60.5604532,10.5501859 60.5703664,9.77695167 L60.5703664,9.77695167 L61.7302177,9.77695167 Z M54.4928306,7.0260223 L54.8202655,7.03405204 C55.2493114,7.05546468 55.6482209,7.1197026 56.0169942,7.2267658 C56.4779607,7.3605948 56.8744911,7.55638166 57.2065852,7.81412639 C57.5386794,8.07187113 57.7964241,8.3866171 57.9798194,8.75836431 C58.1632147,9.13011152 58.2549124,9.55390335 58.2549124,10.0297398 C58.2549124,10.6542751 58.0814303,11.1920694 57.7344663,11.6431227 C57.3875022,12.094176 56.921579,12.4237918 56.3366968,12.6319703 L56.3366968,12.6319703 L56.3366968,12.6765799 L56.5907699,12.7579054 C57.2496957,12.98897 57.7598002,13.3336087 58.1210834,13.7918216 C58.527527,14.307311 58.7307488,14.9169765 58.7307488,15.6208178 C58.7307488,16.1363073 58.6390512,16.5947955 58.4556559,16.9962825 C58.2722606,17.3977695 58.0145158,17.7348203 57.6824217,18.0074349 C57.3503275,18.2800496 56.9513188,18.488228 56.4853956,18.6319703 C56.0194725,18.7757125 55.5089396,18.8475836 54.9537971,18.8475836 L54.9537971,18.8475836 L49.8831652,18.8475836 L49.8831652,7.0260223 L54.4928306,7.0260223 Z M42.7349973,8.66171004 C42.2492477,8.66171004 41.8056293,8.76827757 41.4041423,8.98141264 C41.0026553,9.19454771 40.6581696,9.48946716 40.3706851,9.866171 C40.0832006,10.2428748 39.8601522,10.6964064 39.7015401,11.2267658 C39.542928,11.7571252 39.4636219,12.3345725 39.4636219,12.9591078 C39.4636219,13.5836431 39.542928,14.1561338 39.7015401,14.6765799 C39.8601522,15.197026 40.0832006,15.645601 40.3706851,16.0223048 C40.6581696,16.3990087 41.0026553,16.6939281 41.4041423,16.9070632 C41.8056293,17.1201983 42.2492477,17.2267658 42.7349973,17.2267658 C43.2306603,17.2267658 43.6792353,17.1226766 44.0807223,16.9144981 C44.4822092,16.7063197 44.826695,16.4138786 45.1141795,16.0371747 C45.401664,15.6604709 45.622234,15.2094176 45.7758895,14.6840149 C45.9295451,14.1586121 46.0063728,13.5836431 46.0063728,12.9591078 C46.0063728,12.3345725 45.9270667,11.7571252 45.7684546,11.2267658 C45.6098424,10.6964064 45.3867941,10.2428748 45.0993096,9.866171 C44.8118251,9.48946716 44.4673394,9.19454771 44.0658524,8.98141264 C43.6643654,8.76827757 43.220747,8.66171004 42.7349973,8.66171004 Z M54.4036113,13.5092937 L52.0541689,13.5092937 L52.0541689,17.0483271 L54.6266596,17.0483271 C55.1917153,17.0483271 55.6551602,16.8996283 56.0169942,16.6022305 C56.3788281,16.3048327 56.5597451,15.8884758 56.5597451,15.3531599 C56.5597451,15.0954151 56.5052222,14.8550186 56.3961763,14.6319703 C56.2871305,14.4089219 56.1359533,14.2131351 55.9426447,14.0446097 C55.7493362,13.8760843 55.5213312,13.7447336 55.2586298,13.6505576 C54.9959285,13.5563817 54.7109223,13.5092937 54.4036113,13.5092937 L54.4036113,13.5092937 Z M65.0462029,9.77695167 L65.0850298,10.3552251 C65.1103637,10.7363348 65.1345961,11.1086328 65.157727,11.472119 C65.1924234,12.0173482 65.2221632,12.5650558 65.2469464,13.1152416 C65.2717295,13.6654275 65.291556,14.2329616 65.3064259,14.8178439 C65.3212958,15.4027261 65.3336874,16.0272615 65.3436006,16.6914498 L65.3436006,16.6914498 L64.2878386,16.6914498 L64.2853602,16.0570012 C64.2820558,15.6406444 64.275447,15.2375052 64.2655337,14.8475836 C64.2506638,14.2627014 64.2333156,13.6902107 64.2134891,13.1301115 C64.1936626,12.5700124 64.1688794,12.0148699 64.1391397,11.464684 C64.1093999,10.9144981 64.0747035,10.3519207 64.0350505,9.77695167 L64.0350505,9.77695167 L65.0462029,9.77695167 Z M68.0499203,6.01486989 L68.0499203,7.01115242 L71.2469464,7.01115242 L71.2469464,6.01486989 L73.0610728,6.01486989 L73.0610728,7.01115242 L73.700478,7.01115242 L73.700478,8.48327138 L73.0610728,8.48327138 L73.0610728,14.2825279 L73.7896973,14.2825279 L73.7896973,15.7843866 L65.5071694,15.7843866 L65.5071694,14.2825279 L66.2357939,14.2825279 L66.2357939,8.48327138 L65.5963887,8.48327138 L65.5963887,7.01115242 L66.2357939,7.01115242 L66.2357939,6.01486989 L68.0499203,6.01486989 Z M85.7110993,6 L85.6757833,6.14591078 C85.6348911,6.2964684 85.5772703,6.46096654 85.5029209,6.6394052 L85.5029209,6.6394052 L88.8783856,6.6394052 L88.8783856,13.3754647 L84.4025491,13.3754647 L84.3480262,13.6500987 C84.1894141,14.3658115 83.9250605,14.9483684 83.5549655,15.3977695 L83.5549655,15.3977695 L81.3839618,15.3977695 L81.5786644,15.1789033 C81.7673261,14.9567844 81.9378651,14.7249071 82.0902815,14.4832714 C82.2935033,14.1610905 82.4496371,13.7918216 82.558683,13.3754647 L82.558683,13.3754647 L81.3096123,13.3754647 L81.3096123,6.6394052 L83.6887945,6.6394052 L83.7594264,6.47583643 L83.7594264,6.47583643 L83.8226235,6.31226766 C83.8622765,6.20322181 83.8969729,6.09913259 83.9267127,6 L83.9267127,6 L85.7110993,6 Z M71.2469464,13.2565056 L68.0499203,13.2565056 L68.0499203,14.2825279 L71.2469464,14.2825279 L71.2469464,13.2565056 Z M54.2400425,8.81040892 L52.0541689,8.81040892 L52.0541689,11.9776952 L54.2549124,11.9776952 C54.7704018,11.9776952 55.2041069,11.8339529 55.5560276,11.5464684 C55.9079483,11.2589839 56.0839087,10.8624535 56.0839087,10.3568773 C56.0839087,9.85130112 55.9079483,9.46716233 55.5560276,9.20446097 C55.2041069,8.9417596 54.7654452,8.81040892 54.2400425,8.81040892 L54.2400425,8.81040892 Z M87.3021774,10.6394052 L85.9192777,10.6394052 L85.9192777,11.9330855 L87.3021774,11.9330855 L87.3021774,10.6394052 Z M84.2687201,10.6394052 L82.8709506,10.6394052 L82.8709506,11.9330855 L84.2687201,11.9330855 L84.2687201,10.6394052 Z M71.2469464,10.8624535 L68.0499203,10.8624535 L68.0499203,11.9033457 L71.2469464,11.9033457 L71.2469464,10.8624535 Z M71.2469464,8.48327138 L68.0499203,8.48327138 L68.0499203,9.50929368 L71.2469464,9.50929368 L71.2469464,8.48327138 Z M87.3021774,8.08178439 L85.9192777,8.08178439 L85.9192777,9.34572491 L87.3021774,9.34572491 L87.3021774,8.08178439 Z M84.2687201,8.08178439 L82.8709506,8.08178439 L82.8709506,9.34572491 L84.2687201,9.34572491 L84.2687201,8.08178439 Z" id="形状结合" fill="#FFFFFF" opacity="0.400000006" mask="url(#mask-2)"></path>
                </g>
            </g>
        </g>
    </g>
</svg>