<?xml version="1.0" encoding="UTF-8"?>
<svg width="72px" height="34px" viewBox="0 0 72 34" version="1.1" xmlns="http://www.w3.org/2000/svg" xmlns:xlink="http://www.w3.org/1999/xlink">
    <title>footer_tf_hover</title>
    <defs>
        <rect id="path-1" x="0" y="0" width="72" height="34"></rect>
    </defs>
    <g id="模版编号_首页" stroke="none" stroke-width="1" fill="none" fill-rule="evenodd">
        <g id="标准footer文件备份" transform="translate(-1310.000000, -27.000000)">
            <g id="合作品牌" transform="translate(299.000000, 27.000000)">
                <g id="leihuo" transform="translate(1011.000000, 0.000000)">
                    <mask id="mask-2" fill="white">
                        <use xlink:href="#path-1"></use>
                    </mask>
                    <use id="蒙版" fill="#D8D8D8" opacity="0" xlink:href="#path-1"></use>
                    <g mask="url(#mask-2)" id="资源-2">
                        <g transform="translate(1.000000, 1.000000)">
                            <path d="M25.9138426,1.04335188 L25.8856064,1.05974179 C25.5722061,1.24532626 22.7634608,3.0040968 23.1903,6.1904685 C23.6422473,9.56427383 20.4087816,12.5821272 16.7615799,9.84026555 C16.7615799,9.84026555 17.7050034,13.916947 22.2152533,11.6174459 C22.2152533,11.6174459 23.4749082,10.8255818 24.0770654,7.87737117 C24.0770654,7.87737117 25.2234041,9.53332149 24.5645888,12.0159573 C23.9226661,14.4349358 19.7318659,15.6907424 17.7086001,15.0174734 L17.5534759,14.9602989 L12.8956515,30.4751606 L8.59754018,15.0673424 L2.96203377,15.0673424 L-1.22479804e-12,10.8023675 L12.8956515,1.36448243 L12.8760815,1.4165961 C12.6522526,2.01317404 10.5876967,7.53016814 10.8045716,7.48014944 C10.8805291,7.46156286 11.2493699,7.43226167 11.6578454,7.39638764 L12.0117669,7.3641254 C12.4808531,7.31922046 12.9072001,7.26727622 12.9127807,7.21447516 C12.9127807,7.21447516 12.9694388,5.35475525 14.3858918,4.9188431 C14.3858918,4.9188431 14.3705375,4.94572388 14.3445621,4.99556119 L14.2982246,5.08704399 C13.9617971,5.7692651 12.8803789,8.34622881 15.1119063,9.45336127 C15.1119063,9.45336127 14.2080116,6.1298535 15.9235668,4.16566943 C17.0198355,2.91080988 18.512711,2.75733784 19.1543972,2.53422304 C19.55997,2.39642455 19.9120605,2.13919694 20.1623847,1.79781523 C20.2414951,1.70434354 20.2990278,1.59523844 20.3310414,1.47797435 C20.4274727,2.23218534 20.4141639,2.99596937 20.2915125,3.74652312 C20.2533012,3.95416175 19.7644602,3.95158239 19.5523216,4.00445931 C18.7551551,4.22757411 17.1634572,4.8646765 17.2095743,5.68104453 C17.2095743,5.68104453 17.5521349,5.66820504 17.9328243,5.65446067 L18.2207338,5.64416921 C18.4586882,5.6357624 18.681807,5.62816761 18.8157661,5.62429857 C18.830758,5.62391321 18.8442632,5.63311688 18.8490962,5.64701266 C18.8539292,5.66090844 18.8489663,5.67626576 18.8368482,5.68491357 C18.3993948,5.99572668 16.596876,7.38987177 17.9764354,8.36616024 C19.5365101,9.47012712 21.3785578,7.61169689 21.4338983,5.38570759 C21.5149608,3.0046874 23.4805464,1.09946905 25.9138426,1.04335188 Z M36.4333333,22.2 L36.433,23.677 L37.911,23.677 L37.9111111,22.2 L38.7555556,22.2 L38.7555556,26 L37.9111111,26 L37.911,24.522 L36.433,24.522 L36.4333333,26 L35.5888889,26 L35.5888889,22.2 L36.4333333,22.2 Z M43.8222222,22.2 L43.822,22.201 L45.511,24.549 L45.5111111,22.2 L46.3555556,22.2 L46.3555556,26 L45.5111111,26 L45.511,25.987 L43.822,23.639 L43.8222222,26 L42.9777778,26 L42.9777778,22.2 L43.8222222,22.2 Z M53.6963115,22.2 L53.6963115,23.0444444 L52.0555556,23.0444444 C51.7057752,23.0444444 51.4222222,23.3279974 51.4222222,23.6777778 L53.7444444,23.6777778 L53.7444444,24.5222222 L51.4222222,24.5222222 C51.4222222,24.8402044 51.6565635,25.1034531 51.9619662,25.1486886 L52.0555556,25.1555556 L53.6963115,25.1555556 L53.6963115,26 L52.0555556,26 C51.2874105,26 50.6561506,25.4139251 50.5845426,24.6645421 L50.5777778,24.5222222 L50.5777778,23.6777778 C50.5777778,22.8616236 51.2394014,22.2 52.0555556,22.2 L53.6963115,22.2 Z M69.9518671,22.2 L69.9518671,23.0444444 L68.3111111,23.0444444 C67.9613308,23.0444444 67.6777778,23.3279974 67.6777778,23.6777778 L70,23.6777778 L70,24.5222222 L67.6777778,24.5222222 C67.6777778,24.8402044 67.9121191,25.1034531 68.2175218,25.1486886 L68.3111111,25.1555556 L69.9518671,25.1555556 L69.9518671,26 L68.3111111,26 C67.542966,26 66.9117061,25.4139251 66.8400982,24.6645421 L66.8333333,24.5222222 L66.8333333,23.6777778 C66.8333333,22.8616236 67.494957,22.2 68.3111111,22.2 L69.9518671,22.2 Z M35.3777778,22.2 L35.3777778,23.0444444 L34.111,23.044 L34.1111111,26 L33.2666667,26 L33.266,23.044 L32,23.0444444 L32,22.2 L35.3777778,22.2 Z M40.0222222,22.2 L40.0222222,24.9444444 C40.0222222,25.0416057 40.0878595,25.1234365 40.1772116,25.1480145 L40.2333333,25.1555556 L41.2888889,25.1555556 C41.3860501,25.1555556 41.4678809,25.0899183 41.4924589,25.0005661 L41.5,24.9444444 L41.5,22.2 L42.3444444,22.2 L42.3444444,24.9444444 C42.3444444,25.4885472 41.9327675,25.9364977 41.4039033,25.9938061 L41.2888889,26 L40.2333333,26 C39.6892306,26 39.2412801,25.5883231 39.1839716,25.0594589 L39.1777778,24.9444444 L39.1777778,22.2 L40.0222222,22.2 Z M61.3444444,22.2 L61.3444444,23.0444444 L59.6555556,23.0444444 C59.3057752,23.0444444 59.0222222,23.3279974 59.0222222,23.6777778 L61.3444444,23.6777778 L61.3444444,24.5222222 L59.022,24.522 L59.0222222,26 L58.1777778,26 L58.1777778,23.4666667 L58.192811,23.4661929 C58.2954522,22.7502729 58.9112423,22.2 59.6555556,22.2 L61.3444444,22.2 Z M65.1444444,22.2 C65.8440051,22.2 66.4111111,22.767106 66.4111111,23.4666667 C66.4111111,23.8222767 66.2645693,24.14366 66.0285793,24.3737232 C66.2320926,24.5986522 66.3677697,24.8866921 66.4023813,25.2050897 L66.4111111,25.3666667 L66.4111111,26 L65.5666667,26 L65.5666667,25.3666667 C65.5666667,25.0486845 65.3323254,24.7854358 65.0269227,24.7402003 L64.9333333,24.7333333 L63.8773333,24.733 L63.8777778,26 L63.0333333,26 L63.0333333,22.2 L65.1444444,22.2 Z M56.2777778,22.2 C56.9773385,22.2 57.5444444,22.767106 57.5444444,23.4666667 C57.5444444,23.8222767 57.3979027,24.14366 57.1619127,24.3737232 C57.3654259,24.5986522 57.5011031,24.8866921 57.5357146,25.2050897 L57.5444444,25.3666667 L57.5444444,26 L56.7,26 L56.7,25.3666667 C56.7,25.0486845 56.4656587,24.7854358 56.160256,24.7402003 L56.0666667,24.7333333 L55.0106667,24.733 L55.0111111,26 L54.1666667,26 L54.1666667,22.2 L56.2777778,22.2 Z M48.840756,22.2 C49.608901,22.2 50.2401609,22.7860749 50.3117689,23.5354579 L50.3185337,23.6777778 L50.3185337,24.5222222 C50.3185337,25.3383764 49.6569101,26 48.840756,26 L47.622,25.999 L47.6222222,26 L46.7777778,26 L46.7777778,22.2 L48.840756,22.2 Z M62.6111111,22.2 L62.6111111,26 L61.7666667,26 L61.7666667,22.2 L62.6111111,22.2 Z M47.622,23.044 L47.622,25.155 L48.840756,25.1555556 C49.1905363,25.1555556 49.4740893,24.8720026 49.4740893,24.5222222 L49.4740893,23.6777778 C49.4740893,23.3279974 49.1905363,23.0444444 48.840756,23.0444444 L47.622,23.044 Z M65.1444444,23.0444444 L63.8777778,23.0444444 L63.8777778,23.8888889 L65.1444444,23.8888889 C65.3776313,23.8888889 65.5666667,23.6998536 65.5666667,23.4666667 C65.5666667,23.2334798 65.3776313,23.0444444 65.1444444,23.0444444 Z M56.2777778,23.0444444 L55.0111111,23.0444444 L55.0111111,23.8888889 L56.2777778,23.8888889 C56.5109647,23.8888889 56.7,23.6998536 56.7,23.4666667 C56.7,23.2334798 56.5109647,23.0444444 56.2777778,23.0444444 Z M62.1846581,7 L62.1846581,14.0575935 L69.7888889,21.1444444 L65.3761632,21.1444444 L60.3381344,16.269675 L55.3073356,21.1444444 L51.0828123,21.1444444 L58.4916106,14.0575935 L58.4916106,7 L62.1846581,7 Z M49.7333333,14.8111111 L49.733,18.7521111 L46.742,20.9331111 L42.449,20.9321111 L42.45,20.9333333 L32,20.9333333 L32,14.8111111 L49.7333333,14.8111111 Z M39.283,18.6101111 L35.166,18.6101111 L35.166,19.4551111 L39.283,19.4551111 L39.283,18.6101111 Z M46.566,16.2881111 L42.449,16.2881111 L42.449,17.1331111 L45.8277778,17.1333333 L44.6666667,18.6111111 L42.449,18.6101111 L42.449,19.4541111 L46.566,19.4551111 L46.566,16.2881111 Z M39.283,16.2881111 L35.166,16.2881111 L35.166,17.1331111 L39.283,17.1331111 L39.283,16.2881111 Z M49.7333333,7.21111111 L49.7333333,8.68888889 L42.449,8.68811111 L42.449,9.53311111 L49.7333333,9.53333333 L49.7325962,12.8143333 L46.5665962,13.9163333 L46.566,11.0101111 L42.449,11.0101111 L42.45,14.0722222 L39.2833333,14.0722222 L39.283,11.0101111 L38.1222222,11.0111111 L38.9666667,12.1722222 L38.1222222,14.0722222 L35.2722222,14.0722222 L36.1166667,12.1722222 L35.2722222,11.0111111 L35.166,11.0101111 L35.1666667,14.7055556 L32,14.7055556 L32,9.53333333 L39.283,9.53311111 L39.283,8.68811111 L32,8.68888889 L32,7.21111111 L49.7333333,7.21111111 Z M46.1444444,11.0111111 L45.3,12.1722222 L46.1444444,14.0722222 L43.2944444,14.0722222 L42.45,12.1722222 L43.2944444,11.0111111 L46.1444444,11.0111111 Z M69.6231944,7 L67.090819,14.0575935 L63.3977715,14.0575935 L65.9301469,7 L69.6231944,7 Z M54.6930475,7 L56.328,11.556 L53.548,14.057 L53.5323754,14.0575935 L51,7 L54.6930475,7 Z M28.5925857,2.54729571e-12 C29.6783134,1.84940246 28.1393208,3.11715883 26.7096915,3.69880493 C25.8691849,4.05187745 25.2723205,4.80209232 25.1285347,5.68620325 C23.89655,2.84245679 26.8427722,2.05575141 27.717679,1.57599011 C28.5925857,1.0962288 28.5925857,2.54729571e-12 28.5925857,2.54729571e-12 Z" id="形状结合" fill="#FFFFFF"></path>
                        </g>
                    </g>
                </g>
            </g>
        </g>
    </g>
</svg>