<?xml version="1.0" encoding="UTF-8"?>
<svg width="90px" height="34px" viewBox="0 0 90 34" version="1.1" xmlns="http://www.w3.org/2000/svg" xmlns:xlink="http://www.w3.org/1999/xlink">
    <title>footer_bg_hover</title>
    <defs>
        <rect id="path-1" x="0" y="0" width="90" height="34"></rect>
    </defs>
    <g id="模版编号_首页" stroke="none" stroke-width="1" fill="none" fill-rule="evenodd">
        <g id="标准footer文件备份" transform="translate(-876.000000, -27.000000)">
            <g id="合作品牌" transform="translate(299.000000, 27.000000)">
                <g id="big-game" transform="translate(577.000000, 0.000000)">
                    <mask id="mask-2" fill="white">
                        <use xlink:href="#path-1"></use>
                    </mask>
                    <use id="蒙版" fill="#D8D8D8" opacity="0" xlink:href="#path-1"></use>
                    <path d="M18.9191205,4 C21.7582969,4 24.3879345,4.93227427 26.3282737,6.77626523 C28.031086,8.39437038 28.9564252,10.6886468 29.128564,13.2162395 C30.5708382,15.8447349 30.9784213,18.73879 30.0324787,21.4070517 C28.6893703,25.1961267 24.9396119,27.6201684 20.3666483,28.1744391 C18.0872883,29.3987908 15.6755978,30 13.3941322,30 C10.356315,30 7.54908959,28.9342252 5.59512792,26.8534505 C3.94581486,25.0966435 3.04301472,22.7922121 2.90010233,20.3067253 C1.07218037,17.4676966 0.4654646,14.2446325 1.51018641,11.2969286 C3.04853803,6.95704817 7.74384179,4.40790715 13.2171141,4.40790715 C13.8644306,4.40790715 14.5226367,4.44355456 15.1877768,4.51611428 C16.4454445,4.17105748 17.7008488,4 18.9191205,4 Z M41.4549191,22.7801748 C43.1579791,22.7801748 43.2684452,23.6765352 43.2684452,24.0279957 C43.2684452,24.6211936 42.9444774,24.9379786 42.4614979,25.0898075 C43.1096811,25.2758165 43.3925337,25.6830054 43.3925337,26.2204749 C43.3925337,26.9652541 42.8548166,27.4960361 41.551515,27.4960361 L37.4216687,27.4960361 L37.4216687,22.7801748 L41.4549191,22.7801748 Z M44.7074516,22.7802491 L44.7074516,27.4961104 L43.7219258,27.4961104 L43.7219258,22.7802491 L44.7074516,22.7802491 Z M50.9950273,22.7801996 L50.9950273,23.7387281 L47.3137328,23.7387281 C46.1900005,23.7387281 46.0520418,24.2278996 46.0520418,25.1311951 C46.0520418,26.0409304 46.1900005,26.5305973 47.3137328,26.5305973 L50.0647345,26.5305973 L50.0647345,24.9243808 L51.050508,24.9243808 L51.050508,27.4960609 L47.3137328,27.4960609 C45.6242953,27.4960609 45.0457106,26.6821785 45.0457106,25.1311951 C45.0457106,23.5868992 45.6242953,22.7801996 47.3137328,22.7801996 L50.9950273,22.7801996 Z M62.1051409,22.7108982 C62.9120882,22.7108982 63.2635487,23.1247745 63.5669589,23.7105419 L65.5045736,27.4961104 L64.4427617,27.4961104 L63.8428764,26.3307676 L60.3681485,26.3307676 L59.7682632,27.4961104 L54.9851067,27.4960609 C53.2956692,27.4960609 52.7170845,26.6821785 52.7170845,25.1311951 C52.7170845,23.5868992 53.2956692,22.7801996 54.9851067,22.7801996 L58.6664012,22.7801996 L58.6664012,23.7387281 L54.9851067,23.7387281 C53.8613744,23.7387281 53.7234157,24.2278996 53.7234157,25.1311951 C53.7234157,26.0409304 53.8613744,26.5305973 54.9851067,26.5305973 L57.7361084,26.5305973 L57.7361084,24.9243808 L58.7218819,24.9243808 L58.7217013,27.477152 L60.6435707,23.7105419 C60.9400458,23.1247745 61.2989367,22.7108982 62.1051409,22.7108982 Z M66.5645773,22.7801748 C66.9296603,22.7801748 67.0884243,22.9661838 67.2330705,23.1452578 L69.1912427,25.5514864 L71.149415,23.1452578 C71.2940612,22.9661838 71.4528252,22.7801748 71.8181559,22.7801748 L72.7764367,22.7801748 L72.7764367,27.4960361 L71.8112208,27.4960361 L71.8112208,23.8211814 L69.5704436,26.5238851 L68.8120419,26.5238851 L66.5712647,23.8211814 L66.5712647,27.4960361 L65.6060488,27.4960361 L65.6060488,22.7801748 L66.5645773,22.7801748 Z M74.3118657,22.7802491 L74.3118657,27.4961104 L73.3260921,27.4961104 L73.3260921,22.7802491 L74.3118657,22.7802491 Z M75.559637,22.78015 C76.8280155,22.78015 77.1727886,23.1868435 78.3656241,24.8346705 C79.4444071,26.3240901 79.5637984,26.4850159 80.0228185,26.4955069 L80.0892417,26.49612 L80.0892417,22.78015 L81.0752629,22.78015 L81.0752629,27.4960114 L80.378534,27.4960114 C79.2134388,27.4960114 78.8622261,27.123498 77.572547,25.4345558 C76.4124912,23.916314 76.3358142,23.7880764 75.9090909,23.7804579 L75.8489294,23.7800414 L75.8489294,27.4960114 L74.8631558,27.4960114 L74.8631558,22.78015 L75.559637,22.78015 Z M87.3612039,22.7801996 L87.3612039,23.7387281 L83.6799094,23.7387281 C82.5561771,23.7387281 82.4179707,24.2278996 82.4179707,25.1311951 C82.4179707,26.0409304 82.5561771,26.5305973 83.6799094,26.5305973 L86.4309111,26.5305973 L86.4309111,24.9243808 L87.4164369,24.9243808 L87.4164369,27.4960609 L83.6799094,27.4960609 C81.9904719,27.4960609 81.4116395,26.6821785 81.4116395,25.1311951 C81.4116395,23.5868992 81.9904719,22.7801996 83.6799094,22.7801996 L87.3612039,22.7801996 Z M41.5861904,25.5036838 L38.3735099,25.5036838 L38.3735099,26.6132982 L41.655046,26.6132982 C42.234126,26.6132982 42.420135,26.3514986 42.420135,26.0894512 C42.420135,25.8276516 42.234126,25.5036838 41.5861904,25.5036838 Z M62.1051409,23.586701 C61.8505241,23.586701 61.7192527,23.7105419 61.6159694,23.9106688 L60.8159572,25.4549648 L63.3876373,25.4549648 L62.5950555,23.9106688 C62.4917722,23.7105419 62.3605009,23.586701 62.1051409,23.586701 Z M41.5861904,23.6487948 L38.3735099,23.6487948 L38.3735099,24.6625564 L41.5168395,24.6625564 C42.0548044,24.6625564 42.3101643,24.4899222 42.3101643,24.1659544 C42.3101643,23.8625442 42.0894798,23.6487948 41.5861904,23.6487948 Z M22.2410039,11.4210171 C20.9493434,11.4210171 19.8261064,11.7157585 18.8705501,12.3044981 C17.9142507,12.8939808 16.1609113,14.6146262 16.1609113,17.4907072 C16.1609113,20.9664258 19.3178634,21.7255705 20.7009185,21.7255705 C21.5903439,21.7255705 22.4634222,21.6079216 23.3199058,21.3718809 C24.1766371,21.1365832 26.2933258,20.2575605 26.7062113,16.1678387 C26.4653595,16.1866025 25.8545544,16.1939943 25.1201268,16.1951832 L24.6666063,16.1951935 C24.5118016,16.1949764 24.3540227,16.1945525 24.1952402,16.1939633 L23.7178525,16.1917406 C22.3678905,16.1842712 21.0877975,16.1678387 21.0877975,16.1678387 L20.6989371,17.8330034 L20.7125103,17.8329532 L20.9001212,17.8323004 C20.9318756,17.8321943 20.9669331,17.8320793 21.0049608,17.8319572 L21.2661038,17.8311579 C21.4118316,17.8307331 21.5782954,17.8302833 21.7565027,17.8298648 L22.1259106,17.8290864 L22.2212823,17.8289167 L22.2212823,17.8289167 L23.5969647,17.8288186 C23.8579301,17.829516 24.0682516,17.8308238 24.1862967,17.8330034 C23.9071594,19.0107303 22.7901145,19.7012672 22.2714688,19.8258511 C21.7530708,19.9501874 21.2470569,20.0128509 20.7539224,20.0128509 C19.9303805,20.0128509 18.4227414,19.168999 18.3917812,17.6202447 C18.3751865,16.7682194 18.4128341,15.9139649 18.7635515,15.1937062 C19.1145166,14.4729522 19.5997253,13.9404363 20.2199205,13.5964063 C20.8403634,13.2516333 21.521736,13.0794944 22.2637907,13.0794944 C22.8993421,13.0794944 24.1241286,13.8398775 24.217257,14.9242284 L26.510295,14.9242284 C26.602928,13.9015503 25.9270044,12.8563331 25.146559,12.3215881 C24.3661137,11.7868431 23.5326645,11.4210171 22.2410039,11.4210171 Z M11.7007566,11.5909268 L7.88026492,11.5909268 L5.53892892,21.5556608 L10.8086068,21.5556608 C11.9729589,21.5556608 12.8542107,21.5556608 13.524933,21.3198677 C14.1961507,21.0843223 15.1695401,19.9516735 15.1695401,18.4564185 C15.1695401,17.4907072 14.3497134,16.7137294 13.7753393,16.5730461 C14.4968364,16.3649934 15.1375892,15.8537782 15.4833529,15.4485708 C15.828869,15.042868 16.0015033,14.5636037 16.0015033,14.010778 C16.0015033,13.5986355 15.9029259,13.2224068 15.7042851,12.8823397 C15.505892,12.542768 15.2165996,12.2708134 14.8351697,12.0667236 C14.4537397,11.8628815 13.9885933,11.7271518 13.4394828,11.6587917 C13.1090753,11.6134659 12.5292522,11.5909268 11.7007566,11.5909268 Z M11.3232895,17.3482901 C11.9637947,17.3482901 12.4212629,17.4560317 12.6961897,17.6707718 C12.9703735,17.8865027 13.1078369,18.159448 13.1078369,18.4898555 C13.1078369,18.7623055 13.0124794,19.0201422 12.8217644,19.2650995 C12.6310494,19.5095615 12.3769279,19.6851679 12.0591521,19.791671 C11.7416241,19.8981742 11.1172183,19.9516735 10.1869255,19.9516735 L7.96794428,19.9516735 L8.57798453,17.3482901 L11.3232895,17.3482901 Z M74.9524451,8.83648239 L76.4110432,11.4611664 L75.1656991,17.9261565 L87.6637224,17.9261565 L87.2263164,19.4087797 L72.6195303,19.4087797 L74.1504515,11.4611664 L74.2232699,11.4611664 L72.7651672,8.83648239 L74.9524451,8.83648239 Z M47.2832432,5.27603183 L45.9180212,7.70653327 L50.7829869,7.70653327 L51.8767497,9.74792662 L44.7719975,9.74792662 L44.075764,10.987574 L46.6268864,10.987574 L51.8767497,19.3725934 L48.6928003,19.3725934 L43.776812,11.5203375 L39.4082006,19.3725934 L36.3097013,19.3725934 L41.6730029,9.74792662 L37.8775271,9.74792662 L36.7837643,7.70653327 L42.8195219,7.70653327 L44.1840009,5.27603183 L47.2832432,5.27603183 Z M80.2752259,5.23927585 L81.0103455,6.25997253 L82.4142059,6.25997253 L82.0491229,7.8642075 L79.8346,7.8642075 L79.4544085,9.90609621 L82.5719792,9.90609621 L81.2476247,17.2456508 L79.2788021,17.2456508 L80.3225332,11.4610425 L79.1646208,11.4610425 L78.087948,17.2456508 L76.1191254,17.2456508 L77.8655298,7.8642075 L77.2126406,7.8642075 L76.26501,6.25997253 L78.3854138,6.25997253 L77.6502943,5.23927585 L80.2752259,5.23927585 Z M87.4694161,9.71141832 L86.1569503,12.6766648 L87.6635986,12.6766648 L87.2264402,14.1830654 L86.1569503,14.1830654 L86.1569503,17.2456508 L82.0491477,17.2456508 L82.4142307,15.714482 L84.4068307,15.714482 L84.4068307,14.1830654 L82.6814793,14.1830654 L83.0460669,12.6766648 L84.4068307,12.6766648 L84.7776103,11.169521 L83.2645223,11.169521 L83.6291099,9.71141832 L87.4694161,9.71141832 Z M12.7744572,13.2972067 C13.0942144,13.351449 13.3409054,13.4601813 13.514778,13.6234036 C13.688403,13.7863783 13.7753393,13.9949263 13.7753393,14.2488002 C13.7753393,14.5071323 13.682954,14.7493651 13.4986787,14.9757462 C13.3144035,15.2026228 13.0377429,15.3658451 12.6684494,15.4656608 C12.2994035,15.5647335 11.6948122,15.6147653 10.8539325,15.6147653 L8.9824489,15.6147653 L9.57638984,13.2563392 L11.4805675,13.2563392 C12.1639215,13.2563392 12.5956309,13.269714 12.7744572,13.2972067 Z M85.4276017,5.23915201 L85.1794245,6.26009637 L87.9066487,6.26009637 L87.4692427,7.86408366 L84.7893257,7.86408366 L84.5530373,8.83648239 L82.5111486,8.83648239 L83.386456,5.23915201 L85.4276017,5.23915201 Z M74.7335687,5.23927585 L76.1921668,7.8642075 L74.0048889,7.8642075 L72.5462908,5.23927585 L74.7335687,5.23927585 Z" id="形状结合" fill="#FFFFFF" mask="url(#mask-2)"></path>
                </g>
            </g>
        </g>
    </g>
</svg>