<?xml version="1.0" encoding="UTF-8"?>
<svg width="76px" height="34px" viewBox="0 0 76 34" version="1.1" xmlns="http://www.w3.org/2000/svg" xmlns:xlink="http://www.w3.org/1999/xlink">
    <title>footer_imboard</title>
    <defs>
        <rect id="path-1" x="0" y="0" width="76" height="34"></rect>
    </defs>
    <g id="模版编号_首页" stroke="none" stroke-width="1" fill="none" fill-rule="evenodd">
        <g id="标准footer文件" transform="translate(-992.000000, -27.000000)">
            <g id="合作品牌" transform="translate(299.000000, 27.000000)">
                <g id="imboard" transform="translate(693.000000, 0.000000)">
                    <mask id="mask-2" fill="white">
                        <use xlink:href="#path-1"></use>
                    </mask>
                    <use id="蒙版" fill="#D8D8D8" opacity="0" xlink:href="#path-1"></use>
                    <g id="im游戏" mask="url(#mask-2)" fill="#FFFFFF" opacity="0.400000006">
                        <g transform="translate(0.000000, 4.000000)" id="形状结合">
                            <path d="M19.1389089,0 C22.8490806,0 25.8716896,2.94561182 25.9960213,6.62390055 L26,6.85965866 L26,19.1389281 C26,22.8487766 23.0546862,25.8716769 19.3761279,25.9960209 L19.1403519,26 L6.86109107,26 C3.1509194,26 0.128310404,23.0543882 0.0039786803,19.3760994 L0,19.1403413 L0,6.85965866 C0,3.14981021 2.94531375,0.12826481 6.62387206,0.00397726195 L6.85964815,0 L19.1389089,0 Z M35.5291164,14.9774519 C36.0403544,14.9774519 36.4783292,15.0512988 36.8430539,15.1989948 C37.2077786,15.3466909 37.508594,15.5313081 37.7455092,15.7528522 C37.8860244,15.8842507 38.0051554,16.0226836 38.1029033,16.1681523 L36.8323146,16.7012236 C36.7963688,16.6572099 36.7563066,16.6133994 36.7121277,16.5697917 C36.5905528,16.4497887 36.4378072,16.3451722 36.2538862,16.2559392 C36.0699652,16.1667062 35.8533157,16.1220904 35.6039313,16.1220904 C35.3545469,16.1220904 35.1129594,16.1667062 34.8791615,16.2559392 C34.6453636,16.3451722 34.4396246,16.4851737 34.2619382,16.6759477 C34.0842518,16.8667217 33.9424165,17.1128781 33.8364281,17.4144241 C33.7304398,17.7159702 33.6774464,18.0790508 33.6774464,18.5036768 C33.6774464,18.9590729 33.7351157,19.3329229 33.8504559,19.6252379 C33.9657962,19.917553 34.1154246,20.149863 34.2993456,20.322175 C34.4832666,20.4944871 34.6921229,20.6144883 34.9259208,20.6821823 C35.1597187,20.7498763 35.3950717,20.7837228 35.6319869,20.7837228 C35.7068022,20.7837228 35.8205822,20.7698765 35.9733301,20.7421835 C36.1260781,20.7144905 36.2850582,20.6514129 36.4502754,20.5529489 C36.6154926,20.4544849 36.7729141,20.3083296 36.9225448,20.1144785 C36.9769517,20.0439926 37.0264128,19.964354 37.0709281,19.8755621 C37.1121145,19.6864716 37.1481636,19.4845394 37.1790532,19.2698461 L37.1790532,18.4838962 L38.5150344,18.4838962 L38.5150344,19.9683521 C38.3022129,21.3868742 37.3475376,22.0542372 35.6510086,21.9704409 L35.4350786,21.9560541 L35.3327271,21.9560541 C34.9274774,21.9560541 34.5393788,21.8837457 34.1684195,21.7391267 C33.7974602,21.5945076 33.4685894,21.3791208 33.1817973,21.0929598 C32.8950053,20.8067988 32.6674454,20.4467951 32.4991109,20.012938 C32.3307765,19.579081 32.2466105,19.069845 32.2466105,18.4852149 C32.2466105,18.0359729 32.3105143,17.6005838 32.4383238,17.1790348 C32.5661333,16.7574857 32.7640792,16.3836357 33.0321674,16.0574737 C33.3002557,15.7313116 33.6400368,15.4697705 34.0515211,15.2728425 C34.428715,15.0923251 34.8687685,14.9945461 35.3716927,14.9795032 L35.5291164,14.9774519 Z M66.4129943,14.9774519 C66.9242323,14.9774519 67.3481795,15.0512988 67.6848484,15.1989948 C68.0215174,15.3466909 68.2896016,15.5282312 68.4891091,15.7436212 C68.6886167,15.9590112 68.8288933,16.1913213 68.9099432,16.4405583 C68.9909932,16.6897954 69.0315175,16.9159515 69.0315175,17.1190335 L67.6848484,17.1190335 L67.6661447,17.0208162 C67.6549225,16.9669075 67.6408947,16.9057988 67.6240613,16.8374894 C67.5960055,16.7236404 67.535219,16.6144085 67.4416999,16.5097905 C67.3481807,16.4051725 67.21258,16.3144023 67.0348936,16.2374773 C66.8572072,16.1605523 66.6156197,16.1220904 66.3101238,16.1220904 C66.1791969,16.1220904 66.0435962,16.1359367 65.9033175,16.1636297 C65.7630387,16.1913227 65.6367898,16.2359385 65.5245668,16.2974785 C65.4123438,16.3590185 65.3203847,16.4405578 65.2486867,16.5420988 C65.1769887,16.6436399 65.1411402,16.7682565 65.1411402,16.9159525 C65.1411402,17.0451865 65.1645196,17.1513415 65.2112792,17.2344205 C65.2580388,17.3174995 65.3172667,17.383654 65.3889647,17.432886 C65.4606627,17.482118 65.5385942,17.5190415 65.6227614,17.5436575 L65.8518822,17.6082742 L67.4884592,18.0052053 C67.7191398,18.0605913 67.9404651,18.1282843 68.1524419,18.2082863 C68.3644186,18.2882883 68.5514541,18.3959817 68.713554,18.5313697 C68.8756538,18.6667577 69.0050201,18.8359902 69.1016565,19.0390722 C69.198293,19.2421543 69.2466105,19.4913876 69.2466105,19.7867796 C69.2466105,20.1190957 69.1951757,20.403714 69.0923047,20.640643 C68.9894336,20.877572 68.8553915,21.0760356 68.6901743,21.2360396 C68.5249571,21.3960436 68.3425975,21.5237372 68.14309,21.6191243 C67.9435825,21.7145113 67.7456366,21.7868197 67.5492463,21.8360517 C67.3528561,21.8852837 67.1704965,21.9175917 67.002162,21.9329767 L66.8452582,21.9457975 C66.748276,21.9526353 66.6665342,21.9560541 66.6000317,21.9560541 C65.9890399,21.9560541 65.4949544,21.8791303 65.1177605,21.7252802 C64.7405666,21.5714302 64.4491029,21.3821975 64.2433608,21.1575765 C64.0376187,20.9329555 63.9004593,20.6914145 63.8318786,20.4329465 C63.7632979,20.1744785 63.729008,19.9437069 63.729008,19.7406248 L65.0756771,19.7406248 C65.0756771,19.8329349 65.092822,19.9406283 65.1271124,20.0637083 C65.1614027,20.1867883 65.2284238,20.3037126 65.3281776,20.4144846 C65.4279313,20.5252566 65.5713252,20.6191037 65.7583635,20.6960287 C65.9454018,20.7729537 66.1916652,20.8114157 66.4971611,20.8114157 C66.6654956,20.8114157 66.8322689,20.7991078 66.9974861,20.7744918 C67.1627033,20.7498758 67.3123317,20.7067985 67.4463758,20.6452585 C67.5804199,20.5837185 67.6895239,20.4975637 67.7736912,20.3867917 C67.8578584,20.2760197 67.8999414,20.1314028 67.8999414,19.9529368 C67.8999414,19.8237028 67.8703275,19.7160094 67.8110987,19.6298534 C67.7518699,19.5436974 67.6677039,19.4713889 67.5585982,19.4129259 C67.4494925,19.3544629 67.3201263,19.3036932 67.1704957,19.2606152 C67.020865,19.2175372 66.8587676,19.1744598 66.6841985,19.1313818 L65.9641046,18.9652246 C65.6897818,18.9036846 65.4248148,18.8359916 65.1691958,18.7621436 C64.9135768,18.6882956 64.6875755,18.5821407 64.4911853,18.4436756 C64.2947951,18.3052106 64.1358149,18.1236703 64.01424,17.8990493 C63.8926651,17.6744282 63.8318786,17.3805791 63.8318786,17.017493 C63.8318786,16.894413 63.8459062,16.759027 63.873962,16.611331 C63.9020177,16.463635 63.9503352,16.3144027 64.018916,16.1636297 C64.0874967,16.0128566 64.182573,15.8651628 64.3041479,15.7205438 C64.4257228,15.5759248 64.5831444,15.4497697 64.7764173,15.3420746 C64.9696902,15.2343796 65.2003673,15.1466864 65.4684556,15.0789924 C65.7365438,15.0112984 66.0513869,14.9774519 66.4129943,14.9774519 Z M62.2407249,15.1528401 L62.2407249,16.3251714 L58.677663,16.3251714 L58.677663,17.7190456 L61.950817,17.7190456 L61.950817,18.891377 L58.677663,18.891377 L58.677663,20.6083346 L62.3997067,20.6083346 L62.3997067,21.780666 L57.3029383,21.780666 L57.3029383,15.1528401 L62.2407249,15.1528401 Z M50.2743296,15.1528401 L51.6772251,20.3775608 L51.6988081,20.3775608 L53.0801205,15.1528401 L55.4218768,15.1528401 L55.4218768,21.780666 L53.9110663,21.780666 L53.9110663,16.2420928 L53.8894833,16.2420928 L52.4434218,21.780666 L50.8570708,21.780666 L49.4433838,16.2420928 L49.4218008,16.2420928 L49.4218008,21.780666 L47.9109903,21.780666 L47.9109903,15.1528401 L50.2743296,15.1528401 Z M43.9304558,15.1528401 L46.5442815,21.780666 L44.8602753,21.780666 L44.3850342,20.4144846 L41.6472326,20.4144846 L41.1306662,21.780666 L39.4983166,21.780666 L42.1431363,15.1528401 L43.9304558,15.1528401 Z M43.0397765,16.6482548 L43.0137723,16.6482548 L41.81758,19.2698461 L44.1969625,19.2698461 L43.0397765,16.6482548 Z M5.28213508,8.125 C4.65151825,8.125 4.13136308,8.60681955 4.06880703,9.22172528 L4.0625,9.34637758 L4.0625,17.4644561 C4.0625,18.1376301 4.60947712,18.6875 5.28213508,18.6875 C5.91275191,18.6875 6.43135127,18.2056804 6.49371285,17.5894018 L6.5,17.4644561 L6.49822985,17.4644561 L6.49822985,9.34637758 C6.49822985,8.67486985 5.95479303,8.125 5.28213508,8.125 Z M9.88087681,8.125 L9.84650538,8.12995816 L9.82588252,8.1332636 C9.45115014,8.16881749 9.12922661,8.4669972 9.00509273,8.89351515 L8.98167802,8.97848852 L8.98167802,8.97848852 L8.96384702,9.06539811 L8.95697273,9.09514708 L8.94139009,9.22507733 L8.94139009,9.22507733 L8.93772473,9.35627696 L8.93772473,17.3884998 C8.93772473,18.056199 9.35980591,18.6015968 9.88087681,18.6015968 C10.3684929,18.6015968 10.7698778,18.1279344 10.8212287,17.5205715 L10.8267786,17.3884998 L10.8267786,12.1097097 L15.9165002,18.4148394 C16.2794625,18.8214087 16.8555277,18.7668689 17.208866,18.2941908 C17.5324863,17.8609237 17.5538657,17.2220542 17.2730043,16.8091523 L17.1964923,16.7108843 L10.4871889,8.39769892 C10.3362328,8.23093645 10.1394934,8.13680663 9.93449624,8.1332636 C9.9166231,8.13161088 9.90012481,8.125 9.88087681,8.125 Z M15.2929822,8.51654053 C14.9668691,8.95148117 14.9464688,9.58927671 15.226375,10.0047121 L15.3026049,10.1036923 L22.0137248,18.4147466 C22.346885,18.7924037 22.8673223,18.7723366 23.2228338,18.3889616 L23.301787,18.2940569 C23.6266311,17.8621685 23.6481052,17.223199 23.365128,16.8101657 L23.2880403,16.711865 L16.5796697,8.39585086 C16.2222565,7.99244978 15.6448967,8.04535484 15.2929822,8.51654053 Z M46.7139042,3.55003057 C48.4380881,3.84521076 49.8714589,5.01564824 50.5603431,6.59835682 L49.5057032,6.94740609 L50.0356054,8.61175499 L50.9839874,8.29786335 C50.9952308,8.43954438 51.0009621,8.5828151 51.0009621,8.72745191 C51.0009621,10.2323352 50.3805253,11.5893331 49.3864573,12.5465739 L48.9692554,11.9610112 L47.5819532,12.9896354 L47.958736,13.5205458 C47.316935,13.8141535 46.6054354,13.9774519 45.8565626,13.9774519 C45.1072981,13.9774519 44.3954459,13.8139827 43.7533822,13.520085 L44.1311719,12.9896354 L42.7438697,11.9610112 L42.3269083,12.5468055 C41.3326999,11.589552 40.7121631,10.2324566 40.7121631,8.72745191 C40.7121631,8.58247717 40.7179211,8.43887489 40.7292166,8.29687029 L41.6775197,8.61175499 L42.207422,6.94740609 L41.1532208,6.59734904 C41.8421424,5.01545528 43.2748525,3.84559754 44.9982277,3.55020071 L44.9991626,4.87745191 L46.7139625,4.87745191 L46.7139042,3.55003057 Z M56.0718702,4.87745191 L59.2320013,13.2774519 L56.3535873,13.2774519 L56.0106273,12.1691186 L53.1322133,12.1691186 L52.8015019,13.2774519 L49.9720822,13.2774519 L53.1322133,4.87745191 L56.0718702,4.87745191 Z M64.3764008,4.87745191 C66.0811048,4.87745191 67.4630405,6.28775495 67.4630405,8.02745191 C67.4630405,9.11900091 66.9190052,10.0808753 66.0925561,10.6460833 L67.4630405,13.2774519 L64.7193608,13.2774519 L63.6259212,11.1774519 L62.6609212,11.1774519 L62.661601,13.2774519 L59.9179212,13.2774519 L59.9179212,4.87745191 L64.3764008,4.87745191 Z M71.7445527,4.96145191 C72.4009814,4.96145191 72.9913811,5.04037612 73.5157695,5.19822691 C74.0401579,5.3560777 74.4872017,5.59862528 74.8569144,5.92587691 C75.2266271,6.25312855 75.5095663,6.66699941 75.7057403,7.16750191 C75.9019144,7.66800442 76,8.26089849 76,8.94620191 C76,9.73160584 75.8981419,10.3976492 75.6944227,10.9443519 C75.4907034,11.4910546 75.2002192,11.9376502 74.8229614,12.2841519 C74.4457035,12.6306536 73.9911147,12.8828261 73.4591811,13.0406769 C72.9272475,13.1985277 72.3330753,13.2774519 71.6766467,13.2774519 L68.1681662,13.2774519 L68.1681662,4.96145191 L71.7445527,4.96145191 Z M36.8463183,4.96145191 C37.3065729,4.96145191 37.7366404,4.99225161 38.1365337,5.05385191 C38.536427,5.11545222 38.8853853,5.22517612 39.183419,5.38302691 C39.4814527,5.5408777 39.7153491,5.75455057 39.8851151,6.02405191 C40.0548811,6.29355326 40.1397629,6.63619983 40.1397629,7.05200191 C40.1397629,7.26760299 40.1095827,7.46780099 40.0492214,7.65260191 C39.9888602,7.83740284 39.907751,8.00487616 39.8058913,8.15502691 C39.7040317,8.30517766 39.5889698,8.43992632 39.4607021,8.55927691 C39.3324345,8.67862751 39.2041687,8.78065149 39.075901,8.86535191 C39.5210653,8.98085249 39.858706,9.21377516 40.0888333,9.56412691 C40.3189606,9.91447867 40.4340225,10.3167996 40.4340225,10.7711019 C40.4340225,11.2331042 40.351027,11.6238753 40.1850336,11.9434269 C40.0190401,12.2629785 39.7832575,12.5209259 39.4776787,12.7172769 C39.1720998,12.9136279 38.8023926,13.0560765 38.3685461,13.1446269 C37.9346996,13.2331774 37.453703,13.2774519 36.9255421,13.2774519 L32.9530368,13.2774519 L32.9530368,4.96145191 L36.8463183,4.96145191 Z M45.6850826,5.92745191 C44.0750843,5.92745191 42.7699229,7.25940478 42.7699229,8.90245191 C42.7699229,10.545499 44.0750843,11.8774519 45.6850826,11.8774519 C47.2950808,11.8774519 48.6002423,10.545499 48.6002423,8.90245191 C48.6002423,7.25940478 47.2950808,5.92745191 45.6850826,5.92745191 Z M36.4728349,9.80090191 L35.624009,9.80090191 L35.624009,11.3370519 L36.7897299,11.3370519 C36.9557234,11.3370519 37.1085105,11.327427 37.2480959,11.3081769 C37.3876813,11.2889268 37.508402,11.2504272 37.6102616,11.1926769 C37.7121212,11.1349266 37.7932305,11.0560024 37.8535917,10.9559019 C37.913953,10.8558014 37.9441332,10.7287527 37.9441332,10.5747519 C37.9441332,10.389951 37.9064079,10.2475024 37.8309564,10.1474019 C37.7555048,10.0473014 37.6536467,9.97030218 37.525379,9.91640191 C37.3971114,9.86250164 37.242438,9.82977697 37.0613542,9.81822691 C36.8802704,9.80667686 36.6840993,9.80090191 36.4728349,9.80090191 Z M71.6913939,6.90185191 L71.1820984,6.90185191 L71.1820984,11.3370519 L71.7479823,11.3370519 C72.3666852,11.3370519 72.842023,11.1599537 73.1740099,10.8057519 C73.5059968,10.4515501 73.6719877,9.88175584 73.6719877,9.09635191 C73.6719877,8.66514976 73.6361488,8.30710334 73.5644698,8.02220191 C73.4927908,7.73730049 73.3777289,7.51207774 73.2192806,7.34652691 C73.0608323,7.18097609 72.8552298,7.06547724 72.6024671,7.00002691 C72.3497043,6.93457659 72.0460163,6.90185191 71.6913939,6.90185191 Z M45.8565626,6.62745191 L45.866377,6.6336706 C46.0440434,6.87607736 46.5372817,7.34772191 46.9761631,7.70864949 C47.336529,8.00178121 47.9138191,8.4397717 47.9143224,9.04700796 C47.9143224,9.53962533 47.5192285,9.97322616 46.9273425,9.97322616 C46.5523808,9.97322616 46.2363057,9.80349266 46.1129961,9.56108589 C46.0782681,9.49719196 46.0732351,9.46743982 46.0339773,9.46743982 C45.9992493,9.46743982 46.0042824,9.53572341 46.0042824,9.54401499 C46.0339773,9.9859074 46.2166768,10.2200226 46.4929909,10.4195082 C46.5364764,10.4534549 46.5229476,10.4874016 46.5057466,10.4996225 L46.4929909,10.504375 L45.2201342,10.504375 C45.2005054,10.504375 45.1607443,10.4619416 45.2201342,10.4195082 C45.4964483,10.2195348 45.6791478,9.9859074 45.7088427,9.54401499 C45.7088427,9.53523567 45.7138758,9.46743982 45.6791478,9.46743982 C45.6393867,9.46743982 45.634857,9.49719196 45.600129,9.56108589 C45.4768194,9.80300492 45.1607443,9.97322616 44.7857826,9.97322616 C44.1984264,9.97322616 43.7988028,9.54011307 43.7988028,9.04700796 C43.7988028,8.4397717 44.3760928,8.00178121 44.7364587,7.70864949 C45.1758434,7.34772191 45.6690817,6.87607736 45.8467481,6.6336706 L45.8565626,6.62745191 Z M54.5847786,7.32745191 L53.7446418,10.1274519 L55.4594416,10.1274519 L54.5847786,7.32745191 Z M63.6693608,6.97745191 L62.661601,6.97745191 L62.661601,9.07745191 L63.6693608,9.07745191 C64.2492597,9.07745191 64.7193608,8.6073509 64.7193608,8.02745191 C64.7193608,7.44755293 64.2492597,6.97745191 63.6693608,6.97745191 Z M36.5633763,6.90185191 L35.624009,6.90185191 L35.624009,8.28785191 L36.7331415,8.28785191 C36.997222,8.28785191 37.2160283,8.22817751 37.3895669,8.10882691 C37.5631055,7.98947632 37.6498735,7.80660315 37.6498735,7.56020191 C37.6498735,7.39850111 37.6196933,7.27337736 37.5593321,7.18482691 C37.4989708,7.09627647 37.4178616,7.03082713 37.316002,6.98847691 C37.2141424,6.9461267 37.0990804,6.92110195 36.9708128,6.91340191 C36.8425451,6.90570188 36.7067343,6.90185191 36.5633763,6.90185191 Z"></path>
                        </g>
                    </g>
                </g>
            </g>
        </g>
    </g>
</svg>