<?xml version="1.0" encoding="UTF-8"?>
<svg width="168px" height="54px" viewBox="0 0 168 54" version="1.1" xmlns="http://www.w3.org/2000/svg" xmlns:xlink="http://www.w3.org/1999/xlink">
    <title>footer_mga2</title>
    <defs>
        <rect id="path-1" x="0" y="0" width="168" height="54"></rect>
    </defs>
    <g id="模版编号_首页" stroke="none" stroke-width="1" fill="none" fill-rule="evenodd">
        <g id="标准footer文件" transform="translate(-621.000000, -164.000000)">
            <g id="mga2" transform="translate(621.000000, 164.000000)">
                <mask id="mask-2" fill="white">
                    <use xlink:href="#path-1"></use>
                </mask>
                <use id="矩形" fill="#D8D8D8" opacity="0" xlink:href="#path-1"></use>
                <path d="M56.226,41.328 L56.226,44.532 L56.898,44.532 L56.898,45.336 L54.126,45.336 L54.126,45.936 C54.126,46.332 54.114,46.704 54.102,47.064 L54.102,47.064 L56.358,47.064 L56.358,52.032 L55.518,52.032 L55.518,47.868 L54.066,47.868 C53.922,49.8 53.586,51.276 53.046,52.296 L53.046,52.296 L52.41,51.744 C52.986,50.544 53.286,48.6 53.298,45.936 L53.298,45.936 L53.298,41.568 L54.126,41.568 L54.126,44.532 L55.398,44.532 L55.398,41.328 L56.226,41.328 Z M87.078,41.076 C86.598,41.868 86.214,42.696 85.938,43.56 C85.578,44.616 85.41,45.648 85.41,46.68 C85.41,47.7 85.578,48.744 85.938,49.8 C86.214,50.652 86.598,51.48 87.078,52.284 L87.078,52.284 L86.238,52.284 C85.71,51.504 85.302,50.676 85.002,49.812 C84.642,48.78 84.474,47.736 84.474,46.692 C84.474,45.624 84.642,44.58 85.002,43.548 C85.302,42.672 85.71,41.844 86.238,41.076 L86.238,41.076 Z M114.762,41.076 C115.278,41.844 115.686,42.672 115.998,43.548 C116.346,44.58 116.526,45.624 116.526,46.692 C116.526,47.736 116.346,48.78 115.998,49.812 C115.686,50.676 115.278,51.504 114.762,52.284 L114.762,52.284 L113.922,52.284 C114.402,51.48 114.774,50.652 115.062,49.8 C115.41,48.744 115.59,47.7 115.59,46.68 C115.59,45.648 115.41,44.616 115.062,43.56 C114.774,42.696 114.402,41.868 113.922,41.076 L113.922,41.076 Z M65.862,49.404 L66.63,49.608 C66.366,50.616 66.042,51.492 65.646,52.26 L65.646,52.26 L64.854,51.984 C65.238,51.3 65.574,50.436 65.862,49.404 L65.862,49.404 Z M73.758,49.284 C74.442,50.22 74.97,51.048 75.33,51.744 L75.33,51.744 L74.634,52.236 C74.25,51.468 73.734,50.616 73.086,49.692 L73.086,49.692 Z M68.73,49.584 C68.946,50.34 69.138,51.156 69.306,52.032 L69.306,52.032 L68.478,52.224 C68.322,51.288 68.142,50.472 67.938,49.764 L67.938,49.764 Z M43.098,41.124 L43.878,41.484 C43.59,42.384 43.242,43.236 42.822,44.04 L42.822,44.04 L42.822,52.224 L41.97,52.224 L41.97,45.432 C41.586,45.984 41.154,46.524 40.698,47.028 L40.698,47.028 L40.422,46.128 C41.646,44.664 42.546,42.996 43.098,41.124 L43.098,41.124 Z M71.286,49.488 C71.61,50.256 71.898,51.096 72.138,52.008 L72.138,52.008 L71.31,52.2 C71.082,51.24 70.806,50.4 70.482,49.668 L70.482,49.668 Z M59.706,41.1 L60.57,41.208 C60.474,41.58 60.354,41.928 60.198,42.264 L60.198,42.264 L62.886,42.264 L62.886,47.34 L60.114,47.34 L59.97,47.628 C59.61,48.24 59.034,48.72 58.242,49.068 L58.242,49.068 L60.582,49.068 L60.582,47.82 L61.422,47.82 L61.422,49.068 L63.498,49.068 L63.498,49.896 L61.422,49.896 L61.422,52.164 L60.582,52.164 L60.582,49.896 L56.91,49.896 L56.91,49.068 L58.098,49.068 L57.75,48.516 C58.434,48.204 58.926,47.82 59.238,47.34 L59.238,47.34 L57.462,47.34 L57.462,42.264 L59.322,42.264 C59.49,41.88 59.622,41.496 59.706,41.1 L59.706,41.1 Z M133.374,41.256 C133.374,42.264 133.338,43.212 133.266,44.076 C133.902,47.148 135.006,49.596 136.578,51.396 L136.578,51.396 L135.954,52.116 C134.67,50.484 133.698,48.468 133.026,46.092 C132.966,46.428 132.906,46.74 132.846,47.052 C132.39,49.116 131.37,50.82 129.774,52.14 L129.774,52.14 L129.186,51.432 C130.578,50.256 131.514,48.78 131.97,46.992 C132.306,45.492 132.486,43.584 132.486,41.256 L132.486,41.256 Z M39.198,41.7 L39.198,42.54 L37.23,42.54 L37.23,49.296 L39.33,49.08 L39.33,49.896 L39.33,49.896 L37.23,50.1 L37.23,52.068 L36.366,52.068 L36.366,50.184 C34.014,50.4 31.53,50.58 28.938,50.748 L28.938,50.748 L28.734,49.92 C29.454,49.884 30.162,49.848 30.858,49.8 L30.858,49.8 L30.858,42.54 L28.854,42.54 L28.854,41.7 L39.198,41.7 Z M25.314,41.676 L24.702,46.272 L27.09,46.272 C26.958,48.984 26.742,50.616 26.43,51.168 C26.106,51.708 25.434,51.984 24.426,51.984 C24.018,51.984 23.55,51.972 22.998,51.948 L22.998,51.948 L22.77,51.12 C23.37,51.168 23.922,51.204 24.426,51.204 C25.05,51.204 25.47,51.024 25.686,50.664 C25.902,50.316 26.058,49.128 26.166,47.112 L26.166,47.112 L18.594,47.112 L19.374,43.272 L20.25,43.356 L19.698,46.272 L23.79,46.272 L24.33,42.516 L17.85,42.516 L17.85,41.676 L25.314,41.676 Z M47.982,41.184 L47.982,43.836 L50.61,42.996 C50.61,45.528 50.55,47.064 50.442,47.604 C50.322,48.132 49.854,48.408 49.014,48.408 L49.014,48.408 L48.822,48.408 L48.57,47.568 C48.798,47.58 49.002,47.592 49.194,47.592 C49.446,47.592 49.602,47.448 49.662,47.16 C49.71,46.896 49.734,45.9 49.746,44.184 L49.746,44.184 L47.982,44.736 L47.982,49.548 L47.118,49.548 L47.118,45.012 L45.33,45.576 L45.33,50.58 C45.33,50.952 45.522,51.144 45.93,51.144 L45.93,51.144 L49.698,51.144 C50.01,51.144 50.226,51.048 50.37,50.88 C50.49,50.7 50.574,50.076 50.622,49.008 L50.622,49.008 L51.438,49.284 C51.366,50.544 51.222,51.312 51.018,51.576 C50.802,51.84 50.406,51.972 49.842,51.972 L49.842,51.972 L45.714,51.972 C44.874,51.972 44.466,51.54 44.466,50.7 L44.466,50.7 L44.466,45.852 L43.326,46.212 L43.326,45.336 L44.466,44.964 L44.466,42.3 L45.33,42.3 L45.33,44.688 L47.118,44.112 L47.118,41.184 L47.982,41.184 Z M148.29,41.76 L148.29,42.612 L145.806,42.612 L145.806,45.984 L148.122,45.984 L148.122,46.788 L145.806,46.788 L145.806,50.94 L148.53,50.94 L148.53,51.792 L141.186,51.792 L141.186,50.94 L142.41,50.94 L142.41,44.592 L143.25,44.592 L143.25,50.94 L144.93,50.94 L144.93,42.612 L141.558,42.612 L141.558,41.76 L148.29,41.76 Z M128.094,44.868 L128.094,50.112 C128.526,49.752 128.994,49.344 129.486,48.876 L129.486,48.876 L129.702,49.764 C128.958,50.472 128.166,51.108 127.326,51.66 L127.326,51.66 L126.99,50.892 C127.17,50.748 127.266,50.568 127.266,50.376 L127.266,50.376 L127.266,45.696 L125.502,45.696 L125.502,44.868 L128.094,44.868 Z M140.058,44.868 L140.058,50.052 C140.442,49.716 140.85,49.332 141.294,48.9 L141.294,48.9 L141.522,49.824 C140.826,50.496 140.094,51.108 139.314,51.648 L139.314,51.648 L138.978,50.868 C139.146,50.724 139.23,50.556 139.23,50.364 L139.23,50.364 L139.23,45.696 L137.49,45.696 L137.49,44.868 L140.058,44.868 Z M101.73,42.384 C102.546,42.4 103.214,42.64 103.734,43.104 C104.262,43.576 104.59,44.188 104.718,44.94 L104.718,44.94 L103.806,44.94 C103.678,44.388 103.434,43.96 103.074,43.656 C102.714,43.36 102.266,43.208 101.73,43.2 C101.434,43.2 101.162,43.252 100.914,43.356 C100.666,43.452 100.446,43.6 100.254,43.8 C99.99,44.056 99.822,44.392 99.75,44.808 C99.678,45.232 99.646,45.872 99.654,46.728 C99.646,47.584 99.678,48.22 99.75,48.636 C99.822,49.06 99.99,49.4 100.254,49.656 C100.446,49.856 100.666,50.004 100.914,50.1 C101.162,50.204 101.434,50.256 101.73,50.256 C102.042,50.256 102.342,50.192 102.63,50.064 C102.91,49.944 103.15,49.764 103.35,49.524 C103.526,49.308 103.65,49.076 103.722,48.828 C103.794,48.58 103.83,48.296 103.83,47.976 L103.83,47.976 L103.83,47.316 L101.73,47.316 L101.73,46.536 L104.742,46.536 L104.742,47.892 C104.75,48.372 104.698,48.784 104.586,49.128 C104.474,49.472 104.282,49.792 104.01,50.088 C103.706,50.416 103.362,50.664 102.978,50.832 C102.586,50.992 102.17,51.072 101.73,51.072 C101.282,51.072 100.882,50.996 100.53,50.844 C100.17,50.7 99.858,50.496 99.594,50.232 C99.21,49.856 98.966,49.416 98.862,48.912 C98.766,48.408 98.726,47.68 98.742,46.728 C98.726,45.776 98.766,45.048 98.862,44.544 C98.966,44.04 99.21,43.6 99.594,43.224 C99.858,42.96 100.17,42.752 100.53,42.6 C100.882,42.456 101.282,42.384 101.73,42.384 Z M90.186,42.456 L92.97,48.516 L95.682,42.456 L96.594,42.456 L96.594,51 L95.682,51 L95.682,44.508 L93.342,49.656 L92.562,49.656 L90.186,44.508 L90.186,51 L89.274,51 L89.274,42.456 L90.186,42.456 Z M109.686,42.456 L112.818,51 L111.846,51 L111.162,49.068 L107.43,49.068 L106.746,51 L105.774,51 L108.918,42.456 L109.686,42.456 Z M36.366,47.676 L31.722,47.676 L31.722,49.74 C33.306,49.632 34.854,49.512 36.366,49.38 L36.366,49.38 L36.366,47.676 Z M24.414,48.708 L24.414,49.548 L16.914,49.548 L16.914,48.708 L24.414,48.708 Z M68.658,41.676 L68.658,48.852 L65.214,48.852 L65.214,41.676 L68.658,41.676 Z M74.658,45.708 L74.658,48.852 L69.618,48.852 L69.618,45.708 L74.658,45.708 Z M109.314,43.764 L107.706,48.276 L110.898,48.276 L109.314,43.764 Z M73.818,46.476 L70.47,46.476 L70.47,48.096 L73.818,48.096 L73.818,46.476 Z M67.83,45.636 L66.054,45.636 L66.054,48.084 L67.83,48.084 L67.83,45.636 Z M36.366,45.108 L31.722,45.108 L31.722,46.884 L36.366,46.884 L36.366,45.108 Z M62.094,45.156 L60.558,45.156 C60.534,45.684 60.462,46.164 60.366,46.584 L60.366,46.584 L62.094,46.584 L62.094,45.156 Z M59.778,45.156 L58.242,45.156 L58.242,46.584 L59.562,46.584 C59.682,46.152 59.754,45.684 59.778,45.156 L59.778,45.156 Z M74.91,41.676 C74.886,43.056 74.79,43.944 74.634,44.34 C74.454,44.88 74.022,45.156 73.338,45.18 C73.074,45.18 72.774,45.168 72.438,45.144 L72.438,45.144 L72.198,44.388 C72.606,44.412 72.954,44.436 73.242,44.436 C73.602,44.424 73.83,44.232 73.902,43.86 C73.974,43.632 74.01,43.176 74.034,42.48 L74.034,42.48 L71.934,42.48 C71.766,43.788 70.95,44.748 69.462,45.348 L69.462,45.348 L69.006,44.628 C70.254,44.172 70.95,43.464 71.106,42.48 L71.106,42.48 L69.39,42.48 L69.39,41.676 Z M67.83,42.456 L66.054,42.456 L66.054,44.856 L67.83,44.856 L67.83,42.456 Z M62.094,43.032 L60.57,43.032 L60.57,44.424 L62.094,44.424 L62.094,43.032 Z M59.79,43.032 L58.242,43.032 L58.242,44.424 L59.79,44.424 L59.79,43.032 Z M36.366,42.54 L31.722,42.54 L31.722,44.316 L36.366,44.316 L36.366,42.54 Z M126.906,41.316 C127.722,41.928 128.406,42.54 128.958,43.164 L128.958,43.164 L128.37,43.764 C127.866,43.176 127.17,42.552 126.306,41.904 L126.306,41.904 Z M138.954,41.316 C139.734,41.94 140.394,42.552 140.934,43.164 L140.934,43.164 L140.346,43.764 C139.854,43.164 139.194,42.54 138.354,41.88 L138.354,41.88 Z M67.3895762,6.93815929 C66.9700365,8.2806546 66.2987889,10.5041969 66.2987889,10.5041969 C66.2987889,10.5041969 65.2080213,10.3573492 64.0543021,10.5041969 C64.368942,11.1544607 65.2080213,12.1508501 65.2080213,14.258991 C65.2080213,16.3671516 63.7920725,20.3946769 58.1598618,20.3946769 C57.2945773,20.3946769 56.2247542,20.127226 56.2247542,20.127226 C56.2247542,20.127226 55.9573033,20.331745 55.9573033,20.9453214 C55.9573033,21.5588782 56.492205,22.0623139 57.5620281,22.2825757 C58.6318316,22.5028375 63.099841,22.5972354 64.7832209,23.8086258 C66.4666008,25.0200162 66.8441924,25.9482523 66.8441924,27.1281767 C66.8441924,28.3081209 65.994631,32.807616 58.4430358,32.807616 C50.8914405,32.807616 49.6171182,29.3936474 49.6171182,27.9147865 C49.6171182,26.4359452 50.5610577,24.7211191 52.5748204,24.1547317 C51.5522061,23.084948 51.4578082,22.8174774 51.4578082,22.1095227 C51.4578082,21.4015484 52.0556418,19.9226874 53.7075557,19.1046117 C52.3388355,18.0662743 50.7498535,16.7604663 50.7498535,13.9286279 C50.7498535,11.0967698 53.031067,7.60940694 58.0339782,7.60940694 C59.494168,7.60940694 60.6916205,8.0795354 61.3670806,8.54448275 L61.4951359,8.63726231 L61.5076801,8.62165571 C61.6673036,8.42775843 63.3641738,6.49974598 67.3895762,6.93815929 Z M18.251775,16.2517855 L18.251775,25.5654157 C18.251775,27.8099223 16.8673119,28.8797257 16.5736558,29.1314534 C16.4401668,29.2458661 15.8646103,29.6593274 15.2587156,30.0901271 L14.894832,30.3484338 C14.2932711,30.7749003 13.7437179,31.1623632 13.6579017,31.2291122 C13.4691059,31.3759599 13.2593262,31.6067038 12.9866343,31.4526052 C12.7366848,31.3113663 12.944976,30.8887393 12.981427,30.8192823 L12.9866343,30.8095725 L18.251775,16.2517855 Z M54.9818978,25.3346758 C54.5728402,25.6650586 54.1323364,26.2314263 54.1323364,27.0337788 C54.1323364,28.7643675 56.9956408,29.3936474 58.3329147,29.3936474 C59.670169,29.3936474 61.9828485,29.1419394 61.9828485,27.7574763 C61.9828485,26.3730133 58.6632975,26.0583733 57.2159222,25.9482523 C56.2255993,25.8728929 55.5446099,25.6134147 55.2132693,25.4570488 L55.0853168,25.3932474 C55.0167623,25.3569888 54.9818978,25.3346758 54.9818978,25.3346758 Z M75.7330557,7.65135697 C79.5402996,7.65135697 82.3564148,9.38194565 82.7811955,12.780132 C82.7811955,13.2993106 82.7762783,14.2245826 82.7748021,15.3383974 L82.7749586,16.6178011 C82.7755399,16.9511201 82.7766033,17.2925788 82.7783182,17.637764 L82.7826669,18.3317956 C82.7835532,18.4478598 82.7845245,18.5640111 82.785587,18.6800862 L82.7931072,19.3743136 C82.822391,21.6950547 82.8938589,23.8519312 83.0589631,24.5057166 L83.0800926,24.5795143 L78.8323252,24.5795143 L77.9670407,23.1793281 C77.9670407,23.1793281 76.2050057,24.972829 73.5147544,24.972829 C70.824503,24.972829 67.7252138,23.0692071 67.7252138,19.4664624 C67.7252138,15.8637178 71.3908707,13.4723832 77.683847,14.0308893 C77.6366776,12.9217387 77.117499,11.5687416 74.8048195,11.5530184 C72.9706255,11.5405328 71.373929,12.2207723 70.7917419,12.5027852 L70.6633914,12.566603 C70.6112337,12.5932778 70.5774856,12.6115635 70.5638715,12.6190392 L70.5570324,12.6228219 L68.7320656,9.33473685 C68.7320656,9.33473685 71.9257724,7.65135697 75.7330557,7.65135697 Z M118.623499,17.019616 C119.193034,17.019616 119.70853,17.1237818 120.156479,17.3292694 C120.603717,17.534757 120.983762,17.8138362 121.285239,18.1593966 C121.585649,18.5038905 121.817444,18.912377 121.974937,19.3727688 C122.131364,19.8313829 122.210644,20.3180828 122.210644,20.8197142 C122.210644,21.3213457 122.131364,21.8080455 121.974937,22.2663041 C121.817444,22.7274069 121.585649,23.1358934 121.285239,23.4800318 C120.983762,23.8259478 120.603717,24.1050269 120.156479,24.3105145 C119.708886,24.5160021 119.193389,24.6201679 118.623499,24.6201679 C118.053609,24.6201679 117.538112,24.5160021 117.090519,24.3105145 C116.642926,24.1050269 116.263236,23.8255923 115.962115,23.4800318 C115.661349,23.1358934 115.429554,22.7274069 115.272416,22.2663041 C115.115634,21.808401 115.036354,21.3217012 115.036354,20.8197142 C115.036354,20.3177272 115.115634,19.8310274 115.272416,19.3727688 C115.429554,18.912377 115.661349,18.5038905 115.962115,18.1593966 C116.263236,17.8141917 116.642926,17.534757 117.090519,17.3292694 C117.538468,17.1237818 118.053964,17.019616 118.623499,17.019616 Z M96.4645784,17.1470681 L96.4645784,21.897102 C96.4645784,22.3969558 96.6064288,22.80722 96.8865745,23.1168734 C97.1631651,23.4233272 97.5869388,23.5786872 98.1458081,23.5786872 C98.7046775,23.5786872 99.1284512,23.4233272 99.4050417,23.1168734 C99.6855429,22.80722 99.8273933,22.3966003 99.8273933,21.897102 L99.8273933,17.1470681 L101.050364,17.1470681 L101.050364,21.8544402 C101.050364,22.2369741 100.987083,22.6010214 100.861586,22.9366274 C100.735023,23.274722 100.5466,23.5726434 100.300939,23.8215038 C100.055989,24.0707197 99.7491801,24.2687415 99.3897546,24.4091699 C99.0321066,24.5495982 98.6133101,24.6203457 98.1458081,24.6203457 C97.6783061,24.6203457 97.2595096,24.5495982 96.9018617,24.4091699 C96.5424361,24.2687415 96.2359823,24.0707197 95.9906771,23.8215038 C95.7450163,23.5726434 95.5565935,23.274722 95.4300302,22.9366274 C95.304889,22.6013769 95.2412518,22.2373297 95.2412518,21.8544402 L95.2412518,17.1470681 L96.4645784,17.1470681 Z M42.4273677,7.60941285 C48.0303925,7.60941285 48.2695058,12.739256 48.2794386,13.1056734 L48.27986,24.5165863 L42.9098393,24.5165863 L42.9098393,13.6506812 C42.9098393,13.6506812 42.5951797,12.0984259 40.8121608,12.0984259 C39.1034533,12.0984259 37.7992877,13.2157836 37.6935737,13.3088967 L37.6866467,13.3150573 L37.6866467,24.5165863 L32.2956422,24.5165863 L32.2953134,13.6449611 C32.2886052,13.5432564 32.159292,12.1193901 30.1769995,12.1193901 C28.2069434,12.1193901 27.1423473,13.178969 27.0570512,13.2672672 L27.0514854,13.2731093 L27.0514854,24.5165863 L21.8492766,24.5165863 L21.8492766,8.04991667 L26.12851,8.04991667 L26.7158615,9.89586742 C26.7158615,9.89586742 29.1491441,7.60941285 32.2956422,7.60941285 C35.1560949,7.60941285 36.3869651,9.68972584 36.5871195,10.0679646 L36.613585,10.1197973 C36.6168433,10.1265916 39.2808697,7.60941285 42.4273677,7.60941285 Z M138.395351,17.1472814 L140.103244,20.3995312 L141.811493,17.1472814 L143.132941,17.1472814 L140.715085,21.5972607 L140.715085,24.4922181 L139.491758,24.4922181 L139.491758,21.5972607 L137.109054,17.2130522 L137.109987,18.1889399 L135.019559,18.1889399 L135.019559,24.4922181 L133.796588,24.4922181 L133.796588,18.1889399 L131.706161,18.1889399 L131.706161,17.1472814 L138.395351,17.1472814 Z M91.5088792,17.1471392 L94.4312112,24.4920759 L93.1670004,24.4920759 L92.5164082,22.7749392 L89.3669022,22.7749392 L88.7269755,24.4920759 L87.4620536,24.4920759 L90.3847412,17.1471392 L91.5088792,17.1471392 Z M107.257831,17.1472814 L107.257831,18.1889399 L105.167049,18.1889399 L105.167049,24.4922181 L103.944078,24.4922181 L103.944078,18.1889399 L101.85365,18.1889399 L101.85365,17.1472814 L107.257831,17.1472814 Z M125.267929,17.1472458 C125.660062,17.1472458 126.030864,17.1916852 126.370025,17.2791418 C126.712031,17.3673095 127.016707,17.5006276 127.276233,17.6741188 C127.539669,17.8511652 127.749778,18.0765616 127.901228,18.3446198 C128.052677,18.6144556 128.129824,18.9269532 128.129824,19.2732246 C128.129824,19.7915653 127.960243,20.2491129 127.625348,20.6327134 C127.328493,20.9732966 126.921784,21.2321114 126.414465,21.4045361 L128.969905,24.4921826 L127.449724,24.4921826 L125.136389,21.6349098 C125.109014,21.6359763 125.076662,21.6373984 125.038978,21.6391759 C124.966453,21.6430866 124.889661,21.6445087 124.809315,21.6445087 L124.524903,21.6445087 L124.524903,24.4921826 L123.301932,24.4921826 L123.301932,17.1472458 L125.267929,17.1472458 Z M109.327106,17.1472814 L109.327106,20.2299506 L112.721917,20.2299506 L112.721917,17.1472814 L113.944888,17.1472814 L113.944888,24.4922181 L112.721917,24.4922181 L112.721917,21.30325 L109.327106,21.30325 L109.327106,24.4922181 L108.103779,24.4922181 L108.103779,17.1472814 L109.327106,17.1472814 Z M130.806495,17.1470681 L130.806495,24.4920048 L129.583524,24.4920048 L129.583524,17.1470681 L130.806495,17.1470681 Z M118.623499,18.0502535 C118.238476,18.0502535 117.893982,18.1234896 117.599616,18.2674731 C117.304894,18.4114566 117.056745,18.6080563 116.862278,18.8526505 C116.667101,19.0983113 116.516362,19.3933886 116.41433,19.7297057 C116.311586,20.0681558 116.259681,20.4350471 116.259681,20.8197142 C116.259681,21.2043813 116.311586,21.5712726 116.41433,21.9097227 C116.516362,22.2463953 116.667456,22.5436057 116.862989,22.7928216 C117.056745,23.0399044 117.304183,23.2365041 117.59855,23.3769325 C117.893627,23.5177164 118.238476,23.5891749 118.623499,23.5891749 C119.008877,23.5891749 119.353726,23.5177164 119.648804,23.3769325 C119.942815,23.2365041 120.190253,23.0399044 120.384364,22.7928216 C120.580253,22.5428947 120.731346,22.2456843 120.832668,21.9097227 C120.935412,21.5716281 120.987673,21.2047368 120.987673,20.8197142 C120.987673,20.4346916 120.935412,20.0678003 120.832668,19.7297057 C120.731346,19.3944552 120.580608,19.0993779 120.38472,18.852295 C120.190253,18.6080563 119.942104,18.4114566 119.647737,18.2674731 C119.353371,18.1234896 119.008522,18.0502535 118.623499,18.0502535 Z M90.9468102,18.5133827 L89.7551244,21.7443017 L92.138496,21.7443017 L90.9468102,18.5133827 Z M3.68427856,10.9814372 L3.69398798,10.9866449 L18.251775,16.2517855 L3.69398798,21.5169262 C3.69398798,21.5169262 3.20505377,21.7896181 3.05095526,21.5169262 C2.89687646,21.2442343 3.1276203,21.0344546 3.27446804,20.8456589 C3.42129608,20.6568828 5.1203991,18.2235805 5.37210712,17.9299244 C5.62383484,17.6362486 6.69365796,16.2517855 8.93816447,16.2517855 L8.67443935,16.2452985 C6.60938106,16.1427738 5.61376573,14.8555754 5.37210712,14.5736467 C5.1203991,14.2799906 3.42129608,11.8466883 3.27446804,11.6579122 C3.1276203,11.4691164 2.89687646,11.2593368 3.05095526,10.9866449 C3.19221223,10.7366773 3.61482419,10.9449836 3.68427856,10.9814372 Z M74.6946788,17.2953896 C73.5934291,17.5785636 72.9011779,18.5067801 72.9011779,19.1675456 C72.9011779,19.8282915 73.4203565,20.9295806 75.1666486,20.9295806 C76.8335826,20.9295806 77.5544281,20.2988489 77.6165155,20.2415097 L77.6209348,20.237349 L77.6209348,17.1380401 C77.6209348,17.1380401 75.7959679,17.012196 74.6946788,17.2953896 Z M125.257264,18.1782389 L124.524903,18.1782389 L124.524903,20.6135156 L124.894639,20.6135156 C125.184028,20.6135156 125.457419,20.5857854 125.705924,20.5313917 C125.950873,20.4773534 126.166315,20.3945184 126.346206,20.2846644 C126.520408,20.1780099 126.659414,20.0411367 126.759314,19.8772443 C126.857081,19.7158406 126.906853,19.5199519 126.906853,19.2945555 C126.906853,19.0972448 126.864191,18.9265976 126.779934,18.7861693 C126.694966,18.6446744 126.578357,18.5294875 126.433307,18.4445195 C126.282569,18.3556408 126.1041,18.288804 125.903234,18.2447202 C125.700235,18.2009918 125.48266,18.1782389 125.257264,18.1782389 Z M57.9553231,11.4114295 C56.350618,11.4114295 55.5010567,13.1419985 55.5010567,14.0308874 C55.5010567,14.9197763 56.2090113,16.6503452 57.9553231,16.6503452 C59.701635,16.6503452 60.5197304,15.3602801 60.5197304,14.0702149 C60.5197304,12.7801497 59.1824564,11.4114295 57.9553231,11.4114295 Z M13.6579017,1.27447862 C13.8466974,1.42130665 16.27998,3.12040967 16.5736558,3.37211769 C16.8673119,3.62384541 18.251775,4.69366853 18.251775,6.93815535 L18.251775,16.2517855 L12.9866343,1.69399855 C12.9866343,1.69399855 12.7139621,1.20504464 12.9866343,1.05096584 C13.2593262,0.89686733 13.4691059,1.12761117 13.6579017,1.27447862 Z M160.671378,7.77605217 C161.074532,7.77605217 161.466309,7.81089262 161.834978,7.87950699 C162.206491,7.94847687 162.546719,8.05797544 162.846773,8.20444756 L162.931386,8.24533177 L162.723409,9.25712702 L162.58938,9.20415531 C162.291814,9.0864799 161.976828,8.99120192 161.654021,8.92187652 C161.333346,8.85290664 161.006273,8.81806619 160.682399,8.81806619 C159.838051,8.81806619 159.16755,9.06550452 158.688671,9.55362641 C158.209082,10.0424593 157.96591,10.7499339 157.96591,11.6561412 C157.96591,12.5278636 158.194506,13.2033418 158.64601,13.6637336 C159.096447,14.1234143 159.788634,14.356632 160.703374,14.356632 C160.924149,14.356632 161.150256,14.3409894 161.374942,14.3100596 C161.559454,14.2844625 161.722991,14.2524662 161.862708,14.2154926 L161.862708,11.8715832 L163,11.8715832 L163,14.9357657 L162.926764,14.9674065 C162.648751,15.085793 162.29217,15.1849816 161.866263,15.2621283 C161.440001,15.338564 161.009472,15.3773151 160.586054,15.3773151 C159.991278,15.3773151 159.449473,15.2863033 158.975572,15.1078349 C158.499893,14.9286554 158.090695,14.6719737 157.760067,14.3449 C157.429082,14.0178264 157.173823,13.6210718 157.001398,13.1656573 C156.83004,12.7141534 156.742939,12.2082558 156.742939,11.6618295 C156.742939,11.0951388 156.833595,10.5682658 157.012063,10.094009 C157.191243,9.61833011 157.453257,9.2037998 157.790996,8.86286106 C158.128025,8.52192232 158.543977,8.25244206 159.027122,8.0618861 C159.508489,7.87239669 160.06167,7.77605217 160.671378,7.77605217 Z M126.862058,7.77605217 C127.265567,7.77605217 127.656989,7.81089262 128.025302,7.87950699 C128.396815,7.94847687 128.737399,8.05797544 129.037453,8.20444756 L129.12171,8.24533177 L128.913734,9.25712702 L128.78006,9.20415531 C128.482139,9.0864799 128.167508,8.99120192 127.844345,8.92187652 C127.523671,8.85290664 127.196953,8.81806619 126.873079,8.81806619 C126.028731,8.81806619 125.35823,9.06550452 124.879352,9.55362641 C124.399762,10.0424593 124.15659,10.7499339 124.15659,11.6561412 C124.15659,12.5278636 124.385186,13.2033418 124.83669,13.6637336 C125.287127,14.1234143 125.979314,14.356632 126.894054,14.356632 C127.115184,14.356632 127.340936,14.3409894 127.565622,14.3100596 C127.750134,14.2844625 127.913671,14.2524662 128.053033,14.2154926 L128.053033,11.8715832 L129.191036,11.8715832 L129.191036,14.9357657 L129.117089,14.9674065 C128.839431,15.085793 128.482495,15.1849816 128.056943,15.2621283 C127.631036,15.338564 127.200152,15.3773151 126.776734,15.3773151 C126.181958,15.3773151 125.640153,15.2863033 125.166252,15.1078349 C124.690573,14.9286554 124.281376,14.6719737 123.950747,14.3449 C123.619762,14.0178264 123.364503,13.6210718 123.192078,13.1656573 C123.02072,12.7141534 122.933619,12.2082558 122.933619,11.6618295 C122.933619,11.0951388 123.024275,10.5682658 123.202744,10.094009 C123.381923,9.61833011 123.643937,9.2037998 123.981677,8.86286106 C124.318705,8.52192232 124.734657,8.25244206 125.217802,8.0618861 C125.699169,7.87239669 126.25235,7.77605217 126.862058,7.77605217 Z M105.530278,7.90385975 L105.530278,14.2074935 L108.494916,14.2074935 L108.494916,15.249152 L104.306596,15.249152 L104.306596,7.90385975 L105.530278,7.90385975 Z M118.407204,7.90385975 L121.329536,15.249152 L120.064969,15.249152 L119.414733,13.5320153 L116.265227,13.5320153 L115.6253,15.249152 L114.360023,15.249152 L117.28271,7.90385975 L118.407204,7.90385975 Z M100.531775,7.90385975 L103.454107,15.249152 L102.189896,15.249152 L101.539304,13.5320153 L98.389798,13.5320153 L97.7498712,15.249152 L96.4849494,15.249152 L99.407637,7.90385975 L100.531775,7.90385975 Z M89.4975539,7.90385975 L91.8531953,12.7705025 L94.2091922,7.90385975 L95.282847,7.90385975 L95.8122086,15.249152 L94.6301218,15.249152 L94.3098029,10.0632569 L92.4305514,13.9689431 L91.2758392,13.9689431 L89.3962322,10.0632569 L89.0766243,15.249152 L87.8945374,15.249152 L88.4238991,7.90385975 L89.4975539,7.90385975 Z M150.697551,7.9038953 L154.492672,13.2255971 L154.492672,7.9038953 L155.672626,7.9038953 L155.672626,15.2491876 L154.551332,15.2491876 L150.756211,9.92784134 L150.756211,15.2491876 L149.575546,15.2491876 L149.575546,7.9038953 L150.697551,7.9038953 Z M114.126272,7.90385975 L114.126272,8.94587377 L112.035489,8.94587377 L112.035489,15.249152 L110.812518,15.249152 L110.812518,8.94587377 L108.72209,8.94587377 L108.72209,7.90385975 L114.126272,7.90385975 Z M139.181536,7.9038953 L141.537889,12.7705381 L143.89353,7.9038953 L144.966829,7.9038953 L145.496546,15.2491876 L144.31446,15.2491876 L143.994852,10.0632925 L142.114889,13.9689786 L140.960532,13.9689786 L139.08057,10.0632925 L138.760962,15.2491876 L137.578875,15.2491876 L138.108237,7.9038953 L139.181536,7.9038953 Z M133.983376,7.9037531 L136.906063,15.2490454 L135.641497,15.2490454 L134.990905,13.5319087 L131.841399,13.5319087 L131.201472,15.2490454 L129.93655,15.2490454 L132.859238,7.9037531 L133.983376,7.9037531 Z M148.057498,7.903682 L148.057498,15.2489743 L146.834527,15.2489743 L146.834527,7.903682 L148.057498,7.903682 Z M99.9697059,9.27045883 L98.7780202,12.5006667 L101.161392,12.5006667 L99.9697059,9.27045883 Z M117.844779,9.27045883 L116.653093,12.5006667 L119.036821,12.5006667 L117.844779,9.27045883 Z M133.420951,9.27035218 L132.229266,12.5009156 L134.612993,12.5009156 L133.420951,9.27035218 Z" id="形状结合" fill="#FFFFFF" opacity="0.400000006" mask="url(#mask-2)"></path>
            </g>
        </g>
    </g>
</svg>