<?xml version="1.0" encoding="UTF-8"?>
<svg width="168px" height="54px" viewBox="0 0 168 54" version="1.1" xmlns="http://www.w3.org/2000/svg" xmlns:xlink="http://www.w3.org/1999/xlink">
    <title>footer_bvi</title>
    <defs>
        <rect id="path-1" x="0" y="0" width="168" height="54"></rect>
    </defs>
    <g id="模版编号_首页" stroke="none" stroke-width="1" fill="none" fill-rule="evenodd">
        <g id="标准footer文件" transform="translate(-879.000000, -164.000000)">
            <g id="bvi" transform="translate(879.000000, 164.000000)">
                <mask id="mask-2" fill="white">
                    <use xlink:href="#path-1"></use>
                </mask>
                <use id="矩形备份-3" fill="#D8D8D8" opacity="0" xlink:href="#path-1"></use>
                <path d="M15.468,43.884 L15.468,45.048 L18.828,45.048 L18.828,47.964 L20.352,47.964 L20.352,48.768 L16.056,48.768 C16.704,49.944 18.168,50.856 20.448,51.516 L20.448,51.516 L19.98,52.284 C17.424,51.42 15.84,50.256 15.216,48.768 L15.216,48.768 L14.952,48.768 C14.736,49.296 14.46,49.752 14.136,50.148 C13.332,51.06 12.012,51.78 10.176,52.284 L10.176,52.284 L9.708,51.528 C11.532,51.024 12.792,50.376 13.512,49.56 C13.704,49.308 13.872,49.044 14.004,48.768 L14.004,48.768 L9.696,48.768 L9.696,47.964 L11.196,47.964 L11.196,45.048 L14.58,45.048 L14.58,43.884 L15.468,43.884 Z M124.776,41.076 C125.292,41.844 125.7,42.672 126.012,43.548 C126.36,44.58 126.54,45.624 126.54,46.692 C126.54,47.736 126.36,48.78 126.012,49.812 C125.7,50.676 125.292,51.504 124.776,52.284 L124.776,52.284 L123.936,52.284 C124.416,51.48 124.788,50.652 125.076,49.8 C125.424,48.744 125.604,47.7 125.604,46.68 C125.604,45.648 125.424,44.616 125.076,43.56 C124.788,42.696 124.416,41.868 123.936,41.076 L123.936,41.076 Z M104.064,41.076 C103.584,41.868 103.2,42.696 102.924,43.56 C102.564,44.616 102.396,45.648 102.396,46.68 C102.396,47.7 102.564,48.744 102.924,49.8 C103.2,50.652 103.584,51.48 104.064,52.284 L104.064,52.284 L103.224,52.284 C102.696,51.504 102.288,50.676 101.988,49.812 C101.628,48.78 101.46,47.736 101.46,46.692 C101.46,45.624 101.628,44.58 101.988,43.548 C102.288,42.672 102.696,41.844 103.224,41.076 L103.224,41.076 Z M86.136,41.052 L87,41.172 C86.904,41.58 86.76,41.952 86.58,42.3 L86.58,42.3 L90.384,42.3 C90.288,44.052 90.156,45.084 89.964,45.396 C89.772,45.72 89.4,45.888 88.872,45.888 L88.872,45.888 L88.104,45.888 L87.84,45.096 C88.236,45.108 88.584,45.12 88.872,45.12 C89.064,45.12 89.208,45.036 89.292,44.88 C89.364,44.724 89.424,44.124 89.472,43.092 L89.472,43.092 L84.204,43.092 L84.204,46.752 L91.668,46.752 C91.644,49.512 91.476,51.12 91.164,51.564 C90.852,51.984 90.336,52.2 89.592,52.2 L89.592,52.2 L88.836,52.2 L88.632,51.48 L82.452,51.48 L82.452,48.864 L83.28,48.864 L83.28,50.676 L85.248,50.676 L85.248,48.228 L86.088,48.228 L86.088,50.676 L88.056,50.676 L88.056,48.852 L88.896,48.852 L88.896,51.372 C89.184,51.372 89.424,51.384 89.616,51.384 C90.024,51.384 90.324,51.24 90.504,50.976 C90.696,50.676 90.804,49.536 90.804,47.544 L90.804,47.544 L83.328,47.544 L83.328,42.3 L85.704,42.3 C85.896,41.892 86.04,41.484 86.136,41.052 L86.136,41.052 Z M31.284,44.28 L31.644,44.904 C30.696,45.024 29.592,45.108 28.344,45.168 L28.344,45.168 L28.344,45.828 L31.224,45.828 L31.224,47.916 L28.344,47.916 L28.344,48.6 L32.04,48.6 L32.04,51.168 C32.04,51.828 31.716,52.164 31.092,52.164 L31.092,52.164 L29.832,52.164 L29.64,51.432 L30.852,51.468 C31.116,51.468 31.26,51.312 31.26,51 L31.26,51 L31.26,49.296 L29.832,49.296 C30.12,49.872 30.372,50.46 30.588,51.084 L30.588,51.084 L29.988,51.348 C29.916,51.156 29.856,50.964 29.796,50.796 C28.548,50.964 27.228,51.12 25.824,51.252 L25.824,51.252 L25.644,50.532 C26.292,50.484 26.916,50.448 27.528,50.4 L27.528,50.4 L27.528,49.296 L24.924,49.296 L24.924,52.2 L24.12,52.2 L24.12,48.6 L27.528,48.6 L27.528,47.916 L24.696,47.916 L24.696,45.828 L27.528,45.828 L27.528,45.204 C26.544,45.228 25.476,45.252 24.348,45.252 L24.348,45.252 L24.132,44.604 C27,44.604 29.388,44.496 31.284,44.28 L31.284,44.28 Z M78.912,41.136 L79.728,41.424 C79.476,42.192 79.188,42.876 78.876,43.488 L78.876,43.488 L80.208,43.488 L80.208,44.316 L78.216,44.316 L78.216,46.056 L79.956,46.056 L79.956,46.86 L78.216,46.86 L78.216,48.6 L80.472,48.6 L80.472,49.428 L78.216,49.428 L78.216,52.188 L77.364,52.188 L77.364,49.428 L75.132,49.428 L75.132,48.6 L77.364,48.6 L77.364,46.86 L75.504,46.86 L75.504,46.056 L77.364,46.056 L77.364,44.316 L75.216,44.316 L75.216,43.488 L76.632,43.488 C76.296,42.768 75.96,42.132 75.612,41.568 L75.612,41.568 L76.344,41.22 C76.704,41.796 77.052,42.444 77.376,43.14 L77.376,43.14 L76.656,43.488 L78.012,43.488 C78.36,42.744 78.66,41.964 78.912,41.136 L78.912,41.136 Z M41.832,41.16 C42.096,41.88 42.312,42.528 42.468,43.128 L42.468,43.128 L42.144,43.248 L44.316,43.248 L44.316,44.064 L42.408,44.064 L42.408,45.696 L44.112,45.696 L44.112,46.5 L42.408,46.5 L42.408,48.132 L44.112,48.132 L44.112,48.924 L42.408,48.924 L42.408,50.748 L44.556,50.748 L44.556,51.552 L39.444,51.552 L39.444,52.176 L38.604,52.176 L38.604,45.084 C38.268,45.66 37.908,46.2 37.512,46.728 L37.512,46.728 L37.248,45.852 C38.196,44.436 38.868,42.9 39.264,41.22 L39.264,41.22 L40.092,41.388 C39.924,42.036 39.732,42.648 39.492,43.248 L39.492,43.248 L41.676,43.248 C41.484,42.612 41.256,41.988 40.992,41.388 L40.992,41.388 Z M51.552,44.52 L51.552,51.012 C51.552,51.768 51.18,52.152 50.46,52.152 L50.46,52.152 L48.936,52.152 L48.756,51.3 C49.248,51.336 49.716,51.36 50.16,51.36 C50.496,51.36 50.664,51.168 50.664,50.796 L50.664,50.796 L50.664,44.52 L51.552,44.52 Z M143.388,41.256 C143.388,42.264 143.352,43.212 143.28,44.076 C143.916,47.148 145.02,49.596 146.592,51.396 L146.592,51.396 L145.968,52.116 C144.684,50.484 143.712,48.468 143.04,46.092 C142.98,46.428 142.92,46.74 142.86,47.052 C142.404,49.116 141.384,50.82 139.788,52.14 L139.788,52.14 L139.2,51.432 C140.592,50.256 141.528,48.78 141.984,46.992 C142.32,45.492 142.5,43.584 142.5,41.256 L142.5,41.256 Z M74.208,41.664 L74.208,43.8 L74.88,43.8 L74.88,44.568 L74.208,44.568 L74.208,46.668 L71.748,46.668 C71.64,47.088 71.52,47.472 71.388,47.832 L71.388,47.832 L74.532,47.832 L74.532,52.104 L73.764,52.104 L73.764,51.408 L71.868,51.408 L71.868,52.128 L71.1,52.128 L71.1,48.54 C70.776,49.236 70.392,49.848 69.936,50.352 L69.936,50.352 L69.48,49.632 C70.14,48.888 70.632,47.904 70.956,46.668 L70.956,46.668 L70.02,46.668 L70.02,45.924 L71.136,45.924 C71.22,45.492 71.292,45.036 71.34,44.568 L71.34,44.568 L69.732,44.568 L69.732,43.8 L71.412,43.8 C71.436,43.344 71.46,42.888 71.472,42.408 L71.472,42.408 L70.092,42.408 L70.092,41.664 L74.208,41.664 Z M66.852,44.46 L66.852,47.82 L63.504,47.82 L63.504,51.024 C63.504,51.744 63.132,52.104 62.412,52.104 L62.412,52.104 L61.116,52.104 L60.924,51.276 C61.332,51.312 61.728,51.336 62.112,51.336 C62.46,51.336 62.64,51.156 62.64,50.808 L62.64,50.808 L62.64,47.82 L59.208,47.82 L59.208,44.46 L66.852,44.46 Z M31.788,41.652 L31.788,43.896 L23.592,43.896 L23.592,45.168 C23.58,47.832 23.112,50.124 22.2,52.032 L22.2,52.032 L21.564,51.456 C22.344,49.836 22.74,47.736 22.752,45.168 L22.752,45.168 L22.752,41.652 L31.788,41.652 Z M60.42,48.6 L61.02,49.152 C60.252,50.208 59.316,51.144 58.188,51.936 L58.188,51.936 L57.648,51.24 C58.74,50.496 59.664,49.608 60.42,48.6 L60.42,48.6 Z M65.616,48.588 C66.708,49.5 67.632,50.4 68.376,51.288 L68.376,51.288 L67.74,51.924 C67.08,51.06 66.18,50.136 65.052,49.152 L65.052,49.152 Z M158.304,41.76 L158.304,42.612 L155.82,42.612 L155.82,45.984 L158.136,45.984 L158.136,46.788 L155.82,46.788 L155.82,50.94 L158.544,50.94 L158.544,51.792 L151.2,51.792 L151.2,50.94 L152.424,50.94 L152.424,44.592 L153.264,44.592 L153.264,50.94 L154.944,50.94 L154.944,42.612 L151.572,42.612 L151.572,41.76 L158.304,41.76 Z M37.764,49.8 L37.764,50.628 C36.576,51.084 35.22,51.456 33.708,51.744 L33.708,51.744 L33.6,50.88 C35.184,50.616 36.576,50.256 37.764,49.8 L37.764,49.8 Z M138.108,44.868 L138.108,50.112 C138.54,49.752 139.008,49.344 139.5,48.876 L139.5,48.876 L139.716,49.764 C138.972,50.472 138.18,51.108 137.34,51.66 L137.34,51.66 L137.004,50.892 C137.184,50.748 137.28,50.568 137.28,50.376 L137.28,50.376 L137.28,45.696 L135.516,45.696 L135.516,44.868 L138.108,44.868 Z M150.072,44.868 L150.072,50.052 C150.456,49.716 150.864,49.332 151.308,48.9 L151.308,48.9 L151.536,49.824 C150.84,50.496 150.108,51.108 149.328,51.648 L149.328,51.648 L148.992,50.868 C149.16,50.724 149.244,50.556 149.244,50.364 L149.244,50.364 L149.244,45.696 L147.504,45.696 L147.504,44.868 L150.072,44.868 Z M53.76,46.392 C54.672,47.808 55.476,49.332 56.148,50.964 L56.148,50.964 L55.356,51.324 C54.636,49.56 53.844,48 52.98,46.644 L52.98,46.644 Z M48.42,46.38 L49.164,46.752 C48.432,48.432 47.568,49.872 46.584,51.096 L46.584,51.096 L45.864,50.592 C46.848,49.416 47.7,48.012 48.42,46.38 L48.42,46.38 Z M121.74,42.456 L121.74,51 L120.828,51 L120.828,42.456 L121.74,42.456 Z M109.476,42.456 C110.236,42.464 110.844,42.664 111.3,43.056 C111.756,43.456 111.988,44.016 111.996,44.736 C111.988,45.192 111.868,45.584 111.636,45.912 C111.404,46.24 111.104,46.472 110.736,46.608 C111.152,46.76 111.488,47.008 111.744,47.352 C111.992,47.696 112.12,48.124 112.128,48.636 C112.12,49.412 111.884,50 111.42,50.4 C110.964,50.8 110.352,51 109.584,51 L109.584,51 L106.26,51 L106.26,42.456 Z M114.096,42.456 L116.315,49.367 L118.536,42.456 L119.496,42.456 L116.688,51 L115.944,51 L113.136,42.456 L114.096,42.456 Z M41.568,48.924 L39.444,48.924 L39.444,50.748 L41.568,50.748 L41.568,48.924 Z M73.764,48.624 L71.868,48.624 L71.868,50.64 L73.764,50.64 L73.764,48.624 Z M29.148,49.296 L28.296,49.296 L28.296,50.328 L29.556,50.184 C29.424,49.86 29.292,49.56 29.148,49.296 L29.148,49.296 Z M109.5,47.052 L107.172,47.052 L107.172,50.184 L109.5,50.184 C110.036,50.176 110.456,50.032 110.76,49.752 C111.056,49.48 111.208,49.1 111.216,48.612 C111.208,48.124 111.056,47.744 110.76,47.472 C110.456,47.2 110.036,47.06 109.5,47.052 L109.5,47.052 Z M35.592,41.16 L36.42,41.484 C35.856,43.02 35.28,44.256 34.704,45.18 C35.196,45.108 35.7,45.024 36.204,44.916 C36.42,44.46 36.636,43.992 36.864,43.5 L36.864,43.5 L37.62,43.788 C36.612,45.852 35.784,47.328 35.124,48.216 C35.916,48.024 36.696,47.76 37.488,47.412 L37.488,47.412 L37.488,48.204 C36.312,48.684 35.184,49.02 34.104,49.2 L34.104,49.2 L33.864,48.408 C34.02,48.348 34.152,48.264 34.26,48.168 C34.68,47.688 35.196,46.86 35.796,45.708 C35.172,45.828 34.536,45.948 33.888,46.056 L33.888,46.056 L33.672,45.264 C33.804,45.204 33.924,45.096 34.032,44.94 C34.632,43.836 35.148,42.576 35.592,41.16 L35.592,41.16 Z M41.568,46.5 L39.444,46.5 L39.444,48.132 L41.568,48.132 L41.568,46.5 Z M17.988,45.852 L15.468,45.852 L15.468,46.212 C15.444,46.86 15.36,47.436 15.228,47.964 L15.228,47.964 L17.988,47.964 L17.988,45.852 Z M14.58,45.852 L12.036,45.852 L12.036,47.964 L14.316,47.964 C14.472,47.424 14.556,46.836 14.58,46.212 L14.58,46.212 L14.58,45.852 Z M30.444,46.464 L28.344,46.464 L28.344,47.292 L30.444,47.292 L30.444,46.464 Z M27.528,46.464 L25.488,46.464 L25.488,47.292 L27.528,47.292 L27.528,46.464 Z M65.988,45.288 L60.072,45.288 L60.072,46.992 L65.988,46.992 L65.988,45.288 Z M109.404,43.272 L107.172,43.272 L107.172,46.236 L109.404,46.236 C109.892,46.236 110.292,46.116 110.604,45.876 C110.916,45.636 111.076,45.26 111.084,44.748 C111.076,44.244 110.916,43.872 110.604,43.632 C110.292,43.392 109.892,43.272 109.404,43.272 L109.404,43.272 Z M48.504,41.076 L49.332,41.304 C49.188,41.76 49.044,42.204 48.888,42.612 L48.888,42.612 L55.524,42.612 L55.524,43.164 C55.344,44.028 55.116,44.88 54.828,45.72 L54.828,45.72 L53.976,45.48 C54.228,44.868 54.444,44.184 54.612,43.44 L54.612,43.44 L48.528,43.44 C48.024,44.496 47.412,45.36 46.716,46.044 L46.716,46.044 L46.104,45.468 C47.196,44.292 48,42.828 48.504,41.076 L48.504,41.076 Z M73.416,44.568 L72.12,44.568 C72.06,45.048 71.988,45.492 71.916,45.924 L71.916,45.924 L73.416,45.924 L73.416,44.568 Z M85.572,43.692 C86.244,44.124 86.868,44.652 87.444,45.252 L87.444,45.252 L86.94,45.84 C86.34,45.204 85.704,44.652 85.02,44.196 L85.02,44.196 Z M41.568,44.064 L39.444,44.064 L39.444,45.696 L41.568,45.696 L41.568,44.064 Z M13.44,41.184 L13.44,42.252 L16.608,42.252 L16.608,41.184 L17.496,41.184 L17.496,42.252 L20.292,42.252 L20.292,43.044 L17.496,43.044 L17.496,44.22 L16.608,44.22 L16.608,43.044 L13.44,43.044 L13.44,44.22 L12.552,44.22 L12.552,43.044 L9.756,43.044 L9.756,42.252 L12.552,42.252 L12.552,41.184 L13.44,41.184 Z M73.416,42.408 L72.252,42.408 C72.24,42.888 72.216,43.356 72.192,43.8 L72.192,43.8 L73.416,43.8 L73.416,42.408 Z M136.92,41.316 C137.736,41.928 138.42,42.54 138.972,43.164 L138.972,43.164 L138.384,43.764 C137.88,43.176 137.184,42.552 136.32,41.904 L136.32,41.904 Z M148.968,41.316 C149.748,41.94 150.408,42.552 150.948,43.164 L150.948,43.164 L150.36,43.764 C149.868,43.164 149.208,42.54 148.368,41.88 L148.368,41.88 Z M62.88,41.136 C63.072,41.544 63.252,41.988 63.42,42.492 L63.42,42.492 L68.34,42.492 L68.34,43.296 L57.708,43.296 L57.708,42.492 L62.544,42.492 C62.376,42.06 62.196,41.652 61.992,41.292 L61.992,41.292 Z M30.96,42.348 L23.592,42.348 L23.592,43.236 L30.96,43.236 L30.96,42.348 Z M21.3,1.2 C29.970877,1.2 37,8.22912991 37,16.8999847 C37,25.5709008 29.970877,32.6 21.3,32.6 C12.629123,32.6 5.6,25.5709008 5.6,16.8999847 C5.6,8.22912991 12.629123,1.2 21.3,1.2 Z M21.2671281,29.8949977 C20.6988924,29.8860745 20.3000756,30.2375157 20.2919496,30.7550642 C20.2849582,31.1989883 20.5881031,31.6072193 21.194393,31.6167559 C21.3872086,31.6197916 21.5857584,31.5772299 21.6595975,31.563155 C21.689058,31.504648 21.7351288,31.387858 21.7721312,31.2819821 L21.8051598,31.182307 L21.7294195,31.1557519 C21.5960615,31.4073815 21.4673338,31.5246103 21.2086211,31.5205626 C20.7976307,31.5140925 20.5489145,31.1955539 20.5566111,30.7059403 C20.5631732,30.2873755 20.7887381,29.9813478 21.2073332,29.9879406 C21.3037104,29.9894738 21.4074469,30.0088229 21.4729453,30.0403149 C21.5757558,30.0845938 21.634253,30.1606064 21.6781257,30.2766737 L21.708752,30.3713644 L21.7876813,30.3548671 C21.7694055,30.2277032 21.7540428,30.07518 21.7456715,29.9608949 C21.6621732,29.9468814 21.4853029,29.8984321 21.2671281,29.8949977 Z M23.1706305,29.7942662 C23.1448989,29.7992338 23.0691312,29.8095181 22.8986817,29.8283441 L22.8053602,29.8384838 L22.0333924,29.9210009 L22.0409051,29.991651 C22.208143,29.9893972 22.2513511,29.9965107 22.2756043,30.1487574 L22.2851443,30.2232875 L22.391702,31.2197479 C22.4110471,31.4007503 22.4018206,31.4422278 22.2432939,31.4784054 L22.1658611,31.4939768 L22.1734352,31.5645963 L23.399507,31.4334766 C23.4131955,31.3707747 23.4417597,31.1872807 23.4567983,31.0819611 L23.4650975,31.0207379 L23.3872414,31.0086869 C23.3600117,31.0881683 23.3181246,31.1972098 23.2758082,31.2553182 C23.2370488,31.3125742 23.214696,31.3402553 23.1285226,31.3574841 L23.0506727,31.3687447 L22.8160313,31.3937973 C22.7076907,31.403233 22.65022,31.3977999 22.624135,31.2848468 L22.6136178,31.2189813 L22.559925,30.7169487 L22.8374654,30.6872659 C22.9963858,30.6703087 23.0337648,30.6858439 23.0755898,30.8093037 L23.0941543,30.8690426 L23.1723783,30.8606713 L23.116815,30.341007 L23.038591,30.3493476 C23.0281537,30.5022848 23.0202989,30.5514058 22.8917509,30.5748545 L22.8289102,30.5835599 L22.5488553,30.6135188 L22.4892137,30.0559842 C22.4829827,29.9974771 22.4844448,29.9805751 22.5253296,29.9718685 L22.5638807,29.9663531 L22.8035203,29.9407179 C22.9549088,29.9245273 23.0148264,29.9359956 23.0640729,30.014925 C23.086335,30.0482671 23.1074932,30.0817319 23.1285741,30.1250227 L23.160266,30.1985416 L23.2345957,30.177874 C23.2102178,30.0452211 23.179891,29.8570969 23.1706305,29.7942662 Z M19.4230221,29.8019629 L19.4148041,29.8725516 C19.5932843,29.9134959 19.6301501,29.9280987 19.6196303,30.0763043 L19.6124953,30.1484671 L19.4957266,31.1489445 C19.4738593,31.3363864 19.4547857,31.3657329 19.3101357,31.3691958 L19.2400803,31.3694806 L19.2318623,31.440008 L19.9072383,31.5188454 L19.9154563,31.4482567 C19.7347491,31.407071 19.697417,31.3943162 19.7078552,31.2465968 L19.7149746,31.174549 L19.8317434,30.1740717 C19.853879,29.9844564 19.8729626,29.9548148 20.0192748,29.9515175 L20.0901494,29.9513277 L20.098398,29.8808003 L19.4230221,29.8019629 Z M24.3757281,29.5728408 L24.2734657,29.5726416 C24.2068096,29.5732922 24.1214556,29.5773361 24.0380555,29.5949803 C23.71041,29.6643118 23.5708271,29.9117097 23.6175592,30.1326138 C23.6664377,30.3635144 23.8380951,30.451643 24.1286678,30.5379931 C24.3723244,30.6109123 24.4903811,30.666353 24.530827,30.8574823 C24.5649561,31.0188367 24.4820404,31.1660857 24.3032689,31.2038639 C24.0774051,31.25165 23.930542,31.1099752 23.8405347,30.9694332 L23.8053766,30.9098259 L23.7326107,30.9459789 C23.7783615,31.0763626 23.84386,31.2388516 23.8783877,31.3041661 C23.9885943,31.3223193 24.1266133,31.337222 24.2755486,31.3056993 C24.5957734,31.2379317 24.7796658,30.9915457 24.7245012,30.7309009 C24.6745801,30.495094 24.5213518,30.4082227 24.1909158,30.3173343 C23.9622846,30.2541969 23.8346914,30.1904156 23.7984465,30.0191567 C23.7711555,29.8900608 23.8081977,29.7343792 24.0018105,29.693412 C24.2060217,29.6502408 24.3109009,29.7571123 24.3854301,29.8882857 L24.4157141,29.9456242 L24.4894918,29.9144081 C24.4354924,29.7572853 24.4045523,29.6600801 24.3757281,29.5728408 Z M17.6793715,29.4511657 L17.6641621,29.5205279 C17.8121469,29.5684865 17.8488211,29.6025236 17.8781053,29.8011043 C17.926947,30.1192995 17.9919401,30.5839954 18.0461591,30.9778411 L18.0843824,31.2565448 L18.1661635,31.2744833 C18.3548701,30.9936922 18.8785816,30.2381289 18.9813063,30.0891934 C19.0996082,29.9147235 19.151045,29.8801795 19.2710012,29.8826952 L19.337316,29.8865651 L19.3524641,29.8171723 L18.7823885,29.6924614 L18.7672098,29.7618543 C18.9650236,29.8310938 18.9898922,29.8598874 18.9039102,29.991743 C18.7190979,30.2785749 18.4671313,30.6467893 18.265791,30.9378222 L18.2547133,30.8628144 L18.243567,30.78663 L18.1994805,30.4788807 C18.1565827,30.1745589 18.1191452,29.8945276 18.1042221,29.7648593 C18.0916848,29.6797271 18.1019467,29.647312 18.2233908,29.6525907 L18.2937873,29.6583016 L18.308966,29.5888475 L17.6793715,29.4511657 Z M16.3912355,28.9953133 L16.3679002,29.0624063 C16.5270352,29.1388212 16.5651923,29.1609099 16.5248329,29.3017228 L16.5028527,29.3698445 L16.1706383,30.3261349 C16.1087122,30.5044274 16.0855704,30.5295547 15.9424603,30.5012098 L15.8733195,30.4860788 L15.8500148,30.5531718 L16.4899125,30.7754558 L16.5132479,30.7083935 C16.3513224,30.6333469 16.3140843,30.6077669 16.3546964,30.4660392 L16.3767314,30.3977049 L16.507483,30.0214565 L16.5913492,30.050618 C16.7136068,30.0930571 16.7397633,30.118263 16.7610441,30.2116045 C16.7952652,30.3604787 16.8291184,30.5414581 16.8753291,30.6945026 C16.9291445,30.8797444 17.0067859,30.9577232 17.1775848,31.0304891 L17.2207904,31.049198 L17.26464,31.0660901 L17.2975119,31.0023395 C17.2474068,30.9687929 17.2014107,30.9232874 17.1608729,30.8312951 C17.1265598,30.7522738 17.1018139,30.6764721 17.057259,30.5186441 C17.0228232,30.3858072 16.9755699,30.1894344 16.9582141,30.1001405 C17.1622221,30.0850845 17.3390004,30.0014328 17.4106316,29.7953394 C17.4614113,29.6491024 17.4341816,29.5187493 17.3575521,29.4223414 C17.3013511,29.3490665 17.2197356,29.2944942 17.0997689,29.2444946 L17.002401,29.2076315 L16.3912355,28.9953133 Z M26.5830807,28.843802 C26.500349,28.8618325 26.3181432,28.8825614 26.1142885,28.9603869 C25.5833709,29.1630765 25.3435779,29.6376034 25.5282369,30.1211454 C25.6865861,30.5359079 26.1196547,30.8023482 26.6861732,30.5860744 C26.8663246,30.5172642 27.0349156,30.4040217 27.0981756,30.3635451 C27.1038331,30.2982536 27.1032467,30.1726956 27.0982661,30.0606605 L27.0918895,29.955866 L27.0117336,29.9593004 C26.9813455,30.2425139 26.9053906,30.3991461 26.6636045,30.4914757 C26.2796598,30.6380807 25.9303961,30.4346858 25.7557029,29.9772388 C25.6063689,29.5861183 25.7021941,29.2182106 26.0932836,29.0688764 C26.1833439,29.034502 26.2868352,29.0139877 26.359325,29.0188633 C26.4712611,29.021758 26.5537793,29.0706145 26.637636,29.1621044 L26.70126,29.2386635 L26.7684143,29.1940166 C26.7042037,29.0827366 26.6333084,28.9468947 26.5830807,28.843802 Z M15.0855904,28.3770638 L15.0548344,28.4410905 C15.1981122,28.5272719 15.2310708,28.5560751 15.1714795,28.6982496 L15.1403258,28.7666205 L14.705908,29.66977 C14.626971,29.8338152 14.5972657,29.8641578 14.4434747,29.8113735 L14.3694619,29.7838097 L14.3386752,29.8478364 L15.4498488,30.3824035 C15.4945448,30.3363092 15.6155035,30.1953869 15.6837494,30.1138106 L15.723035,30.0661647 L15.6632707,30.0148944 C15.5982322,30.0680659 15.5051361,30.1386853 15.4385951,30.1658537 C15.3754762,30.1940401 15.3418929,30.2058004 15.2595651,30.1750254 L15.1874564,30.1435609 L14.9748318,30.0412655 C14.8777932,29.9921679 14.8318272,29.9573084 14.8691433,29.8475507 L14.8948906,29.7860176 L15.1138014,29.3310238 L15.3652773,29.4519936 C15.5063934,29.5198576 15.5319146,29.5528472 15.505179,29.6735636 L15.4877496,29.7417999 L15.5586143,29.7758984 L15.785191,29.3048673 L15.7143264,29.2707688 C15.626671,29.3927506 15.5936476,29.431331 15.4779987,29.3879005 L15.4126533,29.3593574 L15.1588775,29.2372836 L15.4019516,28.7320007 C15.4274641,28.6789641 15.4376102,28.6653541 15.4769308,28.6794901 L15.5125875,28.6951118 L15.7298117,28.799615 C15.8670027,28.8655735 15.9118949,28.9069087 15.9121709,28.9999436 C15.9135406,29.0400113 15.9138881,29.0796021 15.9089887,29.1275107 L15.8971762,29.2067115 L15.9712912,29.2282991 C16.020415,29.1026989 16.0937635,28.9268097 16.119,28.8685786 C16.0945301,28.8591954 16.0247099,28.8280269 15.8699147,28.7541987 L15.7852523,28.7136329 L15.0855904,28.3770638 Z M16.939693,29.2798577 C17.12426,29.3439763 17.2619416,29.4965608 17.1728318,29.7530046 C17.127909,29.8824377 17.0562164,29.9649855 16.9385891,30.0020584 C16.880542,30.0241595 16.8178033,30.0250104 16.7374884,30.0058013 L16.6508375,29.9799496 L16.5357859,29.9399636 L16.7397633,29.3527769 C16.7614428,29.2904674 16.7769281,29.2689719 16.8043418,29.2597113 C16.8261133,29.2511254 16.8701775,29.2556944 16.939693,29.2798577 Z M27.5635334,28.2729899 C27.0943426,28.5307523 27.014708,29.0550163 27.2333734,29.4530362 C27.4630166,29.8711104 27.952691,30.0247375 28.3796268,29.7902185 C28.7887773,29.5654507 28.9497637,29.0890841 28.687126,28.6110309 C28.444052,28.1685174 27.9437678,28.0641061 27.5635334,28.2729899 Z M28.4945066,28.7978948 C28.7302519,29.2270694 28.6378918,29.5383713 28.3687839,29.6861415 C28.0530361,29.859639 27.6588802,29.6796101 27.4316595,29.2659822 C27.2032429,28.8501771 27.3152281,28.5165517 27.5642509,28.3797286 C27.8555595,28.2196927 28.2380017,28.3309113 28.4945066,28.7978948 Z M13.8975727,28.1240238 C13.7728619,28.3243523 13.8356619,28.5068343 13.9854252,28.7703922 C14.1106266,28.9917562 14.1574199,29.113462 14.054174,29.2793548 C13.9670574,29.419367 13.8052432,29.4681229 13.6501443,29.3715924 C13.4540898,29.2495914 13.4463222,29.045702 13.4787505,28.8819675 L13.4946775,28.8146098 L13.4171895,28.7903238 C13.3598477,28.9160159 13.2945332,29.078597 13.2742643,29.1496457 C13.3411119,29.2390621 13.430375,29.3454052 13.5595934,29.4258371 C13.8375018,29.5987213 14.1407693,29.5484322 14.281548,29.3222232 C14.4088959,29.117571 14.3585455,28.9487652 14.1831471,28.6543592 C14.0619934,28.450443 14.0141268,28.3160423 14.1066096,28.1674441 C14.1763396,28.0553669 14.3108936,27.9688021 14.4789326,28.0733667 C14.6561249,28.1836692 14.6577314,28.33339 14.6206065,28.4795951 L14.6027234,28.541914 L14.6775744,28.5705543 C14.7474885,28.4197789 14.7924727,28.3282773 14.8321213,28.2453922 C14.792258,28.2085953 14.6938877,28.1025282 14.5732553,28.0274932 C14.2888768,27.8505 14.0168865,27.9322812 13.8975727,28.1240238 Z M21.3,4.47210398 C14.4362482,4.47210398 8.87210078,10.0362875 8.87210078,16.8999847 C8.87210078,23.7637431 14.4362482,29.327896 21.3,29.327896 C28.1637211,29.327896 33.7278686,23.7637431 33.7278686,16.8999847 C33.7278686,10.0362875 28.1637211,4.47210398 21.3,4.47210398 Z M30.1010766,26.5473988 L29.750433,26.8197572 L30.064709,28.2044863 L28.8327496,27.5326667 L28.4841299,27.803492 L28.5277342,27.8595766 C28.7164715,27.7386374 28.7629889,27.7571586 28.835908,27.8675186 C28.9735201,28.073336 29.0782757,28.2295108 29.158984,28.3497317 L29.2151441,28.4333699 L29.4053885,28.7183904 C29.4310162,28.7578052 29.4466429,28.7832367 29.4624668,28.8105315 C29.5191187,28.9110841 29.5081392,28.9704745 29.4410453,29.0466769 L29.3941473,29.0948796 L29.4377516,29.1509949 L29.9126152,28.7821365 L29.8690416,28.7260212 C29.7218848,28.8177988 29.6593607,28.8407049 29.570159,28.7300075 C29.5405988,28.6919534 29.4196598,28.5321322 28.9089498,27.8044119 C29.2995394,28.0243379 29.8686887,28.3501727 30.131537,28.5074748 L30.2071436,28.5532904 L30.2592418,28.5127831 C30.1990789,28.3051106 30.0467178,27.6537335 29.9289955,27.1652087 L29.8912117,27.0092307 L30.5242406,27.8282686 C30.6717309,28.0145031 30.6927028,28.0505775 30.5939146,28.1529075 L30.5442643,28.2014506 L30.5878379,28.2575352 L31.12081,27.8435086 L31.0772363,27.787424 C30.910696,27.8915018 30.8793137,27.9004265 30.7571423,27.7615681 L30.6985658,27.692856 L30.0928279,26.929688 C29.9960259,26.8121482 29.988077,26.7695163 30.0865151,26.662816 L30.1446809,26.6034834 L30.1010766,26.5473988 Z M28.0773956,24.9480456 L29.0219407,25.1837298 L29.780079,25.3728659 C28.6758968,26.4770492 27.3940163,27.3412553 25.9664202,27.945062 C25.7825892,28.0228261 25.5972249,28.0955 25.4106341,28.1636663 C25.2097232,28.2381596 25.0074358,28.3068335 24.8003193,28.3694428 L24.4855913,28.4587775 C23.4547575,28.7438616 22.3882308,28.8875842 21.2999939,28.8875842 C20.3774962,28.8875842 19.4706066,28.7841542 18.5872976,28.5795634 C18.1117286,28.4777893 17.6628681,28.3407514 17.1890777,28.1633903 C17.0026095,28.0952547 16.8173066,28.0227648 16.6335675,27.945062 C15.4242934,27.4335941 14.3196117,26.7352209 13.3410493,25.8646515 L13.0195624,25.5681042 L13.8144363,25.3621948 L14.7359527,25.1235055 C15.4290525,25.6782803 16.1864855,26.1411547 16.9997577,26.5056282 C17.6072128,25.6283898 19.3029968,24.9971388 21.2999939,24.9971388 C23.2970216,24.9971388 24.9928363,25.6284205 25.600322,26.5056895 C26.4978284,26.1034686 27.327322,25.5813511 28.0773956,24.9480456 Z M12.4796357,26.5284484 L12.4342836,26.5831224 C12.5596115,26.7101944 12.5840344,26.7459402 12.4959254,26.8640879 L12.4512408,26.9202741 L11.8080621,27.6954317 C11.6875907,27.8406415 11.6543839,27.8563511 11.5191424,27.7709914 L11.4543828,27.7283036 L11.4090307,27.7830084 L12.3169322,28.5363331 C12.3727163,28.5008855 12.5292159,28.3949447 12.6212983,28.32794 L12.6757018,28.2866968 L12.6281111,28.2208916 C12.5388787,28.2688196 12.4330877,28.3128839 12.3421381,28.3231564 C12.2567387,28.3347474 12.2177646,28.3221751 12.1181371,28.2394741 C12.1064541,28.2298149 11.9674539,28.1112062 11.9655221,28.109581 C11.8741176,28.0310298 11.8638026,27.9899143 11.9200967,27.9094857 L11.9617504,27.8558969 L12.6210891,27.0612063 C12.7430094,26.9142793 12.7796371,26.903567 12.9002427,26.9795413 L12.9575658,27.0172647 L13.002918,26.9626213 L12.4796357,26.5284484 Z M11.8464229,25.8602165 L10.5207848,26.4015297 C10.3267075,26.4817995 10.2689515,26.4807181 10.1775858,26.4148731 L10.1283154,26.3766304 L10.0769838,26.4257237 L10.482148,26.8492561 L10.5334797,26.8001936 C10.4080023,26.632277 10.3981285,26.592567 10.5558645,26.5189425 L10.705873,26.451815 L10.863977,26.3821806 L11.2428314,26.7782381 C11.1641475,26.9272349 11.1075723,27.0515778 11.0588777,27.143846 C11.0201884,27.2229857 10.9908936,27.2363865 10.9022679,27.1723851 L10.8526926,27.1338802 L10.8013609,27.1829734 L11.2345828,27.6358821 L11.2859145,27.5867275 C11.1760451,27.442545 11.1749412,27.4120035 11.2783404,27.2007279 C11.4161243,26.9214394 11.5622896,26.6248018 11.70458,26.3349829 L11.9135771,25.9083898 L11.8464229,25.8602165 Z M31.606774,24.9107948 L31.3078301,25.2391153 L31.8541717,26.5498212 L30.5254672,26.0983231 L30.2281791,26.4248037 L30.2807373,26.4726091 C30.4461086,26.3211898 30.4950484,26.3314622 30.5857834,26.4277782 C31.14076,27.0104736 31.2642068,27.1357277 31.3343082,27.2150403 L31.364252,27.2498825 C31.4372835,27.3392683 31.4366362,27.3996723 31.3835689,27.4862118 L31.3456082,27.5417126 L31.3981357,27.5895793 L31.8029934,27.1449193 L31.7504658,27.0970833 C31.6211555,27.2127176 31.5634457,27.2459575 31.4566734,27.152156 C31.4305436,27.1283648 31.3447842,27.04844 31.0534087,26.7591269 L30.7661679,26.4725844 L30.6469582,26.3530804 C31.0693955,26.5030186 31.6858913,26.7268496 31.9717724,26.8369106 L32.0541014,26.8691264 L32.0985029,26.8203705 C32.0037326,26.6259724 31.7423,26.0101991 31.5427758,25.5489375 L31.4788742,25.4016963 L32.2426547,26.1005616 C32.4197665,26.2588382 32.4466009,26.2907839 32.3667492,26.4085212 L32.3261223,26.464851 L32.3786805,26.5127177 L32.8330605,26.0136289 L32.7805637,25.9658236 C32.6342271,26.0968398 32.6048303,26.110963 32.4607153,25.995046 L32.3912527,25.9373673 L31.6639932,25.2888831 C31.5485035,25.189584 31.5334018,25.1489722 31.6121418,25.0270092 L31.6593016,24.9586002 L31.606774,24.9107948 Z M144.442605,20.4310698 C145.501475,20.4310698 146.280896,21.2086682 146.364297,22.2547233 L146.371535,22.4135814 L145.085581,22.4135814 C145.072186,21.9581395 144.750698,21.7170233 144.389023,21.7170233 C143.960372,21.7170233 143.719256,22.051907 143.719256,22.400186 C143.719256,22.6315603 143.774608,22.8518639 144.167109,23.0409688 L144.295256,23.0967442 L145.098977,23.4182326 C146.117023,23.8066977 146.438512,24.5300465 146.438512,25.3337674 C146.438512,26.4589767 145.581209,27.3832558 144.402419,27.3832558 C143.379501,27.3832558 142.503047,26.7363767 142.378881,25.5125214 L142.366326,25.3337674 L143.652279,25.3337674 C143.70586,25.7088372 143.88,26.0973023 144.389023,26.0973023 C144.777488,26.0973023 145.152558,25.816 145.152558,25.3605581 C145.152558,25.0195856 145.019712,24.7782479 144.603057,24.5862245 L144.469395,24.5300465 L143.813023,24.2889302 C142.955721,23.9674419 142.433302,23.3244651 142.433302,22.4135814 C142.433302,21.2615814 143.344186,20.4310698 144.442605,20.4310698 Z M83.2526512,17.6850233 C84.5595713,17.6850233 85.4497922,18.6900036 85.5247322,19.7035098 L85.5298605,19.8416744 L85.5298605,20.5114419 L84.1635349,20.5114419 L84.1635349,20.2033488 C84.1635349,19.5737674 83.8956279,19.0513488 83.1990698,19.0513488 C82.4489302,19.0513488 82.2747907,19.6541395 82.2747907,20.2837209 C82.2747907,20.9713488 82.3331349,21.2388986 82.9181326,21.500225 L83.0517209,21.5562791 L84.0965581,21.9715349 C85.3021395,22.4269767 85.5298605,23.1905116 85.5298605,24.5836279 C85.5298605,26.1910698 84.9404651,27.3832558 83.1722791,27.3832558 C81.9013953,27.3832558 80.9257674,26.485186 80.8466715,25.2785329 L80.8414884,25.1194419 L80.8414884,24.6104186 L82.207814,24.6104186 L82.207814,25.0390698 C82.207814,25.5346977 82.4757209,26.0169302 83.1722791,26.0169302 C84.0965581,26.0169302 84.1635349,25.4677209 84.1635349,24.5970233 C84.1635349,23.6388618 84.0567429,23.4401101 83.4857897,23.1966872 L83.3732093,23.1503256 L82.3953488,22.7484651 C81.2165581,22.2662326 80.9084651,21.4893023 80.9084651,20.2971163 C80.9084651,18.8504186 81.6853953,17.6850233 83.2526512,17.6850233 Z M58.1899535,20.4310698 C59.2790536,20.4310698 60.1598041,21.0928861 60.2343323,22.3930728 L60.2394419,22.5743256 L60.2394419,27.3028837 L58.8731163,27.3028837 L58.8731163,26.6063256 L58.8463256,26.6063256 C58.4846512,27.1019535 58.1899535,27.3832558 57.5335814,27.3832558 C56.904,27.3832558 56.060093,27.0751628 56.060093,25.5748837 C56.060093,24.0210233 56.5021395,23.2708837 58.2167442,23.2708837 C58.3667721,23.2708837 58.5168,23.2880298 58.7148368,23.3017466 L58.8731163,23.3110698 L58.8731163,22.6011163 C58.8731163,22.1456744 58.6989767,21.7973953 58.1899535,21.7973953 C57.8765023,21.7973953 57.5630512,21.9926995 57.4449042,22.3540123 L57.4130233,22.4805581 L56.0868837,22.4805581 C56.1270698,21.8777674 56.3413953,21.3687442 56.7030698,21.0070698 C57.0647442,20.6453953 57.5737674,20.4310698 58.1899535,20.4310698 Z M155.239256,20.4310698 C156.069767,20.4310698 156.699349,20.8195349 157.020837,21.4089302 C157.18493,21.7136744 157.256721,22.1209767 157.272105,22.585968 L157.275349,22.7886512 L157.275349,25.0256744 C157.275349,25.5748837 157.208372,26.0571163 157.020837,26.4053953 C156.699349,26.9947907 156.069767,27.3832558 155.239256,27.3832558 C154.408744,27.3832558 153.779163,26.9947907 153.457674,26.4053953 C153.293581,26.1006512 153.221791,25.6933488 153.206407,25.2283576 L153.203163,25.0256744 L153.203163,22.7886512 C153.203163,22.2394419 153.27014,21.7572093 153.457674,21.4089302 C153.779163,20.8195349 154.408744,20.4310698 155.239256,20.4310698 Z M67.7676279,20.4310698 C68.9720445,20.4310698 69.7352502,21.2644681 69.7993391,22.438899 L69.8037209,22.6011163 L68.4373953,22.6011163 C68.4373953,22.051907 68.1828837,21.7973953 67.7676279,21.7973953 C67.3869767,21.7973953 67.1413953,22.0225116 67.1031085,22.4521085 L67.0978605,22.5743256 L67.0978605,25.3471628 C67.0978605,25.775814 67.3523721,26.0169302 67.7676279,26.0169302 C68.2498605,26.0169302 68.3896794,25.6859304 68.4294081,25.4032196 L68.4373953,25.3337674 L69.8037209,25.3337674 C69.8037209,25.8963721 69.6027907,26.4187907 69.2545116,26.7804651 C68.8928372,27.1555349 68.3972093,27.3832558 67.7676279,27.3832558 C66.9371163,27.3832558 66.3075349,26.9947907 65.9860465,26.4053953 C65.8219535,26.1006512 65.7501628,25.6933488 65.7347791,25.2283576 L65.7315349,25.0256744 L65.7315349,22.7886512 C65.7315349,22.2394419 65.7985116,21.7572093 65.9860465,21.4089302 C66.3075349,20.8195349 66.9371163,20.4310698 67.7676279,20.4310698 Z M74.1973953,20.4310698 C75.2864954,20.4310698 76.167246,21.0928861 76.2417742,22.3930728 L76.2468837,22.5743256 L76.2468837,27.3028837 L74.8805581,27.3028837 L74.8805581,26.6063256 L74.8537674,26.6063256 C74.492093,27.1019535 74.1973953,27.3832558 73.5410233,27.3832558 C72.9114419,27.3832558 72.0675349,27.0751628 72.0675349,25.5748837 C72.0675349,24.0210233 72.5095814,23.2708837 74.224186,23.2708837 C74.374214,23.2708837 74.5242419,23.2880298 74.7222787,23.3017466 L74.8805581,23.3110698 L74.8805581,22.6011163 C74.8805581,22.1456744 74.7064186,21.7973953 74.1973953,21.7973953 C73.8839442,21.7973953 73.570493,21.9926995 73.452346,22.3540123 L73.4204651,22.4805581 L72.0943256,22.4805581 C72.1345116,21.8777674 72.3488372,21.3687442 72.7105116,21.0070698 C73.072186,20.6453953 73.5812093,20.4310698 74.1973953,20.4310698 Z M87.9812093,20.4310698 C89.1856259,20.4310698 89.9488316,21.276724 90.0129205,22.3936056 L90.0173023,22.5475349 L90.0173023,24.4228837 L87.3114419,24.4228837 L87.3114419,25.3471628 C87.3114419,25.775814 87.5659535,26.0169302 87.9812093,26.0169302 C88.4634419,26.0169302 88.6032608,25.6859304 88.6429895,25.4032196 L88.6509767,25.3337674 L90.0173023,25.3337674 C90.0173023,25.8963721 89.8163721,26.4187907 89.468093,26.7804651 C89.1064186,27.1555349 88.6107907,27.3832558 87.9812093,27.3832558 C87.1506977,27.3832558 86.5211163,26.9947907 86.1996279,26.4053953 C86.0355349,26.1006512 85.9637442,25.6933488 85.9483605,25.2283576 L85.9451163,25.0256744 L85.9451163,22.7886512 C85.9451163,22.2394419 86.012093,21.7572093 86.1996279,21.4089302 C86.5211163,20.8195349 87.1506977,20.4310698 87.9812093,20.4310698 Z M102.461581,20.4310698 C103.665998,20.4310698 104.429204,21.2644681 104.493293,22.438899 L104.497674,22.6011163 L103.131349,22.6011163 C103.131349,22.051907 102.876837,21.7973953 102.461581,21.7973953 C102.08093,21.7973953 101.835349,22.0225116 101.797062,22.4521085 L101.791814,22.5743256 L101.791814,25.3471628 C101.791814,25.775814 102.046326,26.0169302 102.461581,26.0169302 C102.943814,26.0169302 103.083633,25.6859304 103.123362,25.4032196 L103.131349,25.3337674 L104.497674,25.3337674 C104.497674,25.8963721 104.296744,26.4187907 103.948465,26.7804651 C103.586791,27.1555349 103.091163,27.3832558 102.461581,27.3832558 C101.63107,27.3832558 101.001488,26.9947907 100.68,26.4053953 C100.515907,26.1006512 100.444116,25.6933488 100.428733,25.2283576 L100.425488,25.0256744 L100.425488,22.7886512 C100.425488,22.2394419 100.492465,21.7572093 100.68,21.4089302 C101.001488,20.8195349 101.63107,20.4310698 102.461581,20.4310698 Z M106.81507,20.4310698 C108.019486,20.4310698 108.782692,21.276724 108.846781,22.3936056 L108.851163,22.5475349 L108.851163,24.4228837 L106.145302,24.4228837 L106.145302,25.3471628 C106.145302,25.775814 106.399814,26.0169302 106.81507,26.0169302 C107.297302,26.0169302 107.437121,25.6859304 107.47685,25.4032196 L107.484837,25.3337674 L108.851163,25.3337674 C108.851163,25.8963721 108.650233,26.4187907 108.301953,26.7804651 C107.940279,27.1555349 107.444651,27.3832558 106.81507,27.3832558 C105.984558,27.3832558 105.354977,26.9947907 105.033488,26.4053953 C104.869395,26.1006512 104.797605,25.6933488 104.782221,25.2283576 L104.778977,25.0256744 L104.778977,22.7886512 C104.778977,22.2394419 104.845953,21.7572093 105.033488,21.4089302 C105.354977,20.8195349 105.984558,20.4310698 106.81507,20.4310698 Z M111.289116,20.4310698 C112.347987,20.4310698 113.127408,21.2086682 113.210809,22.2547233 L113.218047,22.4135814 L111.932093,22.4135814 C111.918698,21.9581395 111.597209,21.7170233 111.235535,21.7170233 C110.806884,21.7170233 110.565767,22.051907 110.565767,22.400186 C110.565767,22.6315603 110.62112,22.8518639 111.013621,23.0409688 L111.141767,23.0967442 L111.945488,23.4182326 C112.963535,23.8066977 113.285023,24.5300465 113.285023,25.3337674 C113.285023,26.4589767 112.427721,27.3832558 111.24893,27.3832558 C110.226013,27.3832558 109.349558,26.7363767 109.225392,25.5125214 L109.212837,25.3337674 L110.498791,25.3337674 C110.552372,25.7088372 110.726512,26.0973023 111.235535,26.0973023 C111.624,26.0973023 111.99907,25.816 111.99907,25.3605581 C111.99907,25.0195856 111.866223,24.7782479 111.449569,24.5862245 L111.315907,24.5300465 L110.659535,24.2889302 C109.802233,23.9674419 109.279814,23.3244651 109.279814,22.4135814 C109.279814,21.2615814 110.190698,20.4310698 111.289116,20.4310698 Z M118.080558,17.6850233 C119.284975,17.6850233 120.195251,18.5551892 120.272128,19.7914322 L120.277395,19.9622326 L120.277395,20.4980465 L118.91107,20.4980465 L118.91107,20.0426047 C118.91107,19.5067907 118.589581,19.0513488 118.067163,19.0513488 C117.429544,19.0513488 117.24701,19.4597581 117.225506,20.0369766 L117.223256,20.1631628 L117.223256,25.0390698 C117.223256,25.5882791 117.437581,26.0169302 118.053767,26.0169302 C118.403833,26.0169302 118.847248,25.8302288 118.904815,25.1954441 L118.91107,25.0524651 L118.91107,24.5836279 L120.277395,24.5836279 L120.277395,25.1730233 C120.277395,26.351814 119.326326,27.3832558 118.107349,27.3832558 C117.102698,27.3832558 115.949429,26.9126352 115.862203,25.3283395 L115.85693,25.1328372 L115.85693,19.8818605 C115.85693,18.636093 116.754419,17.6850233 118.080558,17.6850233 Z M122.822512,20.4310698 C123.653023,20.4310698 124.282605,20.8195349 124.604093,21.4089302 C124.768186,21.7136744 124.839977,22.1209767 124.85536,22.585968 L124.858605,22.7886512 L124.858605,25.0256744 C124.858605,25.5748837 124.791628,26.0571163 124.604093,26.4053953 C124.282605,26.9947907 123.653023,27.3832558 122.822512,27.3832558 C121.992,27.3832558 121.362419,26.9947907 121.04093,26.4053953 C120.876837,26.1006512 120.805047,25.6933488 120.789663,25.2283576 L120.786419,25.0256744 L120.786419,22.7886512 C120.786419,22.2394419 120.853395,21.7572093 121.04093,21.4089302 C121.362419,20.8195349 121.992,20.4310698 122.822512,20.4310698 Z M78.1356279,17.7653953 L78.1356279,25.3873488 C78.1356279,25.8572165 78.2611796,26.0189118 78.6913916,26.0831509 L78.8053953,26.0973023 L78.8053953,27.3832558 C77.5965991,27.3832558 76.8322283,27.0869721 76.7730127,25.6648104 L76.7693023,25.4811163 L76.7693023,17.7653953 L78.1356279,17.7653953 Z M148.755907,20.4310698 C149.814777,20.4310698 150.594198,21.2086682 150.677599,22.2547233 L150.684837,22.4135814 L149.398884,22.4135814 C149.385488,21.9581395 149.064,21.7170233 148.702326,21.7170233 C148.273674,21.7170233 148.032558,22.051907 148.032558,22.400186 C148.032558,22.6315603 148.087911,22.8518639 148.480412,23.0409688 L148.608558,23.0967442 L149.412279,23.4182326 C150.430326,23.8066977 150.751814,24.5300465 150.751814,25.3337674 C150.751814,26.4589767 149.894512,27.3832558 148.715721,27.3832558 C147.692803,27.3832558 146.816349,26.7363767 146.692183,25.5125214 L146.679628,25.3337674 L147.965581,25.3337674 C148.019163,25.7088372 148.193302,26.0973023 148.702326,26.0973023 C149.090791,26.0973023 149.46586,25.816 149.46586,25.3605581 C149.46586,25.0195856 149.333014,24.7782479 148.916359,24.5862245 L148.782698,24.5300465 L148.126326,24.2889302 C147.269023,23.9674419 146.746605,23.3244651 146.746605,22.4135814 C146.746605,21.2615814 147.657488,20.4310698 148.755907,20.4310698 Z M99.6217674,20.5114419 L99.6217674,27.3028837 L98.2554419,27.3028837 L98.2554419,20.5114419 L99.6217674,20.5114419 Z M138.307535,20.4310698 C138.95654,20.4310698 139.714348,20.8300167 139.788506,21.9150316 L139.794419,22.092093 L139.794419,27.3028837 L138.428093,27.3028837 L138.428093,22.6011163 C138.428093,22.1054884 138.186977,21.7973953 137.758326,21.7973953 C137.288458,21.7973953 137.103935,22.0827401 137.078327,22.6007505 L137.075163,22.7350698 L137.075163,27.3028837 L135.708837,27.3028837 L135.708837,22.6011163 C135.708837,22.1054884 135.467721,21.7973953 135.03907,21.7973953 C134.569202,21.7973953 134.384679,22.0827401 134.359071,22.6007505 L134.355907,22.7350698 L134.355907,27.3028837 L132.989581,27.3028837 L132.989581,20.5114419 L134.355907,20.5114419 L134.355907,21.167814 L134.382698,21.167814 C134.664,20.7391628 135.03907,20.4310698 135.668651,20.4310698 C136.258047,20.4310698 136.646512,20.7793488 136.887628,21.1142326 C137.222512,20.7391628 137.584186,20.4310698 138.307535,20.4310698 Z M63.5213023,20.4310698 C64.1685092,20.4310698 64.8517833,20.8278096 64.9219141,21.9060307 L64.927814,22.092093 L64.927814,27.3028837 L63.5614884,27.3028837 L63.5614884,22.6011163 C63.5614884,22.1054884 63.3203721,21.7973953 62.8917209,21.7973953 C62.4218533,21.7973953 62.2373304,22.0827401 62.2117225,22.6007505 L62.2085581,22.7350698 L62.2085581,27.3028837 L60.8422326,27.3028837 L60.8422326,20.5114419 L62.2085581,20.5114419 L62.2085581,21.167814 L62.2353488,21.167814 C62.5166512,20.7391628 62.8917209,20.4310698 63.5213023,20.4310698 Z M160.557209,20.4310698 C161.204416,20.4310698 161.88769,20.8278096 161.957821,21.9060307 L161.963721,22.092093 L161.963721,27.3028837 L160.597395,27.3028837 L160.597395,22.6011163 C160.597395,22.1054884 160.356279,21.7973953 159.927628,21.7973953 C159.45776,21.7973953 159.273237,22.0827401 159.24763,22.6007505 L159.244465,22.7350698 L159.244465,27.3028837 L157.87814,27.3028837 L157.87814,20.5114419 L159.244465,20.5114419 L159.244465,21.167814 L159.271256,21.167814 C159.552558,20.7391628 159.927628,20.4310698 160.557209,20.4310698 Z M141.884093,20.5114419 L141.884093,27.3028837 L140.517767,27.3028837 L140.517767,20.5114419 L141.884093,20.5114419 Z M152.600372,20.5114419 L152.600372,27.3028837 L151.234047,27.3028837 L151.234047,20.5114419 L152.600372,20.5114419 Z M93.7947907,20.4310698 L93.794,20.511 L93.3661395,20.5114419 L93.715,21.851 L93.6603411,21.8331163 C93.6151938,21.8212093 93.5695504,21.8122791 93.5229147,21.8063256 L93.3795349,21.7973953 C92.8338507,21.7973953 92.0717629,22.1220006 91.9930548,23.1015114 L91.9864186,23.2708837 L91.9864186,27.3028837 L90.620093,27.3028837 L90.620093,20.5114419 L91.9864186,20.5114419 L91.9864186,21.2347907 C92.5490233,20.7391628 93.0044651,20.4310698 93.7947907,20.4310698 Z M93.794,20.511 L94.8128372,20.5114419 L95.7237209,24.8515349 L95.7505116,24.8515349 L96.6613953,20.5114419 L98.108093,20.5114419 L96.339907,27.3028837 L95.1343256,27.3028837 L93.715,21.851 L93.7947907,21.8777674 L93.794,20.511 Z M54.1579535,20.4310698 C54.8051603,20.4310698 55.4884345,20.8278096 55.5585652,21.9060307 L55.5644651,22.092093 L55.5644651,27.3028837 L54.1981395,27.3028837 L54.1981395,22.6011163 C54.1981395,22.1054884 53.9570233,21.7973953 53.5283721,21.7973953 C53.0585045,21.7973953 52.8739816,22.0827401 52.8483737,22.6007505 L52.8452093,22.7350698 L52.8452093,27.3028837 L51.4788837,27.3028837 L51.4788837,20.5114419 L52.8452093,20.5114419 L52.8452093,21.167814 L52.872,21.167814 C53.1533023,20.7391628 53.5283721,20.4310698 54.1579535,20.4310698 Z M48.9873488,17.7653953 L48.9873488,19.0513488 L46.2814884,19.0513488 L46.2814884,21.9447442 L48.6390698,21.9447442 L48.6390698,23.2306977 L46.2814884,23.2306977 L46.2814884,27.3028837 L44.9151628,27.3028837 L44.9151628,17.7653953 L48.9873488,17.7653953 Z M71.571907,20.5114419 L71.571907,27.3028837 L70.2055814,27.3028837 L70.2055814,20.5114419 L71.571907,20.5114419 Z M130.779349,20.4310698 C131.428353,20.4310698 132.186162,20.8300167 132.26032,21.9150316 L132.266233,22.092093 L132.266233,27.3028837 L130.899907,27.3028837 L130.899907,22.6011163 C130.899907,22.1054884 130.658791,21.7973953 130.23014,21.7973953 C129.760272,21.7973953 129.575749,22.0827401 129.550141,22.6007505 L129.546977,22.7350698 L129.546977,27.3028837 L128.180651,27.3028837 L128.180651,22.6011163 C128.180651,22.1054884 127.939535,21.7973953 127.510884,21.7973953 C127.041016,21.7973953 126.856493,22.0827401 126.830885,22.6007505 L126.827721,22.7350698 L126.827721,27.3028837 L125.461395,27.3028837 L125.461395,20.5114419 L126.827721,20.5114419 L126.827721,21.167814 L126.854512,21.167814 C127.135814,20.7391628 127.510884,20.4310698 128.140465,20.4310698 C128.72986,20.4310698 129.118326,20.7793488 129.359442,21.1142326 C129.694326,20.7391628 130.056,20.4310698 130.779349,20.4310698 Z M50.7555349,20.5114419 L50.7555349,27.3028837 L49.3892093,27.3028837 L49.3892093,20.5114419 L50.7555349,20.5114419 Z M11.6032323,26.0647981 L11.2934639,26.6806557 L10.9654811,26.3377698 C11.1629577,26.2542715 11.3894118,26.1569437 11.6032323,26.0647981 Z M10.8199127,24.6791276 L10.7640121,24.7229773 C10.8606576,24.878517 10.8762129,24.915004 10.7636151,25.0119388 L10.7073756,25.0577065 L9.91495488,25.679513 C9.76649866,25.7960135 9.7322354,25.8031338 9.62791919,25.7028665 L9.57838613,25.6533258 L9.52248555,25.6972061 L9.9422459,26.2321412 L9.99814648,26.1882916 C9.90010581,26.030981 9.88282661,25.995517 9.9950563,25.8988656 L10.051226,25.8531637 L10.8436467,25.2313266 C10.9938469,25.1134577 11.0283047,25.1061898 11.1337105,25.2077358 L11.1837725,25.2579124 L11.239673,25.2140627 L10.8199127,24.6791276 Z M58.4980465,24.3425116 C57.9086512,24.3425116 57.4264186,24.5836279 57.4264186,25.3069767 C57.4264186,25.8293953 57.6943256,26.1776744 58.1363721,26.1776744 C58.55678,26.1776744 58.8288086,25.9037435 58.8681715,25.4296323 L58.8731163,25.3069767 L58.8731163,24.3826977 C58.7257674,24.355907 58.6186047,24.3425116 58.4980465,24.3425116 Z M74.5054884,24.3425116 C73.916093,24.3425116 73.4338605,24.5836279 73.4338605,25.3069767 C73.4338605,25.8293953 73.7017674,26.1776744 74.143814,26.1776744 C74.5642218,26.1776744 74.8362504,25.9037435 74.8756134,25.4296323 L74.8805581,25.3069767 L74.8805581,24.3826977 C74.7332093,24.355907 74.6260465,24.3425116 74.5054884,24.3425116 Z M122.822512,21.7973953 C122.44186,21.7973953 122.196279,22.0225116 122.157992,22.4521085 L122.152744,22.5743256 L122.152744,25.24 C122.152744,25.7490233 122.407256,26.0169302 122.822512,26.0169302 C123.203163,26.0169302 123.448744,25.791814 123.487031,25.3622171 L123.492279,25.24 L123.492279,22.5743256 C123.492279,22.0653023 123.237767,21.7973953 122.822512,21.7973953 Z M155.239256,21.7973953 C154.858605,21.7973953 154.613023,22.0225116 154.574736,22.4521085 L154.569488,22.5743256 L154.569488,25.24 C154.569488,25.7490233 154.824,26.0169302 155.239256,26.0169302 C155.619907,26.0169302 155.865488,25.791814 155.903775,25.3622171 L155.909023,25.24 L155.909023,22.5743256 C155.909023,22.0653023 155.654512,21.7973953 155.239256,21.7973953 Z M32.0892424,24.1782603 L31.6954852,24.7325751 L31.7533789,24.7737263 C31.8750846,24.636861 31.9056284,24.6116297 32.0305299,24.6920957 L32.090377,24.7330351 L32.9114686,25.3162968 C33.0653178,25.425553 33.0818491,25.4564188 33.0153563,25.5848822 L32.9819346,25.6464264 L33.0398283,25.6875776 L33.4335855,25.1332628 L33.3756918,25.0921423 C33.2526982,25.2308053 33.2235664,25.2574117 33.099038,25.1772408 L33.0392764,25.1363599 L32.2181848,24.5530675 C32.0625646,24.4425235 32.0457651,24.4115436 32.1132045,24.2816544 L32.1471055,24.2194115 L32.0892424,24.1782603 Z M9.78265479,20.2359711 L10.5945778,20.4374342 L11.4675837,20.6540454 C11.5113106,20.7683305 11.5569388,20.8820942 11.6047747,20.9951527 C11.9807046,21.883986 12.4719544,22.7086325 13.0708411,23.4579995 L13.3340745,23.7745154 L13.0965507,24.6322514 L12.8760761,25.4284446 C12.8585669,25.4111194 12.8409657,25.3939475 12.8235179,25.3764996 C11.722954,24.2759347 10.8587487,22.9940223 10.2549427,21.5664248 C10.0705597,21.1305347 9.9131917,20.6866413 9.78265479,20.2359711 Z M21.306648,14.3736406 C22.8117601,14.3736406 24.0442562,14.9063326 24.1485845,15.5812019 L24.155738,15.6740741 L24.1675743,15.6740741 L25.1000378,25.2785892 C24.7520007,24.6154168 23.1860484,24.1150095 21.306648,24.1150095 C19.5131843,24.1150095 18.0051581,24.5706608 17.5684822,25.1885942 L17.5156499,25.2738362 L17.4999499,25.2735602 L18.4620349,15.746656 C18.4591218,15.7226154 18.4575273,15.6984214 18.4575273,15.6740741 C18.4575273,14.9558597 19.7331216,14.3736406 21.306648,14.3736406 Z M9.15859512,23.6835259 C8.78335898,23.9208659 8.60783789,24.3981219 8.93201836,24.9106109 C9.03508027,25.0735598 9.17947734,25.2163932 9.23169824,25.270454 C9.29680571,25.2630486 9.41974752,25.2376357 9.52858434,25.2105799 L9.63005508,25.1835826 L9.61079805,25.1057265 C9.32718613,25.1319749 9.15862578,25.0884933 9.02026953,24.8697663 C8.80056152,24.5224034 8.93082246,24.1398076 9.34466465,23.8780589 C9.69849727,23.6542723 10.0780877,23.6753386 10.301874,24.0291408 C10.3533896,24.110646 10.3939889,24.2080352 10.4035561,24.2800651 C10.4228621,24.3903332 10.3912806,24.4809174 10.3182158,24.5812238 L10.2557859,24.658736 L10.3128211,24.7156792 C10.4091676,24.6307397 10.5283281,24.5343624 10.6194311,24.4647549 C10.5853939,24.3872055 10.5290334,24.2126961 10.4123873,24.0282823 C10.1085984,23.5479599 9.59601797,23.4068438 9.15859512,23.6835259 Z M32.8298623,20.1925631 C32.6969336,20.6581666 32.535334,21.1165642 32.3450635,21.5664371 C31.8332649,22.7764023 31.1343874,23.8816757 30.2631175,24.8606409 L29.9663295,25.1822548 L29.7505771,24.4294207 L29.4869275,23.5094673 C30.1047164,22.74633 30.6105814,21.9045393 30.9952314,20.995165 L31.0740917,20.8033535 L31.1490424,20.610392 L32.0550121,20.3851642 L32.8298623,20.1925631 Z M32.5902012,23.3786021 L32.230941,23.9559457 L32.2912572,23.9934785 C32.404377,23.8494493 32.4333545,23.8223834 32.5629288,23.8950868 L32.6251582,23.9323036 L33.4803789,24.4645096 C33.6405871,24.5642139 33.6589932,24.5939562 33.60045,24.7262527 L33.5708379,24.789733 L33.6311541,24.8272965 L33.9904449,24.249953 L33.9301287,24.2124201 C33.8157748,24.3583275 33.7883333,24.3866612 33.6591623,24.3142453 L33.597025,24.2770907 L32.7418043,23.7448847 C32.5796911,23.6439998 32.5610234,23.61411 32.6204349,23.4803365 L32.6504867,23.416135 L32.5902012,23.3786021 Z M33.1016164,22.4195213 C33.0684686,22.462451 32.9714168,22.5696834 32.9071449,22.6963874 C32.7556951,22.9950557 32.8608729,23.2588895 33.0622438,23.3610009 C33.2463316,23.4543731 33.4043363,23.4060134 33.6080746,23.2771182 L33.6984004,23.217125 L33.7830033,23.1608974 C33.9426384,23.0597569 34.0500778,23.0285584 34.1994205,23.1042812 C34.3464854,23.1788562 34.409132,23.3357644 34.326523,23.4986827 C34.2220966,23.7046113 34.0196764,23.730141 33.8537544,23.7121265 L33.7852717,23.702139 L33.7678238,23.7814363 C33.8980541,23.8275244 34.0656639,23.8784575 34.138215,23.892471 C34.221468,23.8180492 34.319593,23.7198935 34.3884338,23.5841435 C34.5364492,23.2922214 34.4598504,22.994565 34.2222959,22.8740552 C34.0073102,22.765075 33.8435641,22.8299295 33.5655943,23.0302887 C33.3730547,23.1687371 33.2433764,23.2281641 33.0872963,23.1489894 C32.9696383,23.0893171 32.8715746,22.962797 32.9611137,22.7863252 C33.0555053,22.6002248 33.2045049,22.5855549 33.3533665,22.609775 L33.4169963,22.6221496 L33.4390131,22.5451214 C33.2827797,22.4886075 33.1876598,22.4517799 33.1016164,22.4195213 Z M9.04716191,21.4713876 L8.98249141,21.5007331 C9.0222627,21.6192192 9.03038867,21.6740159 8.99251855,21.744114 C8.96853159,21.7925939 8.94292327,21.8167362 8.90432248,21.8381574 L8.86096973,21.8594723 L8.27166777,22.1266486 C8.06137363,22.2219832 7.95530664,22.2645143 7.87821719,22.2911001 C7.78034772,22.3261849 7.72251189,22.304456 7.66167709,22.2163486 L7.62447207,22.1554421 L7.55974023,22.1847877 L7.81434395,22.7463085 L7.87907578,22.7169937 C7.81750234,22.5443242 7.82593496,22.4708223 7.94172246,22.4127752 C7.99584453,22.3835932 8.07488115,22.341166 8.22009039,22.2732671 L8.31548672,22.2293733 L8.89319766,21.9674406 L8.13303555,23.5044782 L8.1728375,23.5923002 L9.09953613,23.1721408 C9.31442988,23.074721 9.41359746,23.0352869 9.48860176,23.0041322 C9.57977624,22.9697118 9.62631747,22.9904015 9.68745962,23.0795993 L9.7263709,23.141446 L9.79110273,23.1121005 L9.53229805,22.5412884 L9.46762754,22.5706646 C9.53987207,22.760782 9.53159277,22.8285803 9.43073867,22.8826411 C9.37559447,22.914634 9.29885765,22.9544632 9.15043294,23.0232636 L9.0523748,23.0681895 L8.48619355,23.324848 L9.2043459,21.8179838 L9.04716191,21.4713876 Z M87.9812093,21.7973953 C87.6005581,21.7973953 87.3549767,22.0225116 87.3166899,22.4521085 L87.3114419,22.5743256 L87.3114419,23.3512558 L88.6509767,23.3512558 L88.6509767,22.5743256 C88.6509767,22.0653023 88.3964651,21.7973953 87.9812093,21.7973953 Z M106.81507,21.7973953 C106.434419,21.7973953 106.188837,22.0225116 106.15055,22.4521085 L106.145302,22.5743256 L106.145302,23.3512558 L107.484837,23.3512558 L107.484837,22.5743256 C107.484837,22.0653023 107.230326,21.7973953 106.81507,21.7973953 Z M33.573751,21.2731442 C33.5447734,21.318987 33.4583314,21.4349586 33.4063865,21.5671822 C33.2838836,21.878852 33.4135619,22.1315548 33.6237027,22.2141332 C33.8433188,22.3004526 34.0113885,22.2057006 34.2434234,22.0106156 C34.4384469,21.8474213 34.5496961,21.7793471 34.7315033,21.850825 C34.884977,21.9111413 34.9622197,22.061426 34.8953721,22.2314584 C34.8109347,22.4462949 34.6118584,22.4908982 34.444981,22.488688 L34.3758615,22.4852345 L34.3659877,22.565881 C34.4999896,22.5994275 34.6716471,22.63417 34.7452102,22.641284 C34.821073,22.5593496 34.9094469,22.4523319 34.9651328,22.3106331 C35.0848453,22.0060467 34.9804035,21.716915 34.7324539,21.6194951 C34.5081156,21.5313359 34.3512689,21.6113998 34.0935068,21.8372409 C33.91495,21.9933211 33.7914352,22.0647071 33.6285477,22.0006805 C33.5057381,21.9524459 33.3962061,21.835769 33.4686039,21.6516004 C33.5449383,21.4573971 33.6918919,21.4287079 33.8423936,21.4386828 L33.906916,21.4449551 L33.9215428,21.3662097 C33.7606178,21.3247519 33.6624314,21.2970929 33.573751,21.2731442 Z M7.05476445,20.3196443 L6.98675156,20.3402199 L7.15650781,20.9011581 L7.2245207,20.8805825 C7.18852109,20.6741212 7.19765898,20.6342578 7.37167754,20.6399 L7.5357801,20.6478995 L7.70827695,20.6573479 L7.86699414,21.1818265 C7.72943516,21.2791237 7.62272422,21.3644619 7.53757012,21.4246862 C7.46728809,21.4777526 7.43510208,21.4764572 7.38503151,21.379302 L7.35824668,21.3225441 L7.29026445,21.3431503 L7.47176504,21.9429093 L7.53974727,21.9223337 C7.50699805,21.7440527 7.51981563,21.7163323 7.70757168,21.5746949 C7.95676829,21.3879506 8.22128331,21.1894994 8.47924758,20.9953866 L8.85854727,20.7094769 L8.82049316,20.6361897 L7.39347969,20.5193288 C7.14924043,20.5004704 7.12047754,20.4667706 7.05476445,20.3196443 Z M33.8539592,20.334639 L33.6570959,20.9854844 L33.7250781,21.0060906 C33.7969049,20.8375646 33.8178331,20.8038681 33.961858,20.8404154 L34.0316268,20.8601909 L34.9957662,21.1518371 C35.176366,21.2064651 35.2018991,21.2304085 35.1797413,21.3734018 L35.1676383,21.44241 L35.2356512,21.4629549 L35.4325451,20.8121402 L35.3645322,20.7915646 C35.2920347,20.9621567 35.2729008,20.9966514 35.1293555,20.9602919 L35.0597008,20.9405615 L34.0955307,20.6488846 C33.9127844,20.5936394 33.8870064,20.5695954 33.9096091,20.4249843 L33.9219414,20.3551839 L33.8539592,20.334639 Z M7.81886383,20.6636279 C7.96145172,20.6735018 8.11829499,20.6837572 8.27585603,20.6938037 L8.51104371,20.7086428 L7.95626949,21.1177325 L7.81886383,20.6636279 Z M29.4631107,15.9542673 L29.4631107,17.160102 L26.3114891,17.160102 C26.1059717,17.160102 25.9350525,17.3082104 25.8996077,17.503486 L25.8928633,17.5787282 L25.8928633,19.2004601 C25.8928633,19.4059776 26.0409472,19.576897 26.2362389,19.6123419 L26.3114891,19.6190863 L29.5103947,19.6190863 L29.5103947,20.8722357 L26.3203203,20.8722357 C25.5300461,20.8722357 24.8810975,20.2671633 24.8114312,19.4950273 L24.8052396,19.3571229 L24.8052396,17.4693494 C24.8052396,16.6790744 25.4102841,16.0301252 26.1824163,15.9604589 L26.3203203,15.9542673 L29.4631107,15.9542673 Z M17.8656955,16.0133631 L17.8656955,17.1246298 L14.6280612,17.1246298 C14.433053,17.1246298 14.2703495,17.2629809 14.2327207,17.4468514 L14.2245221,17.5281693 L14.2245221,17.86943 L17.8538899,17.86943 L17.8538899,18.9570546 L14.2245221,18.9570546 L14.2245221,20.8131215 L13.0896145,20.8131215 L13.0896145,17.5636476 C13.0896145,16.7550117 13.7087176,16.0909837 14.4987895,16.0196986 L14.6398975,16.0133631 L17.8656955,16.0133631 Z M23.9067458,16.0133416 L20.050648,16.0133416 C19.3143641,16.0133416 18.7092487,16.5751469 18.6406063,17.2934777 L18.6341216,17.4299 L18.6341216,17.5523418 C18.6341216,18.2886552 19.1959263,18.8937458 19.9142308,18.9623851 L20.050648,18.9688695 L22.1807271,18.9688695 C22.3766091,18.9688695 22.5354183,19.1276789 22.5354183,19.3235304 C22.5354183,19.4949274 22.41383,19.6379169 22.2522073,19.6709862 L22.1807271,19.6781913 L18.5631956,19.6781913 L18.5631956,20.8131307 L22.4408503,20.8131307 C23.2504429,20.8131307 23.9067458,20.1567658 23.9067458,19.3471724 C23.9067458,18.5852022 23.3253841,17.9589638 22.582026,17.8879252 L22.4408503,17.8812142 L20.1591681,17.8812142 C19.9567853,17.8812142 19.7927019,17.7171613 19.7927019,17.5147476 C19.7927019,17.3376625 19.9183282,17.1899003 20.0853155,17.1557268 L20.1591681,17.148281 L23.9067458,17.148281 L23.9067458,16.0133416 Z M34.052509,19.2932558 C33.9533414,19.8193596 34.3075113,20.2139758 34.7538574,20.2981487 C35.2225576,20.3865226 35.6524064,20.1060689 35.7426508,19.6273717 C35.8291541,19.1686062 35.563634,18.7415781 35.0275955,18.6405092 C34.5314203,18.5470144 34.1328795,18.8669022 34.052509,19.2932558 Z M9.68331549,13.9278706 L10.4015905,14.6155742 L10.9278471,15.1194159 C10.8285569,15.7032909 10.7783905,16.2977756 10.7783905,16.9000184 C10.7783905,17.4128201 10.814736,17.9199699 10.8868461,18.4197249 L10.9476254,18.7931275 L10.3112848,19.4535707 L9.73176471,20.0549855 C9.45324303,19.0331047 9.31246432,17.9772173 9.31246432,16.9000184 C9.31246432,15.8869994 9.43680709,14.8927162 9.68331549,13.9278706 Z M35.049459,18.9080258 C35.5306701,18.9987302 35.712324,19.2679303 35.6554422,19.5696036 C35.5886865,19.9236819 35.1991609,20.113554 34.7353977,20.0261613 C34.2691506,19.938278 34.0827438,19.6397631 34.1353326,19.3605052 C34.1969367,19.0338713 34.5259008,18.8093181 35.049459,18.9080258 Z M32.9351903,14.0021359 C33.1692797,14.9437076 33.2875204,15.9129382 33.2875204,16.9000153 C33.2875204,17.7915256 33.191075,18.6684824 32.9999222,19.5236442 L32.8964616,19.9493753 L32.3447844,19.377306 L31.6722909,18.6798819 C31.7714891,18.0962216 31.8216248,17.5020435 31.8216248,16.9000153 C31.8216248,16.4714923 31.7962695,16.0468847 31.7458693,15.6272533 L31.6871323,15.2093199 L32.3285938,14.5888933 L32.9351903,14.0021359 Z M8.2764207,18.111155 L8.20635332,18.122654 C8.21392734,18.2473649 8.20754922,18.3024376 8.15275254,18.3602701 C8.11696758,18.4008157 8.08596046,18.417472 8.04312085,18.4281173 L7.99572188,18.4374209 L7.35729609,18.5421081 C7.12946211,18.579457 7.01597441,18.5929185 6.93462266,18.5985607 C6.83100368,18.6069678 6.78081257,18.570912 6.74500944,18.4700214 L6.7249418,18.4015439 L6.65481309,18.413043 L6.75459395,19.0214492 L6.82469199,19.0099502 C6.81012656,18.8272229 6.83744824,18.7585046 6.96430547,18.7325322 C7.02412594,18.7184267 7.11148019,18.6980393 7.26932984,18.6702521 L7.37284277,18.6526829 L7.99875762,18.5500501 L6.86507656,19.8363168 L6.88068457,19.9314675 L7.88462598,19.7668627 C8.11748887,19.7286859 8.2234332,19.7164202 8.3039877,19.7057491 C8.40098835,19.6962944 8.44051517,19.7283639 8.47635451,19.8303859 L8.4978459,19.9002208 L8.56794395,19.8887218 L8.46653789,19.270319 L8.39643984,19.281818 C8.41677012,19.4841704 8.39116563,19.5474917 8.27970176,19.5734949 C8.21816921,19.5900024 8.13370249,19.6084903 7.97251528,19.6363052 L7.86616621,19.6541721 L7.25279297,19.7547503 L8.33805547,18.4866981 L8.2764207,18.111155 Z M50.7555349,17.7653953 L50.7555349,19.1317209 L49.3892093,19.1317209 L49.3892093,17.7653953 L50.7555349,17.7653953 Z M141.884093,17.7653953 L141.884093,19.1317209 L140.517767,19.1317209 L140.517767,17.7653953 L141.884093,17.7653953 Z M71.571907,17.7653953 L71.571907,19.1317209 L70.2055814,19.1317209 L70.2055814,17.7653953 L71.571907,17.7653953 Z M99.6217674,17.7653953 L99.6217674,19.1317209 L98.2554419,19.1317209 L98.2554419,17.7653953 L99.6217674,17.7653953 Z M152.600372,17.7653953 L152.600372,19.1317209 L151.234047,19.1317209 L151.234047,17.7653953 L152.600372,17.7653953 Z M34.334833,16.5518552 L34.3088912,17.1780467 L34.3798785,17.1809904 C34.4009447,16.9786994 34.4388762,16.9218482 34.5532531,16.9189964 C34.6168811,16.9152656 34.703358,16.9142605 34.8668251,16.9196899 L34.9745773,16.9237493 L35.5956779,16.9494765 L34.2760193,17.9715414 L34.2602273,18.3518068 L34.3312453,18.3547505 C34.3490611,18.2310516 34.3664783,18.178432 34.4318541,18.1328652 C34.4751134,18.1003919 34.5088516,18.090359 34.5529647,18.0886269 L34.601273,18.0891382 L35.2477328,18.1159386 C35.4784186,18.1254445 35.5923049,18.1352876 35.6731047,18.1462347 C35.7762637,18.1589859 35.8181159,18.2044454 35.8327679,18.3105268 L35.838568,18.3816736 L35.9095553,18.3845867 L35.9350984,17.7685758 L35.8640805,17.765632 C35.8413277,17.9475314 35.8006672,18.0093195 35.6711729,18.0090129 C35.609717,18.0106994 35.5200246,18.0129822 35.3598084,18.0082307 L35.2548775,18.0044746 L34.6211127,17.9782262 L35.9919496,16.9481273 L35.9959053,16.8517807 L34.9793609,16.8096483 C34.743585,16.7998971 34.6372727,16.7903912 34.5562889,16.7845037 C34.4593904,16.7741546 34.4271634,16.7347171 34.4127243,16.6275419 L34.4058203,16.554799 L34.334833,16.5518552 Z M8.25087754,17.2578653 L8.17995156,17.2617596 C8.16994358,17.4446671 8.16176682,17.4834246 8.01390381,17.4982471 L7.94156914,17.5034847 L6.93575723,17.5584041 C6.74732273,17.5687072 6.71515229,17.5548993 6.68719014,17.4129528 L6.6750207,17.3439701 L6.60406406,17.3478337 L6.64113691,18.0268287 L6.71209355,18.0229651 C6.72196738,17.8378574 6.72817877,17.7988719 6.87555253,17.7840473 L6.94777754,17.7788176 L7.95362012,17.7239288 C8.14425476,17.7134915 8.17670021,17.7272827 8.20479945,17.8709527 L8.21702441,17.9407853 L8.28798105,17.9369216 L8.25087754,17.2578653 Z M6.62736875,15.8268028 L6.60443203,16.5318009 L6.67541934,16.5341314 C6.70014138,16.3295678 6.71153782,16.2870681 6.86874073,16.2851888 L6.9348373,16.2861509 L7.38878809,16.300931 L7.37854629,16.6153912 C7.37352614,16.769728 7.34255294,16.803829 7.22134264,16.8275699 L7.15292012,16.8390858 L7.150375,16.9176778 L7.68040332,16.9349111 L7.68288711,16.8588335 C7.53178337,16.8213006 7.48814153,16.805891 7.48250238,16.6872805 L7.48252813,16.6187949 L7.49273926,16.304304 L8.07857617,16.3233464 C8.13740211,16.3252598 8.1538773,16.3306862 8.15690543,16.3704288 L8.15710684,16.4071514 L8.14824492,16.6785286 C8.14364531,16.820534 8.12211914,16.8578829 8.03432793,16.9032964 C7.99634538,16.9257425 7.95634581,16.9413608 7.9126393,16.9553572 L7.84408809,16.9757863 L7.85166211,17.0547157 C7.94326333,17.0481842 8.06622239,17.0441193 8.16052732,17.0426633 L8.2430582,17.0420821 L8.24297412,16.9434115 C8.24354641,16.9014304 8.24477254,16.8451714 8.24701949,16.7683133 L8.24962031,16.6843548 L8.27574609,15.8804036 L8.20475879,15.8781345 C8.18122795,16.0550586 8.16988177,16.096355 8.01960942,16.0990871 L7.94626074,16.09818 L6.9420127,16.0655227 C6.7511634,16.0592979 6.71430089,16.0406067 6.70233591,15.898088 L6.69835605,15.8291026 L6.62736875,15.8268028 Z M73.3769302,8.75367442 C73.8290233,8.75367442 74.036986,8.94084093 74.2644793,9.19066753 L74.3413953,9.27609302 L74.3413953,8.81395349 L75.3661395,8.81395349 L75.3661395,14.5304186 C75.3661395,15.2236279 74.9140465,16.0273488 73.8290233,16.0273488 C73.2407442,16.0273488 72.5180465,15.7047442 72.3295383,14.6871456 L72.3019535,14.5002791 L73.3266977,14.5002791 C73.3367442,14.7413953 73.5175814,15.0026047 73.8692093,15.0026047 C74.1675907,15.0026047 74.3113563,14.8154381 74.3371256,14.5436398 L74.3413953,14.4500465 L74.3413953,13.4453953 L74.3213023,13.4453953 C74.1002791,13.7769302 73.7787907,13.967814 73.3668837,13.967814 C72.9549767,13.967814 72.6535814,13.8171163 72.4727442,13.4855814 C72.3655814,13.2891163 72.3139845,13.0212093 72.3038415,12.5689647 L72.3019535,12.3905116 L72.3027536,10.2622061 C72.3082637,9.66583125 72.3439662,9.40761099 72.4626977,9.21581395 C72.6334884,8.94455814 72.8846512,8.75367442 73.3769302,8.75367442 Z M21.29709,13.1205157 C22.766887,13.1205157 24.0328014,13.4734401 24.6055734,13.9812124 L24.7047259,14.078186 L24.7047259,14.8092179 C24.1907656,14.2495676 22.8594546,13.8506891 21.29709,13.8506891 C19.8321992,13.8506891 18.5703762,14.2013589 17.9949752,14.7064118 L17.8952496,14.8028705 L17.8952496,14.0720225 C18.4138402,13.5160211 19.7411954,13.1205157 21.29709,13.1205157 Z M89.0997209,13.967814 C88.2003189,13.967814 87.6289663,13.7491144 87.5765912,12.7042164 L87.5726512,12.5412093 L87.5726512,6.7544186 L88.5973953,6.7544186 L88.5973953,12.4708837 C88.5973953,12.817945 88.6887273,12.940828 88.9997087,12.9904944 L89.059,12.998 L89.0736094,13.0802642 L89.099,13.182 L89.0997209,13.0033488 L89.059,12.998 L89.059,12.998 L89.0495089,12.9379154 C89.0429587,12.8882146 89.0379303,12.8362302 89.0345394,12.7818657 L89.0293953,12.6115349 C89.0293953,11.4461395 89.3609302,10.8835349 90.6468837,10.8835349 C90.7523721,10.8835349 90.8578605,10.8948372 90.9930174,10.9047267 L91.1391628,10.9136744 L91.1391628,10.3812093 C91.1391628,10.0396279 91.0085581,9.7784186 90.6267907,9.7784186 C90.3946047,9.7784186 90.1624186,9.92130233 90.0713523,10.1859018 L90.044093,10.2907907 L89.0494884,10.2907907 C89.0796279,9.83869767 89.2403721,9.45693023 89.5116279,9.18567442 C89.7828837,8.9144186 90.1646512,8.75367442 90.6267907,8.75367442 C91.4333023,8.75367442 92.0874729,9.2375814 92.1576693,10.1884686 L92.163907,10.3611163 L92.163907,13.9075349 L91.1391628,13.9075349 L91.1391628,13.3851163 L91.1190698,13.3851163 C90.847814,13.7568372 90.6267907,13.967814 90.1345116,13.967814 C89.7617332,13.967814 89.2887679,13.8237954 89.1061467,13.209492 L89.099,13.183 L89.0997209,13.967814 Z M57.4230698,8.75367442 C58.2078796,8.75367442 58.7880048,9.32323167 58.8619151,10.0938091 L58.8697674,10.2405581 L57.9053023,10.2405581 C57.8952558,9.89897674 57.6541395,9.71813953 57.3828837,9.71813953 C57.0613953,9.71813953 56.8805581,9.96930233 56.8805581,10.2305116 C56.8805581,10.400186 56.9202481,10.5619225 57.1971955,10.701609 L57.3125581,10.7529302 L57.9153488,10.9940465 C58.6788837,11.2853953 58.92,11.827907 58.92,12.4306977 C58.92,13.2746047 58.2770233,13.967814 57.3929302,13.967814 C56.636487,13.967814 55.9868358,13.4961494 55.8795203,12.6030752 L55.8658605,12.4306977 L56.8303256,12.4306977 C56.8705116,12.712 57.0011163,13.0033488 57.3828837,13.0033488 C57.6742326,13.0033488 57.9555349,12.7923721 57.9555349,12.4507907 C57.9555349,12.2007442 57.8602791,12.0221395 57.5639276,11.8796968 L57.4431628,11.827907 L56.9508837,11.6470698 C56.307907,11.4059535 55.916093,10.9237209 55.916093,10.2405581 C55.916093,9.37655814 56.5992558,8.75367442 57.4230698,8.75367442 Z M99.2868837,6.7544186 L99.2868837,13.9075349 L98.2621395,13.9075349 L98.2621395,13.4453953 C98.0009302,13.7367442 97.8,13.967814 97.2876279,13.967814 C96.8757209,13.967814 96.5743256,13.8171163 96.3934884,13.4855814 C96.2863256,13.2891163 96.2347287,13.0212093 96.2245857,12.5689647 L96.2226977,12.3905116 L96.2234978,10.2622061 C96.2290079,9.66583125 96.2647104,9.40761099 96.3834419,9.21581395 C96.5542326,8.94455814 96.8053953,8.75367442 97.2976744,8.75367442 C97.6548837,8.75367442 97.9485891,8.90449612 98.1646787,9.1708596 L98.2420465,9.27609302 L98.2621395,9.27609302 L98.2621395,6.7544186 L99.2868837,6.7544186 Z M85.7743256,8.75367442 C86.5591354,8.75367442 87.1392606,9.32323167 87.2131709,10.0938091 L87.2210233,10.2405581 L86.2565581,10.2405581 C86.2465116,9.89897674 86.0053953,9.71813953 85.7341395,9.71813953 C85.4126512,9.71813953 85.231814,9.96930233 85.231814,10.2305116 C85.231814,10.400186 85.2715039,10.5619225 85.5484513,10.701609 L85.663814,10.7529302 L86.2666047,10.9940465 C87.0301395,11.2853953 87.2712558,11.827907 87.2712558,12.4306977 C87.2712558,13.2746047 86.6282791,13.967814 85.744186,13.967814 C84.9877428,13.967814 84.3380916,13.4961494 84.2307761,12.6030752 L84.2171163,12.4306977 L85.1815814,12.4306977 C85.2217674,12.712 85.3523721,13.0033488 85.7341395,13.0033488 C86.0254884,13.0033488 86.3067907,12.7923721 86.3067907,12.4507907 C86.3067907,12.2007442 86.2115349,12.0221395 85.9151835,11.8796968 L85.7944186,11.827907 L85.3021395,11.6470698 C84.6591628,11.4059535 84.2673488,10.9237209 84.2673488,10.2405581 C84.2673488,9.37655814 84.9505116,8.75367442 85.7743256,8.75367442 Z M101.205767,8.75367442 C101.990577,8.75367442 102.570703,9.32323167 102.644613,10.0938091 L102.652465,10.2405581 L101.688,10.2405581 C101.677953,9.89897674 101.436837,9.71813953 101.165581,9.71813953 C100.844093,9.71813953 100.663256,9.96930233 100.663256,10.2305116 C100.663256,10.400186 100.702946,10.5619225 100.979893,10.701609 L101.095256,10.7529302 L101.698047,10.9940465 C102.461581,11.2853953 102.702698,11.827907 102.702698,12.4306977 C102.702698,13.2746047 102.059721,13.967814 101.175628,13.967814 C100.419185,13.967814 99.7695334,13.4961494 99.662218,12.6030752 L99.6485581,12.4306977 L100.613023,12.4306977 C100.653209,12.712 100.783814,13.0033488 101.165581,13.0033488 C101.45693,13.0033488 101.738233,12.7923721 101.738233,12.4507907 C101.738233,12.2007442 101.642977,12.0221395 101.346625,11.8796968 L101.22586,11.827907 L100.733581,11.6470698 C100.090605,11.4059535 99.6987907,10.9237209 99.6987907,10.2405581 C99.6987907,9.37655814 100.381953,8.75367442 101.205767,8.75367442 Z M83.7650233,6.7544186 L83.7650233,13.9075349 L82.7402791,13.9075349 L82.7402791,6.7544186 L83.7650233,6.7544186 Z M60.3064186,6.7544186 L60.3064186,9.30623256 L60.3265116,9.30623256 C60.5374884,8.98474419 60.8187907,8.75367442 61.2909767,8.75367442 C61.7713256,8.75367442 62.2781642,9.0450625 62.3396427,9.83479043 L62.3458605,9.99944186 L62.3458605,13.9075349 L61.3211163,13.9075349 L61.3211163,10.3812093 C61.3211163,10.0094884 61.1402791,9.7784186 60.8187907,9.7784186 C60.4717294,9.7784186 60.3322406,9.98599116 60.3097473,10.3633958 L60.3064186,10.4816744 L60.3064186,13.9075349 L59.2816744,13.9075349 L59.2816744,6.7544186 L60.3064186,6.7544186 Z M52.1888372,8.81395349 L52.1888372,13.9075349 L51.164093,13.9075349 L51.164093,8.81395349 L52.1888372,8.81395349 Z M55.504186,8.81395349 L55.504186,13.9075349 L54.4794419,13.9075349 L54.4794419,8.81395349 L55.504186,8.81395349 Z M72.1914419,8.75367442 L72.1914419,9.83869767 C72.0909767,9.79851163 71.9905116,9.7784186 71.88,9.7784186 C71.475,9.7784186 70.911061,10.016827 70.8421507,10.7337079 L70.8351628,10.8835349 L70.8351628,13.9075349 L69.8104186,13.9075349 L69.8104186,8.81395349 L70.8351628,8.81395349 L70.8351628,9.35646512 C71.2571163,8.98474419 71.5986977,8.75367442 72.1914419,8.75367442 Z M79.4852093,8.75367442 C79.9655581,8.75367442 80.4723968,9.0450625 80.5338753,9.83479043 L80.540093,9.99944186 L80.540093,13.9075349 L79.5153488,13.9075349 L79.5153488,10.3812093 C79.5153488,10.0094884 79.3345116,9.7784186 79.0130233,9.7784186 C78.6659619,9.7784186 78.5264732,9.98599116 78.5039799,10.3633958 L78.5006512,10.4816744 L78.5006512,13.9075349 L77.475907,13.9075349 L77.475907,8.81395349 L78.5006512,8.81395349 L78.5006512,9.30623256 L78.5207442,9.30623256 C78.7317209,8.98474419 79.0130233,8.75367442 79.4852093,8.75367442 Z M76.9333953,8.81395349 L76.9333953,13.9075349 L75.9086512,13.9075349 L75.9086512,8.81395349 L76.9333953,8.81395349 Z M65.2493023,6.7544186 L66.0630698,11.7475349 L66.0831628,11.7475349 L66.9069767,6.7544186 L67.992,6.7544186 L66.5252093,13.9075349 L65.6210233,13.9075349 L64.1642791,6.7544186 L65.2493023,6.7544186 Z M46.2513488,6.7544186 C47.5172093,6.7544186 48.0232919,7.55081222 48.066684,8.43583272 L48.0697674,8.5627907 L48.0697674,8.824 C48.0697674,9.58753488 47.8186047,9.86883721 47.3665116,10.1501395 C47.8085581,10.3619535 48.0311163,10.7426047 48.0651395,11.3772151 L48.0697674,11.5566512 L48.0697674,11.9585116 C48.0697674,13.1476533 47.5296844,13.8424816 46.3271883,13.903191 L46.1508837,13.9075349 L44.7544186,13.9075349 L44.7544186,6.7544186 L46.2513488,6.7544186 Z M51.0535814,8.75367442 L51.0535814,9.83869767 C50.9531163,9.79851163 50.8526512,9.7784186 50.7421395,9.7784186 C50.3371395,9.7784186 49.7732006,10.016827 49.7042902,10.7337079 L49.6973023,10.8835349 L49.6973023,13.9075349 L48.6725581,13.9075349 L48.6725581,8.81395349 L49.6973023,8.81395349 L49.6973023,9.35646512 C50.1192558,8.98474419 50.4608372,8.75367442 51.0535814,8.75367442 Z M53.756093,7.2667907 L53.756093,8.81395349 L54.3890233,8.81395349 L54.3890233,9.61767442 L53.756093,9.61767442 L53.756093,12.4407442 C53.756093,12.8766082 53.9101792,12.9358173 54.2894681,12.9423473 L54.3890233,12.9430698 L54.3890233,13.9075349 L53.9670698,13.9075349 C53.0971601,13.9075349 52.7701096,13.3290783 52.7346431,12.8087291 L52.7313488,12.712 L52.7313488,9.61767442 L52.2189767,9.61767442 L52.2189767,8.81395349 L52.7313488,8.81395349 L52.7313488,7.2667907 L53.756093,7.2667907 Z M94.6253023,8.75367442 C95.1056512,8.75367442 95.6124898,9.0450625 95.6739683,9.83479043 L95.680186,9.99944186 L95.680186,13.9075349 L94.6554419,13.9075349 L94.6554419,10.3812093 C94.6554419,10.0094884 94.4746047,9.7784186 94.1531163,9.7784186 C93.806055,9.7784186 93.6665662,9.98599116 93.6440729,10.3633958 L93.6407442,10.4816744 L93.6407442,13.9075349 L92.616,13.9075349 L92.616,8.81395349 L93.6407442,8.81395349 L93.6407442,9.30623256 L93.6608372,9.30623256 C93.871814,8.98474419 94.1531163,8.75367442 94.6253023,8.75367442 Z M69.267907,8.81395349 L69.267907,13.9075349 L68.2431628,13.9075349 L68.2431628,8.81395349 L69.267907,8.81395349 Z M12.7698312,8.47786476 L13.0744174,9.356575 L13.3143637,10.0488475 C12.6041533,10.8745702 12.0304287,11.7984793 11.6047808,12.8048748 L11.4829065,13.1058774 L11.3706914,13.4096627 L10.6449957,13.6211223 L9.69082205,13.8991537 C9.83696697,13.3330638 10.0250297,12.7771238 10.2549488,12.2335721 C10.8488504,10.8293714 11.6949025,9.56625606 12.7698312,8.47786476 Z M30.0717556,8.72931952 C31.032522,9.75929572 31.7963331,10.9362756 32.3450665,12.2335813 C32.5077087,12.6181551 32.6494629,13.008921 32.7702386,13.405103 L32.8840181,13.8030616 L32.0740575,13.571517 L31.1975253,13.3209301 C31.134756,13.1475859 31.0674177,12.9754991 30.9952345,12.8048534 C30.6779403,12.0546958 30.2782812,11.3504292 29.8012585,10.6984067 L29.5563234,10.3767786 L29.846988,9.44777921 L30.0717556,8.72931952 Z M20.7088889,9.45565681 L20.7088889,10.0165644 C20.8982088,9.99773664 21.0961453,9.98767882 21.3,9.98767882 C21.4359031,9.98767882 21.569176,9.99214896 21.699019,10.0007076 L21.8911111,10.0165644 L21.8911111,9.45565681 L22.3166977,9.45565681 L22.3166977,10.0761447 C23.1606953,10.2309371 23.7471455,10.5724431 23.7471455,10.9688991 L23.7449645,11.0100695 L23.738,11.047 L23.7129014,10.9684844 C23.5877317,10.6706169 23.1279093,10.4183359 22.4938287,10.275974 L22.3166977,10.2399216 L22.3166977,10.9786196 C23.1606953,11.1333813 23.7471455,11.4748873 23.7471455,11.8713434 C23.7471455,11.898941 23.7441711,11.9262321 23.7386209,11.9532471 C23.6698957,11.6198388 23.185553,11.3337483 22.4938287,11.1784243 L22.3166977,11.1423659 L22.3166977,11.9539831 C23.1072836,12.0737264 23.7506408,12.3286657 24.097449,12.6547223 L24.1845684,12.745362 L24.1845684,13.6203925 C23.749108,13.1142203 22.6211918,12.7534266 21.2975469,12.7534266 C20.0612869,12.7534266 18.9957604,13.0681319 18.5056596,13.5220669 L18.4154316,13.6146583 L18.4154316,12.7398118 C18.7095613,12.4031252 19.311006,12.1316789 20.0719336,11.9889614 L20.2833023,11.9532778 L20.2833023,11.1423659 C19.498057,11.2863951 18.9358314,11.5920548 18.8613791,11.9532471 C18.8558289,11.9262321 18.8528545,11.898941 18.8528545,11.8713434 C18.8528545,11.5013177 19.3637178,11.1791597 20.1180342,11.0120228 L20.2833023,10.9786196 L20.2833023,10.2399216 C19.5584605,10.3728434 19.0236473,10.643538 18.8870986,10.9684844 L18.86,11.048 L18.8550355,11.0100695 L18.8528545,10.9688991 C18.8528545,10.5988735 19.3637178,10.2767154 20.1180342,10.1095537 L20.2833023,10.0761447 L20.2833023,9.45565681 L20.7088889,9.45565681 Z M90.8578605,11.6872558 C90.415814,11.6872558 90.0541395,11.868093 90.0541395,12.4106047 C90.0541395,12.8024186 90.2550698,13.0636279 90.5866047,13.0636279 C90.8940279,13.0636279 91.0956614,12.8683237 91.1329139,12.5289827 L91.1391628,12.4106047 L91.1391628,11.7173953 C91.0286512,11.6973023 90.9482791,11.6872558 90.8578605,11.6872558 Z M73.8290233,9.7784186 C73.5093615,9.7784186 73.3557578,10.0108999 73.3304717,10.362641 L73.3266977,10.4716279 L73.3266977,12.3402791 C73.3266977,12.6617674 73.4372093,12.9430698 73.8290233,12.9430698 C74.0912372,12.9430698 74.2964874,12.7559033 74.3349153,12.4841049 L74.3413953,12.3905116 L74.3413953,10.4113488 C74.3413953,10.0396279 74.1404651,9.7784186 73.8290233,9.7784186 Z M97.7497674,9.7784186 C97.3935729,9.7784186 97.2698597,10.0108999 97.2503101,10.2947082 L97.2474419,10.3812093 L97.2474419,12.2498605 C97.2474419,12.6617674 97.3981395,12.9430698 97.7497674,12.9430698 C98.0300651,12.9430698 98.2208484,12.7314902 98.256202,12.4181898 L98.2621395,12.3101395 L98.2621395,10.3309767 C98.2621395,10.0094884 98.0411163,9.7784186 97.7497674,9.7784186 Z M46.2312558,10.592186 L45.7791628,10.592186 L45.7791628,12.8827907 L46.2212093,12.8827907 C47.0450233,12.8827907 47.1053023,12.3804651 47.1053023,11.6772093 C47.1053023,10.963907 46.9746977,10.592186 46.2312558,10.592186 Z M21.3,11.0539 C21.1641173,11.0539 21.0308377,11.0583565 20.9009879,11.0669061 L20.7088889,11.0827549 L20.7088889,11.9035713 C20.899466,11.887626 21.0962066,11.8791934 21.2975469,11.8791934 L21.5984457,11.8854987 L21.8911111,11.9039699 L21.8911111,11.0827549 C21.7017912,11.0639271 21.503824,11.0539 21.3,11.0539 Z M8.33331351,9.87482804 L8.27101562,9.96988119 L7.90925756,10.5932513 L7.9849382,10.6371709 L8.12473497,10.4467414 L8.41379634,10.6098326 L8.70261774,10.776778 L8.80817232,10.8380342 L9.10039903,11.008287 L9.38939838,11.1806603 L9.29341672,11.3965168 L9.36909737,11.4404364 L9.71467456,10.8449486 L9.77213851,10.7348989 C9.93626876,10.3796929 9.83258475,10.1413004 9.65153058,10.0362297 C9.47228694,9.9322097 9.25723389,9.97247277 9.04319967,10.2449495 C9.13672606,9.96909694 9.05311158,9.78745683 8.90175029,9.69961773 C8.71763831,9.5927725 8.50493842,9.64393297 8.33331351,9.87482804 Z M33.8820352,10.0325274 C33.6892405,10.1418474 33.633744,10.3253162 33.6478968,10.5574524 L33.6580292,10.6598447 L33.6705446,10.7612787 L33.6811624,10.8571749 C33.6948151,11.0350228 33.6607435,11.1321344 33.5388429,11.2012554 C33.3605705,11.3023409 33.186054,11.2186475 33.0656602,11.0063229 C33.0300721,10.9435602 33.0086731,10.8892227 32.9978593,10.8328047 L32.9891269,10.7453042 L33.2317441,10.533615 L33.1681399,10.4214435 L32.8517179,10.582334 L32.8529391,10.6700119 C32.8621425,10.7938018 32.9020473,10.9418589 32.9774638,11.0748623 C33.1501039,11.3793279 33.4267365,11.5030608 33.6871344,11.3554079 C33.8676603,11.2530447 33.9368174,11.1043901 33.9180258,10.8287774 L33.9046559,10.7026495 L33.8887331,10.5952063 L33.8801866,10.5031274 C33.8750843,10.3574282 33.9174876,10.2506628 34.0343329,10.1844083 C34.20259,10.0890018 34.3645511,10.1692261 34.4645006,10.3454956 C34.4902452,10.3908984 34.5071147,10.4330981 34.5154274,10.4781891 L34.5215186,10.5487556 L34.2909198,10.7536301 L34.3556598,10.8678047 L34.6500481,10.7194079 L34.6549235,10.6371037 C34.6551454,10.5263508 34.6290221,10.411562 34.5617833,10.2929807 C34.4050442,10.016558 34.1364239,9.88828187 33.8820352,10.0325274 Z M9.53332141,10.2445116 C9.71035216,10.3472474 9.75264618,10.5190415 9.64865106,10.7475801 L9.60277303,10.8359179 L9.51955712,10.979313 L9.28531747,10.8474867 L9.0414161,10.7071009 L8.89387604,10.6215378 L8.96668996,10.4960671 L9.02550635,10.4037156 C9.18311278,10.1801114 9.34743912,10.1366391 9.53332141,10.2445116 Z M21.3,10.1514251 C21.1641173,10.1514251 21.0308377,10.1558952 20.9009879,10.1644539 L20.7088889,10.1803106 L20.7088889,10.9190086 C20.8982088,10.9001809 21.0961453,10.8901231 21.3,10.8901231 C21.4359031,10.8901231 21.569176,10.8945932 21.699019,10.9031519 L21.8911111,10.9190086 L21.8911111,10.1803106 C21.7017912,10.1614829 21.503824,10.1514251 21.3,10.1514251 Z M8.79645057,9.89941743 C8.97420051,10.0025706 9.0149921,10.1485437 8.92020769,10.3595416 L8.87128927,10.4540151 L8.80425422,10.5695278 L8.51551281,10.4012976 L8.23298615,10.2326806 L8.32198095,10.0793276 L8.37252397,10.0011936 C8.49225244,9.83703018 8.62567122,9.8003095 8.79645057,9.89941743 Z M21.240895,7.93063644 L23.513838,9.16777925 C23.5927468,9.20296118 23.6657409,9.2400511 23.7322388,9.27883096 L23.8270407,9.33824094 L23.9186597,9.40562246 C24.0892792,9.54287494 24.184553,9.69576235 24.184553,9.85698539 C24.184553,10.0735965 24.0125583,10.2752129 23.7168647,10.4440188 C23.8711356,10.3122245 23.9572403,10.1657115 23.9572403,10.0113178 C23.9572403,9.436734 22.7663401,8.9709771 21.2972862,8.9709771 C19.828263,8.9709771 18.6373321,9.436734 18.6373321,10.0113178 C18.6373321,10.1621851 18.7195425,10.3055091 18.8672513,10.4349422 C18.5812476,10.2680069 18.4154163,10.0697022 18.4154163,9.85698539 C18.4154163,9.69576235 18.5107127,9.54287494 18.6813386,9.40562246 L18.7728366,9.33833293 L18.8838137,9.26957637 L19.007662,9.20436151 L21.240895,7.93063644 Z M33.1620857,8.20274126 L33.0898592,8.25213585 L33.2015369,8.46030553 L32.9277354,8.65243604 L32.6491332,8.84366529 L32.4396578,8.98686108 L32.2124333,9.14104434 L31.9945945,9.28571498 L31.8411015,9.10614217 L31.768875,9.15553675 L32.157532,9.7238456 L32.2258789,9.81434939 C32.5107579,10.1556255 32.9296279,10.2447295 33.3419329,9.96276043 C33.7559924,9.67959149 33.8416189,9.28112469 33.6345769,8.90307313 L33.5767398,8.80906409 L33.1620857,8.20274126 Z M9.26942049,8.45682937 L9.19392273,8.55223964 L8.78308102,9.12751674 L8.85428789,9.17837016 L9.01140156,9.00195647 L9.28498544,9.19238859 L9.55937275,9.38763888 L9.66056146,9.45990426 L9.93334271,9.65542236 L10.2013058,9.85174389 L10.0854172,10.057599 L10.156624,10.1084524 L10.568804,9.53130148 L10.4975971,9.48044806 L10.3386096,9.6555235 L10.068305,9.46743331 L9.78876452,9.26850284 L9.86638282,9.15981857 L9.91679029,9.09465359 C9.99854191,8.99918362 10.0725533,8.96913195 10.1922819,9.00039713 L10.2700328,9.02648144 L10.6563064,9.17501257 L10.7094657,9.19128347 C10.7940153,9.20725688 10.8601884,9.1668765 10.9360224,9.06069072 C10.966356,9.0182164 10.9897896,8.97835996 11.0064819,8.94207312 L11.0264843,8.89043905 L10.9552774,8.83958563 L10.8265356,8.98815832 L10.4359802,8.85354688 L10.3459325,8.8276995 C10.2043138,8.79625236 10.102449,8.82332598 10.0020766,8.91434522 C10.1281323,8.65067042 10.0681543,8.42957173 9.9070019,8.31448241 C9.70545731,8.17054641 9.47431872,8.2245769 9.26942049,8.45682937 Z M33.3481261,8.65017903 L33.4716124,8.83074539 L33.5228149,8.91699789 C33.6680044,9.20502837 33.5583375,9.49674452 33.1937493,9.7460808 C32.8429844,9.98596358 32.5231881,9.98795075 32.297037,9.73642554 L32.2320637,9.65334699 L32.1202761,9.48988692 L32.2842048,9.37418212 L32.4528732,9.25725311 L32.6287238,9.13659886 L32.7791188,9.03373514 L33.0654986,8.83858177 L33.3481261,8.65017903 Z M46.2011163,7.71888372 L45.7791628,7.71888372 L45.7791628,9.688 L46.2413023,9.688 C46.9244651,9.688 47.1053023,9.33637209 47.1053023,8.68334884 C47.1053023,8.0504186 46.8742326,7.71888372 46.2011163,7.71888372 Z M9.76728863,8.50615244 C9.91649513,8.61271042 9.97184285,8.7778895 9.8784555,8.96439459 L9.82916614,9.04552229 L9.71006219,9.21229643 L9.57327629,9.11454669 L9.42289447,9.00657975 L9.27932998,8.90238262 L9.13933601,8.79904484 L9.26646944,8.6210275 L9.32495005,8.54906134 C9.46314602,8.40159782 9.61316324,8.39608154 9.76728863,8.50615244 Z M24.6852604,5.39690234 C25.1190342,5.52458762 25.5463992,5.6772948 25.9664356,5.85493189 C27.394001,6.4587692 28.6758815,7.32294465 29.776476,8.42354026 L29.8649112,8.51304874 L29.1367317,8.67615105 L28.1349061,8.90061221 C27.3133238,8.19680996 26.3949352,7.62765374 25.3951334,7.20476524 L25.2796257,7.15676444 L25.1636811,7.11016651 L24.9179393,6.23010706 L24.6852604,5.39690234 Z M31.8372886,6.64039961 L31.7711783,6.69772258 L31.8714437,6.84850772 L31.8636808,6.88876391 L30.7820227,7.820554 L30.6206243,7.68010792 L30.554514,7.73743089 L30.9452149,8.18802494 L31.0113252,8.13070196 L30.8609271,7.90452427 L31.8217281,7.06533615 L31.427824,8.76922091 L31.4866554,8.83707098 L32.6868473,7.79945469 L32.8482458,7.93990077 L32.9143561,7.8825778 L32.5236551,7.43198375 L32.4575449,7.48930672 L32.6096827,7.71397592 L31.7289099,8.48377307 L32.0922247,6.93441658 L31.8372886,6.64039961 Z M10.2944158,7.14284112 L9.83490136,7.68306513 L9.90155231,7.73975852 L10.0730229,7.57726441 L10.2654472,7.73637089 L10.457778,7.89858608 L10.6811272,8.08847278 L10.9363957,8.30636026 L11.1867953,8.52464081 L11.0539121,8.71995741 L11.1205631,8.7766508 L11.5800775,8.23642679 L11.5134266,8.1797334 L11.340202,8.34073558 L11.0841422,8.12822096 L10.8303202,7.91307537 L10.7356057,7.83251108 L10.4788024,7.61331815 L10.2281836,7.39485111 L10.3610667,7.19953451 L10.2944158,7.14284112 Z M18.3635818,5.27436863 L18.098215,6.26233502 L17.9179716,6.93329603 C17.6777494,7.01492384 17.4399496,7.10535225 17.2048482,7.20476524 C16.4079067,7.54185123 15.6626686,7.97177807 14.9769546,8.48877199 L14.6390941,8.75449781 L13.7445007,8.58250291 L12.8388683,8.4083922 C13.9360285,7.31509464 15.2125734,6.45597877 16.6335767,5.85493189 C17.1977341,5.61633459 17.7752304,5.42275217 18.3635818,5.27436863 Z M11.5051499,5.92702625 L10.5194345,6.89839311 L10.819842,7.23276415 L10.9100489,7.14387034 L10.721664,6.85428413 L11.0037656,6.57628896 L11.241396,6.81168897 L11.4789907,7.05197356 L11.5662682,7.14054042 L11.8012244,7.37978799 L12.030084,7.61776964 L11.8641448,7.82008753 L11.9255623,7.88241236 L12.4668037,7.34904953 L12.4053862,7.2867247 L12.200657,7.44967954 L11.9642388,7.21550962 L11.7302807,6.97891532 L11.6430032,6.89034846 L11.4062287,6.64925575 L11.1743386,6.40819885 L11.4564402,6.13020368 L11.7448728,6.32119857 L11.8317994,6.23553727 L11.5051499,5.92702625 Z M55.504186,6.7544186 L55.504186,7.77916279 L54.4794419,7.77916279 L54.4794419,6.7544186 L55.504186,6.7544186 Z M52.1888372,6.7544186 L52.1888372,7.77916279 L51.164093,7.77916279 L51.164093,6.7544186 L52.1888372,6.7544186 Z M69.267907,6.7544186 L69.267907,7.77916279 L68.2431628,7.77916279 L68.2431628,6.7544186 L69.267907,6.7544186 Z M76.9333953,6.7544186 L76.9333953,7.77916279 L75.9086512,7.77916279 L75.9086512,6.7544186 L76.9333953,6.7544186 Z M30.9454979,5.79140921 L29.4922273,6.61061005 L29.3180237,6.49795276 L29.2596668,6.56315218 L29.6783153,6.93786524 L29.7366722,6.87266582 L29.5745844,6.68432409 L29.9759983,6.4533609 L30.4118045,6.84343106 L30.2267581,7.2711451 L30.0214904,7.12759357 L29.9631335,7.19279299 L30.4744337,7.65043435 L30.5327906,7.58523493 L30.4005913,7.43600619 L31.0553073,5.8896946 L30.9454979,5.79140921 Z M12.3061505,5.25673797 L11.756692,5.70516933 L11.8120179,5.77295973 L12.0099968,5.64407677 L12.1705499,5.83529584 L12.3304499,6.0295557 L12.5158656,6.25663032 L12.7276235,6.51700616 L12.9345216,6.77688998 L12.7685735,6.94502001 L12.8238994,7.0128104 L13.3733578,6.56437904 L13.318032,6.49658865 L13.1185971,6.62368764 L12.9050912,6.36845364 L12.6942612,6.11103573 L12.6156402,6.01470201 L12.4026083,5.75276521 L12.1955283,5.49265839 L12.3614764,5.32452837 L12.3061505,5.25673797 Z M30.7803617,5.98971875 L30.4538191,6.74815284 L30.0660545,6.40108254 L30.7803617,5.98971875 Z M21.2999939,4.91247714 C22.2402592,4.91247714 23.1643263,5.01971385 24.0636988,5.23223693 L24.5112878,5.34726331 L23.9021462,5.96934575 L23.3137335,6.57023931 C22.6552841,6.44276867 21.9826066,6.37840474 21.2999939,6.37840474 C20.8697464,6.37840474 20.4434489,6.4039326 20.0221749,6.45471665 L19.6026154,6.51390937 L19.0873058,5.99795535 L18.3644312,5.27416011 C19.3178075,5.03384562 20.2997321,4.91247714 21.2999939,4.91247714 Z M29.0753754,4.37862073 L29.0254919,4.45051047 L29.204019,4.60521846 L29.0178054,4.88064946 L28.8258005,5.158368 L28.7509753,5.26620261 L28.5640958,5.53451505 L28.3704404,5.80653392 L28.1630334,5.6934463 L28.1131499,5.76533605 L29.1404155,6.47814493 L29.425971,6.09892864 L29.3181365,6.02410339 L29.0413076,6.27764717 L28.5645656,5.94684083 L28.7021644,5.74243368 L28.836082,5.54759174 L29.0162966,5.28774852 L29.2076065,5.01305113 L29.4007697,4.74174171 L29.6100685,4.85614205 L29.6599519,4.7842523 L29.0753754,4.37862073 Z M13.4888801,4.54827442 C13.3521673,4.54365553 13.2119181,4.57483122 13.0709244,4.67051844 C12.8079902,4.84896219 12.7017134,5.12702151 12.8659332,5.36899742 C12.9903911,5.55238468 13.1777258,5.59295958 13.407974,5.56019984 L13.5092209,5.54187264 L13.704054,5.50295826 C13.8802297,5.47505904 13.9797649,5.50121741 14.0584574,5.61716987 C14.1735406,5.78674354 14.1041408,5.96742088 13.9021768,6.10448636 C13.8424768,6.14500257 13.7900345,6.17069853 13.7346679,6.18601074 L13.6481521,6.20174578 L13.4176527,5.97692262 L13.3109547,6.04933457 L13.4967502,6.35180568 L13.5840464,6.34354332 C13.7066964,6.32442285 13.8510681,6.27275022 13.9775814,6.18689033 C14.2671901,5.9903436 14.3682946,5.70466299 14.2001956,5.45697111 C14.0836578,5.28525395 13.9299271,5.22826519 13.6567158,5.26914231 L13.5320702,5.2926037 L13.4262539,5.31710833 L13.3351595,5.33302608 C13.1903416,5.34981922 13.0805143,5.31613181 13.0050853,5.20498802 C12.8964674,5.04494095 12.9634182,4.87705719 13.1310864,4.76326698 C13.1742737,4.73395738 13.2149814,4.71375152 13.2592586,4.70184252 L13.3291074,4.69010078 L13.5518485,4.90349201 L13.6604517,4.82978699 L13.4888801,4.54827442 Z M15.4520444,3.41628135 L14.8201631,3.73323612 L14.8593953,3.8114495 L15.0786347,3.7298152 L15.2300025,4.02259506 L15.3790572,4.31846724 L14.6442637,4.68704331 L14.4954638,4.38911122 L14.3520742,4.09426156 L14.5486003,3.96734582 L14.5093682,3.88913243 L13.8774869,4.2060872 L13.9167191,4.28430059 L14.1380167,4.20163386 L14.2530657,4.42323212 L14.3668149,4.64765592 L14.4983198,4.90966423 L14.6482812,5.20991184 L14.7936066,5.50862072 L14.5950223,5.63656888 L14.6342544,5.71478227 L15.2661356,5.3978275 L15.2269035,5.31961411 L15.0076641,5.40124842 L14.9052339,5.2042712 C14.8593509,5.1148277 14.8126505,5.02240183 14.7637742,4.92518721 L14.688658,4.77554793 L15.4234514,4.40697187 L15.4920459,4.54380418 C15.5512936,4.6621398 15.606137,4.77227941 15.6581444,4.87890764 L15.7342246,5.03680206 L15.5376985,5.1637178 L15.5769306,5.24193118 L16.2088118,4.92497642 L16.1695797,4.84676303 L15.948282,4.92942976 L15.7945913,4.63201885 L15.6447623,4.33460298 L15.5890114,4.22345764 L15.4381466,3.92140906 L15.2926922,3.6224429 L15.4912765,3.49449474 L15.4520444,3.41628135 Z M27.6014616,4.03994362 C27.4964493,4.23511813 27.5471365,4.41997343 27.6826915,4.60895051 L27.745776,4.69023514 L27.8103675,4.76944007 L27.8704047,4.84496718 C27.9766369,4.98825352 27.99949,5.0885993 27.9330926,5.21200463 C27.8359903,5.39247769 27.6437034,5.41452987 27.4287582,5.29887987 C27.3572787,5.26042079 27.3066778,5.22142859 27.2646486,5.17197234 L27.2250209,5.11866027 L27.3177149,4.81030437 L27.2041589,4.74920626 L27.0219448,5.05384822 L27.0696526,5.12742048 C27.1433412,5.22731352 27.255938,5.33140601 27.3905829,5.40385091 C27.6988062,5.56968865 27.9988523,5.52717125 28.1406871,5.26355892 C28.2390168,5.0808046 28.2184266,4.91814873 28.0558005,4.6948368 L27.9773402,4.59518262 L27.9066653,4.51270458 L27.8504135,4.43930633 C27.7685334,4.31868324 27.7475944,4.20572992 27.8112382,4.08744234 C27.9028852,3.91710822 28.0826969,3.89880303 28.261142,3.99481435 C28.3071051,4.01954454 28.3438502,4.04628783 28.3748906,4.08003367 L28.4176121,4.13652803 L28.3314642,4.43271721 L28.447048,4.49490636 L28.6172607,4.21257006 L28.5775745,4.14030148 C28.5188047,4.04642728 28.4355844,3.96316104 28.3155395,3.89857161 C28.0357052,3.7480084 27.7400232,3.78241465 27.6014616,4.03994362 Z M26.7867402,3.21221304 L26.7523792,3.2926855 L26.9584374,3.40821244 L26.8312551,3.7163314 L26.6995398,4.02627055 L26.650711,4.14062615 L26.518389,4.44905433 L26.3842468,4.75294961 L26.1582954,4.68401199 L26.1239344,4.76448445 L26.7761842,5.04298976 L26.8105452,4.9625173 L26.6053913,4.84487266 L26.7323476,4.53728313 L26.8624804,4.23104995 L26.9113092,4.11669435 L27.0444224,3.80641318 L27.1786776,3.50225319 L27.404629,3.57119081 L27.4389901,3.49071835 L26.7867402,3.21221304 Z M24.196533,2.45354056 L24.1748336,2.53830868 L24.3431208,2.60515693 L24.3596644,2.64266869 L24.0011607,4.0245855 L23.7885093,4.00104976 L23.76681,4.08581789 L24.3445711,4.23371633 L24.3662705,4.1489482 L24.1138397,4.04867584 L24.4257321,2.81170373 L25.0722559,4.43663146 L25.1592547,4.45890188 L25.5549291,2.92249297 L25.7675805,2.9460287 L25.7892799,2.86126058 L25.2115187,2.71336214 L25.1898194,2.79813026 L25.4428212,2.89617189 L25.1571965,4.03052995 L24.5735277,2.55004572 L24.196533,2.45354056 Z M17.9941667,2.58155547 L17.4387218,2.74133513 L17.4654578,2.83427819 L17.6953292,2.79211369 L17.6515425,4.12253514 L16.8759093,3.02543252 L17.1069634,2.93740291 L17.0802274,2.84445984 L16.4229878,3.03352182 L16.4471775,3.11761316 L16.6365797,3.08469403 L17.6442335,4.45529211 L17.7460281,4.42600978 L17.8157671,2.75267635 L18.0177198,2.66343389 L17.9941667,2.58155547 Z M18.9729197,2.38358112 L18.2764222,2.51732056 L18.2929225,2.60325215 L18.5283572,2.58383675 L18.5951677,2.91040837 L18.6592375,3.24102336 L18.6826853,3.36313667 L18.7454073,3.69283809 L18.804086,4.0197988 L18.5782041,4.08896407 L18.5947044,4.17489566 L19.2912019,4.04115622 L19.2747016,3.95522463 L19.0388327,3.97237867 L18.9721307,3.64637239 L18.9088208,3.31971477 L18.885373,3.19760147 L18.8222711,2.86592136 L18.7635381,2.53867798 L18.98942,2.46951271 L18.9729197,2.38358112 Z M23.1178485,2.26847676 L23.1045388,2.35495999 L23.3328249,2.41572078 L23.2861081,2.74576655 L23.2354521,3.07870076 L23.2165383,3.20159798 L23.1649195,3.53321911 L23.1104122,3.86090105 L22.8744204,3.8502095 L22.8611107,3.93669273 L23.5620794,4.04457175 L23.5753891,3.95808852 L23.3474532,3.89505186 L23.3940824,3.56557505 L23.4441255,3.23662363 L23.4630393,3.11372641 L23.5149646,2.78011388 L23.5695156,2.45214746 L23.8055074,2.46283901 L23.8188172,2.37635578 L23.1178485,2.26847676 Z M20.1540057,2.24563693 L20.0325551,2.25290118 L19.3298305,2.3297916 L19.3393479,2.41677388 L19.5755815,2.41640631 L19.6158409,2.74730184 L19.6530425,3.08200657 L19.6665672,3.20561297 L19.7024991,3.53929843 L19.7346218,3.86992606 L19.5038983,3.92065179 L19.5134156,4.00763408 L20.2184292,3.9304932 L20.2089119,3.84351092 L19.9724278,3.84158948 L19.9454592,3.62491016 L19.9199687,3.40292152 L19.8947163,3.17370021 L20.0274787,3.15917368 L20.1001317,3.15361749 C20.2349338,3.14888444 20.309199,3.18481559 20.3676976,3.30439686 L20.3958403,3.37135735 L20.542425,3.75837406 L20.5657079,3.80885732 C20.6101261,3.88255144 20.6843263,3.9049964 20.8140366,3.89080382 C20.8659207,3.88512678 20.9112556,3.87604829 20.9494372,3.86432077 L21.001269,3.84483677 L20.9917517,3.75785448 L20.7951826,3.7608313 L20.6353647,3.37989535 L20.5946468,3.29552263 C20.5237464,3.16896066 20.4356904,3.11103353 20.3009419,3.09682223 C20.5815575,3.01515689 20.7064796,2.8231245 20.6849403,2.62626986 C20.6613695,2.41084882 20.509673,2.2795113 20.2646353,2.25133893 L20.1540057,2.24563693 Z M22.0161874,2.18293167 L21.9070837,2.19451525 C21.5171865,2.25994417 21.2428543,2.57391754 21.2133073,3.00545469 C21.1780735,3.52004772 21.497657,3.90891094 22.0030604,3.94351556 C22.1666273,3.95471487 22.309086,3.92901712 22.4521403,3.87736215 L22.5598818,3.83392488 L22.5675892,3.72135765 L22.5859656,3.47825001 L22.6071981,3.24399315 L22.7597629,3.24059079 L22.76574,3.15329376 L22.1110129,3.10846505 L22.1050358,3.19576208 L22.3701055,3.23468377 L22.3571417,3.4703723 L22.3424549,3.70594287 L22.3356913,3.80472635 L22.2410882,3.82680051 C22.1788019,3.83758094 22.1170515,3.84053356 22.0496644,3.83591962 C21.66372,3.80949427 21.4398692,3.50565985 21.4729008,3.02322888 C21.5064043,2.53390604 21.787485,2.27156811 22.1481592,2.29626322 C22.2186094,2.30108689 22.2822344,2.3157013 22.3416637,2.34165421 L22.4279896,2.38928093 L22.4686244,2.70595934 L22.6041644,2.71523967 L22.6250514,2.34276405 L22.5432067,2.29140522 C22.4584007,2.24527218 22.3637297,2.21458319 22.2503637,2.19723804 L22.1304391,2.18426305 L22.0161874,2.18293167 Z M20.1222207,2.34849598 L20.2028531,2.35682025 C20.3522897,2.38585646 20.4312651,2.48840294 20.4489223,2.64977796 C20.468865,2.83204018 20.3825593,2.98336377 20.1812571,3.03797788 L20.0879186,3.05527119 L19.8841971,3.0775619 L19.8659609,2.9104306 L19.8462859,2.72635319 L19.8283416,2.54987134 L19.8121353,2.3766247 L20.0295908,2.35283124 L20.1222207,2.34849598 Z" id="形状结合" fill="#FFFFFF" opacity="0.400000006" mask="url(#mask-2)"></path>
            </g>
        </g>
    </g>
</svg>