<?xml version="1.0" encoding="UTF-8"?>
<svg width="90px" height="34px" viewBox="0 0 90 34" version="1.1" xmlns="http://www.w3.org/2000/svg" xmlns:xlink="http://www.w3.org/1999/xlink">
    <title>footer_esports_hover</title>
    <defs>
        <rect id="path-1" x="0" y="0" width="90" height="34"></rect>
    </defs>
    <g id="模版编号_首页" stroke="none" stroke-width="1" fill="none" fill-rule="evenodd">
        <g id="标准footer文件备份" transform="translate(-761.000000, -27.000000)">
            <g id="合作品牌" transform="translate(299.000000, 27.000000)">
                <g id="esports" transform="translate(462.000000, 0.000000)">
                    <mask id="mask-2" fill="white">
                        <use xlink:href="#path-1"></use>
                    </mask>
                    <use id="蒙版" fill="#D8D8D8" opacity="0" xlink:href="#path-1"></use>
                    <path d="M15,2 C23.2842712,2 30,8.71572875 30,17 C30,25.2842712 23.2842712,32 15,32 C6.71572875,32 0,25.2842712 0,17 C0,8.71572875 6.71572875,2 15,2 Z M84.1561674,23.075 C84.2808756,23.075 84.4036351,23.0837685 84.5244461,23.1013056 C84.6452571,23.1188427 84.7602224,23.1422255 84.869342,23.1714539 C84.9784616,23.2006824 85.0788127,23.2347823 85.1703952,23.2737536 L85.2997311,23.3322105 L85.2997311,23.3322105 L85.4129914,23.3906674 L85.2551577,23.9576996 L85.1103145,23.883979 C85.0081231,23.8376464 84.8946733,23.7969431 84.7699652,23.7618689 C84.582903,23.7092577 84.3977894,23.6829521 84.2146244,23.6829521 C83.9691053,23.6829521 83.7703517,23.7384862 83.6183637,23.8495543 C83.4663757,23.9606225 83.3903817,24.1213791 83.3903817,24.331824 C83.3903817,24.5110919 83.4663757,24.6679514 83.6183637,24.8024023 C83.7703517,24.9368532 83.9866423,25.0547414 84.2672356,25.1560667 C84.5010633,25.2418035 84.7027397,25.3304632 84.8722648,25.4220458 C85.0417899,25.5136283 85.1811123,25.6159279 85.2902319,25.7289446 C85.3993515,25.8419614 85.4802169,25.9695923 85.5328282,26.1118375 C85.5854394,26.2540827 85.611745,26.4187364 85.611745,26.6057986 C85.611745,26.8123464 85.5747223,26.9984343 85.5006768,27.1640623 C85.4266314,27.3296902 85.3243318,27.4709612 85.193778,27.587875 C85.0632241,27.7047889 84.907339,27.7953971 84.7261225,27.8596997 C84.544906,27.9240024 84.3471268,27.9561537 84.1327847,27.9561537 C83.809323,27.9561537 83.5209355,27.9113367 83.2676221,27.8217027 C83.0776371,27.7544773 82.8942285,27.6697147 82.7173963,27.5674151 L82.5427562,27.4592698 L82.7532011,26.8980832 L82.9022663,26.9976427 C83.0542543,27.0915391 83.2150109,27.1684465 83.384536,27.2283649 C83.6105694,27.308256 83.8405,27.3482016 84.0743277,27.3482016 C84.2068301,27.3482016 84.323744,27.3296902 84.4250693,27.2926675 C84.5263947,27.2556448 84.6111572,27.2049821 84.679357,27.1406795 C84.7475567,27.0763769 84.7991937,27.0023314 84.8342678,26.9185432 C84.869342,26.8347549 84.8868791,26.7460952 84.8868791,26.6525641 C84.8868791,26.5473417 84.8673934,26.4538106 84.8284221,26.3719709 C84.7894509,26.2901312 84.7300196,26.2141372 84.6501285,26.1439888 C84.5702374,26.0738405 84.4698863,26.0085636 84.3490753,25.9481581 C84.2282643,25.8877526 84.0879677,25.8263729 83.9281854,25.7640188 C83.5111927,25.6081336 83.1994224,25.4220458 82.9928745,25.2057551 C82.7863267,24.9894645 82.6830528,24.711794 82.6830528,24.3727439 C82.6830528,24.1856817 82.7171527,24.0132337 82.7853524,23.8554 C82.8535522,23.6975663 82.9509804,23.5601925 83.0776371,23.4432787 C83.2042938,23.3263648 83.3582303,23.2357566 83.5394468,23.1714539 C83.7206633,23.1071513 83.9262369,23.075 84.1561674,23.075 Z M39.6061409,23.075 C39.9257054,23.075 40.2160415,23.1373541 40.4771491,23.2620622 C40.7382568,23.3867703 40.9613674,23.558244 41.146481,23.7764832 C41.3315946,23.9947224 41.4738398,24.2529071 41.5732166,24.5510375 C41.6725934,24.8491678 41.7222818,25.1716552 41.7222818,25.5184997 C41.7222818,25.8653441 41.6735676,26.1878315 41.5761394,26.4859619 C41.4787112,26.7840922 41.3384146,27.042277 41.1552495,27.2605162 C40.9720845,27.4787554 40.7499481,27.6492548 40.4888405,27.7720143 C40.2277329,27.8947739 39.9334997,27.9561537 39.6061409,27.9561537 C39.2904735,27.9561537 39.0030602,27.8937996 38.7439012,27.7690915 C38.4847421,27.6443834 38.2616315,27.4719354 38.0745693,27.2517477 C37.8875071,27.0315599 37.7433134,26.7733751 37.641988,26.4771933 C37.5406627,26.1810116 37.49,25.861447 37.49,25.5184997 C37.49,25.1677581 37.541637,24.8433221 37.6449109,24.5451918 C37.7481848,24.2470615 37.8923785,23.9888767 38.0774921,23.7706375 C38.2626058,23.5523983 38.4847421,23.3818989 38.7439012,23.2591393 C39.0030602,23.1363798 39.2904735,23.075 39.6061409,23.075 Z M43.9569308,23.1919139 L45.7574042,27.0383799 L45.7690956,27.0383799 L45.7690956,23.1919139 L46.4647331,23.1919139 L46.4647331,27.8392398 L45.476811,27.8392398 L43.6938746,24.0570764 L43.6821832,24.0512307 L43.6821832,27.8392398 L42.9865457,27.8392398 L42.9865457,23.1919139 L43.9569308,23.1919139 Z M75.7117982,23.1919139 L75.912825,23.2003576 C76.0431623,23.211616 76.1661384,23.2341328 76.2817532,23.2679079 C76.4551755,23.3185705 76.6052149,23.3935903 76.7318716,23.4929671 C76.8585283,23.5923438 76.9569308,23.7151034 77.0270791,23.8612457 C77.0972274,24.007388 77.1323016,24.1759389 77.1323016,24.3668982 C77.1323016,24.6202115 77.0631275,24.8345536 76.9247795,25.0099244 C76.814101,25.150221 76.6728691,25.2605877 76.5010836,25.3410244 L76.3665158,25.3957401 L76.3665158,25.4249686 L76.5177731,25.4764432 C76.7589079,25.5700825 76.9452394,25.7029638 77.0767675,25.875087 C77.2346012,26.0816348 77.313518,26.3193596 77.313518,26.5882615 C77.313518,26.7870151 77.2784439,26.9643344 77.2082956,27.1202196 C77.1381473,27.2761047 77.040719,27.4066585 76.9160109,27.511881 C76.7913028,27.6171035 76.6412633,27.6979689 76.4658926,27.7544773 C76.3343645,27.7968585 76.1929718,27.8233468 76.0417145,27.8339422 L75.8871689,27.8392398 L73.9463989,27.8392398 L73.9463989,23.1919139 L75.7117982,23.1919139 Z M61.3367076,23.1919139 L61.3367076,23.7764832 L59.9746611,23.7764832 L59.9746611,27.8392398 L59.2790236,27.8392398 L59.2790236,23.7764832 L57.9169771,23.7764832 L57.9169771,23.1919139 L61.3367076,23.1919139 Z M51.7231997,23.1860682 L52.763733,25.5068083 L53.8101121,23.1860682 L54.5466694,23.1860682 L53.1086289,26.0621491 L53.1086289,27.8392398 L52.4129914,27.8392398 L52.4129914,26.0563034 L50.9691053,23.1860682 L51.7231997,23.1860682 Z M70.2019668,23.1919139 L70.2019668,23.7881745 L67.968912,23.7881745 L67.968912,25.1969866 L69.9798304,25.1969866 L69.9798304,25.7523274 L67.968912,25.7523274 L67.968912,27.2429791 L70.2428866,27.2429791 L70.2428866,27.8392398 L67.2615832,27.8392398 L67.2615832,23.1919139 L70.2019668,23.1919139 Z M48.5006285,23.1860682 L48.5006285,27.2429791 L50.6518436,27.2429791 L50.6518436,27.8392398 L47.8049911,27.8392398 L47.8049911,23.1860682 L48.5006285,23.1860682 Z M81.453863,23.1919139 L81.453863,23.7881745 L79.2208083,23.7881745 L79.2208083,25.1969866 L81.2317267,25.1969866 L81.2317267,25.7523274 L79.2208083,25.7523274 L79.2208083,27.2429791 L81.4947828,27.2429791 L81.4947828,27.8392398 L78.5134794,27.8392398 L78.5134794,23.1919139 L81.453863,23.1919139 Z M63.1212382,23.1919139 L63.1212382,25.1736038 L65.2256877,25.1736038 L65.2256877,23.1919139 L65.9213252,23.1919139 L65.9213252,27.8392398 L65.2256877,27.8392398 L65.2256877,25.7698645 L63.1212382,25.7698645 L63.1212382,27.8392398 L62.4256008,27.8392398 L62.4256008,23.1919139 L63.1212382,23.1919139 Z M89.9742263,23.1919139 L89.9742263,23.7764832 L88.6121798,23.7764832 L88.6121798,27.8392398 L87.9165423,27.8392398 L87.9165423,23.7764832 L86.5544959,23.7764832 L86.5544959,23.1919139 L89.9742263,23.1919139 Z M15.9561368,8.81595713 L14.082359,8.81595713 L14.0816165,10.3789571 L12.2526165,10.3795602 L12.2526165,10.9043775 L12.5052191,10.9168076 C12.7573395,10.9356987 13.0077671,10.9739417 13.2542885,11.0312564 C13.6957895,11.0946888 14.0320259,11.4486525 14.082499,11.8823902 L14.082499,11.8823902 L14.082359,14.427417 L14.0886165,14.4269571 L14.0890151,20.5471751 C14.1943613,20.482083 15.6488919,19.5448715 15.9657109,17.1560478 L15.9657109,17.1560478 L15.9646923,11.8323846 L15.9783219,11.7601105 C16.0676248,11.400973 16.3565233,11.1161552 16.7293117,11.0407598 L16.7293117,11.0407598 L17.8819154,11.0429211 C17.8884786,11.0431104 17.9014209,11.0435364 17.9200063,11.0443885 L17.9200063,11.0443885 L18.0392469,11.0517373 C18.4201532,11.0804935 19.3755162,11.199113 19.857264,11.6771855 C20.3178029,12.1327961 20.6286666,12.9517418 20.5941262,14.2493671 C20.5941262,15.2297951 20.3178029,16.3717054 19.1376721,16.9253588 L19.1376721,16.9253588 L18.9131594,17.9230885 L19.0934601,17.9387534 C19.7497108,18.0202929 20.3483551,18.3646972 20.749558,18.8977492 C21.1712492,19.575241 21.3724125,20.3672531 21.3252316,21.1642681 C21.3252316,22.2773422 20.8877197,24.6246021 18.5504851,24.6246021 L18.5504851,24.6246021 L16.7428702,24.6246021 L16.6342997,24.6129226 C16.455931,24.5812788 16.2923463,24.4896407 16.1716452,24.3514453 C16.0268039,24.1856108 15.9564882,23.9673583 15.9772244,23.7479842 L15.9772244,23.7479842 L15.9772244,21.8448004 L15.6822606,21.9960233 C15.1844099,22.2345123 14.6562821,22.4049236 14.1120421,22.5022639 L14.1120421,22.5022639 L14.1120421,23.8056564 L14.1106165,23.810223 L14.1106165,25.379223 L14.1196165,25.3789571 L14.1113539,25.3923751 L15.0192479,27.3846154 L15.9561368,25.3923751 L15.9556165,25.3789571 L17.9172442,25.3801084 C17.9509587,25.3827631 18.0400991,25.3890151 18.1777808,25.3914194 L18.1777808,25.3914194 L18.3653571,25.3919406 C19.1664977,25.382893 20.8702638,25.2240213 22.0448235,24.1286209 C22.8821839,23.3421487 23.3414485,22.2328636 23.3055486,21.0835269 C23.3693384,19.2073972 22.002478,17.5886203 20.1451008,17.3405989 C21.6230786,16.9255879 22.6339462,15.5618692 22.6032269,14.0244454 C22.6245476,12.9379552 22.1523087,11.9005313 21.3194748,11.2042731 C20.5185893,10.6053321 19.5304155,10.3128397 18.5332149,10.3795602 L18.5332149,10.3795602 L15.9556165,10.3789571 L15.9561368,8.81595713 Z M39.6061409,23.7004892 C39.3840045,23.7004892 39.1862253,23.748229 39.012803,23.8437086 C38.8393808,23.9391883 38.6922642,24.0687678 38.5714532,24.2324472 C38.4506422,24.3961266 38.3580854,24.5890345 38.2937828,24.8111708 C38.2294802,25.0333072 38.1973289,25.2690835 38.1973289,25.5184997 C38.1973289,25.7718131 38.2304545,26.0085636 38.2967056,26.2287514 C38.3629568,26.4489392 38.4564879,26.6408727 38.5772989,26.8045522 C38.6981099,26.9682316 38.8452265,27.0968368 39.0186487,27.1903679 C39.192071,27.283899 39.3879017,27.3306645 39.6061409,27.3306645 C39.8282772,27.3306645 40.0280051,27.283899 40.2053244,27.1903679 C40.3826438,27.0968368 40.5317089,26.9682316 40.6525199,26.8045522 C40.7733309,26.6408727 40.8658877,26.4489392 40.9301903,26.2287514 C40.994493,26.0085636 41.0266443,25.7718131 41.0266443,25.5184997 C41.0266443,25.2690835 40.9935187,25.0333072 40.9272675,24.8111708 C40.8610163,24.5890345 40.7665109,24.3961266 40.6437514,24.2324472 C40.5209918,24.0687678 40.3719267,23.9391883 40.1965559,23.8437086 C40.0211851,23.748229 39.8243801,23.7004892 39.6061409,23.7004892 Z M75.676724,25.6880248 L74.6420363,25.6880248 L74.6420363,27.2429791 L75.7702551,27.2429791 C76.0235684,27.2429791 76.2281677,27.1806251 76.3840529,27.055917 C76.539938,26.9312088 76.6178806,26.7499924 76.6178806,26.5122675 C76.6178806,26.3953536 76.5944978,26.286234 76.5477323,26.1849087 C76.5009667,26.0835833 76.4347155,25.9968722 76.3489787,25.9247754 C76.2632419,25.8526785 76.1628908,25.7951958 76.0479255,25.7523274 C75.9329602,25.709459 75.8092264,25.6880248 75.676724,25.6880248 Z M75.6124214,23.7764832 L74.6420363,23.7764832 L74.6420363,25.1736038 L75.6358041,25.1736038 C75.7449237,25.1736038 75.8481977,25.157041 75.9456259,25.1239154 C76.0430541,25.0907898 76.1278166,25.04305 76.1999135,24.9806959 C76.2720104,24.9183419 76.3294931,24.8433221 76.3723615,24.7556367 C76.4152299,24.6679514 76.4366641,24.5695489 76.4366641,24.4604292 C76.4366641,24.2304987 76.3587215,24.059025 76.2028364,23.9460083 C76.0469512,23.8329915 75.8501462,23.7764832 75.6124214,23.7764832 Z M13.0897526,6.61600601 L12.8052631,6.61933049 C11.1486039,6.56200487 9.55798402,7.27259891 8.49346827,8.54558313 C7.34212118,9.95855287 6.81250152,12.1904684 6.81250152,14.376246 C6.75882949,16.1367226 7.15515174,17.8817323 7.96384861,19.4456355 C8.97349443,21.1479335 10.81757,22.1762437 12.7937497,22.1389288 C13.2344201,22.1412441 13.6741868,22.0987331 14.1062853,22.0120499 C14.7732133,21.8847595 15.4076182,21.6238657 15.9714676,21.2450092 C16.7082822,20.735737 17.3219822,20.0677135 17.7675691,19.2899204 C18.0176191,18.8693144 18.2111807,18.4174943 18.3432426,17.9461574 C18.4180802,17.6981668 18.4814043,17.4444089 18.5389716,17.1791166 C18.717505,16.2556033 18.8061903,15.3169168 18.8037815,14.376246 C18.8007764,13.4997788 18.6945008,12.6267313 18.487161,11.7752283 L18.487161,11.7752283 L18.4059602,11.7745106 C18.17266,11.7714005 17.5664861,11.7581829 16.5874383,11.7348577 C16.7225596,12.5855446 16.7899339,13.4456501 16.7889241,14.3070394 C16.7948736,15.2726202 16.7217093,16.2370614 16.5701681,17.1906511 C16.529871,17.4328745 16.4838171,17.6693306 16.4262497,17.8942524 C16.3485911,18.2231305 16.2446342,18.5452126 16.115386,18.8573787 C16.0750889,18.9496542 16.029035,19.0303954 15.9829811,19.1169037 C15.6289423,20.0143736 14.9678138,20.7564319 14.1177988,21.2104058 C13.7051526,21.3958717 13.2575243,21.4902809 12.8052631,21.4872326 C11.5272679,21.4872326 10.393191,20.8413035 9.66208557,19.1803432 C9.0889811,17.6324893 8.80410728,15.9924579 8.82160219,14.3416427 C8.82160219,12.3288817 9.09216876,10.4314652 9.84054437,9.15114159 C10.4180706,8.02534665 11.5442892,7.28704155 12.8052631,7.20758729 C13.1709799,7.20814897 13.5280523,7.26957874 13.8640902,7.38477292 L13.8640902,7.38477292 L15.7473325,7.38569037 C14.8725095,6.8515039 13.8509167,6.57880901 12.8052631,6.61933049 Z M68.45,6 L68.45,7.215 L73.535,7.215 L73.535,16.125 L68.45,16.125 L68.45,17.925 L74.315,17.925 L74.315,19.665 L66.44,19.665 L66.44,16.125 L61.43,16.125 L61.43,7.215 L66.44,7.215 L66.44,6 L68.45,6 Z M88.31,11.97 L88.31,16.35 L86.015,16.35 L86.015,17.955 L89.585,17.955 L89.585,19.65 L83.93,19.65 L83.93,16.35 L81.725,16.35 L81.5983333,16.6941667 C81.5094444,16.9197222 81.4116667,17.1375 81.305,17.3475 C81.145,17.6625 80.975,17.96 80.795,18.24 C80.615,18.52 80.435,18.7775 80.255,19.0125 C80.135,19.1691667 80.0194444,19.3158333 79.9083333,19.4525 L79.745,19.65 L77.03,19.65 L77.3627,19.3275 C77.7939,18.8995 78.1755,18.4795 78.5075,18.0675 C78.8533333,17.6383333 79.1453472,17.1692361 79.3835417,16.6602083 L79.52,16.35 L77.345,16.35 L77.345,11.97 L88.31,11.97 Z M42.505,6.72 C43.315,6.72 44.0575,6.875 44.7325,7.185 C45.4075,7.495 45.9875,7.93 46.4725,8.49 C46.9575,9.05 47.3325,9.715 47.5975,10.485 C47.8625,11.255 47.995,12.095 47.995,13.005 C47.995,13.915 47.8625,14.7525 47.5975,15.5175 C47.3325,16.2825 46.96,16.94 46.48,17.49 C46,18.04 45.4225,18.47 44.7475,18.78 C44.0725,19.09 43.325,19.245 42.505,19.245 C41.705,19.245 40.9675,19.09 40.2925,18.78 C39.6175,18.47 39.0375,18.0375 38.5525,17.4825 C38.0675,16.9275 37.6875,16.2675 37.4125,15.5025 C37.1375,14.7375 37,13.905 37,13.005 C37,12.085 37.1375,11.24 37.4125,10.47 C37.6875,9.7 38.07,9.0375 38.56,8.4825 C39.05,7.9275 39.6325,7.495 40.3075,7.185 C40.9825,6.875 41.715,6.72 42.505,6.72 Z M54.13,7.02 L54.4603,7.0281 C54.8931,7.0497 55.2955,7.1145 55.6675,7.2225 C56.1325,7.3575 56.5325,7.555 56.8675,7.815 C57.2025,8.075 57.4625,8.3925 57.6475,8.7675 C57.8325,9.1425 57.925,9.57 57.925,10.05 C57.925,10.68 57.75,11.2225 57.4,11.6775 C57.09375,12.075625 56.695625,12.3799609 56.205625,12.5905078 L55.99,12.675 L55.99,12.72 L56.2462963,12.802037 C56.9109877,13.0351235 57.4255556,13.3827778 57.79,13.845 C58.2,14.365 58.405,14.98 58.405,15.69 C58.405,16.21 58.3125,16.6725 58.1275,17.0775 C57.9425,17.4825 57.6825,17.8225 57.3475,18.0975 C57.0125,18.3725 56.61,18.5825 56.14,18.7275 C55.764,18.8435 55.3592,18.9131 54.9256,18.9363 L54.595,18.945 L49.48,18.945 L49.48,7.02 L54.13,7.02 Z M42.505,8.67 C42.015,8.67 41.5675,8.7775 41.1625,8.9925 C40.7575,9.2075 40.41,9.505 40.12,9.885 C39.83,10.265 39.605,10.7225 39.445,11.2575 C39.285,11.7925 39.205,12.375 39.205,13.005 C39.205,13.635 39.285,14.2125 39.445,14.7375 C39.605,15.2625 39.83,15.715 40.12,16.095 C40.41,16.475 40.7575,16.7725 41.1625,16.9875 C41.5675,17.2025 42.015,17.31 42.505,17.31 C43.005,17.31 43.4575,17.205 43.8625,16.995 C44.2675,16.785 44.615,16.49 44.905,16.11 C45.195,15.73 45.4175,15.275 45.5725,14.745 C45.7275,14.215 45.805,13.635 45.805,13.005 C45.805,12.375 45.725,11.7925 45.565,11.2575 C45.405,10.7225 45.18,10.265 44.89,9.885 C44.6,9.505 44.2525,9.2075 43.8475,8.9925 C43.4425,8.7775 42.995,8.67 42.505,8.67 Z M54.04,13.56 L51.67,13.56 L51.67,17.13 L54.265,17.13 C54.835,17.13 55.3025,16.98 55.6675,16.68 C56.0325,16.38 56.215,15.96 56.215,15.42 C56.215,15.16 56.16,14.9175 56.05,14.6925 C55.94,14.4675 55.7875,14.27 55.5925,14.1 C55.3975,13.93 55.1675,13.7975 54.9025,13.7025 C54.6375,13.6075 54.35,13.56 54.04,13.56 Z M86.18,13.425 L79.46,13.425 L79.46,14.895 L86.18,14.895 L86.18,13.425 Z M71.525,12.51 L68.45,12.51 L68.45,14.385 L71.525,14.385 L71.525,12.51 Z M66.44,12.51 L63.47,12.51 L63.47,14.385 L66.44,14.385 L66.44,12.51 Z M53.875,8.82 L51.67,8.82 L51.67,12.015 L53.89,12.015 C54.41,12.015 54.8475,11.87 55.2025,11.58 C55.5575,11.29 55.735,10.89 55.735,10.38 C55.735,9.87 55.5575,9.4825 55.2025,9.2175 C54.8475,8.9525 54.405,8.82 53.875,8.82 Z M83.675,6 L83.7458333,6.115 C83.7936111,6.195 83.8425,6.28166667 83.8925,6.375 L84.006875,6.585 L84.006875,6.585 L84.125,6.795 L88.94,6.795 L88.94,8.22 L87.26,8.22 L87.138125,8.59875 L87.0125,8.985 C86.9558333,9.15833333 86.8936111,9.32722222 86.8258333,9.49166667 L86.72,9.735 L89.375,9.735 L89.375,11.205 L76.265,11.205 L76.265,9.735 L79.115,9.735 L78.963125,9.343125 L78.8075,8.9475 C78.7375,8.77083333 78.6663889,8.60416667 78.5941667,8.4475 L78.485,8.22 L76.715,8.22 L76.715,6.795 L81.65,6.795 L81.531875,6.586875 L81.4175,6.3825 L81.303125,6.185625 L81.303125,6.185625 L81.185,6 L83.675,6 Z M71.525,8.94 L68.45,8.94 L68.45,10.83 L71.525,10.83 L71.525,8.94 Z M66.44,8.94 L63.47,8.94 L63.47,10.83 L66.44,10.83 L66.44,8.94 Z M85.1,8.22 L80.66,8.22 L80.7616667,8.44 C80.8305556,8.59333333 80.9016667,8.76 80.975,8.94 C81.0483333,9.12 81.1172222,9.29777778 81.1816667,9.47333333 L81.275,9.735 L84.545,9.735 C84.655,9.485 84.755,9.2325 84.845,8.9775 C84.935,8.7225 85.02,8.47 85.1,8.22 Z M15.6254701,7.49561362 L14.4130256,7.49561362 L14.5854703,8.04561362 L13.5934703,8.04575675 L14.082359,8.7059285 L15.9561368,8.7059285 L16.4450254,8.04575675 L15.4524703,8.04561362 L15.6254701,7.49561362 Z" id="形状结合" fill="#FFFFFF" mask="url(#mask-2)"></path>
                </g>
            </g>
        </g>
    </g>
</svg>