<?xml version="1.0" encoding="UTF-8"?>
<svg width="90px" height="34px" viewBox="0 0 90 34" version="1.1" xmlns="http://www.w3.org/2000/svg" xmlns:xlink="http://www.w3.org/1999/xlink">
    <title>footer_lottery</title>
    <defs>
        <rect id="path-1" x="0" y="0" width="90" height="34"></rect>
    </defs>
    <g id="模版编号_首页" stroke="none" stroke-width="1" fill="none" fill-rule="evenodd">
        <g id="标准footer文件" transform="translate(-646.000000, -27.000000)">
            <g id="合作品牌" transform="translate(299.000000, 27.000000)">
                <g id="lottery" transform="translate(347.000000, 0.000000)">
                    <mask id="mask-2" fill="white">
                        <use xlink:href="#path-1"></use>
                    </mask>
                    <use id="蒙版" fill="#D8D8D8" opacity="0" xlink:href="#path-1"></use>
                    <path d="M16,2 C24.2842712,2 31,8.71572875 31,17 C31,25.2842712 24.2842712,32 16,32 C7.71572875,32 1,25.2842712 1,17 C1,8.71572875 7.71572875,2 16,2 Z M83.8881608,23.0956264 C84.0134621,23.0956264 84.1368057,23.1044367 84.2581913,23.1220572 C84.379577,23.1396777 84.4950892,23.1631717 84.6047279,23.1925392 C84.7143666,23.2219067 84.8151951,23.2561688 84.9072132,23.2953255 L85.0371645,23.3540605 L85.0371645,23.3540605 L85.1509635,23.4127955 L84.992379,23.9825251 L84.8468467,23.9084537 C84.7441692,23.8619008 84.6301798,23.8210038 84.5048784,23.7857628 C84.3169264,23.7329013 84.1309322,23.7064706 83.9468958,23.7064706 C83.7002087,23.7064706 83.5005097,23.7622688 83.3477987,23.8738653 C83.1950876,23.9854619 83.1187321,24.1469832 83.1187321,24.3584292 C83.1187321,24.5385499 83.1950876,24.6961555 83.3477987,24.8312461 C83.5005097,24.9663366 83.7178292,25.0847855 83.9997573,25.1865929 C84.2346973,25.2727376 84.4373331,25.361819 84.6076647,25.4538372 C84.7779962,25.5458554 84.9179813,25.6486417 85.02762,25.762196 C85.1372587,25.8757504 85.2185088,26.0039885 85.2713703,26.1469103 C85.3242318,26.2898322 85.3506626,26.4552692 85.3506626,26.6432212 C85.3506626,26.8507516 85.3134637,27.0377247 85.2390661,27.2041406 C85.1646684,27.3705564 85.0618821,27.5124994 84.9307072,27.6299694 C84.7995324,27.7474394 84.6429057,27.8384787 84.4608271,27.9030872 C84.2787486,27.9676957 84.0800285,28 83.8646668,28 C83.5396664,28 83.249907,27.9549698 82.9953886,27.8649095 C82.8044998,27.7973642 82.6202187,27.7121984 82.4425453,27.6094122 L82.2670744,27.5007524 L82.4785205,26.9368963 L82.6282947,27.0369293 C82.7810058,27.1312725 82.9425271,27.2085457 83.1128586,27.2687491 C83.3399673,27.3490203 83.5709917,27.3891559 83.8059318,27.3891559 C83.9390644,27.3891559 84.0565345,27.3705564 84.1583418,27.3333576 C84.2601492,27.2961588 84.345315,27.2452551 84.4138391,27.1806466 C84.4823633,27.1160381 84.5342459,27.0416404 84.5694869,26.9574535 C84.6047279,26.8732667 84.6223484,26.7841852 84.6223484,26.6902092 C84.6223484,26.5844862 84.6027701,26.4905102 84.5636134,26.4082812 C84.5244567,26.3260521 84.4647428,26.2496966 84.3844716,26.1792146 C84.3042004,26.1087326 84.203372,26.0431452 84.0819863,25.9824523 C83.9606006,25.9217595 83.8196366,25.8600877 83.6590942,25.797437 C83.2401178,25.6408103 82.9268644,25.4538372 82.719334,25.2365176 C82.5118036,25.0191981 82.4080384,24.7402068 82.4080384,24.3995437 C82.4080384,24.2115917 82.4423005,24.0383234 82.5108247,23.8797388 C82.5793489,23.7211543 82.6772406,23.583127 82.8044998,23.465657 C82.931759,23.348187 83.0864278,23.2571477 83.2685064,23.1925392 C83.4505849,23.1279307 83.6571364,23.0956264 83.8881608,23.0956264 Z M39.1262075,23.0956264 C39.4472922,23.0956264 39.7390094,23.1582771 40.0013592,23.2835785 C40.2637089,23.4088798 40.4878808,23.5811692 40.6738751,23.8004466 C40.8598693,24.019724 41.0027911,24.2791369 41.1026406,24.5786855 C41.2024902,24.8782341 41.2524149,25.2022556 41.2524149,25.55075 C41.2524149,25.8992444 41.2034691,26.2232659 41.1055774,26.5228144 C41.0076857,26.822363 40.8667217,27.081776 40.6826853,27.3010533 C40.4986489,27.5203307 40.2754559,27.6916412 40.0131062,27.8149847 C39.7507564,27.9383282 39.4551235,28 39.1262075,28 C38.8090384,28 38.5202579,27.9373493 38.259866,27.812048 C37.9994741,27.6867466 37.7753022,27.5134783 37.5873501,27.2922431 C37.3993981,27.0710079 37.2545184,26.8115949 37.152711,26.5140042 C37.0509037,26.2164134 37,25.8953287 37,25.55075 C37,25.1983399 37.0518826,24.8723606 37.1556478,24.572812 C37.259413,24.2732634 37.4042927,24.0138505 37.5902869,23.7945731 C37.7762811,23.5752957 37.9994741,23.4039852 38.259866,23.2806417 C38.5202579,23.1572982 38.8090384,23.0956264 39.1262075,23.0956264 Z M43.4976943,23.2130965 L45.3067327,27.0778603 L45.3184797,27.0778603 L45.3184797,23.2130965 L46.0174263,23.2130965 L46.0174263,27.88253 L45.0248046,27.88253 L43.2333867,24.0823746 L43.2216397,24.0765011 L43.2216397,27.88253 L42.5226931,27.88253 L42.5226931,23.2130965 L43.4976943,23.2130965 Z M48.0630067,23.207223 L48.0630067,27.2834328 L50.2244551,27.2834328 L50.2244551,27.88253 L47.36406,27.88253 L47.36406,23.207223 L48.0630067,23.207223 Z M51.3009077,23.207223 L52.346391,25.539003 L53.3977477,23.207223 L54.1378088,23.207223 L52.6929275,26.0969856 L52.6929275,27.88253 L51.9939809,27.88253 L51.9939809,26.0911121 L50.5432261,23.207223 L51.3009077,23.207223 Z M60.9601476,23.2130965 L60.9601476,23.8004466 L59.5916218,23.8004466 L59.5916218,27.88253 L58.8926751,27.88253 L58.8926751,23.8004466 L57.5241493,23.8004466 L57.5241493,23.2130965 L60.9601476,23.2130965 Z M62.7531673,23.2130965 L62.7531673,25.2042134 L64.8676278,25.2042134 L64.8676278,23.2130965 L65.5665744,23.2130965 L65.5665744,27.88253 L64.8676278,27.88253 L64.8676278,25.8033105 L62.7531673,25.8033105 L62.7531673,27.88253 L62.0542207,27.88253 L62.0542207,23.2130965 L62.7531673,23.2130965 Z M69.8675792,23.2130965 L69.8675792,23.8121936 L67.6239018,23.8121936 L67.6239018,25.2277074 L69.6443862,25.2277074 L69.6443862,25.78569 L67.6239018,25.78569 L67.6239018,27.2834328 L69.9086938,27.2834328 L69.9086938,27.88253 L66.9132081,27.88253 L66.9132081,23.2130965 L69.8675792,23.2130965 Z M75.4036212,23.2130965 L75.6056044,23.2215804 C75.7365617,23.2328923 75.8601228,23.2555162 75.9762876,23.289452 C76.1505348,23.3403556 76.301288,23.4157322 76.4285472,23.5155818 C76.5558064,23.6154313 76.654677,23.7387748 76.725159,23.8856123 C76.795641,24.0324499 76.830882,24.2018025 76.830882,24.3936702 C76.830882,24.6481886 76.7613789,24.8635503 76.6223727,25.0397554 C76.5111677,25.1807194 76.369264,25.2916111 76.1966613,25.3724305 L76.0614533,25.4274064 L76.0614533,25.4567739 L76.2134302,25.5084934 C76.4557121,25.6025782 76.64293,25.7360916 76.7750837,25.9090335 C76.9336683,26.1165639 77.0129605,26.3554196 77.0129605,26.6256007 C77.0129605,26.8252997 76.9777195,27.0034626 76.9072375,27.1600893 C76.8367555,27.316716 76.7388638,27.4478909 76.6135624,27.5536139 C76.4882611,27.6593369 76.3375079,27.740587 76.1613028,27.7973642 C76.0291491,27.8399471 75.8870838,27.8665614 75.7351069,27.8772071 L75.5798262,27.88253 L73.6298238,27.88253 L73.6298238,23.2130965 L75.4036212,23.2130965 Z M81.1730013,23.2130965 L81.1730013,23.8121936 L78.9293238,23.8121936 L78.9293238,25.2277074 L80.9498083,25.2277074 L80.9498083,25.78569 L78.9293238,25.78569 L78.9293238,27.2834328 L81.2141158,27.2834328 L81.2141158,27.88253 L78.2186302,27.88253 L78.2186302,23.2130965 L81.1730013,23.2130965 Z M89.7338964,23.2130965 L89.7338964,23.8004466 L88.3653706,23.8004466 L88.3653706,27.88253 L87.666424,27.88253 L87.666424,23.8004466 L86.2978982,23.8004466 L86.2978982,23.2130965 L89.7338964,23.2130965 Z M15.9293469,23.8605452 C15.4536947,24.0819906 15.0116584,24.2300061 14.7862932,24.2812544 L14.7862932,24.2812544 L14.7862932,25.3642143 L14.7794146,25.4918908 C14.7157702,26.0789805 14.2182962,26.5360157 13.6140652,26.5360157 C13.6002472,26.5360157 13.5869227,26.5355221 13.5734337,26.5360157 L13.5734337,26.5360157 L12.7244484,26.5360157 L12.7244484,27.3846154 L18.8711216,27.3846154 L18.8053425,27.3671273 C18.4386049,27.2501986 17.5222214,26.6937936 16.8655346,25.8260665 C16.3561674,25.1530033 15.9884025,24.1035428 15.9293469,23.8605452 Z M39.1262075,23.7240911 C38.9030144,23.7240911 38.7042943,23.772058 38.5300471,23.8679918 C38.3557999,23.9639257 38.2079834,24.0941216 38.0865977,24.2585797 C37.965212,24.4230377 37.8722149,24.6168633 37.8076064,24.8400563 C37.7429979,25.0632494 37.7106937,25.3001472 37.7106937,25.55075 C37.7106937,25.8052684 37.7439768,26.0431452 37.8105432,26.2643804 C37.8771095,26.4856156 37.9710855,26.6784622 38.0924712,26.8429202 C38.2138569,27.0073783 38.3616734,27.1365953 38.5359206,27.2305713 C38.7101678,27.3245474 38.9069301,27.3715354 39.1262075,27.3715354 C39.3494005,27.3715354 39.5500785,27.3245474 39.7282413,27.2305713 C39.9064042,27.1365953 40.0561785,27.0073783 40.1775642,26.8429202 C40.2989499,26.6784622 40.391947,26.4856156 40.4565555,26.2643804 C40.521164,26.0431452 40.5534683,25.8052684 40.5534683,25.55075 C40.5534683,25.3001472 40.5201851,25.0632494 40.4536188,24.8400563 C40.3870524,24.6168633 40.2920975,24.4230377 40.1687539,24.2585797 C40.0454104,24.0941216 39.8956361,23.9639257 39.7194311,23.8679918 C39.5432261,23.772058 39.3454848,23.7240911 39.1262075,23.7240911 Z M20.8499227,18.1318762 C20.6798877,18.1318762 20.5120766,18.141391 20.346817,18.1593499 C19.9173937,19.2552076 18.6452084,22.0191397 16.2874918,23.4262741 C16.6137184,25.6573438 18.5319781,27.3703672 20.8499227,27.3703672 C23.3968448,27.3703672 25.4615385,25.3022576 25.4615385,22.7511217 C25.4615385,20.1999858 23.3968448,18.1318762 20.8499227,18.1318762 Z M75.3683802,25.7210815 L74.3287704,25.7210815 L74.3287704,27.2834328 L75.4623562,27.2834328 C75.7168746,27.2834328 75.9224471,27.2207822 76.0790738,27.0954808 C76.2357005,26.9701794 76.3140139,26.7881009 76.3140139,26.5492452 C76.3140139,26.4317752 76.2905199,26.3221365 76.2435319,26.2203291 C76.1965439,26.1185218 76.1299775,26.0313982 76.0438328,25.9589583 C75.9576881,25.8865185 75.8568597,25.8287624 75.7413475,25.78569 C75.6258353,25.7426177 75.5015129,25.7210815 75.3683802,25.7210815 Z M21.6240303,19.8626454 C23.2968158,19.8626454 24.6528765,21.218706 24.6528765,22.8914916 C24.6528765,24.5642771 23.2968158,25.9203377 21.6240303,25.9203377 C19.9512448,25.9203377 18.5951842,24.5642771 18.5951842,22.8914916 C18.5951842,21.218706 19.9512448,19.8626454 21.6240303,19.8626454 Z M75.3037717,23.8004466 L74.3287704,23.8004466 L74.3287704,25.2042134 L75.3272657,25.2042134 C75.4369044,25.2042134 75.5406695,25.1875718 75.6385612,25.1542886 C75.7364529,25.1210055 75.8216187,25.0730385 75.8940585,25.0103878 C75.9664984,24.9477372 76.0242545,24.8723606 76.0673268,24.784258 C76.1103992,24.6961555 76.1319353,24.5972849 76.1319353,24.4876462 C76.1319353,24.2566218 76.053622,24.0843325 75.8969953,23.9707781 C75.7403686,23.8572238 75.5426274,23.8004466 75.3037717,23.8004466 Z M21.9046856,21.0166922 C20.8089445,21.0019809 20.2835892,21.7963928 20.3286197,23.3999281 C20.3136095,24.5032781 20.7789242,25.0549531 21.7245638,25.0549531 C22.1898785,25.0402418 22.5726373,24.9004841 22.8728404,24.6356801 C23.0829825,24.4002988 23.1955586,24.0840051 23.2105688,23.6867991 C23.1505282,22.9365212 22.737749,22.5319595 21.9722313,22.4731142 C21.6420079,22.4731142 21.3943404,22.5687378 21.2292288,22.7599852 C21.2292288,21.9949958 21.4168557,21.6051455 21.7921094,21.5904342 C21.9272008,21.5904342 22.0397769,21.6198568 22.1298379,21.6787022 C22.1748683,21.7449032 22.2072339,21.831792 22.2269348,21.9393686 L22.2269348,21.9393686 L22.242414,22.0538412 L23.0979926,22.0538412 L23.0898871,21.9284025 C23.0282455,21.3617874 22.6331783,21.0578839 21.9046856,21.0166922 Z M21.7695942,23.0468562 C22.1148277,23.0615675 22.2949495,23.3043045 22.3099597,23.7750671 C22.2799394,24.2605411 22.0998175,24.5106338 21.7695942,24.5253451 C21.4243607,24.5106338 21.2442389,24.2605411 21.2292288,23.7750671 C21.2592491,23.3190158 21.4393709,23.0762788 21.7695942,23.0468562 Z M13.2500675,6.61538462 C9.56575773,6.61538462 6.53846154,10.4506999 6.53846154,15.1817501 C6.53846154,19.9126358 9.56575773,23.7480334 13.2500675,23.7480334 C13.3548541,23.7480334 13.4589827,23.7439203 13.5627823,23.7375863 C13.9813529,23.7128258 14.3912873,23.6416705 14.7862521,23.5200071 C14.9581548,23.4671136 15.8733035,23.1159185 16.4989867,22.6491303 C17.3706386,21.9988382 17.7845457,21.5392433 18.4655611,20.5194833 C19.1465764,19.4997233 19.6133444,17.9067949 19.6126042,17.9064659 C19.8387096,17.0504627 19.961509,16.1343271 19.961509,15.1817501 C19.961509,14.1450206 19.8157618,13.1515601 19.5500941,12.2320518 L19.5500941,12.2320518 L17.6432907,12.2320518 L17.730445,12.6224524 C17.8925319,13.4129018 17.980516,14.2599973 17.980516,15.1413602 C17.980516,16.2307365 17.8454613,17.2675483 17.6033994,18.2101718 C17.6033994,18.2101718 16.7461891,20.5677588 15.6600769,21.8811305 C15.4281317,22.1616389 14.8193989,22.5549265 14.4679443,22.7168153 C14.1819608,22.8484321 13.8805966,22.9263329 13.5734748,22.9615404 L13.5734748,22.9615404 L13.5630393,22.9624452 L13.5630393,22.9624452 L13.5526655,22.9633501 C13.5460855,22.9640904 13.5397523,22.9652421 13.53309,22.9650776 L13.53309,22.9650776 L13.3921339,22.9761313 L13.3921339,22.9761313 L13.2500675,22.9802135 C10.6374762,22.9802135 8.51978355,19.4705677 8.51978355,15.1413602 C8.51978355,10.8119059 10.6374762,7.30234236 13.2500675,7.30234236 C14.654652,7.30234236 15.9158746,8.3176019 16.7823791,9.92883903 L16.7823791,9.92883903 L18.543929,9.92883903 L18.3987301,9.69946732 C17.1637657,7.8151442 15.3099573,6.61538462 13.2500675,6.61538462 Z M20.2445068,10.696519 L12.7244649,10.696519 L12.7244649,11.4237844 L13.5734501,11.4237844 L13.5734501,11.4248538 L13.5936322,11.424134 L13.5936322,11.424134 L13.6139994,11.4237844 C14.2613897,11.4237844 14.7862274,11.9484421 14.7862274,12.5955858 L14.7862274,12.5955858 L14.7862274,21.9389021 L14.8527471,21.8882033 C15.2808438,21.5543217 16.2148679,20.6823637 16.8077697,19.0741789 L16.8077697,19.0741789 L16.8077697,11.4237844 L20.0828854,11.4237844 L20.0828854,11.4273216 L20.2085254,11.4423456 C21.2048322,11.6138871 21.9818751,13.0050689 21.9818751,14.6967667 C21.9818751,16.1570857 21.4885794,16.9928841 20.860088,17.630601 C21.5626613,17.6971535 21.9058231,17.7942632 22.465299,17.977236 C23.3433458,17.2828847 24.1961527,16.1814018 24.2067579,14.6963554 C24.2217202,12.5673243 22.5428879,10.8272676 20.4426043,10.7038879 L20.4426043,10.7038879 L20.2445068,10.696519 Z M63.0009223,13.5501189 L62.9668678,14.043493 C62.9413962,14.3757315 62.9103873,14.7146147 62.8738411,15.0601427 C62.8190217,15.5784347 62.7542352,16.0942349 62.6794816,16.6075433 C62.6047279,17.1208517 62.5224989,17.6217012 62.4327945,18.1100917 C62.3729916,18.4356854 62.3087588,18.7502045 62.2400962,19.053649 L62.1337799,19.5005097 L60.4144459,19.5005097 L60.580399,18.8956031 C60.7917027,18.087865 60.9631377,17.2753426 61.0947041,16.458036 C61.2262706,15.6407294 61.3243474,14.8569124 61.3889345,14.1065851 L61.4310956,13.5501189 L63.0009223,13.5501189 Z M65.5873987,10.8141352 L65.5873987,11.546721 L68.786855,11.546721 L68.786855,13.1165477 L65.5873987,13.1165477 L65.5873987,19.5005097 L63.7783603,19.5005097 L63.7783603,13.1165477 L60.3845444,13.1165477 L60.3845444,11.546721 L63.7783603,11.546721 L63.7783603,10.8141352 L65.5873987,10.8141352 Z M87.6205039,16.5701665 L87.716853,16.7952581 C87.7855156,16.9491952 87.8630379,17.1108846 87.9494199,17.2803262 C88.0789929,17.5344886 88.2160413,17.7911428 88.360565,18.0502888 C88.5050887,18.3094348 88.6545961,18.5635972 88.8090869,18.8127761 C88.9120809,18.9788953 89.0117524,19.1361548 89.1081015,19.2845547 L89.2501335,19.5005097 L86.947721,19.5005097 L86.8355905,19.3119644 C86.7591757,19.1801764 86.6794384,19.0362064 86.5963788,18.8800544 C86.4717894,18.6458263 86.3447082,18.3991392 86.2151352,18.1399932 C86.0855622,17.8808472 85.958481,17.6167176 85.8338916,17.3476045 C85.7508319,17.1681957 85.6710947,16.9932168 85.5946799,16.8226677 L85.4825494,16.5701665 L87.6205039,16.5701665 Z M80.0404835,16.5701665 L79.8713533,16.9901886 C79.6975511,17.4041369 79.5097325,17.7998641 79.3078977,18.17737 C79.0926072,18.580043 78.8773166,18.9428474 78.6620261,19.2657832 L78.5005582,19.5005097 L76.183195,19.5005097 L76.2967271,19.352404 C76.4116608,19.1982246 76.5307995,19.025824 76.654143,18.8352022 C76.818601,18.5810398 76.9780755,18.319402 77.1325664,18.0502888 C77.2870573,17.7811757 77.431581,17.5170461 77.5661376,17.2579001 C77.667055,17.0635406 77.7525545,16.8860007 77.822636,16.7252803 L77.8875783,16.5701665 L80.0404835,16.5701665 Z M89.3547886,14.7162759 L89.3547886,16.151546 L83.8828212,16.151546 L83.8828212,16.9439348 L83.8804852,17.1966955 C83.8758131,17.4405793 83.8641328,17.6578321 83.8454444,17.848454 C83.8205265,18.1026164 83.7831497,18.3268773 83.7333139,18.5212368 C83.6834781,18.7155963 83.6236752,18.8900215 83.5539052,19.0445124 C83.5073918,19.1475063 83.4542336,19.2493928 83.3944307,19.3501718 L83.2997427,19.5005097 L80.78802,19.5005097 L80.9602524,19.3100374 C81.1803272,19.0492966 81.3621281,18.7614452 81.5056551,18.4464832 C81.659434,18.1090238 81.7436463,17.6928443 81.7582919,17.1979446 L81.7598175,16.9439348 L81.7598175,16.151546 L75.9888355,16.151546 L75.9888355,14.7162759 L89.3547886,14.7162759 Z M67.8150575,13.5501189 L67.8590791,14.0542908 C67.8911955,14.3942815 67.9288492,14.7420244 67.9720402,15.0975195 C68.0368267,15.6307623 68.1140721,16.1540378 68.2037765,16.6673462 C68.2934809,17.1806547 68.3931524,17.6790123 68.5027911,18.1624193 C68.6124298,18.6458263 68.7220685,19.0868728 68.8317072,19.485559 C69.4995065,18.6383509 70.0900604,17.7936346 70.6033688,16.9514101 C70.9883501,16.3197418 71.3523069,15.6698522 71.6952393,15.0017414 L72.0311635,14.3275569 L73.9299063,14.3275569 L73.6793321,14.9034591 C73.3380567,15.665747 72.968076,16.4057085 72.5693898,17.1233435 C72.1540918,17.8708801 71.7387937,18.5457394 71.3234956,19.1479216 L71.0743168,19.5005097 L67.1273239,19.5005097 L67.0735013,19.2777438 C67.0017378,18.9707555 66.9299743,18.6238985 66.8582108,18.237173 C66.7685064,17.753766 66.6837856,17.2429494 66.6040483,16.7047231 C66.5243111,16.1664968 66.454541,15.6257787 66.3947381,15.0825688 C66.3498859,14.6751614 66.3134435,14.2859752 66.2854109,13.9150102 L66.2601815,13.5501189 L67.8150575,13.5501189 Z M42.7661764,6.61297995 C43.5735158,6.61297995 44.313577,6.76747083 44.9863599,7.0764526 C45.6591428,7.38543436 46.2372377,7.81900555 46.7206446,8.37716616 C47.2040516,8.93532676 47.5778198,9.59814248 47.8419494,10.3656133 C48.106079,11.1330842 48.2381438,11.9703251 48.2381438,12.8773361 C48.2381438,13.784347 48.106079,14.6190962 47.8419494,15.3815834 C47.5778198,16.1440707 47.2065434,16.799411 46.72812,17.3476045 C46.2496966,17.8957979 45.6740935,18.3243855 45.0013106,18.6333673 C44.3285277,18.9423491 43.583483,19.09684 42.7661764,19.09684 C41.9688041,19.09684 41.2337265,18.9423491 40.5609436,18.6333673 C39.8881608,18.3243855 39.3100659,17.8933062 38.8266589,17.3401291 C38.3432519,16.7869521 37.9645001,16.1291199 37.6904034,15.3666327 C37.4163067,14.6041454 37.2792583,13.7743799 37.2792583,12.8773361 C37.2792583,11.9603579 37.4163067,11.1181334 37.6904034,10.3506626 C37.9645001,9.58319175 38.3457437,8.92286782 38.8341343,8.36969079 C39.3225248,7.81651376 39.9031115,7.38543436 40.5758944,7.0764526 C41.2486772,6.76747083 41.9787713,6.61297995 42.7661764,6.61297995 Z M54.5879326,6.91199456 L54.9171477,6.92006796 C55.3485261,6.94159701 55.7496044,7.00618417 56.1203825,7.11382943 C56.5838552,7.248386 56.9825413,7.44523729 57.3164409,7.70438328 C57.6503406,7.96352928 57.9094866,8.27998641 58.0938789,8.65375467 C58.2782713,9.02752294 58.3704675,9.45361876 58.3704675,9.93204213 C58.3704675,10.5599728 58.1960423,11.1006909 57.8471919,11.5541964 C57.5419478,11.9510137 57.1451305,12.25435 56.65674,12.4642053 L56.4418232,12.54842 L56.4418232,12.5932722 L56.6972777,12.6750397 C57.3597858,12.9073606 57.8726635,13.253873 58.2359109,13.714577 C58.6445642,14.232869 58.8488908,14.8458489 58.8488908,15.5535168 C58.8488908,16.0718088 58.7566947,16.5327897 58.5723023,16.9364594 C58.38791,17.3401291 58.128764,17.6790123 57.7948643,17.9531091 C57.4609647,18.2272058 57.0597867,18.436516 56.5913305,18.5810398 C56.2165655,18.6966587 55.8130952,18.7660301 55.3809194,18.7891539 L55.0514053,18.7978253 L49.9532062,18.7978253 L49.9532062,6.91199456 L54.5879326,6.91199456 Z M42.7661764,8.55657492 C42.2777859,8.55657492 41.8317557,8.66372183 41.428086,8.87801563 C41.0244163,9.09230943 40.6780577,9.38883226 40.3890102,9.7675841 C40.0999628,10.1463359 39.8757018,10.6023332 39.7162274,11.1355759 C39.5567529,11.6688187 39.4770157,12.2494054 39.4770157,12.8773361 C39.4770157,13.5052667 39.5567529,14.0808699 39.7162274,14.6041454 C39.8757018,15.127421 40.0999628,15.5784347 40.3890102,15.9571865 C40.6780577,16.3359384 41.0244163,16.6324612 41.428086,16.846755 C41.8317557,17.0610488 42.2777859,17.1681957 42.7661764,17.1681957 C43.2645341,17.1681957 43.7155478,17.0635406 44.1192175,16.8542304 C44.5228872,16.6449201 44.8692458,16.3508891 45.1582933,15.9721373 C45.4473407,15.5933854 45.6691099,15.1398799 45.8236008,14.6116208 C45.9780917,14.0833616 46.0553371,13.5052667 46.0553371,12.8773361 C46.0553371,12.2494054 45.9755999,11.6688187 45.8161254,11.1355759 C45.656651,10.6023332 45.43239,10.1463359 45.1433426,9.7675841 C44.8542951,9.38883226 44.5079365,9.09230943 44.1042668,8.87801563 C43.7005971,8.66372183 43.2545669,8.55657492 42.7661764,8.55657492 Z M54.4982282,13.4305131 L52.1360128,13.4305131 L52.1360128,16.988787 L54.7224892,16.988787 C55.290617,16.988787 55.7565814,16.8392796 56.1203825,16.540265 C56.4841836,16.2412504 56.6660842,15.82263 56.6660842,15.2844037 C56.6660842,15.0252577 56.6112648,14.7835542 56.5016261,14.5592932 C56.3919874,14.3350323 56.2399884,14.138181 56.0456289,13.9687394 C55.8512694,13.7992978 55.6220248,13.667233 55.3578952,13.572545 C55.0937657,13.4778571 54.80721,13.4305131 54.4982282,13.4305131 Z M73.9000049,10.2908597 L73.5799658,10.8445039 C73.253853,11.39114 72.909519,11.9167516 72.5469637,12.4213388 C72.1844085,12.9259259 71.8064354,13.4094886 71.4130443,13.8720268 L71.0145139,14.3275569 L68.7569535,14.3275569 L69.0274683,14.0476979 C69.2919094,13.7720438 69.5381292,13.5090044 69.7661279,13.2585797 C70.070126,12.92468 70.3492063,12.595764 70.6033688,12.2718315 C70.8575312,11.947899 71.0967429,11.6264583 71.3210038,11.3075093 C71.4705111,11.0948767 71.6166961,10.8733844 71.7595586,10.6430324 L71.9713606,10.2908597 L73.9000049,10.2908597 Z M88.3979418,12.7726809 L88.3979418,14.1182467 L76.9905344,14.1182467 L76.9905344,12.7726809 L88.3979418,12.7726809 Z M88.9810203,6.23921169 L88.9810203,7.6146789 L85.2732392,7.6146789 L85.2732392,8.37716616 L88.7119072,8.37716616 L88.7119072,12.1896024 L76.7064706,12.1896024 L76.7064706,8.37716616 L80.1301879,8.37716616 L80.1301879,7.6146789 L76.3626038,7.6146789 L76.3626038,6.23921169 L88.9810203,6.23921169 Z M54.3337702,8.70608223 L52.1360128,8.70608223 L52.1360128,11.8905878 L54.3487209,11.8905878 C54.8670129,11.8905878 55.3030759,11.7460641 55.6569099,11.4570166 C56.0107438,11.1679692 56.1876608,10.769283 56.1876608,10.2609582 C56.1876608,9.75263337 56.0107438,9.36640616 55.6569099,9.10227659 C55.3030759,8.83814702 54.8620294,8.70608223 54.3337702,8.70608223 Z M83.509053,9.73768264 L81.9093248,9.73768264 L81.9093248,10.9038396 L83.509053,10.9038396 L83.509053,9.73768264 Z M80.1301879,9.73768264 L78.5304597,9.73768264 L78.5304597,10.9038396 L80.1301879,10.9038396 L80.1301879,9.73768264 Z M86.9028688,9.73768264 L85.2732392,9.73768264 L85.2732392,10.9038396 L86.9028688,10.9038396 L86.9028688,9.73768264 Z M62.3580409,8.54162419 L62.5150235,9.06489976 L62.6570555,9.58817533 C62.728819,9.86725563 62.797393,10.1973678 62.8627775,10.5785117 L62.9112179,10.8739382 L61.2217854,10.8739382 L61.1152614,10.298335 L61.0049998,9.70778118 C60.955164,9.44199041 60.8997909,9.18062949 60.8388805,8.92369842 L60.743362,8.54162419 L62.3580409,8.54162419 Z M68.5476433,8.12300374 L68.4604307,8.61720844 C68.3973054,8.94390959 68.324213,9.26507343 68.2411533,9.58069997 C68.1477113,9.93577982 68.036048,10.2670319 67.9061635,10.5744563 L67.7702053,10.8739382 L66.0957235,10.8739382 L66.1937339,10.6787481 C66.2579666,10.5447452 66.3199845,10.4029901 66.3797874,10.2534828 C66.4694918,10.0292219 66.5517208,9.79748556 66.6264744,9.55827387 C66.7012281,9.31906218 66.7709982,9.0773587 66.8357847,8.83316344 C66.8789757,8.67036659 66.9166294,8.51089214 66.9487457,8.35474006 L66.9927673,8.12300374 L68.5476433,8.12300374 Z M65.0940246,8.09310228 L65.1920349,8.4319855 C65.2562677,8.66455242 65.3182855,8.91040888 65.3780884,9.16955488 C65.4378914,9.42870087 65.4999092,9.70113641 65.564142,9.98686148 L65.6621523,10.4254162 L63.9727198,10.4254162 L63.9138513,10.1035083 C63.8559172,9.78860856 63.8007864,9.49473327 63.7484588,9.22188243 C63.7019454,8.97934836 63.6465724,8.73127698 63.5823396,8.47766829 L63.4793457,8.09310228 L65.0940246,8.09310228 Z M73.8850541,6.23921169 L73.6237154,6.6999932 C73.2696821,7.30679352 72.8933223,7.88329369 72.4946362,8.42949371 C72.09595,8.97569374 71.6940744,9.48202514 71.2890093,9.94848794 L70.9846124,10.2908597 L68.7270521,10.2908597 L69.0973607,9.90399407 C70.185675,8.74895746 71.0704864,7.64396256 71.7517949,6.58900936 L71.9713606,6.23921169 L73.8850541,6.23921169 Z M83.509053,7.6146789 L81.9093248,7.6146789 L81.9093248,8.37716616 L83.509053,8.37716616 L83.509053,7.6146789 Z M68.6373477,6 L68.6373477,7.48012232 L60.6088054,7.9585457 L60.6088054,6.47842338 L68.6373477,6 Z" id="形状结合" fill="#FFFFFF" opacity="0.400000006" mask="url(#mask-2)"></path>
                </g>
            </g>
        </g>
    </g>
</svg>