<?xml version="1.0" encoding="UTF-8"?>
<svg width="90px" height="34px" viewBox="0 0 90 34" version="1.1" xmlns="http://www.w3.org/2000/svg" xmlns:xlink="http://www.w3.org/1999/xlink">
    <title>footer_casino_hover</title>
    <defs>
        <rect id="path-1" x="0" y="0" width="90" height="34"></rect>
    </defs>
    <g id="模版编号_首页" stroke="none" stroke-width="1" fill="none" fill-rule="evenodd">
        <g id="标准footer文件备份" transform="translate(-415.000000, -27.000000)">
            <g id="合作品牌" transform="translate(299.000000, 27.000000)">
                <g id="casino" transform="translate(116.000000, 0.000000)">
                    <mask id="mask-2" fill="white">
                        <use xlink:href="#path-1"></use>
                    </mask>
                    <use id="蒙版" fill="#D8D8D8" opacity="0" xlink:href="#path-1"></use>
                    <path d="M15,2 C23.2842712,2 30,8.71572875 30,17 C30,25.2842712 23.2842712,32 15,32 C6.71572875,32 1.42108547e-14,25.2842712 1.42108547e-14,17 C1.42108547e-14,8.71572875 6.71572875,2 15,2 Z M38.1161409,23.1188463 C38.4357054,23.1188463 38.7260415,23.1812004 38.9871491,23.3059085 C39.2482568,23.4306166 39.4713674,23.6020903 39.656481,23.8203295 C39.8415946,24.0385687 39.9838398,24.2967535 40.0832166,24.5948838 C40.1825934,24.8930142 40.2322818,25.2155016 40.2322818,25.562346 C40.2322818,25.9091905 40.1835676,26.2316779 40.0861394,26.5298082 C39.9887112,26.8279385 39.8484146,27.0861233 39.6652495,27.3043625 C39.4820845,27.5226017 39.2599481,27.6931011 38.9988405,27.8158607 C38.7377329,27.9386202 38.4434997,28 38.1161409,28 C37.8004735,28 37.5130602,27.9376459 37.2539012,27.8129378 C36.9947421,27.6882297 36.7716315,27.5157818 36.5845693,27.295594 C36.3975071,27.0754062 36.2533134,26.8172214 36.151988,26.5210397 C36.0506627,26.2248579 36,25.9052933 36,25.562346 C36,25.2116044 36.051637,24.8871685 36.1549109,24.5890381 C36.2581848,24.2909078 36.4023785,24.032723 36.5874921,23.8144838 C36.7726058,23.5962446 36.9947421,23.4257452 37.2539012,23.3029857 C37.5130602,23.1802261 37.8004735,23.1188463 38.1161409,23.1188463 Z M82.6661674,23.1188463 C82.7908756,23.1188463 82.9136351,23.1276149 83.0344461,23.1451519 C83.1552571,23.162689 83.2702224,23.1860718 83.379342,23.2153003 C83.4884616,23.2445287 83.5888127,23.2786286 83.6803952,23.3175999 L83.8097311,23.3760568 L83.8097311,23.3760568 L83.9229914,23.4345137 L83.7651577,24.001546 L83.6203145,23.9278253 C83.5181231,23.8814928 83.4046733,23.8407894 83.2799652,23.8057153 C83.092903,23.753104 82.9077894,23.7267984 82.7246244,23.7267984 C82.4791053,23.7267984 82.2803517,23.7823325 82.1283637,23.8934006 C81.9763757,24.0044688 81.9003817,24.1652254 81.9003817,24.3756703 C81.9003817,24.5549382 81.9763757,24.7117977 82.1283637,24.8462486 C82.2803517,24.9806996 82.4966423,25.0985877 82.7772356,25.199913 C83.0110633,25.2856499 83.2127397,25.3743095 83.3822648,25.4658921 C83.5517899,25.5574746 83.6911123,25.6597742 83.8002319,25.772791 C83.9093515,25.8858077 83.9902169,26.0134387 84.0428282,26.1556838 C84.0954394,26.297929 84.121745,26.4625827 84.121745,26.6496449 C84.121745,26.8561927 84.0847223,27.0422806 84.0106768,27.2079086 C83.9366314,27.3735366 83.8343318,27.5148075 83.703778,27.6317213 C83.5732241,27.7486352 83.417339,27.8392434 83.2361225,27.9035461 C83.054906,27.9678487 82.8571268,28 82.6427847,28 C82.319323,28 82.0309355,27.955183 81.7776221,27.8655491 C81.5876371,27.7983236 81.4042285,27.713561 81.2273963,27.6112614 L81.0527562,27.5031161 L81.2632011,26.9419296 L81.4122663,27.041489 C81.5642543,27.1353855 81.7250109,27.2122929 81.894536,27.2722112 C82.1205694,27.3521024 82.3505,27.3920479 82.5843277,27.3920479 C82.7168301,27.3920479 82.833744,27.3735366 82.9350693,27.3365138 C83.0363947,27.2994911 83.1211572,27.2488284 83.189357,27.1845258 C83.2575567,27.1202232 83.3091937,27.0461778 83.3442678,26.9623895 C83.379342,26.8786012 83.3968791,26.7899415 83.3968791,26.6964105 C83.3968791,26.591188 83.3773934,26.4976569 83.3384221,26.4158172 C83.2994509,26.3339775 83.2400196,26.2579835 83.1601285,26.1878352 C83.0802374,26.1176868 82.9798863,26.0524099 82.8590753,25.9920044 C82.7382643,25.931599 82.5979677,25.8702192 82.4381854,25.8078651 C82.0211927,25.65198 81.7094224,25.4658921 81.5028745,25.2496014 C81.2963267,25.0333108 81.1930528,24.7556404 81.1930528,24.4165902 C81.1930528,24.229528 81.2271527,24.0570801 81.2953524,23.8992463 C81.3635522,23.7414126 81.4609804,23.6040388 81.5876371,23.487125 C81.7142938,23.3702111 81.8682303,23.2796029 82.0494468,23.2153003 C82.2306633,23.1509976 82.4362369,23.1188463 82.6661674,23.1188463 Z M50.2331997,23.2299145 L51.273733,25.5506546 L52.3201121,23.2299145 L53.0566694,23.2299145 L51.6186289,26.1059955 L51.6186289,27.8830861 L50.9229914,27.8830861 L50.9229914,26.1001498 L49.4791053,23.2299145 L50.2331997,23.2299145 Z M42.4669308,23.2357602 L44.2674042,27.0822262 L44.2790956,27.0822262 L44.2790956,23.2357602 L44.9747331,23.2357602 L44.9747331,27.8830861 L43.986811,27.8830861 L42.2038746,24.1009227 L42.1921832,24.0950771 L42.1921832,27.8830861 L41.4965457,27.8830861 L41.4965457,23.2357602 L42.4669308,23.2357602 Z M88.4842263,23.2357602 L88.4842263,23.8203295 L87.1221798,23.8203295 L87.1221798,27.8830861 L86.4265423,27.8830861 L86.4265423,23.8203295 L85.0644959,23.8203295 L85.0644959,23.2357602 L88.4842263,23.2357602 Z M79.963863,23.2357602 L79.963863,23.8320209 L77.7308083,23.8320209 L77.7308083,25.2408329 L79.7417267,25.2408329 L79.7417267,25.7961737 L77.7308083,25.7961737 L77.7308083,27.2868255 L80.0047828,27.2868255 L80.0047828,27.8830861 L77.0234794,27.8830861 L77.0234794,23.2357602 L79.963863,23.2357602 Z M74.2217982,23.2357602 L74.422825,23.244204 C74.5531623,23.2554623 74.6761384,23.2779791 74.7917532,23.3117542 C74.9651755,23.3624169 75.1152149,23.4374366 75.2418716,23.5368134 C75.3685283,23.6361902 75.4669308,23.7589497 75.5370791,23.905092 C75.6072274,24.0512344 75.6423016,24.2197852 75.6423016,24.4107445 C75.6423016,24.6640578 75.5731275,24.8783999 75.4347795,25.0537707 C75.324101,25.1940673 75.1828691,25.304434 75.0110836,25.3848708 L74.8765158,25.4395865 L74.8765158,25.4688149 L75.0277731,25.5202895 C75.2689079,25.6139288 75.4552394,25.7468101 75.5867675,25.9189333 C75.7446012,26.1254811 75.823518,26.363206 75.823518,26.6321078 C75.823518,26.8308614 75.7884439,27.0081807 75.7182956,27.1640659 C75.6481473,27.319951 75.550719,27.4505049 75.4260109,27.5557273 C75.3013028,27.6609498 75.1512633,27.7418152 74.9758926,27.7983236 C74.8443645,27.8407049 74.7029718,27.8671932 74.5517145,27.8777885 L74.3971689,27.8830861 L72.4563989,27.8830861 L72.4563989,23.2357602 L74.2217982,23.2357602 Z M68.7119668,23.2357602 L68.7119668,23.8320209 L66.478912,23.8320209 L66.478912,25.2408329 L68.4898304,25.2408329 L68.4898304,25.7961737 L66.478912,25.7961737 L66.478912,27.2868255 L68.7528866,27.2868255 L68.7528866,27.8830861 L65.7715832,27.8830861 L65.7715832,23.2357602 L68.7119668,23.2357602 Z M61.6312382,23.2357602 L61.6312382,25.2174501 L63.7356877,25.2174501 L63.7356877,23.2357602 L64.4313252,23.2357602 L64.4313252,27.8830861 L63.7356877,27.8830861 L63.7356877,25.8137108 L61.6312382,25.8137108 L61.6312382,27.8830861 L60.9356008,27.8830861 L60.9356008,23.2357602 L61.6312382,23.2357602 Z M59.8467076,23.2357602 L59.8467076,23.8203295 L58.4846611,23.8203295 L58.4846611,27.8830861 L57.7890236,27.8830861 L57.7890236,23.8203295 L56.4269771,23.8203295 L56.4269771,23.2357602 L59.8467076,23.2357602 Z M47.0106285,23.2299145 L47.0106285,27.2868255 L49.1618436,27.2868255 L49.1618436,27.8830861 L46.3149911,27.8830861 L46.3149911,23.2299145 L47.0106285,23.2299145 Z M22.401318,21.4177856 C23.0351283,22.1539331 23.2529167,22.9954603 23.054683,23.9423675 C22.7573325,25.3627281 21.6366876,25.9322503 20.6898594,26.2310797 C20.1999397,26.3857039 19.4658613,26.4751723 18.4874378,26.4995053 C18.4631943,26.4990438 18.4393801,26.4986211 18.4160106,26.4982413 L18.4160106,26.4982413 L18.3886682,26.4998862 L18.2974082,26.4999441 C17.999819,26.5050214 17.7190195,26.5028437 17.4665103,26.5003435 L17.4665103,26.5003435 L17.4676812,26.4998828 L17.2899818,26.499944 L17.2531823,26.4981202 C16.5464218,26.4550564 16.1130029,25.9611605 16.1130029,25.3360958 L16.1130029,25.3360958 L16.1130029,23.3701628 L16.0447014,23.4157941 C15.4274147,23.8237417 14.7415015,24.1567255 14.056493,24.3208497 L14.056493,24.3208497 L14.0560134,25.3695844 C14.0368801,26.0360053 13.4480926,26.499944 12.8111654,26.499944 L12.8111654,26.499944 L11.9937197,26.499944 L11.9937197,27.3809345 L17.5802308,27.3809231 L17.5802885,27.3813745 L19.3887173,27.3812954 C19.4153497,27.3827764 19.5286056,27.3880017 19.703834,27.3813509 L19.703834,27.3813509 L19.774479,27.3812059 C20.8240908,27.370055 23.0365182,26.8028882 23.7125795,24.87896 C24.1678396,23.5833855 23.7307524,22.4296607 22.401318,21.4177856 Z M38.1161409,23.7443355 C37.8940045,23.7443355 37.6962253,23.7920753 37.522803,23.887555 C37.3493808,23.9830346 37.2022642,24.1126141 37.0814532,24.2762935 C36.9606422,24.4399729 36.8680854,24.6328808 36.8037828,24.8550172 C36.7394802,25.0771535 36.7073289,25.3129298 36.7073289,25.562346 C36.7073289,25.8156594 36.7404545,26.0524099 36.8067056,26.2725977 C36.8729568,26.4927855 36.9664879,26.6847191 37.0872989,26.8483985 C37.2081099,27.0120779 37.3552265,27.1406831 37.5286487,27.2342142 C37.702071,27.3277453 37.8979017,27.3745108 38.1161409,27.3745108 C38.3382772,27.3745108 38.5380051,27.3277453 38.7153244,27.2342142 C38.8926438,27.1406831 39.0417089,27.0120779 39.1625199,26.8483985 C39.2833309,26.6847191 39.3758877,26.4927855 39.4401903,26.2725977 C39.504493,26.0524099 39.5366443,25.8156594 39.5366443,25.562346 C39.5366443,25.3129298 39.5035187,25.0771535 39.4372675,24.8550172 C39.3710163,24.6328808 39.2765109,24.4399729 39.1537514,24.2762935 C39.0309918,24.1126141 38.8819267,23.9830346 38.7065559,23.887555 C38.5311851,23.7920753 38.3343801,23.7443355 38.1161409,23.7443355 Z M74.186724,25.7318711 L73.1520363,25.7318711 L73.1520363,27.2868255 L74.2802551,27.2868255 C74.5335684,27.2868255 74.7381677,27.2244714 74.8940529,27.0997633 C75.049938,26.9750552 75.1278806,26.7938387 75.1278806,26.5561138 C75.1278806,26.4392 75.1044978,26.3300804 75.0577323,26.228755 C75.0109667,26.1274297 74.9447155,26.0407186 74.8589787,25.9686217 C74.7732419,25.8965248 74.6728908,25.8390421 74.5579255,25.7961737 C74.4429602,25.7533053 74.3192264,25.7318711 74.186724,25.7318711 Z M19.5907115,18.6638505 C19.362667,19.1269858 19.437411,19.7346758 19.5225968,20.1680038 C19.6081745,20.7544868 19.1329632,20.9088041 19.0395749,21.0702637 L19.0395749,21.0702637 L19.0216656,21.1010411 C18.9346996,21.2507501 18.8669601,21.3882959 19.2831843,21.4676598 C19.6508371,21.5377622 19.4908479,21.8230973 19.4244538,21.9529796 L19.4244538,21.9529796 L19.4158593,21.9700565 C19.4066872,21.9887156 19.400761,22.002798 19.400761,22.0107048 C19.400761,22.069441 19.3514332,22.3170463 19.7799322,22.301898 C19.5161107,22.347185 19.564021,22.506571 19.5907115,22.5547811 C19.6505038,22.6670301 19.8562023,22.6440583 19.8954794,22.7375385 C19.9361472,22.8030446 19.9482842,22.9510481 19.9422157,23.1345993 C19.9361472,23.3181503 20.0633502,23.4830893 20.4251793,23.50662 C20.7870085,23.5301508 21.4584074,23.1586612 21.7937507,23.43113 C22.1290942,23.7035988 22.1290942,24.1288245 22.0128318,24.4917581 C21.8965696,24.8546915 21.4200587,25.8125846 19.4736632,26.2889147 C20.4251793,26.1319215 21.7824972,25.8674369 22.5350603,24.6334139 C23.1981899,23.2211488 22.7510277,21.9692396 21.9146633,21.3849947 C21.8463886,21.3373012 21.7758053,21.2921324 21.7035793,21.2483433 L21.7035793,21.2483433 L21.6491122,21.2157422 C21.5943579,21.183364 21.5387733,21.1516007 21.4826395,21.1199693 L21.4826395,21.1199693 L21.426333,21.0883641 C21.3604528,21.0515008 21.2939523,21.0145979 21.227278,20.9768883 L21.227278,20.9768883 L21.1700965,20.9443502 C20.4931905,20.556555 19.8115127,20.0632128 19.5907115,18.6638505 Z M74.1224214,23.8203295 L73.1520363,23.8203295 L73.1520363,25.2174501 L74.1458041,25.2174501 C74.2549237,25.2174501 74.3581977,25.2008873 74.4556259,25.1677617 C74.5530541,25.1346361 74.6378166,25.0868963 74.7099135,25.0245422 C74.7820104,24.9621882 74.8394931,24.8871685 74.8823615,24.7994831 C74.9252299,24.7117977 74.9466641,24.6133952 74.9466641,24.5042756 C74.9466641,24.274345 74.8687215,24.1028713 74.7128364,23.9898546 C74.5569512,23.8768379 74.3601462,23.8203295 74.1224214,23.8203295 Z M22.0043934,11.6193114 C21.0745187,10.8676235 20.0982586,10.6658639 18.9930989,10.7387985 L18.9930989,10.7387985 L11.9937197,10.7387985 L11.9937197,11.4736186 L12.0515991,11.4743628 C12.1839582,11.475972 12.2982905,11.4767058 12.4118661,11.4769092 L12.8192138,11.4760638 L12.8192138,11.4760638 L12.9624137,11.4754654 C13.4977257,11.4638783 14.0604427,11.9787576 14.0714163,12.5125937 L14.0714163,12.5125937 L14.0711106,12.9622482 C14.07105,13.0129252 14.0709825,13.0671278 14.0709085,13.1246361 L14.0700786,13.7255246 C14.0697509,13.9516122 14.0693757,14.2015117 14.0689639,14.4692838 L14.0680947,15.0268985 C14.0656641,16.5680329 14.0623993,18.5049215 14.0599523,19.9365755 L14.0590762,20.4480031 C14.0586606,20.6901158 14.0582809,20.9105068 14.0579482,21.1032372 L14.0571016,21.592507 C14.0570255,21.6363302 14.056956,21.6764202 14.0568932,21.7125568 L14.056493,21.9425134 C14.1374772,21.8893935 16.1017274,20.5766834 16.1192662,18.1591572 C16.1246544,17.4164456 16.1276093,16.5546374 16.1281307,15.573733 L16.1281307,15.573733 L16.1281307,14.9267453 C16.1276093,13.8947996 16.1246544,12.7437573 16.1192662,11.4736186 L16.1192662,11.4736186 L19.336356,11.4736186 L19.3500573,11.4751324 C19.4500376,11.4874374 20.074913,11.5858272 20.4856772,12.1589627 C20.9332412,12.7834445 21.2792847,13.5758294 21.2409669,15.0199105 C21.2409669,15.666176 20.997084,16.6636766 20.4542018,17.3329707 L20.4542018,17.3329707 C20.2541128,17.5900896 20.1371076,17.7098111 20.0328358,17.8172033 L20.0328358,17.8172033 L19.9489008,17.9048545 C19.8364538,18.0185708 19.7366373,18.119521 19.6494517,18.2077048 L19.6494517,18.2077048 C19.6473838,18.2166903 19.6455315,18.2184163 19.6442308,18.2203177 C19.6467792,18.2338082 19.6493592,18.2472392 19.6519937,18.2605769 C19.6532215,18.2821294 19.6546802,18.3035915 19.6563697,18.3249633 L19.6563697,18.3249633 C19.8088717,19.0232661 20.0410978,19.553563 20.3618852,19.9174423 C20.867233,20.4906746 21.3045834,20.6609465 22.0505005,20.9752797 C22.7964177,21.289613 24.1040123,22.117223 24.0358731,24.0569734 C24.1858358,23.4831709 24.4474647,22.5045443 23.8952787,21.1386456 C23.3430927,19.7727469 22.2016537,18.7532258 20.9492124,18.4483688 C20.9436917,18.4470251 20.9381883,18.4456868 20.932806,18.4444833 C22.3799718,17.8815359 23.5033915,16.4045575 23.4697287,14.721974 C23.4916111,13.5167546 22.934268,12.3709992 22.0043934,11.6193114 Z M12.5221463,6.61538462 C10.7871341,6.61104979 9.13422299,7.48703415 7.83753722,9.13243714 C6.54085146,10.7778401 5.88812873,12.7814213 5.88812873,15.2005886 C5.82871352,17.1490427 6.53041328,19.3701585 7.42215503,20.6971297 C8.31389678,22.024101 10.0141204,23.7678501 12.5456871,23.7598596 C15.0772537,23.7517025 16.4643396,22.136525 17.0700972,21.4790711 C17.6758546,20.8216172 18.4075712,19.5808043 18.8920123,17.7951469 C19.3412837,16.0553243 19.3095313,14.2105031 18.7967549,12.2606832 C18.6313896,12.2492331 18.0566841,12.2431958 17.0726385,12.2425712 L16.8982356,12.2425172 L16.9206173,12.3445358 C17.1055869,13.1908727 17.2505199,13.9451598 17.2492113,14.8618662 C17.2555402,15.9305393 17.1724042,16.8079071 16.9591619,17.9194352 C16.7817267,18.8443175 16.2718627,20.1276262 15.7719914,20.9089879 C14.5927395,22.7523071 13.1744317,23.0331353 12.5373205,23.0331353 C11.128946,23.0331353 9.82461511,21.8895274 9.07398601,20.5176503 C8.32335692,19.1457732 7.81817026,16.9648462 7.83753722,15.1377627 C7.83753722,13.2119158 8.23721993,11.3581831 9.13422299,9.76789317 C10.0312261,8.17760324 11.2615616,7.33769075 12.5094008,7.33769075 C13.7572401,7.33769075 14.4887859,8.01808877 15.0531541,8.55174528 C15.3028163,8.78782147 15.9239048,9.64458169 16.0536805,9.98993023 L16.0536805,9.98993023 L17.8363275,9.98993023 L17.8276967,9.97233539 C17.5278468,9.36975975 15.739493,6.6110933 12.5221463,6.61538462 Z M77.7802309,9.00574907 L77.7802309,17.814677 L79.1938258,17.814677 L79.1938258,19.5407508 L75.9053577,19.5407508 L75.9053577,10.6127832 L74.7596019,10.6127832 L74.7596019,9.00574907 L77.7802309,9.00574907 Z M87.5117155,6.41663848 L87.5117155,16.0142036 L87.5220488,16.4031488 C87.5482265,17.0383021 87.6191818,17.6080111 87.7349147,18.112276 C87.8539543,18.6309484 88.0203668,19.054875 88.2341521,19.3840558 L88.3449925,19.5407508 L86.1278806,19.5407508 L86.0976614,19.4766384 C86.0158523,19.2846075 85.9242458,18.9240597 85.8228417,18.3949949 C85.7214376,17.8659302 85.665102,17.1801055 85.6538349,16.3375209 L85.6517223,16.0142036 L85.6517223,8.15759215 L82.8691724,8.15759215 L82.8691724,11.8031789 L85.0862844,11.8031789 L85.0862844,13.5441326 L82.8691724,13.5441326 L82.8691724,19.5407508 L81.0240591,19.5407508 L81.0240591,13.5441326 L78.6730277,13.5441326 L78.6730277,11.8031789 L81.0240591,11.8031789 L81.0240591,8.15759215 L78.9855065,8.15759215 L78.9855065,6.41663848 L87.5117155,6.41663848 Z M69.6451519,8.58911059 L69.6451519,13.1126141 L69.637712,13.4567129 L69.615392,13.8045316 C69.6021654,13.9599444 69.5845299,14.1208682 69.5624856,14.2873032 L69.5261124,14.5410889 L70.6123484,14.5410889 L70.6123484,17.9783564 L72.8294604,17.9783564 L72.8294604,19.5407508 L69.0350742,19.5407508 L69.0350742,16.4308421 L68.8779047,16.8316706 C68.7123653,17.2315692 68.521716,17.6286777 68.3059568,18.0229963 C68.0758136,18.4436028 67.8107522,18.8515117 67.5107725,19.246723 L67.2792405,19.5407508 L65.0472487,19.5407508 L65.3267088,19.2100101 C66.2338526,18.114305 66.8970965,17.0862361 67.3164404,16.1258032 C67.7264656,15.1867133 67.9542573,14.2652588 67.9998157,13.3614399 L68.0083579,13.0233345 L68.0083579,8.58911059 L69.6451519,8.58911059 Z M64.0354123,8.14271221 L63.9510926,8.53124413 C63.8915729,8.79136763 63.8254398,9.05369556 63.7526934,9.31822793 C63.679947,9.58276031 63.6027917,9.85170155 63.5212275,10.1250517 L63.3955747,10.5383835 L64.5264506,10.5383835 L64.5636504,10.7825076 C64.6008503,11.0326767 64.6380501,11.3009807 64.67525,11.5874197 C64.7248498,11.9693383 64.7719697,12.3661369 64.8166095,12.7778154 C64.8612493,13.1894939 64.9009292,13.6061323 64.9356491,14.0277308 C64.9587956,14.3087965 64.9786356,14.5821466 64.9951688,14.8477812 L65.0174888,15.2404464 L63.7080535,15.2404464 L63.6818648,14.8401759 C63.6437722,14.2965618 63.5929819,13.713268 63.5294942,13.0902942 C63.4660064,12.4673205 63.3993443,11.8840266 63.3295077,11.3404126 L63.2765351,10.940142 L63.1574955,11.2972607 L63.1574955,19.5407508 L61.371902,19.5407508 L61.371902,15.5975651 L61.3421421,15.6552249 L61.2826223,15.7631045 L61.2528625,15.8207643 L59.16967,15.8207643 L59.516968,15.1996753 C59.9669375,14.3767151 60.3645297,13.5743885 60.7097444,12.7926953 C61.0549592,12.0110021 61.3636685,11.1928035 61.6358723,10.3380994 L61.8331803,9.69022658 L59.2887096,9.69022658 L59.2887096,8.14271221 L64.0354123,8.14271221 Z M41.7388763,6.7142374 C42.5423934,6.7142374 43.2789507,6.86799684 43.9485482,7.17551573 C44.6181458,7.48303461 45.1935037,7.91455304 45.674622,8.47007102 C46.1557402,9.025589 46.5277389,9.6852666 46.7906179,10.4491038 C47.0534969,11.212941 47.1849365,12.046218 47.1849365,12.9489347 C47.1849365,13.8516514 47.0534969,14.6824484 46.7906179,15.4413257 C46.5277389,16.2002029 46.1582202,16.8524405 45.6820619,17.3980386 C45.2059037,17.9436366 44.6330258,18.370195 43.9634282,18.6777139 C43.2938306,18.9852328 42.5523133,19.1389922 41.7388763,19.1389922 C40.9452792,19.1389922 40.2136818,18.9852328 39.5440843,18.6777139 C38.8744867,18.370195 38.2991288,17.9411566 37.8180105,17.3905986 C37.3368923,16.8400406 36.9599337,16.185323 36.6871346,15.4264457 C36.4143356,14.6675685 36.2779361,13.8417315 36.2779361,12.9489347 C36.2779361,12.036298 36.4143356,11.1980611 36.6871346,10.4342239 C36.9599337,9.67038665 37.3393723,9.01318904 37.8254505,8.46263104 C38.3115287,7.91207305 38.8893666,7.48303461 39.5589642,7.17551573 C40.2285618,6.86799684 40.9551991,6.7142374 41.7388763,6.7142374 Z M53.5046621,7.01183632 L53.8323185,7.01987149 C54.2616545,7.04129861 54.6608339,7.10557998 55.0298565,7.21271559 C55.4911348,7.3466351 55.8879334,7.54255439 56.2202522,7.80047345 C56.552571,8.05839251 56.81049,8.37335137 56.9940094,8.74535002 C57.1775287,9.11734866 57.2692884,9.54142712 57.2692884,10.0175854 C57.2692884,10.6425431 57.095689,11.1807012 56.7484903,11.6320595 C56.4446914,12.0269981 56.0497528,12.3288982 55.5636746,12.53776 L55.3497754,12.6215759 L55.3497754,12.6662158 L55.6040204,12.7475962 C56.2633918,12.9788171 56.7738413,13.3236889 57.1353689,13.7822117 C57.5420874,14.2980498 57.7454466,14.9081276 57.7454466,15.612445 C57.7454466,16.1282832 57.653687,16.5870815 57.4701676,16.98884 C57.2866483,17.3905986 57.0287292,17.7278774 56.6964105,18.0006764 C56.3640917,18.2734754 55.9648131,18.4817946 55.4985748,18.6256341 C55.1255842,18.7407057 54.724024,18.8097486 54.2938944,18.8327629 L53.9659404,18.8413933 L48.8918788,18.8413933 L48.8918788,7.01183632 L53.5046621,7.01183632 Z M41.7388763,8.64863037 C41.252798,8.64863037 40.8088797,8.75526998 40.4071211,8.96854921 C40.0053626,9.18182843 39.6606438,9.47694736 39.3729649,9.85390599 C39.0852859,10.2308646 38.8620867,10.684703 38.7033673,11.215421 C38.5446479,11.7461391 38.4652882,12.323977 38.4652882,12.9489347 C38.4652882,13.5738925 38.5446479,14.1467704 38.7033673,14.6675685 C38.8620867,15.1883666 39.0852859,15.637245 39.3729649,16.0142036 C39.6606438,16.3911622 40.0053626,16.6862811 40.4071211,16.8995604 C40.8088797,17.1128396 41.252798,17.2194792 41.7388763,17.2194792 C42.2348745,17.2194792 42.6837528,17.1153196 43.0855114,16.9070003 C43.4872699,16.6986811 43.8319887,16.4060422 44.1196676,16.0290835 C44.4073466,15.6521249 44.6280658,15.2007665 44.7818252,14.6750085 C44.9355846,14.1492504 45.0124644,13.5738925 45.0124644,12.9489347 C45.0124644,12.323977 44.9331047,11.7461391 44.7743852,11.215421 C44.6156658,10.684703 44.3924666,10.2308646 44.1047877,9.85390599 C43.8171087,9.47694736 43.47239,9.18182843 43.0706314,8.96854921 C42.6688729,8.75526998 42.2249545,8.64863037 41.7388763,8.64863037 Z M53.4153824,13.4994927 L51.0643509,13.4994927 L51.0643509,17.0409199 L53.6385816,17.0409199 C54.2040195,17.0409199 54.6677778,16.8921204 55.0298565,16.5945215 C55.3919352,16.2969226 55.5729745,15.8802841 55.5729745,15.344606 C55.5729745,15.086687 55.5184147,14.8461278 55.4092951,14.6229286 C55.3001755,14.3997295 55.1488961,14.2038102 54.9554568,14.0351708 C54.7620175,13.8665314 54.5338583,13.7350919 54.2709793,13.6408522 C54.0081002,13.5466126 53.7229013,13.4994927 53.4153824,13.4994927 Z M72.5318614,6.29759892 L72.5318614,15.1958066 L70.8504276,15.1958066 L70.8504276,7.85999324 L66.8923619,7.85999324 L66.8923619,15.1958066 L65.2109281,15.1958066 L65.2109281,6.29759892 L72.5318614,6.29759892 Z M53.251703,8.79742983 L51.0643509,8.79742983 L51.0643509,11.9668583 L53.2665829,11.9668583 C53.7824211,11.9668583 54.2164195,11.8230188 54.5685782,11.5353399 C54.9207369,11.2476609 55.0968163,10.8508624 55.0968163,10.3449442 C55.0968163,9.83902604 54.9207369,9.45462744 54.5685782,9.19174839 C54.2164195,8.92886935 53.7774611,8.79742983 53.251703,8.79742983 Z M77.497512,6 L77.5487651,6.1570661 C77.5840361,6.26728792 77.6215115,6.38853192 77.6611914,6.52079811 C77.7207111,6.71919738 77.7802309,6.92503664 77.8397507,7.13831586 C77.8992705,7.35159509 77.9563103,7.5673543 78.0108701,7.78559351 C78.0472433,7.93108631 78.0803098,8.06776137 78.1100697,8.19561868 L78.1522296,8.38079134 L76.098797,8.38079134 L76.0425322,8.09946737 C75.9820825,7.81209841 75.9090777,7.50659452 75.823518,7.1829557 C75.7379584,6.85931688 75.6482137,6.55660298 75.554284,6.274814 L75.4589594,6 L77.497512,6 Z M62.8450167,6 L62.9524829,6.24634577 C63.0230249,6.41608738 63.0913624,6.59685116 63.1574955,6.78863713 C63.2236286,6.9804231 63.2875573,7.17882238 63.3492815,7.38383497 L63.4402145,7.69631383 L61.4611817,7.69631383 L61.3514421,7.27781535 L61.2305425,6.85559689 C61.1743294,6.66711757 61.1126052,6.47753604 61.0453699,6.28685229 L60.9403836,6 L62.8450167,6 Z" id="ob视讯" fill="#FFFFFF" mask="url(#mask-2)"></path>
                </g>
            </g>
        </g>
    </g>
</svg>