<?xml version="1.0" encoding="UTF-8"?>
<svg width="90px" height="34px" viewBox="0 0 90 34" version="1.1" xmlns="http://www.w3.org/2000/svg" xmlns:xlink="http://www.w3.org/1999/xlink">
    <title>footer_sports</title>
    <defs>
        <rect id="path-1" x="0" y="0" width="90" height="34"></rect>
    </defs>
    <g id="模版编号_首页" stroke="none" stroke-width="1" fill="none" fill-rule="evenodd">
        <g id="标准footer文件" transform="translate(-299.000000, -27.000000)">
            <g id="sports" transform="translate(299.000000, 27.000000)">
                <mask id="mask-2" fill="white">
                    <use xlink:href="#path-1"></use>
                </mask>
                <use id="蒙版" fill="#D8D8D8" opacity="0" xlink:href="#path-1"></use>
                <path d="M14.9998642,2 C23.1795213,2 29.8297331,8.54667185 29.9967823,16.6860368 L30,16.9998642 L29.9967823,17.3137018 C29.8319026,25.3476187 23.3511606,31.8296879 15.3177674,31.9966983 L14.9998642,32 L14.6860368,31.9967823 C6.65237789,31.8319026 0.170312052,25.3511606 0.00330168294,17.3177674 L4.97379915e-14,16.9998642 L0.00321770266,16.6860368 C0.17026682,8.54667185 6.82047524,2 14.9998642,2 Z M36.5530081,23.5559068 C36.8953987,23.5559068 37.2064731,23.6227147 37.4862312,23.7563305 C37.7659894,23.8899464 38.0050365,24.0736682 38.2033725,24.3074959 C38.4017085,24.5413236 38.5541141,24.8179501 38.6605892,25.1373755 C38.7670643,25.4568009 38.8203019,25.8023231 38.8203019,26.1739422 C38.8203019,26.5455612 38.7681082,26.8910834 38.6637208,27.2105088 C38.5593334,27.5299342 38.4090156,27.8065607 38.2127674,28.0403884 C38.0165191,28.2742161 37.7785159,28.4568941 37.4987577,28.5884221 C37.2189995,28.7199502 36.9037497,28.7857143 36.5530081,28.7857143 C36.214793,28.7857143 35.9068502,28.7189064 35.6291798,28.5852905 C35.3515094,28.4516747 35.1124623,28.266909 34.9120385,28.0309936 C34.7116148,27.7950781 34.5571215,27.5184515 34.4485586,27.2011139 C34.3399957,26.8837763 34.2857143,26.5413857 34.2857143,26.1739422 C34.2857143,25.7981476 34.3410396,25.4505376 34.4516902,25.1311123 C34.5623408,24.8116869 34.7168341,24.5350604 34.9151702,24.3012326 C35.1135062,24.0674049 35.3515094,23.884727 35.6291798,23.7531989 C35.9068502,23.6216708 36.214793,23.5559068 36.5530081,23.5559068 Z M84.2851794,23.5559068 C84.4187952,23.5559068 84.5503233,23.5653016 84.6797637,23.5840914 C84.809204,23.6028811 84.9323811,23.6279341 85.049295,23.6592503 C85.1662089,23.6905665 85.2737279,23.7271021 85.371852,23.768857 C85.4372681,23.7966937 85.4975808,23.8245303 85.5527901,23.8523669 L85.6317766,23.8941219 L85.462669,24.5016564 L85.3074798,24.4226699 C85.197989,24.373028 85.0764357,24.3294172 84.9428199,24.2918378 C84.7423961,24.2354686 84.5440601,24.207284 84.3478118,24.207284 C84.0847556,24.207284 83.8718054,24.2667848 83.7089611,24.3857864 C83.5461168,24.504788 83.4646946,24.6770272 83.4646946,24.9025039 C83.4646946,25.0945767 83.5461168,25.2626404 83.7089611,25.4066949 C83.8718054,25.5507495 84.1035454,25.6770582 84.404181,25.7856211 C84.6547107,25.877482 84.8707926,25.9724745 85.0524266,26.0705986 C85.2340607,26.1687228 85.3833346,26.2783295 85.5002485,26.3994189 C85.6171623,26.5205082 85.7038038,26.6572557 85.760173,26.8096613 C85.8165422,26.9620668 85.8447268,27.1384815 85.8447268,27.3389053 C85.8447268,27.5602065 85.8050596,27.7595864 85.7257252,27.9370449 C85.6463908,28.1145035 85.536784,28.2658652 85.396905,28.39113 C85.2570259,28.5163949 85.0900061,28.6134751 84.8958456,28.6823708 C84.701685,28.7512665 84.4897787,28.7857143 84.2601264,28.7857143 C83.9135604,28.7857143 83.6045737,28.7376961 83.3331665,28.6416597 C83.1296112,28.5696324 82.9331019,28.4788154 82.7436388,28.3692087 L82.5565245,28.2533387 L82.7820012,27.6520674 L82.9417139,27.7587382 C83.1045582,27.8593416 83.2767974,27.9417424 83.4584314,28.0059406 C83.7006101,28.0915382 83.9469643,28.1343371 84.197494,28.1343371 C84.3394608,28.1343371 84.4647257,28.1145035 84.5732886,28.0748363 C84.6818514,28.0351691 84.7726685,27.9808876 84.8457396,27.911992 C84.9188108,27.8430963 84.9741361,27.7637619 85.0117155,27.6739887 C85.049295,27.5842156 85.0680847,27.4892231 85.0680847,27.3890112 C85.0680847,27.2762728 85.0472072,27.176061 85.0054523,27.0883756 C84.9636973,27.0006902 84.9000211,26.919268 84.8144234,26.8441091 C84.7288258,26.7689502 84.6213068,26.6990106 84.4918664,26.6342905 C84.3624261,26.5695703 84.2121082,26.5038063 84.0409129,26.4369983 C83.594135,26.2699785 83.2600954,26.0705986 83.0387941,25.8388587 C82.8174929,25.6071187 82.7068423,25.3096147 82.7068423,24.9463466 C82.7068423,24.7459229 82.7433779,24.5611572 82.816449,24.3920497 C82.8895202,24.2229421 82.9939076,24.0757559 83.1296112,23.9504911 C83.2653147,23.8252262 83.4302468,23.7281459 83.6244073,23.6592503 C83.8185678,23.5903546 84.0388252,23.5559068 84.2851794,23.5559068 Z M59.8357581,23.6811716 L59.8357581,24.3074959 L58.3764226,24.3074959 L58.3764226,28.6604494 L57.6310967,28.6604494 L57.6310967,24.3074959 L56.1717612,24.3074959 L56.1717612,23.6811716 L59.8357581,23.6811716 Z M61.7477552,23.6811716 L61.7477552,25.8044108 L64.0025226,25.8044108 L64.0025226,23.6811716 L64.7478484,23.6811716 L64.7478484,28.6604494 L64.0025226,28.6604494 L64.0025226,26.4432616 L61.7477552,26.4432616 L61.7477552,28.6604494 L61.0024294,28.6604494 L61.0024294,23.6811716 L61.7477552,23.6811716 Z M90.5188139,23.6811716 L90.5188139,24.3074959 L89.0594784,24.3074959 L89.0594784,28.6604494 L88.3141525,28.6604494 L88.3141525,24.3074959 L86.854817,24.3074959 L86.854817,23.6811716 L90.5188139,23.6811716 Z M81.3898532,23.6811716 L81.3898532,24.3200224 L78.9972946,24.3200224 L78.9972946,25.8294638 L81.15185,25.8294638 L81.15185,26.4244719 L78.9972946,26.4244719 L78.9972946,28.0215987 L81.4336959,28.0215987 L81.4336959,28.6604494 L78.2394422,28.6604494 L78.2394422,23.6811716 L81.3898532,23.6811716 Z M41.2145687,23.6811716 L43.1436474,27.8023852 L43.1561739,27.8023852 L43.1561739,23.6811716 L43.9014997,23.6811716 L43.9014997,28.6604494 L42.8430117,28.6604494 L40.9327228,24.6081315 L40.9201963,24.6018683 L40.9201963,28.6604494 L40.1748704,28.6604494 L40.1748704,23.6811716 L41.2145687,23.6811716 Z M46.0828163,23.6749084 L46.0828163,28.0215987 L48.3876895,28.0215987 L48.3876895,28.6604494 L45.3374904,28.6604494 L45.3374904,23.6749084 L46.0828163,23.6749084 Z M75.2376409,23.6811716 L75.4002895,23.6862605 C75.5596107,23.6964383 75.7089499,23.7218827 75.848307,23.7625938 C76.0341166,23.8168752 76.1948731,23.8972535 76.3305767,24.0037286 C76.4662803,24.1102037 76.5717115,24.2417318 76.6468704,24.3983129 C76.7220294,24.554894 76.7596088,24.7354841 76.7596088,24.9400834 C76.7596088,25.2114905 76.6854938,25.4411428 76.5372637,25.6290401 C76.4186796,25.7793579 76.2673597,25.8976079 76.0833039,25.9837901 L75.939124,26.0424141 L75.939124,26.0737303 L76.1011854,26.1288816 C76.3595442,26.2292095 76.5591851,26.3715822 76.700108,26.5559999 C76.8692156,26.7773012 76.9537693,27.0320064 76.9537693,27.3201155 C76.9537693,27.5330658 76.9161899,27.7230508 76.841031,27.8900706 C76.7658721,28.0570904 76.6614847,28.1969695 76.5278688,28.3097079 C76.394253,28.4224462 76.2334964,28.5090877 76.0455992,28.5696324 C75.9046762,28.6150409 75.753184,28.6434212 75.5911226,28.6547734 L75.4255382,28.6604494 L73.3461416,28.6604494 L73.3461416,23.6811716 L75.2376409,23.6811716 Z M69.3342501,23.6811716 L69.3342501,24.3200224 L66.9416915,24.3200224 L66.9416915,25.8294638 L69.0962469,25.8294638 L69.0962469,26.4244719 L66.9416915,26.4244719 L66.9416915,28.0215987 L69.3780928,28.0215987 L69.3780928,28.6604494 L66.1838391,28.6604494 L66.1838391,23.6811716 L69.3342501,23.6811716 Z M49.5355711,23.6749084 L50.6504282,26.1614157 L51.7715487,23.6749084 L52.5607172,23.6749084 L51.0199596,26.7564237 L51.0199596,28.6604494 L50.2746337,28.6604494 L50.2746337,26.7501605 L48.7276128,23.6749084 L49.5355711,23.6749084 Z M36.5530081,24.2260737 C36.3150049,24.2260737 36.1030985,24.2772235 35.917289,24.3795232 C35.7314794,24.4818228 35.5738545,24.620658 35.4444142,24.7960288 C35.3149738,24.9713996 35.2158058,25.1780866 35.1469101,25.4160898 C35.0780145,25.654093 35.0435666,25.9067105 35.0435666,26.1739422 C35.0435666,26.4453493 35.0790583,26.6990106 35.1500418,26.9349261 C35.2210252,27.1708416 35.3212371,27.3764847 35.4506774,27.5518555 C35.5801177,27.7272263 35.7377427,27.8650176 35.9235522,27.9652295 C36.1093617,28.0654414 36.3191804,28.1155473 36.5530081,28.1155473 C36.7910113,28.1155473 37.0050054,28.0654414 37.1949904,27.9652295 C37.3849755,27.8650176 37.5446881,27.7272263 37.6741285,27.5518555 C37.8035688,27.3764847 37.9027368,27.1708416 37.9716325,26.9349261 C38.0405282,26.6990106 38.074976,26.4453493 38.074976,26.1739422 C38.074976,25.9067105 38.0394843,25.654093 37.9685009,25.4160898 C37.8975175,25.1780866 37.7962617,24.9713996 37.6647336,24.7960288 C37.5332055,24.620658 37.3734929,24.4818228 37.1855956,24.3795232 C36.9976983,24.2772235 36.7868358,24.2260737 36.5530081,24.2260737 Z M75.2000614,26.3555762 L74.0914675,26.3555762 L74.0914675,28.0215987 L75.3002733,28.0215987 C75.5716805,28.0215987 75.790894,27.9547908 75.9579138,27.8211749 C76.1249336,27.6875591 76.2084435,27.4933986 76.2084435,27.2386934 C76.2084435,27.1134285 76.1833905,26.9965147 76.1332846,26.8879518 C76.0831786,26.7793889 76.0121952,26.6864842 75.9203343,26.6092375 C75.8284734,26.5319908 75.7209544,26.4704023 75.5977773,26.4244719 C75.4746002,26.3785414 75.3420283,26.3555762 75.2000614,26.3555762 Z M17.5496402,26.7051555 C17.5299054,26.7031639 17.5105327,26.7080523 17.4943386,26.7184528 L17.4727832,26.7380166 L17.2864799,26.9775495 L17.270584,27.0099989 C17.261902,27.0444089 17.2745304,27.0824469 17.3054904,27.1038338 C18.0629249,27.6230933 18.964568,27.9210157 19.9531164,27.9210157 C20.0595754,27.9210157 20.1641334,27.9134115 20.2684199,27.9058073 L20.2968338,27.8922283 L20.2968338,27.8922283 L20.3254515,27.8786493 L20.5285928,27.6627439 L20.5429143,27.6380514 C20.5482356,27.6202714 20.5452567,27.6008111 20.5348943,27.5854074 L20.5139275,27.5660616 L19.3358168,26.8941746 L19.3188431,26.8886073 L19.3018694,26.8830399 L17.5496402,26.7051555 Z M14.6492096,24.4468341 L14.6227221,24.4507763 C14.4209388,24.5281763 14.2177975,24.5968859 14.0135699,24.6468565 C13.9951025,24.6513828 13.9802562,24.663634 13.9724106,24.6797477 L13.9663151,24.7063323 L13.9663151,25.7701082 L13.9590538,25.9024578 C13.8919404,26.5076671 13.3688803,26.9343444 12.7775808,26.9885448 L12.6499706,26.9943874 L11.9278414,26.9943874 L11.8829591,27.0016222 C11.840671,27.0157009 11.8073189,27.0491377 11.7932858,27.0913737 L11.786077,27.1361517 L11.786077,27.7792513 L11.7932837,27.8240293 C11.8073102,27.8662653 11.8406362,27.8997022 11.8828201,27.9137808 L11.9275698,27.9210157 L16.9515141,27.9210157 L16.9892057,27.9127338 C17.0440622,27.8864497 17.0571131,27.8043724 16.9984973,27.7656724 C15.8638392,27.0174716 15.0273752,25.8564704 14.7047391,24.4942289 C14.7003938,24.4760331 14.6887159,24.4618431 14.6737111,24.4538655 L14.6492096,24.4468341 Z M21.5707499,24.6366964 L21.5462273,24.6432445 L19.7318065,25.42322 L19.7085814,25.4379859 L19.6913914,25.4589679 L19.6913914,25.4589679 L19.6815643,25.4845969 L19.4357851,26.6390803 L19.4357951,26.6752305 L19.4501687,26.7075786 L19.4501687,26.7075786 L19.4767936,26.7319603 L20.6654959,27.4223148 L20.6907125,27.4318904 L20.7173172,27.4333791 L20.7173172,27.4333791 L20.7434391,27.42666 L22.4302177,26.6925814 L22.4523766,26.6786101 L22.4691642,26.6588452 L22.4691642,26.6588452 L22.4793736,26.634735 L22.8128729,25.3376726 L22.8138988,25.2989071 C22.8105192,25.2822235 22.8022578,25.2667915 22.7900446,25.2547094 L22.768877,25.2393609 L21.6200969,24.6456887 L21.5959364,24.6375715 L21.5707499,24.6366964 Z M15.5664539,24.0019363 L15.5341662,24.0021374 L15.5056805,24.0192369 L15.3636446,24.1677907 L15.3486059,24.1945073 L15.3476214,24.2250939 C15.5866111,25.3084235 16.1661612,26.220115 17.0083284,26.8808672 C17.0364369,26.9028652 17.0741694,26.9046983 17.1038819,26.8886582 L17.1302675,26.8667451 L17.3187435,26.6372607 L17.3345152,26.6080206 L17.338096,26.5755217 L17.338096,26.5755217 L17.3290635,26.5435658 L16.5621237,25.0186484 L16.5545195,25.0080229 L16.5469153,24.9971937 L15.5953017,24.0186937 L15.5664539,24.0019363 Z M24.0395148,23.757 C24.0181505,23.7555515 23.9973898,23.7619487 23.9808537,23.7745017 L23.9596705,23.7977368 L23.0463495,25.27377 L23.0412914,25.286025 L23.0360295,25.2984837 L22.7087765,26.625963 L22.7080594,26.6530191 C22.7114796,26.6702983 22.7222155,26.6854049 22.7373815,26.6944009 L22.7630924,26.7028199 L23.0373874,26.7294347 L23.1052822,26.7071652 C23.9124157,25.9815055 24.4623636,25.0206581 24.6179785,23.8941475 C24.6232743,23.8568732 24.603517,23.8217377 24.5721114,23.8048955 L24.5373195,23.7947495 L24.0395148,23.757 Z M75.1311658,24.3074959 L74.0914675,24.3074959 L74.0914675,25.8044108 L75.1562187,25.8044108 C75.2731326,25.8044108 75.3837832,25.786665 75.4881706,25.7511733 C75.592558,25.7156816 75.683375,25.6645318 75.7606216,25.5977238 C75.8378683,25.5309159 75.8994568,25.4505376 75.9453873,25.356589 C75.9913177,25.2626404 76.014283,25.1572091 76.014283,25.0402953 C76.014283,24.793941 75.9307731,24.6102193 75.7637533,24.4891299 C75.5967335,24.3680406 75.385871,24.3074959 75.1311658,24.3074959 Z M20.0388922,21.2496306 L20.0099036,21.256923 L18.3106323,22.0119133 L18.285637,22.0287411 L18.2681855,22.0527507 L18.2681855,22.0527507 L18.259847,22.0817091 L18.0526321,24.045227 L18.0547041,24.0750504 L18.0666737,24.1020373 L18.0666737,24.1020373 L18.0873942,24.1237134 L19.5715747,25.2160051 L19.5982699,25.2292823 L19.6276206,25.2326016 L19.6276206,25.2326016 L19.6568506,25.2257819 L21.4419409,24.4561264 L21.4672682,24.4392885 L21.4850516,24.4152084 L21.4850516,24.4152084 L21.4935409,24.3860589 L21.7048296,22.4627348 L21.7027777,22.4323179 L21.6904057,22.4047979 L21.6904057,22.4047979 L21.6689811,22.3828905 L20.0951795,21.265342 L20.0681825,21.2525375 L20.0388922,21.2496306 Z M17.7886922,21.7265579 L17.7544934,21.7285093 L17.7257864,21.7498936 C17.2201059,22.4277554 16.515901,23.1145793 15.6655864,23.7090662 C15.6449464,23.7235504 15.635773,23.7479322 15.6397562,23.7707046 L15.6558095,23.8022179 L15.9062056,24.0656498 L16.6180148,24.8114063 L16.6521332,24.833193 C16.6689375,24.8389867 16.6872798,24.8395232 16.704561,24.8345163 L16.7293622,24.8228127 L17.7991128,24.0871045 L17.8174444,24.0560087 L17.835776,24.0249129 L18.0416331,22.040755 L18.0400237,22.0049971 L18.0285772,21.9714118 L18.0285772,21.9714118 L18.0079573,21.9421717 L17.8197529,21.744462 L17.7886922,21.7265579 Z M12.3445526,6.0790485 C10.510578,6.07444892 8.76323722,6.99591726 7.39257683,8.72642013 C6.02191644,10.4571946 5.33210519,12.5646494 5.33210519,15.1093469 C5.26909881,17.1586837 6.0107817,19.4950799 6.95343321,20.8907256 C7.89608473,22.2863712 9.6933961,24.1206174 12.3695379,24.1122273 C15.045408,24.1035079 16.5116643,22.4045082 17.1520482,21.7130675 C17.792432,21.0216268 18.5658896,19.716417 19.0780881,17.838175 C19.5446612,16.040592 19.5169601,14.1178111 19.0020459,12.1059521 C18.9898248,12.0586973 18.9543837,12.0215249 18.909815,12.0058921 L18.8627258,11.9978636 L17.146345,11.9978636 L17.0954185,12.0073536 C17.0326293,12.0318001 16.992957,12.0999774 17.0083827,12.170588 C17.1971303,13.0344815 17.3426968,13.812556 17.3413389,14.7530349 C17.3481284,15.8771013 17.2601367,16.7999276 17.0347259,17.9688046 C16.8473363,18.941873 16.3082515,20.2916218 15.7797583,21.1134205 C14.5332096,23.0524963 13.0340922,23.0989363 12.3605757,23.0989363 C10.8717784,23.0989363 9.49297062,22.1448785 8.6994161,20.7017064 C7.90613316,19.258806 7.37220839,16.9650478 7.39257683,15.0430815 C7.39257683,13.017372 7.81515412,11.0677047 8.76323722,9.39504821 C9.71159191,7.72212013 11.0121849,7.08771104 12.3312452,7.08771104 C13.6500339,7.08771104 14.4234916,7.55428416 15.0198796,8.11563844 C15.2512651,8.33344498 15.7846467,9.05285837 16.0048975,9.47163355 C16.0448739,9.54767573 16.1142244,9.6023392 16.1954288,9.6211629 L16.2582809,9.62833477 L17.7229077,9.62833477 L17.767221,9.62156033 C17.8499347,9.59527969 17.8941966,9.49751117 17.8464763,9.41650296 C17.3231431,8.52979677 15.4728738,6.0747205 12.3445526,6.0790485 Z M23.5755166,20.2365184 L23.5354637,20.2487394 L23.3065224,20.3853438 L23.283237,20.4057323 L23.2687025,20.4325784 L23.2687025,20.4325784 L23.2644276,20.463287 L23.3287919,21.9265559 L23.9811252,23.5177387 L23.9985063,23.5443936 L24.0238537,23.5627806 L24.0238537,23.5627806 L24.0544516,23.5709682 L24.5902775,23.6114335 L24.6220824,23.6052777 C24.641274,23.5959233 24.6552754,23.5770334 24.657086,23.5544018 C24.6668628,23.4357217 24.6717512,23.3284479 24.6717512,23.2024352 C24.6717512,22.0935772 24.2890961,21.0746119 23.6489838,20.2691079 L23.6158109,20.2436699 L23.6158109,20.2436699 L23.5755166,20.2365184 Z M21.6063902,19.2862566 L21.5801476,19.2884896 L20.1684787,19.638012 L20.1339472,19.655544 C20.1208972,19.6664474 20.1112613,19.6810523 20.1064448,19.6975706 L20.1030103,19.7235595 L20.1271987,20.998624 L20.1318658,21.0251382 L20.1442579,21.0486952 L20.1442579,21.0486952 L20.1635903,21.0676051 L21.8031141,22.2291495 L21.8261078,22.2406061 L21.8510931,22.2449413 L21.8510931,22.2449413 L21.8764405,22.2419137 L23.0526502,21.9124881 L23.0864869,21.8941917 C23.099174,21.8829933 23.1083921,21.8681827 23.1128059,21.8516674 L23.1156565,21.8258543 L23.0588965,20.4579097 L23.026307,20.393817 L21.6548318,19.3047843 L21.6318482,19.2918089 L21.6063902,19.2862566 Z M19.1849002,10.4160467 L11.9277599,10.4160467 L11.8829819,10.423282 C11.8407459,10.4373613 11.8073091,10.4707996 11.7932304,10.5130363 L11.7859956,10.5578147 L11.7859956,11.0488299 L11.7933717,11.0938317 C11.807711,11.136348 11.8417019,11.1702215 11.8841986,11.184776 L11.9291178,11.1924954 L12.8098493,11.1924954 L12.9180425,11.1967636 C13.4230946,11.246658 13.9199726,11.7073008 13.9769401,12.2044479 L13.9822568,12.3114018 L13.9814826,13.0624233 L13.9812553,13.2265443 L13.9804316,13.7887683 L13.9801143,13.9970554 L13.9794236,14.4406137 L13.9788617,14.7940491 L13.9788617,14.7940491 L13.9782673,15.1625756 L13.9774319,15.6732053 C13.9769559,15.9620666 13.9764619,16.2586663 13.975958,16.5585453 L13.9751958,17.0102657 L13.9749242,21.8832119 L13.9825822,21.930161 C14.0122026,22.0168843 14.121577,22.0574882 14.2014213,21.996732 C14.767664,21.5654642 16.132078,20.2762776 16.1470149,18.2212375 C16.1519033,17.5382545 16.154996,16.7592988 16.1559509,15.8847123 L16.1562486,15.4394514 L16.1562486,14.8862445 L16.1559317,14.395277 C16.1551019,13.5630501 16.1527633,12.6611053 16.1489159,11.6897569 C16.1479503,11.4461805 16.3231558,11.2427308 16.5547485,11.2005269 L16.6440049,11.1924954 L19.4290499,11.1924954 L19.5597399,11.1981181 C19.6465849,11.2057424 19.732585,11.2213733 19.8160503,11.2465396 C20.0751369,11.3244829 20.4700131,11.5039967 20.762504,11.9097361 C21.235595,12.5666863 21.6014122,13.4001629 21.5609469,14.9191056 C21.5609469,15.8093423 21.112298,17.3614176 20.0650885,17.909193 C20.0322274,17.9263024 20.0422758,17.9754583 20.0792106,17.9787172 C20.262255,17.9939257 20.5865206,18.0232562 20.7869461,18.0525868 C21.078079,18.0952247 21.2809487,18.1155932 21.6712081,18.2483954 C21.7236229,18.2663196 21.7820124,18.2608881 21.8289956,18.2318291 C23.2724392,17.3380618 23.9437831,15.9318246 23.9168968,14.6057032 C23.939981,13.3379713 23.3509256,12.1329742 22.3680804,11.3424071 C21.3849636,10.5515684 20.3638256,10.4152356 19.1849002,10.4160467 Z M88.5569586,11.2754312 L88.5569586,17.0471852 L88.5520461,17.3517609 C88.5356711,17.8489666 88.4783584,18.2940698 88.3801082,18.6870707 C88.2790508,19.0913002 88.1110594,19.4364702 87.8761338,19.7225807 L87.7530931,19.8607143 L84.8431002,19.8607143 L85.0440666,19.7047644 C85.3055908,19.486113 85.5413913,19.2245888 85.7514682,18.9201917 C85.9702982,18.6031114 86.1314435,18.2543976 86.2349039,17.8740501 L86.290058,17.6420456 L79.0231143,17.6420456 L79.0231143,19.8607143 L76.820523,19.8607143 L76.820523,11.2754312 L88.5569586,11.2754312 Z M63.6210522,5.29467226 L63.5208202,5.66470158 C63.3128201,6.42133994 63.0596024,7.27745664 62.7611674,8.2330517 L62.6081817,8.71913909 L62.6081817,19.8607143 L60.5985181,19.8607143 L60.5985181,12.5776933 L59.0711737,12.5776933 L59.3337698,11.9033395 C59.5052611,11.4543657 59.6696069,11.0065829 59.8268073,10.559991 C60.0626078,9.8901031 60.282331,9.24165164 60.4859769,8.61463658 C60.6896229,7.98762153 60.8745119,7.39276109 61.0406441,6.83005528 C61.1735499,6.37989062 61.2910214,5.96230931 61.3930587,5.57731135 L61.4666928,5.29467226 L63.6210522,5.29467226 Z M69.6500431,5.21428571 L69.6500431,6.82201662 L73.6372158,6.82201662 L73.6372158,8.63875255 L72.4796495,8.63875255 L72.5079456,9.10885307 C72.5491035,9.74508578 72.6039807,10.4190466 72.6725772,11.1307355 C72.7583229,12.0203466 72.8547867,12.9287145 72.9619688,13.8558393 C73.0691509,14.7829642 73.181692,15.710089 73.2995923,16.6372138 C73.3880175,17.3325574 73.4764427,18.0022778 73.5648679,18.646375 L73.6532931,19.2819312 L71.6757841,19.2819312 L71.6029338,18.6539113 C71.529581,18.0168479 71.4547211,17.3526541 71.3783538,16.6613298 C71.2765309,15.7395641 71.1827466,14.8151188 71.0970009,13.887994 C71.0112553,12.9608691 70.9281892,12.0498216 70.8478027,11.1548514 C70.7834934,10.4388753 70.7311886,9.75891226 70.6908881,9.11496244 L70.6629136,8.63875255 L69.6500431,8.63875255 L69.6500431,15.6806139 L70.9040732,15.6806139 L70.9040732,17.4330406 L69.6500431,17.4330406 L69.6500431,19.8607143 L67.6564568,19.8607143 L67.6564568,17.4330406 L66.4024267,17.4330406 L66.4024267,15.6806139 L67.6564568,15.6806139 L67.6564568,8.63875255 L66.5792771,8.63875255 L66.5212201,9.53282957 C66.4795382,10.1318582 66.4319018,10.7368414 66.3783107,11.3477791 C66.2979242,12.2641857 66.209499,13.1752333 66.1130351,14.0809217 C66.0165713,14.9866101 65.9120688,15.8762212 65.7995276,16.749755 C65.7245002,17.3321108 65.6482818,17.9013667 65.5708725,18.4575225 L65.4538655,19.2819312 L63.4442018,19.2819312 L63.5476995,18.6624523 C63.6501923,18.0344325 63.7496707,17.3807894 63.8461345,16.7015231 C63.974753,15.7958346 64.0953328,14.8821076 64.207874,13.9603419 C64.3204152,13.0385761 64.4222381,12.1248491 64.5133429,11.2191607 C64.5816714,10.5398943 64.6424638,9.88625125 64.6957198,9.25823136 L64.7464639,8.63875255 L63.6853615,8.63875255 L63.6853615,6.82201662 L67.6564568,6.82201662 L67.6564568,5.21428571 L69.6500431,5.21428571 Z M19.9532522,18.4836917 C19.7161635,18.4836917 19.4907527,18.5032454 19.2707735,18.534477 C19.2455167,18.5380075 19.2254198,18.5559317 19.2194451,18.5806455 C19.1634998,18.8044267 19.0928892,19.0485765 19.0048975,19.3068483 C18.9951206,19.3357715 19.0073417,19.3660696 19.0311346,19.3806712 L19.0583986,19.3894084 L20.0488481,19.4654506 L20.0765491,19.4630064 L21.4159779,19.1284208 L21.4488051,19.1121727 C21.4674761,19.0972273 21.4792219,19.0750003 21.4810551,19.0511607 L21.4759969,19.0149006 L21.3741547,18.7381614 L21.3609881,18.7143027 C21.3499238,18.7000196 21.3345947,18.6892771 21.3168515,18.6838456 C20.8853121,18.5537591 20.4274295,18.4836917 19.9532522,18.4836917 Z M41.2575153,6.00207386 C42.12569,6.00207386 42.9215168,6.16820605 43.6449957,6.50047044 C44.3684746,6.83273483 44.9901305,7.29897679 45.5099635,7.89919633 C46.0297965,8.49941587 46.4317293,9.21217657 46.7157617,10.0374784 C46.9997942,10.8627803 47.1418104,11.7631096 47.1418104,12.7384664 C47.1418104,13.7138231 46.9997942,14.6114729 46.7157617,15.4314156 C46.4317293,16.2513584 46.0324761,16.9560804 45.5180022,17.5455818 C45.0035283,18.1350831 44.3845519,18.595966 43.661073,18.9282304 C42.9375941,19.2604947 42.1364082,19.4266269 41.2575153,19.4266269 C40.4000588,19.4266269 39.6095911,19.2604947 38.8861122,18.9282304 C38.1626333,18.595966 37.5409773,18.1324036 37.0211443,17.5375431 C36.5013114,16.9426827 36.0940195,16.2352811 35.7992689,15.4153383 C35.5045182,14.5953956 35.3571429,13.7031049 35.3571429,12.7384664 C35.3571429,11.7523914 35.5045182,10.846703 35.7992689,10.0214011 C36.0940195,9.19609926 36.5039909,8.48601811 37.029183,7.89115768 C37.5543751,7.29629724 38.1787106,6.83273483 38.9021895,6.50047044 C39.6256684,6.16820605 40.410777,6.00207386 41.2575153,6.00207386 Z M53.3958836,6.32362004 L53.749906,6.33230179 C54.2137899,6.35545311 54.6450906,6.42490709 55.0438078,6.54066371 C55.5422044,6.6853595 55.9709326,6.89704406 56.3299926,7.17571742 C56.6890525,7.45439078 56.9677258,7.79469382 57.1660126,8.19662655 C57.3642994,8.59855928 57.4634428,9.05676258 57.4634428,9.57123647 C57.4634428,10.2464835 57.2758742,10.8279461 56.900737,11.3156245 C56.572492,11.7423431 56.1457734,12.0685366 55.6205813,12.2942051 L55.38947,12.3847656 L55.38947,12.4329975 L55.6373821,12.5116155 C56.3627903,12.7614569 56.9232453,13.1371836 57.3187471,13.6387957 C57.7581935,14.1961424 57.9779167,14.8553121 57.9779167,15.6163047 C57.9779167,16.1736514 57.8787733,16.6693684 57.6804865,17.1034558 C57.4821997,17.5375431 57.2035263,17.9019621 56.8444664,18.1967128 C56.4854065,18.4914635 56.0539987,18.7165458 55.5502431,18.8719598 C55.1304467,19.0014714 54.6771559,19.0770199 54.1903707,19.0986052 L53.8942802,19.1050808 L48.4119178,19.1050808 L48.4119178,6.32362004 L53.3958836,6.32362004 Z M41.2575153,8.09212404 C40.7323232,8.09212404 40.2526835,8.20734475 39.8185961,8.43778618 C39.3845088,8.66822761 39.0120511,8.98709424 38.7012231,9.39438607 C38.3903952,9.8016779 38.1492355,10.2920358 37.9777442,10.8654599 C37.8062529,11.4388839 37.7205073,12.0632194 37.7205073,12.7384664 C37.7205073,13.4137133 37.8062529,14.0326897 37.9777442,14.5953956 C38.1492355,15.1581014 38.3903952,15.6431002 38.7012231,16.050392 C39.0120511,16.4576839 39.3845088,16.7765505 39.8185961,17.0069919 C40.2526835,17.2374334 40.7323232,17.3526541 41.2575153,17.3526541 C41.7934256,17.3526541 42.2784244,17.2401129 42.7125118,17.0150306 C43.1465991,16.7899483 43.5190568,16.4737612 43.8298847,16.0664693 C44.1407127,15.6591775 44.3791928,15.1714991 44.545325,14.6034342 C44.7114572,14.0353693 44.7945233,13.4137133 44.7945233,12.7384664 C44.7945233,12.0632194 44.7087776,11.4388839 44.5372863,10.8654599 C44.365795,10.2920358 44.1246354,9.8016779 43.8138074,9.39438607 C43.5029795,8.98709424 43.1305218,8.66822761 42.6964345,8.43778618 C42.2623471,8.20734475 41.7827074,8.09212404 41.2575153,8.09212404 Z M53.2994198,13.3333268 L50.759205,13.3333268 L50.759205,17.1597264 L53.5405794,17.1597264 C54.1515172,17.1597264 54.6525933,16.9989533 55.0438078,16.6774071 C55.4350223,16.3558609 55.6306296,15.9056963 55.6306296,15.3269131 C55.6306296,15.0482398 55.5716795,14.7883233 55.4537792,14.5471636 C55.3358789,14.306004 55.1724263,14.0943194 54.9634213,13.9121099 C54.7544163,13.7299004 54.5078975,13.5878842 54.2238651,13.4860612 C53.9398326,13.3842383 53.6316842,13.3333268 53.2994198,13.3333268 Z M86.3543673,15.2626039 L79.0231143,15.2626039 L79.0231143,16.2593971 L86.3543673,16.2593971 L86.3543673,15.2626039 Z M86.3543673,12.8831621 L79.0231143,12.8831621 L79.0231143,13.8799553 L86.3543673,13.8799553 L86.3543673,12.8831621 Z M53.1225694,8.25289713 L50.759205,8.25289713 L50.759205,11.677364 L53.1386467,11.677364 C53.6959934,11.677364 54.1649149,11.52195 54.5454112,11.211122 C54.9259076,10.900294 55.1161557,10.4715658 55.1161557,9.92493727 C55.1161557,9.37830877 54.9259076,8.96297828 54.5454112,8.67894582 C54.1649149,8.39491336 53.6906343,8.25289713 53.1225694,8.25289713 Z M83.7016113,5.23036302 L83.8480934,5.48224087 L83.9874301,5.74483691 L83.9874301,5.74483691 L84.1196213,6.01815117 L89.7145249,6.01815117 L89.7145249,7.64195939 L81.0970872,7.64195939 L80.9050527,7.90544862 C80.7776251,8.07813083 80.6513885,8.24485848 80.5263427,8.40563157 C80.401297,8.56640466 80.2726785,8.71884137 80.1404873,8.86294169 L79.9395209,9.07283989 L86.0488984,9.07283989 L85.4540379,8.05996942 L87.6887839,8.05996942 L87.9245844,8.45386349 C88.0817848,8.72181865 88.2389852,9.000492 88.3961855,9.28988357 C88.5533859,9.57927513 88.712968,9.87462125 88.874932,10.1759219 L89.1196644,10.6323389 L75.936271,10.6323389 L76.2189637,10.3574615 C76.6789533,9.90565939 77.083119,9.48549083 77.4314607,9.09695586 C77.7101341,8.78612788 77.9792801,8.46696352 78.2388989,8.13946278 L78.6211816,7.64195939 L75.1967148,7.64195939 L75.1967148,6.01815117 L81.3060922,6.01815117 L81.2076187,5.81115581 L81.1051258,5.60817979 L81.002633,5.41324241 L81.002633,5.41324241 L80.9041595,5.23036302 L83.7016113,5.23036302 Z" id="形状结合" fill="#FFFFFF" opacity="0.400000006" mask="url(#mask-2)"></path>
            </g>
        </g>
    </g>
</svg>