<?xml version="1.0" encoding="UTF-8"?>
<svg width="92px" height="34px" viewBox="0 0 92 34" version="1.1" xmlns="http://www.w3.org/2000/svg" xmlns:xlink="http://www.w3.org/1999/xlink">
    <title>footer_ag_hover</title>
    <defs>
        <rect id="path-1" x="0" y="0" width="92" height="34"></rect>
    </defs>
    <g id="模版编号_首页" stroke="none" stroke-width="1" fill="none" fill-rule="evenodd">
        <g id="标准footer文件备份" transform="translate(-1193.000000, -27.000000)">
            <g id="合作品牌" transform="translate(299.000000, 27.000000)">
                <g id="AG" transform="translate(894.000000, 0.000000)">
                    <mask id="mask-2" fill="white">
                        <use xlink:href="#path-1"></use>
                    </mask>
                    <use id="蒙版" fill="#D8D8D8" opacity="0" xlink:href="#path-1"></use>
                    <g mask="url(#mask-2)" fill="#FFFFFF" id="形状结合">
                        <g transform="translate(0.000000, 5.000000)">
                            <path d="M19.6963137,2.69518717 L17.5333812,13.8647281 C16.2974198,10.8993633 15.0957906,7.9669469 13.8598291,5.00158205 C13.8598291,4.93568505 13.8254969,4.83683956 13.7225001,4.77094256 C9.77428994,9.81206281 5.82607978,14.8861316 1.87786963,19.9272518 C2.01519868,20.0260973 2.11819547,19.9931488 2.22119225,19.9931488 C2.77050845,19.9931488 3.35415691,19.9602003 3.9034731,19.9931488 C4.24679572,20.0260973 4.4527893,19.8943033 4.65878287,19.6307153 C5.62008621,18.3786724 6.65005408,17.1266294 7.61135742,15.841638 C7.85549795,15.5487625 8.09963848,15.3860538 8.48845488,15.3535121 L8.64132528,15.3474105 L15.0461588,15.3475863 C15.5775104,15.3500464 15.592464,15.3869487 15.8167681,15.9404835 C16.07426,16.5335565 16.3124401,17.1080959 16.5457922,17.678002 L16.7780714,18.2468784 L16.7094069,18.2468784 L16.1257584,21.1463462 L21.3442623,21.1463462 C21.2412655,21.7064707 21.1382687,22.2665952 21.0352719,22.8267197 C20.9494413,22.936548 20.8397688,22.9090909 20.7459908,22.8968878 L20.6919493,22.8926167 L0.367250096,22.8926167 C0.0239274738,22.8926167 -0.0447370506,22.8267197 0.0239274738,22.5301832 C0.641908193,19.1035393 1.29422117,15.643947 1.91220189,12.2173032 C2.46151809,9.12014435 3.04516655,6.055934 3.59448274,2.95877515 C3.62500031,2.72447472 3.73689805,2.69844134 3.90606333,2.69554874 L19.6963137,2.69518717 Z M89.1342531,15.6287396 C89.3227382,14.7758038 89.9353148,14.7309125 90.6892553,14.7758038 C91.0191042,14.8206952 91.0662255,14.9104779 90.9248617,15.179826 C90.5950127,16.1674359 90.2651638,17.1550457 89.9353148,18.1426556 C89.6997084,18.9058087 89.4169808,19.6240704 89.1813744,20.3423321 C88.5687978,22.1828777 87.6734935,22.856248 85.1289445,22.6766826 C84.7519743,22.6766826 84.4221253,22.5868999 84.0922764,22.4522258 C83.4796998,22.1379863 83.1498508,21.5095073 83.2912147,20.8810283 C83.338336,20.7014629 83.4325785,20.6565716 83.5739423,20.7014629 C83.9980338,20.7912456 84.4221253,20.836137 84.8462168,20.8810283 C84.9875807,20.9259197 85.1289445,20.9708111 85.1289445,21.1503765 C85.1289445,21.4197246 85.3645509,21.5095073 85.6001573,21.5543987 C86.401219,21.7339641 87.0609169,21.4197246 87.3436446,20.6565716 C87.4378871,20.4321148 87.4850084,20.207658 87.6263722,19.8485271 C87.0137956,20.207658 86.5425828,20.4321148 85.9300062,20.4321148 C84.7990956,20.4321148 84.0922764,19.9383099 83.9509126,18.8609173 C83.8095487,17.7386334 84.3750041,15.808305 85.8828849,15.045152 C87.1551594,14.3717816 88.2389488,14.5513471 89.1342531,15.6287396 Z M53.5576884,12.6210187 C54.6414778,12.8903669 55.348297,13.5188459 55.5839034,14.5962384 C55.6781459,14.8655866 55.5839034,15.0002606 55.3011757,15.0002606 C55.2069332,15.0002606 55.0655693,15.045152 54.9713268,15.045152 C54.4058714,15.1349347 53.9817799,15.179826 53.651931,14.4615643 C53.3692033,13.788194 52.3325352,13.6086286 51.3429884,13.9228681 C49.6937437,14.3717816 48.3743479,16.4816754 48.7984394,18.0977642 C48.9869245,18.8160259 49.6466224,19.2200482 50.5890479,19.1751568 C51.2487458,19.1302654 51.8613224,19.0404827 52.473899,18.7711346 C52.9922331,18.5915692 52.8508693,18.0079815 53.1335969,17.559068 L51.2487458,17.559068 C50.9660182,17.559068 50.9188969,17.5141766 51.0131394,17.2448285 C51.2830158,16.2592591 51.295283,16.2144605 52.2794397,16.2124242 L54.9242055,16.2123273 C55.2069332,16.2123273 55.2540544,16.30211 55.1598119,16.5265667 C54.8299629,17.4692852 54.500114,18.4568951 54.170265,19.3996136 C54.1231438,19.5342876 54.0760225,19.6240704 53.9346587,19.6689617 C52.3796565,20.3872234 50.777533,20.7463543 49.081167,20.3872234 C47.7617713,20.1178753 47.1020734,19.2649395 47.0078308,17.8284161 C46.866467,15.5838483 48.6570756,13.2494977 50.9188969,12.6659101 C51.8142012,12.4414533 52.7095054,12.4414533 53.5576884,12.6210187 Z M60.955729,14.8655866 C61.7096695,15.0900433 62.0395184,15.7185223 61.7096695,16.4816754 C61.4740631,17.3795025 61.1442141,18.2324383 60.8614865,19.1302654 C60.7807071,19.4765702 60.7345475,19.7898935 60.8120297,20.1550448 L60.8614865,20.3423321 L59.7305758,20.3423321 C59.3536056,20.3872234 59.0708779,20.3423321 59.1651205,19.8036358 C58.6939077,20.0729839 58.2698162,20.3423321 57.7514822,20.4321148 C56.7619353,20.6116802 56.0079949,20.2974407 55.7252672,19.5342876 C55.4425395,18.7262432 55.9137523,17.693742 56.7619353,17.3346112 C57.3745119,17.065263 57.9870885,17.0203717 58.5996651,16.9754803 C58.9295141,16.9754803 59.3064843,16.8856976 59.6363333,16.8856976 C60.0133035,16.8408062 60.107546,16.6163495 60.1546673,16.30211 C60.2017886,15.9878705 59.9661822,15.808305 59.6834545,15.7634137 C59.2122418,15.6287396 58.741029,15.7185223 58.41118,16.1225445 C58.2226949,16.3470013 58.0813311,16.3918927 57.8457247,16.3470013 C57.562997,16.30211 57.2331481,16.30211 56.9504204,16.30211 C56.6676928,16.30211 56.6205715,16.1674359 56.7619353,15.9429791 C57.044663,15.5838483 57.3745119,15.2696088 57.7986034,15.045152 C58.8352715,14.5513471 59.8719396,14.5064557 60.955729,14.8655866 Z M71.2281676,14.6860211 C72.2177144,14.7309125 72.7360485,15.3593915 72.5004421,16.2572186 C72.1234719,17.559068 71.6522591,18.8609173 71.2281676,20.1627666 C71.1810463,20.2525494 71.1810463,20.3872234 71.0868037,20.3872234 C70.5684697,20.3872234 70.0501356,20.4321148 69.5789229,20.3872234 C69.3433165,20.3423321 69.5318016,20.1178753 69.5789229,20.0280926 C69.9558931,18.9058087 70.3328633,17.8284161 70.7098335,16.7061322 C70.8040761,16.436784 70.9925612,16.1674359 70.6627122,15.8980878 C70.3328633,15.673631 70.0030144,15.7634137 69.7202867,15.8980878 C69.2019526,16.1225445 68.8721037,16.5265667 68.6836186,17.0203717 C68.2595271,17.9630902 67.9767994,18.9955914 67.6469505,19.9832012 C67.5527079,20.2974407 67.4113441,20.4321148 67.0343739,20.3872234 C66.6102824,20.3423321 66.2333121,20.3872234 65.7620994,20.3872234 C66.1390696,19.2649395 66.5160398,18.1875469 66.89301,17.1101544 C66.9872526,16.8856976 67.0343739,16.7061322 67.0814951,16.4816754 C67.222859,15.9878705 66.89301,15.673631 66.374676,15.808305 C65.7149781,15.9429791 65.2908866,16.3470013 65.0081589,16.930589 C64.5840674,17.9181988 64.2542185,18.9058087 63.9714908,19.9383099 C63.830127,20.2974407 63.6887631,20.4321148 63.2646716,20.4321148 C62.0866397,20.3872234 62.0866397,20.4321148 62.4164886,19.3547222 C62.8877014,17.9630902 63.3589142,16.5714581 63.830127,15.179826 C63.9243695,14.9104779 64.0657334,14.7758038 64.348461,14.8206952 C64.7254313,14.8655866 65.1024015,14.8206952 65.526493,14.8206952 C65.5736143,15.0002606 65.4793717,15.0900433 65.3851291,15.2247174 C65.4793717,15.3145001 65.5736143,15.2696088 65.6678568,15.2247174 C66.1861909,14.9104779 66.7516462,14.6860211 67.4113441,14.6860211 C68.071042,14.6860211 68.589376,14.9104779 68.8249824,15.5838483 C69.5318016,15.0002606 70.285742,14.6411298 71.2281676,14.6860211 Z M76.4115081,14.7758038 C75.8460528,16.3918927 75.3277187,18.0079815 74.7622634,19.579179 C74.6680209,19.8485271 74.7151421,20.2525494 74.4324145,20.3423321 C73.9612017,20.4321148 73.4428676,20.4321148 72.9716549,20.3872234 C72.6889272,20.3423321 72.8774123,20.1178753 72.9245336,19.9832012 C73.3957464,18.6364605 73.8198379,17.2897198 74.2910506,15.8980878 C74.6516308,14.8245988 74.6673082,14.7779254 75.7814261,14.7758961 L76.4115081,14.7758038 Z M81.9718189,14.6411298 C82.8200019,14.6860211 83.338336,15.2247174 83.2440934,16.0776532 C83.1027296,17.065263 82.6315168,17.9630902 82.3487891,18.9507 C82.3016678,19.0404827 82.3016678,19.1302654 82.2545466,19.2200482 C81.8304551,20.4321148 81.8304551,20.4321148 80.463938,20.3872234 C80.1340891,20.3872234 80.1340891,20.2974407 80.2283316,20.0280926 C80.6053018,18.9058087 80.9822721,17.7386334 81.3592423,16.6163495 C81.4534848,16.3918927 81.5006061,16.1225445 81.312121,15.9429791 C81.0765146,15.7185223 80.793787,15.7185223 80.5110593,15.808305 C79.7099976,16.0327618 79.1916635,16.5265667 78.9560571,17.2448285 L77.9665103,20.0729839 C77.8722677,20.2974407 77.8251465,20.3872234 77.5424188,20.3872234 L76.4586294,20.3872234 C76.1287805,20.3872234 76.1287805,20.2974407 76.223023,20.0280926 C76.7884783,18.3671124 77.3539337,16.7510235 77.8722677,15.0900433 C77.9665103,14.8206952 78.1078741,14.7309125 78.3906018,14.7758038 C78.6262082,14.8206952 78.8146933,14.7758038 79.0502997,14.7758038 C79.7099976,14.7758038 79.7099976,14.7758038 79.5215125,15.3145001 C79.7571188,15.3593915 79.8984827,15.179826 80.0398465,15.0900433 C80.6524231,14.7758038 81.2649997,14.5962384 81.9718189,14.6411298 Z M41.6426662,0.000167626432 C42,0.00234677004 42,0.0328547806 42,0.459966928 C41.2790518,4.23826669 40.5581036,8.04942124 39.8714863,11.8605758 C39.3908542,14.521813 38.9102221,17.1501955 38.4295899,19.7785779 C38.3685573,20.0414161 38.280399,20.1225391 38.0445568,20.1373215 L37.9489578,20.1399805 L21.7447891,20.1399805 C21.5731347,20.1399805 21.4358113,20.1728353 21.2641569,20.1728353 C21.1954952,20.1728353 21.1611643,20.20569 21.0925026,20.20569 C19.8565914,20.20569 18.6206803,20.2385448 17.3847691,20.1728353 C17.3161074,20.1399805 17.2474456,20.1071257 17.2131148,20.0414161 C17.2474456,19.318611 17.4534308,18.6286606 17.5564234,17.9387102 C17.7280777,17.0844859 17.8997321,16.1974068 18.0370555,15.3431825 C18.08283,15.0803443 18.1286045,14.8321082 18.174379,14.5887394 L18.2430407,14.22612 L20.474547,2.69409201 L20.5864402,2.07836908 C20.6389961,1.80741855 20.6938125,1.53863129 20.7448614,1.26623857 L20.8178557,0.854224295 L20.9208483,0.394257367 L20.9208483,0.328547806 C20.9818809,0.0657095611 21.0971648,0.0105459789 21.2908116,0.00153232173 L21.3671495,8.8817842e-14 L41.6426662,0.000167626432 Z M59.589212,17.8284161 C58.9766354,17.8284161 58.3640588,17.9181988 57.7986034,18.1426556 C57.4687545,18.2773297 57.1860268,18.5466778 57.3273907,18.9507 C57.4130657,19.2771826 57.7324,19.3810634 58.072976,19.3635251 L58.1755736,19.3547222 L58.340184,19.3229857 C59.0849096,19.1524118 59.5012523,18.6663881 59.589212,17.8284161 Z M86.6368254,16.1674359 C86.0242488,16.7061322 85.7415211,17.4243939 85.6472786,18.1875469 C85.6472786,18.5915692 85.7415211,18.9507 86.1184913,19.1751568 C86.5425828,19.3996136 86.9666743,19.3098309 87.3436446,19.0853741 C88.0395896,18.6709923 88.3340279,18.0271068 88.4863945,17.3302589 L88.5216765,17.1550457 L88.5384744,17.0205795 C88.5756696,16.5290607 88.3488985,16.0626894 88.0033424,15.8980878 C87.5792509,15.7185223 87.0609169,15.808305 86.6368254,16.1674359 Z M29.7438808,2.92407547 C25.9331547,3.5483163 22.8433768,6.43953699 22.0537669,10.0864176 C21.6761273,11.8605758 21.9164434,13.5690244 23.049362,15.0474895 C24.7315744,17.2487598 27.1004042,17.8730006 29.7782117,17.4458885 C32.1127106,17.0844859 33.9665774,15.9345686 35.4771355,14.22612 C35.9577676,13.6675887 36.5070614,13.1090574 36.610054,12.3205427 C36.6787158,11.827721 36.7817084,11.3020445 36.884701,10.8092228 C36.9152173,10.6047931 36.8643568,10.53016 36.683896,10.5160987 L36.610054,10.5135298 L30.1215204,10.5135298 C29.8812043,10.5135298 29.8125426,10.6120941 29.7782117,10.8092228 C29.6752191,11.4006089 29.5722265,11.9591401 29.4692339,12.5176714 C29.4082013,12.7221011 29.4556711,12.8226936 29.6598668,12.8425236 L29.7438808,12.8462192 L33.3142909,12.8462192 C33.4241497,12.8462192 33.5340084,12.8251921 33.6262898,12.8504246 L33.6919304,12.879074 L33.6919304,12.9447835 C33.6919304,12.9776383 33.6575996,13.0104931 33.6232687,13.0433479 C32.3530267,14.4232487 30.7738068,15.2446182 28.8169475,15.277473 C26.0704782,15.277473 24.079288,13.2404766 24.3882657,10.5463846 C24.6629127,8.04942124 26.6884338,5.9138605 29.2289179,5.28961967 C31.494755,4.7310884 33.7605922,5.51960314 34.6875255,7.45803519 C34.7424549,7.56317049 34.8193561,7.60522461 34.918229,7.61784084 L34.9965033,7.62230909 L37.125017,7.62230909 L37.2057482,7.61768889 C37.372843,7.59612794 37.3953726,7.49910366 37.3653331,7.32661607 C37.0563553,6.17669875 36.4727306,5.15820055 35.5457972,4.36968582 C33.8635848,2.95693025 31.8723945,2.56267288 29.7438808,2.92407547 Z M77.1183273,12.6659101 C77.1183273,12.7556928 77.071206,12.8005841 77.071206,12.8903669 C76.6942358,14.1473248 76.6942358,14.1473248 75.2805975,14.0126508 C75.0449911,14.0126508 74.9507485,13.9228681 75.0449911,13.7433026 L75.0449911,13.6984113 C75.4219613,12.531236 75.4690826,12.531236 77.1183273,12.6659101 Z M12.9328581,9.15309284 C13.4821743,10.4710328 13.9971582,11.7560242 14.5464744,13.0739641 L9.87728672,13.0739641 C10.9072546,11.7560242 11.9028902,10.5039813 12.9328581,9.15309284 Z M63.0761865,5.30372758 C63.500278,5.43840165 63.7830057,5.75264114 63.9714908,6.15666336 C64.0657334,6.4260115 64.0657334,6.56068557 63.6887631,6.60557692 C63.500278,6.60557692 63.3117929,6.65046828 63.1233078,6.69535964 C62.7463376,6.78514235 62.4164886,6.83003371 62.133761,6.4260115 C61.8510333,6.02198928 60.8614865,6.02198928 60.437395,6.29133743 C60.2960311,6.38112014 60.1546673,6.47090285 60.1546673,6.69535964 C60.1546673,6.91981642 60.3431524,7.00959913 60.4845163,7.05449049 L61.8981546,7.4585127 C62.5578525,7.68296948 63.2175504,7.90742627 63.3117929,8.71547069 C63.3589142,9.52351511 62.8877014,10.0622114 62.2280035,10.4662336 C61.6625482,10.8253645 61.0028503,10.9151472 60.2489099,10.9151472 C59.7776971,10.9151472 59.3064843,10.8702558 58.8352715,10.7355817 C58.4583013,10.6009077 58.0813311,10.4213422 57.8457247,10.1071027 C57.6572396,9.88264596 57.3745119,9.56840646 57.4687545,9.29905832 C57.562997,9.07460154 57.9870885,9.16438425 58.2226949,9.07460154 C58.3640588,9.02971018 58.5525439,9.02971018 58.741029,8.98481883 C58.9766354,8.93992747 59.0708779,8.98481883 59.2122418,9.20927561 C59.589212,9.8377546 60.7672439,10.01732 61.3798205,9.52351511 C61.7096695,9.25416697 61.6625482,8.93992747 61.2384567,8.8052534 C60.7201226,8.58079662 60.1546673,8.44612255 59.6363333,8.26655712 C59.1179992,8.08699169 58.6467864,7.81764355 58.5996651,7.23405592 C58.5054226,6.56068557 58.7881503,6.02198928 59.3536056,5.66285843 C60.5316375,4.94459672 61.803912,4.89970537 63.0761865,5.30372758 Z M72.8774123,5.21394486 C73.678474,5.43840165 74.008323,6.02198928 73.9140804,6.78514235 C73.7255953,7.59318677 73.3486251,8.40123119 73.1130187,9.20927561 C72.9716549,9.61329782 72.8774123,10.01732 72.9245336,10.4213422 C72.9669427,10.7041578 72.8566789,10.8051633 72.6280936,10.7898105 L72.5475634,10.7804731 L71.9349867,10.7804731 C71.463774,10.8253645 71.133925,10.7804731 71.2281676,10.1968855 C70.7569548,10.511125 70.3799846,10.7355817 69.9558931,10.8253645 C68.9663462,11.0947126 68.071042,10.7355817 67.7883143,9.97242867 C67.5055866,9.1194929 67.9767994,8.13188305 68.8721037,7.72786084 C69.5318016,7.4585127 70.285742,7.4585127 70.9925612,7.36872999 C71.2281676,7.32383863 71.5108952,7.27894727 71.7465016,7.27894727 C72.1234719,7.27894727 72.1705931,7.00959913 72.2177144,6.74025099 C72.2177144,6.4260115 72.0292293,6.24644607 71.7465016,6.20155471 C71.2281676,6.111772 70.7569548,6.15666336 70.4271059,6.60557692 C70.285742,6.78514235 70.1443782,6.78514235 69.9558931,6.78514235 C69.5318016,6.74025099 69.1077101,6.69535964 68.6364973,6.65046828 C68.919225,6.02198928 69.3904377,5.57307572 69.9558931,5.34861893 C70.8983186,4.94459672 71.8878655,4.89970537 72.8774123,5.21394486 Z M54.5214477,3.02307374 L54.6414778,3.05915974 L54.9229042,3.0597796 C55.8202224,3.06628805 55.8277048,3.14113526 55.9137523,4.00187823 C56.1022374,6.111772 56.19648,8.26655712 56.3849651,10.4213422 C56.4278026,10.7478248 56.3148673,10.8146054 56.0815621,10.7903215 L56.0079949,10.7804731 L55.3634223,10.7803422 C54.6884537,10.7781177 54.6859812,10.7380757 54.6414778,10.01732 C54.551723,9.1194929 54.547449,9.07673922 53.6924377,9.07470333 L51.5314735,9.07460154 C51.2958671,9.07460154 51.107382,9.1194929 51.0131394,9.34394968 C50.9188969,9.52351511 50.7304118,9.61329782 50.6832905,9.79286325 C50.3063203,10.7355817 49.5523798,11.0049299 48.6099543,10.8253645 C48.4685904,10.7804731 48.2801053,10.8702558 48.2329841,10.7355817 C48.1858628,10.645799 48.3272266,10.511125 48.4214692,10.4213422 C49.6937437,8.71547069 50.9660182,6.96470778 52.2382927,5.25883622 C52.5681416,4.7650313 52.9451118,4.31611773 53.2749608,3.82231281 C53.5828198,3.31952961 53.9727745,2.89495714 54.5214477,3.02307374 Z M67.5998292,5.25883622 C67.7883143,5.483293 67.4113441,5.97709793 67.3171015,6.38112014 C66.89301,7.59318677 66.4689185,8.8052534 66.0919483,10.01732 C65.8694312,10.7804731 65.8570691,10.8228705 65.141855,10.8252259 L65.0081589,10.8253645 C64.1128546,10.8253645 64.1128546,10.8253645 64.3955823,10.0622114 C64.9139164,8.53590526 65.4322504,7.05449049 65.9034632,5.52818436 C65.9977058,5.30372758 66.0919483,5.16905351 66.374676,5.16905351 C66.4806988,5.18027635 66.598502,5.17466493 66.718514,5.16414352 L66.9586471,5.14008715 C67.235621,5.11262757 67.4898795,5.10171647 67.5998292,5.25883622 Z M71.6522591,8.17677441 C70.9925612,8.26655712 70.3328633,8.31144848 69.7202867,8.58079662 C69.437559,8.76036204 69.2490739,8.98481883 69.3433165,9.34394968 C69.4270876,9.62327368 69.6597853,9.7252491 69.9421251,9.74446187 L70.0501356,9.74797189 L70.1968609,9.74238902 C70.9635384,9.68288719 71.4748613,9.14854024 71.6522591,8.17677441 Z M54.3116289,4.7650313 C53.7461735,5.5394072 53.1807182,6.26328033 52.5953836,7.01240484 L52.0026863,7.7727522 L53.6760916,7.7721287 C54.5465808,7.7652703 54.5393817,7.68296948 54.4529927,6.69535964 C54.4058714,6.06688064 54.4529927,5.43840165 54.3116289,4.7650313 Z M67.5998292,3.01426839 C68.4951335,3.05915974 68.4951335,3.01426839 68.2124058,3.82231281 C68.0350081,4.41382245 68.0245729,4.44861713 67.2775381,4.45066388 L66.9002667,4.45002865 C66.2912713,4.44316027 66.3464032,4.37447649 66.5160398,3.68763874 C66.6574036,3.05915974 67.0343739,3.01426839 67.5998292,3.01426839 Z"></path>
                        </g>
                    </g>
                </g>
            </g>
        </g>
    </g>
</svg>