<?xml version="1.0" encoding="UTF-8"?>
<svg width="168px" height="54px" viewBox="0 0 168 54" version="1.1" xmlns="http://www.w3.org/2000/svg" xmlns:xlink="http://www.w3.org/1999/xlink">
    <title>footer_pagcor_hover</title>
    <defs>
        <rect id="path-1" x="0" y="0" width="168" height="54"></rect>
    </defs>
    <g id="模版编号_首页" stroke="none" stroke-width="1" fill="none" fill-rule="evenodd">
        <g id="标准footer文件备份" transform="translate(-1136.000000, -164.000000)">
            <g id="pagcor" transform="translate(1136.000000, 164.000000)">
                <mask id="mask-2" fill="white">
                    <use xlink:href="#path-1"></use>
                </mask>
                <use id="矩形备份-4" fill="#878EA6" fill-rule="nonzero" opacity="0" xlink:href="#path-1"></use>
                <path d="M140.692,41.328 L140.692,44.532 L141.364,44.532 L141.364,45.336 L138.592,45.336 L138.592,45.936 C138.592,46.332 138.58,46.704 138.568,47.064 L138.568,47.064 L140.824,47.064 L140.824,52.032 L139.984,52.032 L139.984,47.868 L138.532,47.868 C138.388,49.8 138.052,51.276 137.512,52.296 L137.512,52.296 L136.876,51.744 C137.452,50.544 137.752,48.6 137.764,45.936 L137.764,45.936 L137.764,41.568 L138.592,41.568 L138.592,44.532 L139.864,44.532 L139.864,41.328 L140.692,41.328 Z M102.304,41.076 C102.82,41.844 103.228,42.672 103.54,43.548 C103.888,44.58 104.068,45.624 104.068,46.692 C104.068,47.736 103.888,48.78 103.54,49.812 C103.228,50.676 102.82,51.504 102.304,52.284 L102.304,52.284 L101.464,52.284 C101.944,51.48 102.316,50.652 102.604,49.8 C102.952,48.744 103.132,47.7 103.132,46.68 C103.132,45.648 102.952,44.616 102.604,43.56 C102.316,42.696 101.944,41.868 101.464,41.076 L101.464,41.076 Z M53.536,41.076 C53.056,41.868 52.672,42.696 52.396,43.56 C52.036,44.616 51.868,45.648 51.868,46.68 C51.868,47.7 52.036,48.744 52.396,49.8 C52.672,50.652 53.056,51.48 53.536,52.284 L53.536,52.284 L52.696,52.284 C52.168,51.504 51.76,50.676 51.46,49.812 C51.1,48.78 50.932,47.736 50.932,46.692 C50.932,45.624 51.1,44.58 51.46,43.548 C51.76,42.672 52.168,41.844 52.696,41.076 L52.696,41.076 Z M150.328,49.404 L151.096,49.608 C150.832,50.616 150.508,51.492 150.112,52.26 L150.112,52.26 L149.32,51.984 C149.704,51.3 150.04,50.436 150.328,49.404 L150.328,49.404 Z M37.888,49.788 C39.16,50.268 40.324,50.856 41.38,51.528 L41.38,51.528 L40.912,52.248 C39.784,51.48 38.632,50.88 37.456,50.448 L37.456,50.448 Z M134.272,46.788 L134.272,52.224 L133.432,52.224 L133.432,51.732 L127.672,51.732 L127.672,52.236 L126.844,52.236 L126.844,46.788 L134.272,46.788 Z M158.224,49.284 C158.908,50.22 159.436,51.048 159.796,51.744 L159.796,51.744 L159.1,52.236 C158.716,51.468 158.2,50.616 157.552,49.692 L157.552,49.692 Z M153.196,49.584 C153.412,50.34 153.604,51.156 153.772,52.032 L153.772,52.032 L152.944,52.224 C152.788,51.288 152.608,50.472 152.404,49.764 L152.404,49.764 Z M26.356,41.196 L26.356,42.24 L28.912,42.24 L28.912,44.088 L29.98,44.088 L29.98,44.844 L28.912,44.844 L28.912,46.68 L26.356,46.68 L26.356,47.7 L29.188,47.7 L29.188,48.468 L26.356,48.468 L26.356,49.584 L29.848,49.584 L29.848,50.376 L26.356,50.376 L26.356,52.224 L25.468,52.224 L25.468,50.376 L22.456,50.376 L22.456,49.584 L25.468,49.584 L25.468,48.468 L23.044,48.468 L23.044,47.7 L25.468,47.7 L25.468,46.68 L23.188,46.68 L23.188,45.912 L25.468,45.912 L25.468,44.844 L22.648,44.844 L22.648,44.088 L25.468,44.088 L25.468,43.008 L23.26,43.008 L23.26,42.24 L25.468,42.24 L25.468,41.196 L26.356,41.196 Z M14.296,44.016 L14.296,45.144 L17.668,45.144 L17.668,45.96 L14.296,45.96 L14.296,47.232 L17.308,47.232 L17.308,48.048 L14.296,48.048 L14.296,49.38 L17.716,49.38 L17.716,50.208 L14.296,50.208 L14.296,52.212 L13.42,52.212 L13.42,44.016 L14.296,44.016 Z M34.948,49.788 L35.56,50.316 C34.6,51.036 33.436,51.672 32.056,52.212 L32.056,52.212 L31.528,51.528 C32.872,51.024 34.012,50.448 34.948,49.788 L34.948,49.788 Z M11.62,44.028 L11.62,52.212 L10.744,52.212 L10.744,50.208 L7.228,50.208 L7.228,49.38 L10.744,49.38 L10.744,48.048 L7.696,48.048 L7.696,47.232 L10.744,47.232 L10.744,45.96 L7.312,45.96 L7.312,45.144 L10.744,45.144 L10.744,44.028 L11.62,44.028 Z M21.556,44.316 L22.312,44.652 C22.072,45.156 21.796,45.648 21.472,46.104 L21.472,46.104 L21.472,52.2 L20.632,52.2 L20.632,47.124 C20.224,47.556 19.768,47.952 19.288,48.324 L19.288,48.324 L19.036,47.496 C20.188,46.56 21.028,45.504 21.556,44.316 L21.556,44.316 Z M155.752,49.488 C156.076,50.256 156.364,51.096 156.604,52.008 L156.604,52.008 L155.776,52.2 C155.548,51.24 155.272,50.4 154.948,49.668 L154.948,49.668 Z M144.172,41.1 L145.036,41.208 C144.94,41.58 144.82,41.928 144.664,42.264 L144.664,42.264 L147.352,42.264 L147.352,47.34 L144.58,47.34 L144.436,47.628 C144.076,48.24 143.5,48.72 142.708,49.068 L142.708,49.068 L145.048,49.068 L145.048,47.82 L145.888,47.82 L145.888,49.068 L147.964,49.068 L147.964,49.896 L145.888,49.896 L145.888,52.164 L145.048,52.164 L145.048,49.896 L141.376,49.896 L141.376,49.068 L142.564,49.068 L142.216,48.516 C142.9,48.204 143.392,47.82 143.704,47.34 L143.704,47.34 L141.928,47.34 L141.928,42.264 L143.788,42.264 C143.956,41.88 144.088,41.496 144.172,41.1 L144.172,41.1 Z M122.632,47.688 L122.632,51.024 L123.916,51.024 L123.916,51.804 L113.056,51.804 L113.056,51.024 L114.4,51.024 L114.4,47.688 L122.632,47.688 Z M88.732,42.384 C89.18,42.384 89.58,42.456 89.932,42.6 C90.284,42.752 90.592,42.96 90.856,43.224 C91.24,43.6 91.484,44.04 91.588,44.544 C91.692,45.048 91.736,45.776 91.72,46.728 C91.736,47.68 91.692,48.408 91.588,48.912 C91.484,49.416 91.24,49.856 90.856,50.232 C90.592,50.496 90.284,50.7 89.932,50.844 C89.58,50.996 89.18,51.072 88.732,51.072 C88.284,51.072 87.884,50.996 87.532,50.844 C87.172,50.7 86.86,50.496 86.596,50.232 C86.212,49.856 85.968,49.416 85.864,48.912 C85.768,48.408 85.728,47.68 85.744,46.728 C85.728,45.776 85.768,45.048 85.864,44.544 C85.968,44.04 86.212,43.6 86.596,43.224 C86.86,42.96 87.172,42.752 87.532,42.6 C87.884,42.456 88.284,42.384 88.732,42.384 Z M81.088,42.384 C81.872,42.392 82.524,42.616 83.044,43.056 C83.556,43.496 83.892,44.12 84.052,44.928 L84.052,44.928 L83.116,44.928 C82.996,44.392 82.764,43.972 82.42,43.668 C82.068,43.364 81.624,43.208 81.088,43.2 C80.8,43.2 80.532,43.252 80.284,43.356 C80.036,43.452 79.812,43.6 79.612,43.8 C79.348,44.056 79.18,44.392 79.108,44.808 C79.036,45.232 79.004,45.872 79.012,46.728 C79.004,47.584 79.036,48.22 79.108,48.636 C79.18,49.06 79.348,49.4 79.612,49.656 C79.812,49.856 80.036,50.004 80.284,50.1 C80.532,50.204 80.8,50.256 81.088,50.256 C81.624,50.248 82.072,50.092 82.432,49.788 C82.784,49.484 83.02,49.064 83.14,48.528 L83.14,48.528 L84.052,48.528 C83.892,49.336 83.552,49.96 83.032,50.4 C82.512,50.84 81.864,51.064 81.088,51.072 C80.64,51.072 80.24,50.996 79.888,50.844 C79.528,50.7 79.216,50.496 78.952,50.232 C78.568,49.856 78.324,49.416 78.22,48.912 C78.124,48.408 78.084,47.68 78.1,46.728 C78.084,45.776 78.124,45.048 78.22,44.544 C78.324,44.04 78.568,43.6 78.952,43.224 C79.216,42.96 79.528,42.752 79.888,42.6 C80.24,42.456 80.64,42.384 81.088,42.384 Z M73.288,42.384 C74.104,42.4 74.772,42.64 75.292,43.104 C75.82,43.576 76.148,44.188 76.276,44.94 L76.276,44.94 L75.364,44.94 C75.236,44.388 74.992,43.96 74.632,43.656 C74.272,43.36 73.824,43.208 73.288,43.2 C72.992,43.2 72.72,43.252 72.472,43.356 C72.224,43.452 72.004,43.6 71.812,43.8 C71.548,44.056 71.38,44.392 71.308,44.808 C71.236,45.232 71.204,45.872 71.212,46.728 C71.204,47.584 71.236,48.22 71.308,48.636 C71.38,49.06 71.548,49.4 71.812,49.656 C72.004,49.856 72.224,50.004 72.472,50.1 C72.72,50.204 72.992,50.256 73.288,50.256 C73.6,50.256 73.9,50.192 74.188,50.064 C74.468,49.944 74.708,49.764 74.908,49.524 C75.084,49.308 75.208,49.076 75.28,48.828 C75.352,48.58 75.388,48.296 75.388,47.976 L75.388,47.976 L75.388,47.316 L73.288,47.316 L73.288,46.536 L76.3,46.536 L76.3,47.892 C76.308,48.372 76.256,48.784 76.144,49.128 C76.032,49.472 75.84,49.792 75.568,50.088 C75.264,50.416 74.92,50.664 74.536,50.832 C74.144,50.992 73.728,51.072 73.288,51.072 C72.84,51.072 72.44,50.996 72.088,50.844 C71.728,50.7 71.416,50.496 71.152,50.232 C70.768,49.856 70.524,49.416 70.42,48.912 C70.324,48.408 70.284,47.68 70.3,46.728 C70.284,45.776 70.324,45.048 70.42,44.544 C70.524,44.04 70.768,43.6 71.152,43.224 C71.416,42.96 71.728,42.752 72.088,42.6 C72.44,42.456 72.84,42.384 73.288,42.384 Z M133.432,50.292 L127.672,50.292 L127.672,51.06 L133.432,51.06 L133.432,50.292 Z M116.824,48.48 L115.228,48.48 L115.228,51.024 L116.824,51.024 L116.824,48.48 Z M119.332,48.48 L117.652,48.48 L117.652,51.024 L119.332,51.024 L119.332,48.48 Z M121.804,48.48 L120.16,48.48 L120.16,51.024 L121.804,51.024 L121.804,48.48 Z M66.112,42.456 L69.244,51 L68.272,51 L67.588,49.068 L63.856,49.068 L63.172,51 L62.2,51 L65.344,42.456 L66.112,42.456 Z M58.912,42.456 C59.696,42.464 60.328,42.692 60.808,43.14 C61.288,43.588 61.536,44.196 61.552,44.964 C61.536,45.732 61.288,46.344 60.808,46.8 C60.328,47.248 59.696,47.476 58.912,47.484 L58.912,47.484 L56.644,47.484 L56.644,51 L55.732,51 L55.732,42.456 Z M97.144,42.456 C97.904,42.464 98.512,42.676 98.968,43.092 C99.424,43.508 99.66,44.088 99.676,44.832 C99.668,45.456 99.496,45.964 99.16,46.356 C98.824,46.748 98.376,47.004 97.816,47.124 L97.816,47.124 L99.844,51 L98.776,51 L96.832,47.208 L94.78,47.208 L94.78,51 L93.868,51 L93.868,42.456 Z M88.732,43.2 C88.444,43.2 88.176,43.252 87.928,43.356 C87.68,43.452 87.456,43.6 87.256,43.8 C86.992,44.056 86.824,44.392 86.752,44.808 C86.68,45.232 86.648,45.872 86.656,46.728 C86.648,47.584 86.68,48.22 86.752,48.636 C86.824,49.06 86.992,49.4 87.256,49.656 C87.456,49.856 87.68,50.004 87.928,50.1 C88.176,50.204 88.444,50.256 88.732,50.256 C89.02,50.256 89.288,50.204 89.536,50.1 C89.784,50.004 90.008,49.856 90.208,49.656 C90.472,49.4 90.64,49.06 90.712,48.636 C90.784,48.22 90.816,47.584 90.808,46.728 C90.816,45.872 90.784,45.232 90.712,44.808 C90.64,44.392 90.472,44.056 90.208,43.8 C90.008,43.6 89.784,43.452 89.536,43.356 C89.288,43.252 89.02,43.2 88.732,43.2 Z M133.432,48.864 L127.672,48.864 L127.672,49.668 L133.432,49.668 L133.432,48.864 Z M39.244,43.5 L39.676,44.22 C38.056,44.568 36.22,44.808 34.18,44.952 L34.18,44.952 L34.18,45.864 L40.48,45.864 L40.48,46.656 L38.74,46.656 L38.74,48.552 L41.74,48.552 L41.74,49.38 L31.276,49.38 L31.276,48.552 L33.352,48.552 L33.352,44.256 C35.632,44.172 37.6,43.92 39.244,43.5 L39.244,43.5 Z M153.124,41.676 L153.124,48.852 L149.68,48.852 L149.68,41.676 L153.124,41.676 Z M159.124,45.708 L159.124,48.852 L154.084,48.852 L154.084,45.708 L159.124,45.708 Z M37.912,46.656 L34.18,46.656 L34.18,48.552 L37.912,48.552 L37.912,46.656 Z M65.74,43.764 L64.132,48.276 L67.324,48.276 L65.74,43.764 Z M133.432,47.46 L127.672,47.46 L127.672,48.24 L133.432,48.24 L133.432,47.46 Z M158.284,46.476 L154.936,46.476 L154.936,48.096 L158.284,48.096 L158.284,46.476 Z M152.296,45.636 L150.52,45.636 L150.52,48.084 L152.296,48.084 L152.296,45.636 Z M117.244,41.16 L117.244,47.088 L116.368,47.088 L116.368,41.16 L117.244,41.16 Z M121.012,44.28 C121.66,45.096 122.152,45.804 122.488,46.416 L122.488,46.416 L121.768,46.908 C121.408,46.248 120.928,45.516 120.316,44.712 L120.316,44.712 Z M58.84,43.272 L56.644,43.272 L56.644,46.668 L58.84,46.668 C59.384,46.668 59.816,46.524 60.136,46.236 C60.464,45.956 60.632,45.532 60.64,44.964 C60.632,44.396 60.464,43.972 60.136,43.692 C59.816,43.412 59.384,43.272 58.84,43.272 L58.84,43.272 Z M126.304,44.304 L127.024,44.448 C126.736,45.3 126.352,46.032 125.848,46.656 L125.848,46.656 L125.224,46.26 C125.704,45.672 126.064,45.024 126.304,44.304 L126.304,44.304 Z M114.736,41.748 L114.736,46.644 L113.884,46.644 L113.884,41.748 L114.736,41.748 Z M135.256,41.94 L135.256,42.66 C134.956,43.536 134.476,44.292 133.828,44.928 C134.368,45.288 135.04,45.612 135.856,45.9 L135.856,45.9 L135.472,46.608 C134.572,46.284 133.816,45.9 133.216,45.444 C132.616,45.876 131.908,46.248 131.104,46.536 L131.104,46.536 L130.732,45.816 C131.464,45.576 132.088,45.276 132.604,44.916 C131.968,44.268 131.548,43.536 131.344,42.696 L131.344,42.696 L130.792,42.696 L130.792,41.94 L135.256,41.94 Z M146.56,45.156 L145.024,45.156 C145,45.684 144.928,46.164 144.832,46.584 L144.832,46.584 L146.56,46.584 L146.56,45.156 Z M144.244,45.156 L142.708,45.156 L142.708,46.584 L144.028,46.584 C144.148,46.152 144.22,45.684 144.244,45.156 L144.244,45.156 Z M128.164,41.196 L128.164,41.784 L130.24,41.784 L130.24,42.456 L128.164,42.456 L128.164,43.212 L130.636,43.212 L130.636,43.932 L128.344,43.932 L128.344,46.476 L127.552,46.476 L127.552,43.932 L125.332,43.932 L125.332,43.212 L127.384,43.212 L127.384,41.196 L128.164,41.196 Z M97.06,43.272 L94.78,43.272 L94.78,46.404 L97.06,46.404 C97.564,46.404 97.972,46.276 98.284,46.02 C98.596,45.756 98.756,45.364 98.764,44.844 C98.756,44.324 98.596,43.932 98.284,43.668 C97.972,43.404 97.564,43.272 97.06,43.272 L97.06,43.272 Z M129.604,44.316 C129.916,44.844 130.192,45.408 130.42,46.008 L130.42,46.008 L129.796,46.296 C129.532,45.636 129.244,45.048 128.932,44.532 L128.932,44.532 Z M28.096,44.844 L26.356,44.844 L26.356,45.912 L28.096,45.912 L28.096,44.844 Z M119.476,41.1 L120.364,41.268 C120.268,41.748 120.16,42.192 120.04,42.624 L120.04,42.624 L123.616,42.624 L123.616,43.464 L119.752,43.464 C119.368,44.424 118.888,45.24 118.3,45.888 L118.3,45.888 L117.748,45.216 C118.6,44.196 119.176,42.828 119.476,41.1 L119.476,41.1 Z M159.376,41.676 C159.352,43.056 159.256,43.944 159.1,44.34 C158.92,44.88 158.488,45.156 157.804,45.18 C157.54,45.18 157.24,45.168 156.904,45.144 L156.904,45.144 L156.664,44.388 C157.072,44.412 157.42,44.436 157.708,44.436 C158.068,44.424 158.296,44.232 158.368,43.86 C158.44,43.632 158.476,43.176 158.5,42.48 L158.5,42.48 L156.4,42.48 C156.232,43.788 155.416,44.748 153.928,45.348 L153.928,45.348 L153.472,44.628 C154.72,44.172 155.416,43.464 155.572,42.48 L155.572,42.48 L153.856,42.48 L153.856,41.676 Z M21.448,41.16 L22.204,41.508 C21.604,42.816 20.62,43.968 19.264,44.976 L19.264,44.976 L19.012,44.136 C20.128,43.272 20.944,42.276 21.448,41.16 L21.448,41.16 Z M152.296,42.456 L150.52,42.456 L150.52,44.856 L152.296,44.856 L152.296,42.456 Z M134.38,42.696 L132.112,42.696 C132.256,43.344 132.616,43.92 133.192,44.448 C133.732,43.944 134.128,43.356 134.38,42.696 L134.38,42.696 Z M144.256,43.032 L142.708,43.032 L142.708,44.424 L144.256,44.424 L144.256,43.032 Z M146.56,43.032 L145.036,43.032 L145.036,44.424 L146.56,44.424 L146.56,43.032 Z M36.52,41.112 C36.664,41.4 36.796,41.712 36.94,42.072 L36.94,42.072 L41.368,42.072 L41.368,44.34 L40.492,44.34 L40.492,42.852 L32.5,42.852 L32.5,44.34 L31.624,44.34 L31.624,42.072 L36.016,42.072 C35.872,41.784 35.728,41.508 35.572,41.256 L35.572,41.256 Z M28.096,43.008 L26.356,43.008 L26.356,44.088 L28.096,44.088 L28.096,43.008 Z M10.78,41.208 L10.78,42.06 L14.224,42.06 L14.224,41.208 L15.1,41.208 L15.1,42.06 L17.764,42.06 L17.764,42.864 L15.1,42.864 L15.1,43.86 L14.224,43.86 L14.224,42.864 L10.78,42.864 L10.78,43.86 L9.904,43.86 L9.904,42.864 L7.228,42.864 L7.228,42.06 L9.904,42.06 L9.904,41.208 L10.78,41.208 Z M46.3648321,13.6674429 C46.5344099,13.7843928 46.5381939,14.0059675 46.5653824,14.1900062 C46.8423128,16.2177926 46.697541,18.301463 46.1431195,20.2718249 C45.3375547,23.1613996 43.6643399,25.7984464 41.4053107,27.7716096 C39.2121507,29.6999536 36.4565807,30.9822015 33.5640872,31.4 C33.1177191,27.9605503 32.6709305,24.5211006 32.2235813,21.0820711 C32.1865825,20.8005508 32.2085856,20.4957806 32.3683532,20.2527768 C32.512144,20.0248994 32.7830481,19.8845594 33.0529712,19.9065488 C33.5650682,19.9401632 33.8822209,20.4275715 33.9943384,20.882906 C34.3661484,22.0053457 34.7458065,23.1249841 35.1170559,24.2478439 L37.6892046,24.2509459 L42.8334085,24.2425216 C44.8337263,21.3684935 45.7054405,17.7273577 45.1807302,14.262137 C45.1260729,14.0482656 45.1913814,13.8038612 45.3770762,13.6738856 C45.6605935,13.4727597 46.0801936,13.4635157 46.3648321,13.6674429 Z M17.4611992,13.8208084 C17.5595824,13.9654902 17.5455677,14.1467277 17.5143149,14.3103176 C17.0036193,17.7604118 17.8798182,21.3777375 19.8648601,24.2405608 C22.4376783,24.2474237 25.0104966,24.252746 27.5833148,24.2507851 C27.9453145,23.159999 28.3127799,22.071594 28.6757606,20.9817883 C28.7532618,20.749429 28.8175893,20.5054447 28.9690882,20.3078203 C29.1528209,20.0506704 29.467591,19.8705535 29.7896487,19.9100503 C30.0353264,19.9342807 30.2574594,20.0931086 30.3719594,20.3092209 C30.4996333,20.5425606 30.5142086,20.8191788 30.4791719,21.0777293 C30.0342052,24.5185796 29.5923218,27.9595699 29.1474953,31.4 C25.8276936,30.9237965 22.6963896,29.2986821 20.3721921,26.8862913 C18.1647371,24.6145206 16.6654447,21.6577171 16.1801157,18.5249985 C15.9424264,17.0046489 15.9385023,15.4469032 16.1771726,13.9265536 C16.2127699,13.7065196 16.4305583,13.5754235 16.634332,13.5378875 C16.9300422,13.4824238 17.2867162,13.5549748 17.4611992,13.8208084 Z M113.665747,7.03885381 C114.189767,7.03801327 114.448794,7.27117907 114.46255,7.85300089 C114.49702,9.32545892 114.586677,10.7967402 114.659596,12.3898998 C112.117386,11.5875203 109.902979,11.6697251 108.241925,13.8667286 C107.288845,15.1275387 107.258351,17.1438261 108.16304,18.4478399 C109.872983,20.9126395 112.208369,20.8985185 114.844875,19.9455142 C114.759693,21.2046431 114.676831,22.3622349 114.603747,23.5208353 C114.479453,25.4945914 114.481774,25.4791254 112.506506,25.5268681 C109.424367,25.6016762 106.695718,24.7683648 104.727079,22.2329598 C102.49726,19.3610026 102.277509,16.0882759 103.464758,12.7874752 C104.64372,9.50953719 107.134555,7.62000319 110.538034,7.08894999 C111.559061,6.92975171 112.622016,7.04019867 113.665747,7.03885381 Z M125.949959,6.6 C130.982985,6.60908939 135.009272,10.8154723 134.99723,16.0520275 C134.984799,21.378477 130.986337,25.5383165 125.88576,25.5314359 C120.821891,25.5245383 116.872543,21.3858702 116.860111,16.0731988 C116.847902,10.7465813 120.835636,6.59060645 125.949959,6.6 Z M99.9713885,8.400898 C100.136547,8.51227629 100.339203,8.83144988 100.287539,8.95745696 C99.7563993,10.2526036 99.1764283,11.5279681 98.6134565,12.8013377 C97.7168348,12.4698626 96.9357073,12.0954986 96.1119152,11.8906955 C92.4112672,10.9709104 89.4782475,13.6355112 90.1125491,17.3377587 C90.55986,19.9475015 93.101066,21.2346688 95.7116019,20.5235101 C95.9179249,20.4673223 96.1407471,20.0487394 96.1542464,19.7879147 C96.2070771,18.7683878 96.2030773,17.7435413 96.1705789,16.7223521 C96.1537464,16.1958819 96.3044056,15.9721279 96.8648775,15.9882528 C97.94549,16.0191727 99.0279358,16.0093648 100.109382,15.989084 C100.572858,15.9802735 100.74135,16.1475071 100.738227,16.6172908 C100.722018,19.0486621 100.748683,21.4805322 100.707518,23.9112386 C100.703185,24.1710658 100.4062,24.5790096 100.160379,24.658138 C97.1091986,25.6419242 94.0060207,25.9132217 90.931508,24.8501409 C87.7491675,23.7494907 85.9692566,21.398079 85.5419447,18.1072662 C85.0768013,14.5240439 85.9259255,11.3517576 88.8581119,8.96527006 C91.7711327,6.59424247 96.8997091,6.3297606 99.9713885,8.400898 Z M143.838997,7.04809593 C144.683932,7.08079113 145.550339,7.33049432 146.350653,7.63322132 C149.241247,8.72656216 150.595457,12.2871196 149.130367,15.0382592 C148.766862,15.7207926 148.139996,16.3367497 147.493169,16.767547 C146.906562,17.1581953 146.927195,17.4297517 147.199279,17.9649026 C148.242657,20.0158907 149.250808,22.0855134 150.270031,24.1490376 C150.40255,24.4170365 150.524165,24.6906258 150.716066,25.1014333 C149.053204,25.1014333 147.528563,25.1344673 146.00862,25.0665359 C145.772769,25.0560327 145.488608,24.6172734 145.342837,24.3189509 C144.358002,22.3016744 143.405207,20.2684738 142.438824,18.2420494 C142.368539,18.0944975 142.27175,17.959651 142.007215,17.8173507 C141.985072,18.0614635 141.943807,18.3052375 141.943471,18.5493503 C141.939781,20.4626121 141.929045,22.3762127 141.954375,24.2891356 C141.962259,24.8895075 141.7925,25.1507302 141.147015,25.1271829 C140.16993,25.0918111 139.191235,25.1049027 138.180268,25.1115543 L137.415512,25.1144775 L137.415512,7.02082171 C139.569031,7.02082171 141.706614,6.96576503 143.838997,7.04809593 Z M74.8412028,7.0029188 L74.9912002,7.00853106 C76.1913476,7.08354716 77.4009317,6.99552151 78.6027643,7.05245941 C78.8685088,7.06513104 79.2732763,7.34221753 79.3544994,7.58483715 C81.2511097,13.2458492 83.1126695,18.918857 84.9755773,24.591189 C85.0171999,24.7177364 85.0000116,24.8633757 85.0193906,25.1206945 C83.5379955,25.1206945 82.0881123,25.1533028 80.6427789,25.0863966 C80.4188256,25.0760903 80.1227488,24.6425513 80.019619,24.3487383 C79.5098681,22.8940343 79.8502637,23.0969494 78.2369232,23.0743094 C76.8086096,23.0543727 75.3789479,23.1015112 73.9513084,23.0653548 C73.3350575,23.0499799 73.0757164,23.2976682 72.8868137,23.8626543 C72.4841165,25.0663875 72.6961124,25.1198049 71.7583643,25.120396 L71.3493683,25.1202849 L71.1855096,25.1213703 C70.0709666,25.1323524 68.9562552,25.1233978 67.6883657,25.1233978 C68.1330706,23.822105 68.5314347,22.6412773 68.9400779,21.4641666 C70.5037072,16.9632009 72.0882321,12.4696691 73.6184958,7.95755226 C73.836394,7.31502701 74.122894,7.03684344 74.7022136,7.0057591 L74.8412028,7.0029188 Z M31.32,6.668 L32.0350696,11.8832625 C32.6358797,11.1314212 33.2298227,10.3746779 33.8325948,9.62423719 C33.7506088,10.6171215 33.6532067,11.6086051 33.5684178,12.6014894 C34.6750183,11.8909658 35.7762933,11.1727389 36.8848559,10.4651565 C36.1710873,11.5691082 35.4561976,12.6716594 34.746213,13.7779921 C35.7880656,13.6552997 36.8297781,13.5335877 37.8710702,13.4089344 C37.0359343,14.0292595 36.1904276,14.636559 35.3587954,15.2623464 C36.559855,15.5203366 37.7648388,15.7615197 38.9644969,16.0269331 C37.728821,16.3409472 36.4819333,16.6116829 35.2437348,16.916033 C36.0837758,17.5237527 36.9257788,18.1285311 37.7618957,18.7421333 C36.6767376,18.6253234 35.5931212,18.4977288 34.5089441,18.3779777 C35.2252354,19.4487352 35.9659121,20.5031057 36.6777187,21.5763844 C35.6267564,20.9321091 34.5829417,20.2752284 33.5382862,19.6197483 C33.071877,19.3611978 32.4336477,19.5310904 32.1348543,19.9665365 C32.0331076,20.1071566 31.9784503,20.2760687 31.9550457,20.447642 C31.7446851,21.9932025 31.5302602,23.5379225 31.3207405,25.0834829 C31.0862746,23.5092103 30.8981973,21.9269542 30.6687767,20.351701 C30.5483905,19.6757722 29.6965771,19.2851453 29.1001116,19.6163868 L27.0027342,20.9300237 C26.6524446,21.1478323 26.301283,21.3641937 25.9484863,21.577785 L28.1363208,18.3779777 C27.0454167,18.4967484 25.9553535,18.6282646 24.8633282,18.7412929 C25.7063123,18.1339934 26.548876,17.5257135 27.3873753,16.9130917 C26.1473549,16.6195263 24.9067738,16.3273614 23.6670336,16.0322553 C24.8643093,15.7556371 26.0737777,15.5295806 27.2724548,15.2574443 C26.4475497,14.6399204 25.6103116,14.0380832 24.7883496,13.4171979 C25.8257176,13.5277051 26.860703,13.6592213 27.8976505,13.7779921 C27.1920105,12.6765615 26.4733367,11.5836745 25.7731624,10.4798628 C26.8768199,11.1756801 27.9643605,11.8978287 29.0640938,12.600509 C28.9793049,11.610566 28.8819027,10.6220235 28.8010379,9.6315203 C29.4095561,10.375098 29.9957909,11.1361832 30.5989835,11.8836827 C30.7803337,10.5524138 30.9621044,9.22100489 31.1433144,7.88959598 C31.1848913,7.61853349 31.2138862,7.34529229 31.2527225,7.07360731 L31.32,6.668 Z M55.9999337,7.00408881 C58.6797552,7.14808857 61.3266151,6.71357183 63.9247782,7.45119294 C66.2456669,8.11010089 67.5773786,9.67748281 67.8780076,12.0675766 C68.0015719,13.0514071 68.0062097,14.0899507 67.840077,15.0643826 C67.2959634,18.2510065 65.0855538,20.0082063 61.6206187,20.1426396 C60.476241,20.1869472 60.4765723,20.1869472 60.4759097,21.3589172 C60.4755785,22.3628875 60.5007551,23.3680326 60.4518925,24.3696533 C60.4414575,24.5831354 60.1655083,24.9555544 60.0011975,24.9615963 C58.9498741,25.0008019 57.8968545,24.9948942 56.8161034,24.9909629 L55.9999337,24.9891208 L55.9999337,7.00408881 Z M40.6831334,14.6243317 C40.8117883,14.7816189 40.8049211,14.9949301 40.8328103,15.1858317 C41.0437315,17.0392436 40.6937845,18.94966 39.8450544,20.6102095 C39.3123557,21.6606584 38.5830309,22.6101241 37.7083736,23.3990812 C37.6523148,23.4653295 37.5612192,23.4492226 37.48568,23.4527241 C36.800081,23.4521639 36.114482,23.4623882 35.4288829,23.4580464 C36.6787137,22.7197909 37.7473344,21.6708827 38.4689512,20.4095037 C39.3825694,18.8346708 39.761667,16.9531068 39.5049177,15.149276 C39.4781496,14.9919888 39.4747861,14.819155 39.5663021,14.6813361 C39.8002074,14.311298 40.4151723,14.2723613 40.6831334,14.6243317 Z M23.1559316,14.7086478 C23.2397395,14.8541699 23.2143729,15.027564 23.19251,15.1862518 C22.9244088,17.1273413 23.3981056,19.1527467 24.4710709,20.7893461 C25.1771313,21.8846141 26.1546565,22.7899609 27.2705068,23.4580464 C26.5668288,23.461828 25.8627304,23.4527241 25.1591925,23.4521639 C25.0952855,23.4600072 25.0372647,23.4352166 24.9935388,23.3898372 C23.7748207,22.2955497 22.8446652,20.8838865 22.3212162,19.3318833 C21.8378493,17.9123767 21.6971417,16.3780211 21.9163316,14.8946472 C21.9430996,14.6487022 22.1472938,14.4451952 22.3865247,14.3988354 C22.6715836,14.3351082 23.0117204,14.4422539 23.1559316,14.7086478 Z M20.8233253,14.1159145 C21.1225391,14.1797818 21.3457932,14.4890339 21.2755796,14.7947846 C20.9915016,16.6949765 21.2706744,18.6716412 22.0556377,20.42421 C22.5531594,21.5466497 23.2625834,22.5697868 24.1173399,23.450203 C23.5413358,23.4541247 22.9658923,23.4482422 22.3898882,23.4531443 C20.3954565,20.9949539 19.5048225,17.6825385 19.993515,14.5557024 C20.0588235,14.1914067 20.4920178,14.014231 20.8233253,14.1159145 Z M44.6218241,14.1856643 C44.9452833,16.1037839 44.8225146,18.0950148 44.267953,19.9600517 C43.9093168,21.1852952 43.3694707,22.352554 42.7190485,23.4497829 C42.1951791,23.4541247 41.6708893,23.4497829 41.1470199,23.4517953 C43.0039673,20.9330475 43.8197629,17.676656 43.3700313,14.5810532 C43.3441041,14.4349708 43.3391989,14.278664 43.4113746,14.1442066 C43.6257995,13.6752862 44.4721471,13.6646417 44.6218241,14.1856643 Z M42.7082572,14.552341 C43.0273719,16.6127614 42.7617934,18.7581981 41.9632359,20.6841611 C41.5528855,21.6771854 40.9988845,22.6087235 40.3303834,23.4497829 C39.7461106,23.4535645 39.1618379,23.4507633 38.5781257,23.4511835 C39.8279565,22.193306 40.7421352,20.6048872 41.196772,18.8906948 C41.5582111,17.5457 41.6319284,16.1266137 41.4224087,14.7499654 C41.3736375,14.4402931 41.6270233,14.1563918 41.9237144,14.1072308 C42.2453517,14.0254358 42.6472933,14.2045724 42.7082572,14.552341 Z M18.9195687,13.8325734 C19.2075707,13.9114271 19.4039166,14.2206793 19.3405702,14.5152251 C18.8747217,17.6304362 19.6909377,20.9111981 21.5547524,23.450203 C21.0304625,23.4511835 20.5061726,23.4541247 19.9818828,23.4488024 C19.1145131,21.9811153 18.450777,20.3817719 18.1326434,18.7027344 C17.8475844,17.2175398 17.8300661,15.6816435 18.0791072,14.1905664 C18.1629151,13.8364951 18.6106847,13.7269683 18.9195687,13.8325734 Z M125.912747,11.5490741 C123.518933,11.5462208 121.654471,13.472144 121.639552,15.9626372 C121.623461,18.625694 123.393049,20.5217084 125.901181,20.5289531 C128.356847,20.5359906 130.215778,18.638632 130.240921,16.0995791 C130.265897,13.5427153 128.372436,11.5519337 125.912747,11.5490741 Z M76.4683825,12.7717609 C76.382778,12.7737884 76.2971736,12.7759848 76.2115691,12.7781812 C75.757933,14.2953987 75.3044047,15.8127243 74.8362306,17.3788603 L74.4821234,18.5633753 L78.2463599,18.5633753 C77.6198297,16.5227347 77.0441904,14.6471634 76.4683825,12.7717609 Z M60.4794945,12.1753302 L60.4787255,12.3089188 L60.478063,13.4771965 C60.478063,13.9637412 60.4474204,14.4539781 60.4805475,14.9371661 C60.4851853,15.0059771 60.4911482,15.074956 60.4987675,15.1435993 C60.5212939,15.3466758 60.7545091,15.6538082 60.9357147,15.6902277 C62.07297,15.9196539 63.2460027,15.0576693 63.426877,13.9155734 C63.6431973,12.5500932 62.9140686,11.5112139 61.6133307,11.3311303 C60.5949154,11.1900202 60.4889574,11.2367079 60.4794945,12.1753302 Z M142.498374,10.9203588 C142.298589,10.9418733 141.981214,11.2591691 141.973162,11.4504276 C141.923342,12.6274545 141.922335,13.8085472 141.971149,14.9855742 C141.979033,15.1758162 142.304124,15.4912486 142.506761,15.5122548 C143.957929,15.6631948 145.011372,14.6889458 145.026804,13.2435811 C145.042908,11.7467172 143.994162,10.7580687 142.498374,10.9203588 Z M44.1949364,7.69823221 C44.4146868,8.08395703 44.6261686,8.4740237 44.8421351,8.8615693 C45.0569805,9.26144017 45.2278196,9.71523408 45.1660148,10.1763111 C45.0788434,10.7768877 44.5092861,11.2229783 43.9250133,11.2847447 C43.6403748,11.3163983 43.3533538,11.2204573 43.1375274,11.034878 C42.7233931,11.6427377 42.302812,12.2459755 41.8926018,12.8562162 C41.6703287,12.4871585 41.4706192,12.1047951 41.2575958,11.7302751 C41.6699082,11.1493069 42.0830615,10.5684787 42.4957944,9.98751042 C41.9315627,10.2987234 41.3687324,10.6117572 40.8040802,10.9214295 C40.6129197,10.5771624 40.4210585,10.2334555 40.2324207,9.88764775 C41.5548476,9.1615775 42.8729299,8.4262633 44.1949364,7.69823221 Z M19.6484731,8.23830298 C20.1304386,8.41505851 20.5972682,8.73593562 20.8048259,9.22152311 C21.0007513,9.672936 20.9124587,10.1988607 20.6873827,10.6225418 L20.5934219,10.8028351 C20.579672,10.8334719 20.5690052,10.8648453 20.5646139,10.8976193 C20.9081142,11.1030871 21.2610043,11.2930083 21.6137542,11.481949 C21.4211923,11.8232748 21.2244259,12.1627799 21.0383107,12.5076073 C19.7192474,11.7780355 18.4041081,11.0413207 17.0797191,10.3205727 C17.2585467,9.98596976 17.4436808,9.65486828 17.6248909,9.32222614 C17.8446413,8.92683719 18.1175075,8.5371907 18.5146841,8.30301063 C18.8558018,8.10286511 19.285072,8.09460158 19.6484731,8.23830298 Z M18.599473,9.81411633 C18.9201293,9.98554958 19.2339184,10.1695882 19.5526126,10.3449432 C19.6348789,10.1866755 19.7318606,10.0211248 19.7182663,9.83554548 L18.599473,9.81411633 Z M43.8962832,9.20639665 C43.5697407,9.39435696 43.2384332,9.57307333 42.9065652,9.75024904 C42.9962593,9.90417481 43.0804876,10.0785493 43.2451603,10.1652464 C43.5813729,10.3512458 44.0682435,10.0722466 44.0725881,9.68596157 C44.0774932,9.50920604 43.9765874,9.35584051 43.8962832,9.20639665 Z M21.9489858,4.0279639 C23.3093925,4.84941491 24.6796096,5.65391867 26.0440806,6.46808657 C25.7316929,6.74134333 25.4179039,7.01347961 25.1055162,7.28729661 C24.9524757,7.19373664 24.7995754,7.1007369 24.6461144,7.00871758 C24.2473963,7.35732654 23.8523219,7.70985718 23.4488388,8.05272368 C23.5096626,8.2207955 23.5769331,8.38634624 23.6437832,8.55231716 C23.3313956,8.81731039 23.0312008,9.09630961 22.7144686,9.35682092 C22.1238892,7.8730269 21.5313478,6.38965305 20.941329,4.90543884 C21.275019,4.61033275 21.6123528,4.31970856 21.9489858,4.0279639 Z M41.3317336,4.97462841 C41.463752,5.58570952 41.3506534,6.24567153 41.0095357,6.77201644 C40.5823677,7.47623735 39.7763824,7.92652976 38.9538598,7.93493335 C38.3656629,7.92947102 37.7868559,7.68114491 37.375104,7.26194578 C36.8473105,6.7501671 36.6314842,5.96457141 36.7678472,5.24872553 C36.9263534,4.2627042 37.7400468,3.40987979 38.7325677,3.24488929 C39.8747656,2.99460234 41.1163277,3.83075963 41.3317336,4.97462841 Z M22.3076219,5.54537229 C22.5200847,6.02591763 22.731987,6.50660302 22.9499155,6.98476734 C23.1812982,6.78182062 23.4146429,6.58069468 23.6471468,6.3790085 L22.3076219,5.54537229 Z M38.8612226,4.48708008 C38.2950288,4.61565502 37.8647776,5.21959308 37.9796981,5.79860049 C38.0534154,6.33811103 38.6088179,6.74764602 39.1458611,6.66823209 C39.6808022,6.61374881 40.1179206,6.12830137 40.1535179,5.59943539 C40.1767823,5.29060343 40.0603202,4.97322781 39.8367857,4.758376 C39.5853621,4.51004989 39.2047229,4.40234387 38.8612226,4.48708008 Z M29.5874167,1.16163911 C29.5138395,1.55072537 29.4392813,1.93925139 29.3692078,2.32889789 C28.9539523,2.21390875 28.4916074,2.1506017 28.0861622,2.33422016 C27.7027201,2.49738988 27.4355999,2.89081799 27.4200436,3.3062355 C27.4054683,3.69196032 27.5516416,4.11017903 27.8868732,4.32797209 C28.2655503,4.59674694 28.7985293,4.54842629 29.1752444,4.3010806 C29.090035,3.93538434 29.0076286,3.5692679 28.9248017,3.2030114 C29.3082439,3.11771495 29.690705,3.02919712 30.0747077,2.9448811 C30.2354563,3.64658093 30.4002691,4.34786059 30.5629798,5.04956043 C29.9778661,5.44943129 29.2779721,5.68165052 28.5720518,5.72688985 C27.9521817,5.76890781 27.3094676,5.55027438 26.8811785,5.09241874 C26.4454615,4.62882065 26.2418279,3.98314475 26.2276731,3.35539651 C26.2107153,2.57624358 26.6258307,1.80395358 27.2876047,1.39091709 C27.9653555,0.969336944 28.8394522,0.882079658 29.5874167,1.16163911 Z M35.3206895,1.19959533 C35.2797665,1.64610613 35.2402451,2.09219674 35.2003032,2.5388476 C34.9478985,2.39262512 34.6639607,2.28856065 34.3685309,2.29528352 C33.9943384,2.28856065 33.6132788,2.47161887 33.4120277,2.79151556 C33.158642,3.19614846 33.220587,3.77319504 33.5733369,4.1019155 C33.9392607,4.468172 34.5210108,4.51691283 34.9923251,4.34926119 C34.8977259,4.79927348 34.8042478,5.24970595 34.7116107,5.70013842 C34.0553024,5.75378134 33.3633967,5.58430893 32.8381259,5.17813537 C32.3819474,4.82210323 32.0832942,4.27334875 32.0360647,3.69672236 C31.9672525,2.92401218 32.2231609,2.08743471 32.8375653,1.5837795 C33.508589,1.00337149 34.504053,0.878718222 35.3206895,1.19959533 Z" id="形状结合" fill="#FFFFFF" mask="url(#mask-2)"></path>
            </g>
        </g>
    </g>
</svg>